/* XPM */
static char *_be7bb26d33144ada0cd94b358f7cefeAjW1TkGJYo3uji8C[] = {
/* columns rows colors chars-per-pixel */
"40 40 256 2 ",
"   c #74FE73",
".  c #F89A7C",
"X  c #FEA57A",
"o  c #FAB978",
"O  c #87FF7A",
"+  c #9BFE7D",
"@  c #97FC7B",
"#  c #96FC6A",
"$  c #B5FD65",
"%  c #A7FE7A",
"&  c #B8FE78",
"*  c #A1F36D",
"=  c #F6D366",
"-  c #FCC57C",
";  c #FCD878",
":  c #F8C86B",
">  c #CDFF75",
",  c #C2FF7B",
"<  c #C7FF78",
"1  c #DDFE72",
"2  c #DCFF7D",
"3  c #D6FC79",
"4  c #D3FF6D",
"5  c #EBE57C",
"6  c #F9E776",
"7  c #E3FF7B",
"8  c #ECFA78",
"9  c #FAF978",
"0  c #EFF86C",
"q  c #E0D269",
"w  c #BC78DB",
"e  c #BB7AFA",
"r  c #A37FFF",
"t  c #CD7CD7",
"y  c #E87EC8",
"u  c #C77BFA",
"i  c #DA7FF5",
"p  c #EF7BE8",
"a  c #76FF88",
"s  c #78FF95",
"d  c #69FA90",
"f  c #7DFFA6",
"g  c #7DFEB3",
"h  c #7BFFBE",
"j  c #7998F6",
"k  c #7295E6",
"l  c #7AA5FB",
"z  c #7BB6FB",
"x  c #74B0E3",
"c  c #7BFFC8",
"v  c #7CFFDA",
"b  c #5DC2FF",
"n  c #7CC5FB",
"m  c #78D7FF",
"M  c #70D1F1",
"N  c #7CE5E7",
"B  c #7CFAE5",
"V  c #78EAFF",
"C  c #79F9FD",
"Z  c #BA8FBD",
"A  c #FD948C",
"S  c #FD9885",
"D  c #FF8D96",
"F  c #F99C95",
"G  c #FD8D8C",
"H  c #FEA989",
"J  c #F9B788",
"K  c #ECA398",
"L  c #FBA796",
"P  c #FDBB95",
"I  c #EBBC8C",
"U  c #D595B7",
"Y  c #EE8FAA",
"T  c #EC99AC",
"R  c #FA98AA",
"E  c #FA8AB4",
"W  c #E799B6",
"Q  c #FA97B6",
"!  c #F589AF",
"~  c #D1ACB1",
"^  c #FCAAA7",
"/  c #FABAA9",
"(  c #E5A8B7",
")  c #FDA4B3",
"_  c #E2B6B3",
"`  c #EFB3AA",
"'  c #CFA596",
"]  c #84FE84",
"[  c #85FF8C",
"{  c #8CFE8D",
"}  c #8BFD83",
"|  c #94FD85",
" . c #9DFE84",
".. c #94FC8B",
"X. c #9BFC8B",
"o. c #98F589",
"O. c #85FF94",
"+. c #8DFE94",
"@. c #86FE9C",
"#. c #8CFD9C",
"$. c #8BF699",
"%. c #94FD93",
"&. c #9EFE92",
"*. c #93FC9B",
"=. c #96F699",
"-. c #97EE95",
";. c #A2FF84",
":. c #A9FE84",
">. c #A2FC8B",
",. c #ACF888",
"<. c #B4FD82",
"1. c #BBFF85",
"2. c #B3FE8D",
"3. c #BCFE8A",
"4. c #B7F488",
"5. c #ACFE95",
"6. c #ACFE9C",
"7. c #A4F895",
"8. c #B4FE94",
"9. c #B5FD9C",
"0. c #BBFB97",
"q. c #B5EA92",
"w. c #85FFA3",
"e. c #8BFDA3",
"r. c #85FDAB",
"t. c #8AFEAB",
"y. c #8CF6AD",
"u. c #93FDA3",
"i. c #9CFDA2",
"p. c #9EF5A9",
"a. c #83FFB3",
"s. c #8AFEB3",
"d. c #84FFBB",
"f. c #8DFBBC",
"g. c #93FBBB",
"h. c #99F7B7",
"j. c #AAFAA6",
"k. c #B7FCA5",
"l. c #A6EFAE",
"z. c #FFCC84",
"x. c #FECC8B",
"c. c #FCC588",
"v. c #EBDA8C",
"b. c #FED285",
"n. c #FED48B",
"m. c #F9D989",
"M. c #E8C594",
"N. c #FDC897",
"B. c #F9D798",
"V. c #EFD390",
"C. c #C4FE83",
"Z. c #C3FE8B",
"A. c #CCFE8C",
"S. c #CCFD85",
"D. c #D5FC83",
"F. c #D3FF8B",
"G. c #DAFC88",
"H. c #CDFF93",
"J. c #C4FE9B",
"K. c #C7FB96",
"L. c #D4FD92",
"P. c #DBFE93",
"I. c #DCFD9A",
"U. c #D6F799",
"Y. c #D3EB8E",
"T. c #FEE583",
"R. c #FDEB8B",
"E. c #F9E78A",
"W. c #E4FC8E",
"Q. c #EDFD8C",
"!. c #EAF986",
"~. c #F7FA87",
"^. c #E9E59A",
"/. c #F4ED94",
"(. c #FAE798",
"). c #E4FD93",
"_. c #EBFC93",
"`. c #E3FE99",
"'. c #EAF99A",
"]. c #F7F796",
"[. c #EDEF81",
"{. c #FCC9A6",
"}. c #EBC7B5",
"|. c #F8C7B8",
" X c #EBD7A8",
".X c #C7FAA3",
"XX c #D3F4A3",
"oX c #FDE9A9",
"OX c #E9FAA6",
"+X c #F7F6A3",
"@X c #ECEFAD",
"#X c #8D91DA",
"$X c #B290D2",
"%X c #9589E5",
"&X c #9A8AFB",
"*X c #899BFC",
"=X c #969CFC",
"-X c #9094F7",
";X c #AA86FB",
":X c #B889FC",
">X c #A596FD",
",X c #B58DEC",
"<X c #89A7FC",
"1X c #94A5FB",
"2X c #85B6FB",
"3X c #96B9FE",
"4X c #80AFE7",
"5X c #A3ACFD",
"6X c #CF8BC1",
"7X c #D899CB",
"8X c #C989D7",
"9X c #D586D5",
"0X c #D093CF",
"qX c #FD88C9",
"wX c #E78AD3",
"eX c #F989D8",
"rX c #EB93C7",
"tX c #D5A8C7",
"yX c #EBA8C9",
"uX c #C98AEA",
"iX c #D884E5",
"pX c #C786FC",
"aX c #D281FF",
"sX c #CA93E8",
"dX c #E888F9",
"fX c #EB8AE8",
"gX c #E6A6E2",
"hX c #84FEC4",
"jX c #84FDCC",
"kX c #89FCC5",
"lX c #96F9C8",
"zX c #9AECD8",
"xX c #8CFCD4",
"cX c #86FCD7",
"vX c #91F8D6",
"bX c #91EDD0",
"nX c #A6F4CE",
"mX c #89DCE4",
"MX c #86C7FB",
"NX c #93C9FF",
"BX c #87DCFC",
"VX c #90D1EE",
"CX c #A1C7FF",
"ZX c #ACDEFF",
"AX c #89E8E9",
"SX c #8DFCE3",
"DX c #85FEEC",
"FX c #88F7E8",
"GX c #95F9E5",
"HX c #87E9FA",
"JX c #96E8F7",
"KX c #88F7FA",
"LX c #94FAF7",
"PX c #9EE2EF",
"IX c #A6E2FF",
"UX c #A9EEF4",
/* pixels */
"cXFX5X,X0XW  X_.3 & $ & 4 2 Q.].~.9 9 9 m.M.~ $Xk 3XIXUXIXMXl -X:Xu u ;X=Xz N DX",
"C HX3X>X8X(  X'.C.<.<.C.3 !.Q.).L.L.].~.oX{._ $X#X1X3X3X1X#X,XsXtXyXgXsX,X%X3XIX",
"m 2X*X%XZ _ ^.W.Z.0.J.L.G.Q.Q.)..X9.Z.Y./.(.B.}.~ $X$X$X$XtX_ M.5 5 {.` 6Xw :X:X",
"=X=X:X8XT N.].~.P.XXI.'.Q.~.!.W.C.:.o.%...5.1.Y.m.I K K }.@XL.* Z.C.G.^.|.yX8Xw ",
"t t y Q J b.~.9 _.OX'.].~.8 2 S.* ..s.c v c y.,.D.~.].^.XXj.u.a.c jXl..X@X X~ ' ",
"Y R ) L c.T.6 3 I.I.Q.8 0 1 S.6.w.hXDXKXHXHXGXlXu.&.>.%.f.xXN m b b N bXj.Y.Y.^.",
"^.(.(.(.).L.J.5.6.8., > 4 & j.h.xXvXFXAXHXJXLXGXd.s d d d.LXHXz j l n BXbXh.XXI.",
"$ < <.&  .} s s f +.* $ $ :.y.bXzXlXlXg.f.f.h g r.u.>.X.p.nXVXx %X%Xj MXJXUXl.q.",
"hXkXjXxXvXvXGXvXSXGXxXkXg s a a s f w.r.e.*.X.X.+ 2.6.&.g.xXB M x k j <X2XCXZXZX",
"mXmXmXmXmXAXAXHXHXAXGXxXd.r.@.+.{ +.%.&.5.9.3.S.G.F.H.0.j.h.kXSXVX3Xj j j 1X3XCX",
"2X2X2Xz n m BXHXHXKXLXGXlXlXs.*. .+ :.1.L.).~.~.~.6 6 _..Xq.p.nXJXNX2Xl j j *X=X",
"<X<Xz MXn BXm HXKXKXKXDXxXlXy.$.>.;.<.A.).~.R.; : : ; R.'.U.9.l.nXPXBXn l l j *X",
"MXMXBXBXHXKXDXDXDXSXcXcXhXr.w.O.X.;.2.A._.].E.z.o o o V./.OX.X7.g.cXFXHXm MXMXMX",
"HXKXFXvXxXxXhXd.d.d.g a.a.r.@.@.{ >.8.H.).].E.x.c.P J o v.OX`.3.-.t.kXcXDXHXHXJX",
"jXjXkXs.e.e.*.*.i.u.#.e.e.w.w.#...2.Z.I._./.m.x.x.P P J V.E.~.G.<.&.*.s.jXcXxXvX",
"d.d.t.#.&.>.8.8.9.6.7.p.u.e.w.*.5.K.L.).Q.[.; - J H J x.b.6 6 ~.D.1.X.O.r.d.f.lX",
"d   ] 8.L.Q.~.9 8 2 , % O O O @ C.3 5 6 c.H R E Q L o : = = E.+X_.G.3.;.O [ #.t.",
"+.@ 4.'.B.N.N.P M.M.B./.!.W.P.'.+XB.M.J F ! qXeXwXQ K J o - N.V./.).A.2...[ @.t.",
"#.o.U.oX{.) wX8X9XrX) P x.B.(.oX|.Q Y Y 9Xi i dXp eXqXF L H L J n.E.'.J.>.+.w.t.",
"d O..X+X}.7X:Xr ;X:XW L J - n.{.R E y i aXpXpXaXdXfXqX! D A A H o z./.I.8.%.#.t.",
"d s J.@X}.0X;X&X&X;X6XL J ; E.B.L R 9XuXpXpXpXpXiXrXE D G S S X o x./.I.8.&.*.u.",
"#.&.U.oX/ U 8XpX,X8X( |.B.(.].+XB.` U 8X:XuXsX7X( ^ P {.N.n.x.b.z.E.].I.3.>.=.=.",
">.,.U.oX{.K T W ( _ }.@X`.L.S.F._.V._ 7X9XwXW ` N.E.~._.'.`.).)./.].).H.:.;.o.7.",
"@ X..X@X XM.M.I oX^..X5.| O   # !.E./ yXqXqX) P R.8 4 & % ;.>.3.L.W.A.1.%  .>.,.",
"-.7.<.S.1 7 7 F.k.l.bXFXFXB B GX-.K.'.6 = = = ~.S.8.#.@.w.e.=.o.>.>. . .{ { *.u.",
"r.$.&.<., > 3 H..Xl.PXmXM x MXUXnXj..XU.5 [.W.`.0.p.r.g d.d.s.u.o.| ..} [ { e.u.",
"c g O.X.:.& 1.8.l.nXzXVXx k 1XNXbXy.i.9.K.H.J.9.i.s.h c c jXhXs.$.{ { [ [ O.#.u.",
"h g O.X.:.1.<.8.-.h.zXVX4X<X3XNXSXg @.*.5.9.>.o.$.g h c c jXd.s.@.#.@.O.O.O.e.u.",
"@.+.&.2.Z.F.F.Z.5.j.f.cXAXHXHXHXvXa.w.%.X.>. .| +.e.a.a.s.y.u.*.*.*.#.+.[ { *.i.",
"o.,.Z.P.Q.Q.Q.).L.k.i.a.c B B v cXf.w.+.} @ +  .} { #.*.*...o.X.&.&.&...| | o.o.",
"& Z.'./.m.n.c.b.(.'..X7.e.a.hXc hXd.r.#.} O O | O { +.%...X. .:.8.8.2.:.% ;.,.4.",
"A.`.].(.N.X X X J (.@X.X7.$.e.a.jXxXkXr.O.[ ] ] ] [ +.+.....;.2.3.Z.3.1.<.& 3.Z.",
"oX(.n.c.H . G A J v.!.> % o.y.xXB KXKXKXDXcXa.@.] O ..5.J.K.A.3 1 1 Y..X0.1.& < ",
"(.b.- o . . A F J b.[.3 & ..s.cXLXKXBXMXVXmXbXlXr.*.8.H.G.8 8 ~.8 2 L.L.3 1 1 1 ",
"N.o X X S S A F H - T.!.Z.*.d.cXAXBX4X*X-X2XVXGXh.7.L.!.6 = ; T.Q.Q.Q.~.9 9 9 T.",
"R R Y Y Y R R F H z.T.~.A.7.t.hXv mXMXl z n AXlXl.K.B.P L S K N.(.].R.T.; c.{./ ",
"iXiXi dXfXfXyX^ P n.R.~.P.2.%.#.h.vXHXm V C d.X.F.v.^ qXp p wXtX/ N.x.P ^ Q wXfX",
"%X;X;XpXaXfXrX^ N.T.~.Q.G.Z.<.:.5.p.cXB B lXj.S.q ' 6Xu u u ;XsX7XQ Q Q wXiXu e ",
"M z *X;Xe t W N.R.8 2 F.F.G.D.D.& 4.X.5.9.XX X}.~ $X%X1X1X*X&Xr iXiXiX,X;X=X=X1X",
"C HXNX=X$X6X` B.~.1 > & S.P._./.P.F.4 8 9 m.) eXpX=Xm C C m 1X;XpXpX;X=Xj <X3XPX"
};
