/* XPM */
static char *_620149157529[] = {
/* columns rows colors chars-per-pixel */
"64 64 237 2 ",
"   c #0D0A05",
".  c #0C0C0A",
"X  c #070505",
"o  c #140D06",
"O  c #130E0B",
"+  c #15120C",
"@  c #1C140B",
"#  c #1C1A0D",
"$  c #181B08",
"%  c #1A1511",
"&  c #1C1B12",
"*  c #181816",
"=  c #2F0C08",
"-  c #3D0503",
";  c #3E0A05",
":  c #3E0D08",
">  c #350F06",
",  c #24160A",
"<  c #231B0D",
"1  c #2D1B0C",
"2  c #29170A",
"3  c #351308",
"4  c #3D160C",
"5  c #311D0E",
"6  c #3E1A0E",
"7  c #221D13",
"8  c #2A1D12",
"9  c #211B16",
"0  c #321F10",
"q  c #3B1D11",
"w  c #1D250C",
"e  c #1E2110",
"r  c #24220D",
"t  c #2B210D",
"y  c #232A0F",
"u  c #32200F",
"i  c #252413",
"p  c #2C2413",
"a  c #222912",
"s  c #2B2B14",
"d  c #23241A",
"f  c #2A241A",
"g  c #262B1B",
"h  c #2C2C1B",
"j  c #342313",
"k  c #3A2515",
"l  c #332B15",
"z  c #3A2718",
"x  c #332C1B",
"c  c #3C2B1B",
"v  c #382818",
"b  c #2A3116",
"n  c #2D331C",
"m  c #2F381D",
"M  c #34331D",
"N  c #3A341D",
"B  c #35391E",
"V  c #3C391E",
"C  c #313117",
"Z  c #2B2D23",
"A  c #262622",
"S  c #322D22",
"D  c #3F2F20",
"F  c #2C3122",
"G  c #343422",
"H  c #3B3523",
"J  c #343B23",
"K  c #3B3C25",
"L  c #363B2A",
"P  c #3C3D2A",
"I  c #36362B",
"U  c #3B3D33",
"Y  c #3A3A36",
"T  c #420001",
"R  c #420907",
"E  c #440D0A",
"W  c #43130C",
"Q  c #46180F",
"!  c #451711",
"~  c #441C13",
"^  c #4B1C14",
"/  c #481712",
"(  c #501E17",
")  c #432114",
"_  c #452419",
"`  c #4C261C",
"'  c #432C1C",
"]  c #4E2A1E",
"[  c #4A2317",
"{  c #45321E",
"}  c #502A1F",
"|  c #432D20",
" . c #4D2E21",
".. c #532D21",
"X. c #443423",
"o. c #4B3523",
"O. c #433B26",
"+. c #4C3A24",
"@. c #443D2A",
"#. c #4B3D2A",
"$. c #4A3728",
"%. c #523D2C",
"&. c #523528",
"*. c #483C32",
"=. c #1F4317",
"-. c #374025",
";. c #3B4226",
":. c #3D442A",
">. c #3F482C",
",. c #3E4232",
"<. c #3F403A",
"1. c #43442C",
"2. c #4B432D",
"3. c #434A2E",
"4. c #4A482E",
"5. c #434227",
"6. c #54422C",
"7. c #5B422A",
"8. c #5A462B",
"9. c #444532",
"0. c #4C4432",
"q. c #454B32",
"w. c #4B4D33",
"e. c #474B3A",
"r. c #4B4D3B",
"t. c #404339",
"y. c #524532",
"u. c #5D4534",
"i. c #524C36",
"p. c #5C4A35",
"a. c #534E3A",
"s. c #5A4D3A",
"d. c #475035",
"f. c #4B5236",
"g. c #4E5439",
"h. c #4C573A",
"j. c #525137",
"k. c #53553B",
"l. c #5B543C",
"z. c #545A3E",
"x. c #5A593E",
"c. c #66482D",
"v. c #744D29",
"b. c #614D3A",
"n. c #654C33",
"m. c #64533D",
"M. c #6C543D",
"N. c #68563A",
"B. c #745334",
"V. c #75553C",
"C. c #785B3C",
"Z. c #714E30",
"A. c #494B41",
"S. c #564E44",
"D. c #4E5242",
"F. c #535743",
"G. c #5B5642",
"H. c #565C41",
"J. c #5A5D43",
"K. c #57594C",
"L. c #5B5D52",
"P. c #6B5541",
"I. c #625C44",
"U. c #6C5C45",
"Y. c #635D4B",
"T. c #645545",
"R. c #745C44",
"E. c #7B5E43",
"W. c #785E4A",
"Q. c #745540",
"!. c #576043",
"~. c #5B6245",
"^. c #5E6449",
"/. c #5F684B",
"(. c #636146",
"). c #63654A",
"_. c #6B654C",
"`. c #64694D",
"'. c #6B6A4E",
"]. c #73644C",
"[. c #7B634B",
"{. c #736A4E",
"}. c #776547",
"|. c #666350",
" X c #676C50",
".X c #6B6D52",
"XX c #6C6853",
"oX c #7D6651",
"OX c #746D53",
"+X c #7B6C55",
"@X c #776F58",
"#X c #6D7156",
"$X c #6F7359",
"%X c #747155",
"&X c #7C7256",
"*X c #73755A",
"=X c #7B745A",
"-X c #75795E",
";X c #7D795D",
":X c #7C7D62",
">X c #757865",
",X c #805E43",
"<X c #866A4F",
"1X c #846A54",
"2X c #856D58",
"3X c #83755D",
"4X c #8D745C",
"5X c #837A5E",
"6X c #827155",
"7X c #90775B",
"8X c #837C62",
"9X c #8B7C63",
"0X c #867864",
"qX c #937B63",
"wX c #957F68",
"eX c #7C8167",
"rX c #858064",
"tX c #8C8267",
"yX c #8C846B",
"uX c #8B876B",
"iX c #93846B",
"pX c #9B846C",
"aX c #95896E",
"sX c #998569",
"dX c #9C8B73",
"fX c #9D8D7D",
"gX c #868573",
"hX c #A1886F",
"jX c #A48C74",
"kX c #A78E78",
"lX c #A39178",
"zX c #AB937B",
"xX c #A99177",
"cX c #B39B83",
"vX c #B19780",
"bX c #A99682",
"nX c #BDA48C",
/* pixels */
"R @.j.w.<.>.3.9.e.h.f.z.z.z.!.x.z.w.z.k.k.z.k.z.h.q.g.d.f.e.,.D.U Y Y Y f.w.e.d.g.,.e.F.9.h.:.d.w.<.>.D.<.h.j.k.z.z.k.z.9.$.X.) ",
"T T R ' Y S ;.N n k.3.-X:X'.eX$XOX XJ.*Xz.). X~.z.q.z.d.1.N K f H Z + . K g   n H G P x K.e.S I k.k.f H.;.~.z.3.~. X).{ R T T t ",
"5 T ~ T R M 9.9.w.d.3.^.).*X#Xh.4.w.d.I.`.`.$Xx.g.z.4.3.d d f g.U <.A F F X O K.K.1.A.t.A Z ~.Z ,.C A f.g.k.3.J !.M W T 4 : ; s ",
"l > 5 s R ; j H f.f.k.f.g.~.'.!.`.-.-.f.f.`.!.4.3.k.f.B d % p K `.g.d.d J 3.,.3.H.>XH.9.h D.~.q.w.P f a B p =.h V 3 4 X.O.3 u r ",
"t u 5 v +.X.j j X.6.9.G.1.OXXXU.I.z.~.-Xk.).>.4.). X.X'.d.d d g.3.x <.e.f.{.#X`.z.J  Xw.9.w.t.k.l.y q.9.4.1.6.z j X.o.#.v 1 l < ",
"m s 5 c 2.1.i.c z p.qXaX&X3X9XOXU.%XOXOXk.-.K J. XI.s.%.$.c 4 T T : l ' #.s.m.).^.y.f.g.#.l._..X~.3X7X&XtX<X7.6.u.p.4.#.j c C l ",
"n h l j b.x.x.T.b.{ o.{. Xw.XX4XtXtXjXK 3.-.s.y.' c c c #.#.K X.$.K O.1.c c c z 2.s.9.g.N &XxX;XqX+X~.w.m.{ 7.1Xm.m.x.o.j $.p r ",
"-.:.M 5 l s :.w.I._.M.7.1X0X:X(.^.).%Xi.l.N +.+.X.w.H.J.J.z.1.s.J.y.9. Xl.(.w.1.+.+.{ y.j.(.$X^.H.=X_.oX%.<X;XG.k.3.n 5 N J m i ",
"t l n l 5 q.3.w.f.z.#XV +.B.1XjXzXOX'.8.6.2.x.~.!.!.{.^.*X2.#X!.z.*Xw.).^.%X~.~.!.x.k.%.%.U.F.zXkX].Z.8.2.).~.F.d.f.N 0 m J b t ",
">.4.h n j j >.n k.#X*X`.).l.o.i.~._.c.b.J.)..X-X-X*X=X%X^.^..X#X*X`.XXJ.OXOX;X*X-X X#X(.x.b.V.l.u.+.l.^.^.-X#X~.B B 5 s M a B d ",
"n :.-.m x j ;.C 3.^.3.!.).*XI.%.n.V.[.;X X%X=X=X3X=X*X#X). Xx. X#XJ.^.$X).$X:X=X=X&X8X^.;X&XM.P.i._.#X#XJ.g.H.f.B s j :.B s h < ",
"n J J B s 1 l J 3.^.l.9.f.s k.l.U.c.R.;X;X;X3X9X=X4X#XH..X X*X+X6X*X#X#XJ.).5X2X8X7X;X5X%XZ.Z.OXU.w.:.P q.w.(.k.-.1 p n n s r @ ",
"J 3.C s l t 1 p 1.g.~.J.w.y.X.+X3X1XP.M.1X4XwX9X4X=X~.).*X-X=XsXqX9X-X*X*XH.'.8X9XqX7X<Xb.].:XqX=Xb.' j.J.!.z.1.l 1 c s y t i , ",
":.`.h.1.b s 5 u M 4.J j.j.| _.`.qX7X4XU.Z.,X4XqX-X/.).*X0X9XdXkXpXjXiX0X&X X).^.qX9XC.v.R.4X4XqX%X'.$.#.z.3.K ;.5 t s l p n I & ",
"J .X'.H.y.b t 1 G *.h 1.{ 0.9.iX).OX9XjXqX[.B.k. X#X6X7XqXhXjXkXxXjXzXqXqX4X&X Xa.7.E.pXdX0X&X&XaX:.x.5 y.h @.z 3 C s s L >.f # ",
"g J.r.g.!.L.3.1 u G 9.p j y.M 8X.X6XqX7XjXqX5.%.l.%X4XqXsXzXwXcXvXpXkXjXqX2X2XT.u.1.+XjXwX7XjX(.Y.U.@.l 5 L 5.1 t 9.s ,.l ,.H r ",
"Z g.H.~.).F.K = T K v 1 J.3.O.J s.pX3XjXsXI.g.).M.m.].hXjXhXzXzXkXvXwXzXsX].m.P.`.~.a.3XkXqXaXOXO.H 5.k.c 5 q R 9.9.3.g.;.B N b ",
"Z H.J. XF.U ;.f T R 3 l ;.).4.3.;XjX9XzX&Xw.J..X8XW.Z.B.kXpXzXkXzXzXzX9XE.v.C.5X;X/.z.g.kXxX9X9Xz.w.).K O.1 - _ /.z.k.q.3.x 8 a ",
"J z.z.).).F.~.F.W T W F H ~.9.#X5XqXqXhX9.z.^.*X*XiX<XW.V.qXzXxXxXxX4XB.1X1XjXOX*X`./.P 9XqX4X8XrXk.H.r.@ 4 T %.#X).Y.z.k.P 9 d ",
"J z.^.^.U D.1.H.W - _ :.2.k.z.(.#X(.tX).d.k.#X_.9X3X6XxXE.W.oXjXqX<X<X4XpXjXY.jXI.;XH.q.l.tX:XH.).e.).#.J T T T H. X`.~.z.w.K a ",
"F d.^..Xz.9.z.5.T T T 0.M 5XM ;.P +X'.s.`.%Xk.'.lXf.cXtX0X4X[.W.W.<XjXwX9XcX~.%XdX;.%X XJ.a.aXc h.y ;Xw.= T %.T )  XH.^.k.f.;.b ",
"n F.*X^.`.K.z./ T 6.T ` J x.9.L l.'.J.tX5X`.+XzX4._.cX*XqX4XE.1XoXE.7X0X9XkX;.tXzX~.OX%X;XX.a._.O.i ;Xw.- ] #XW T l.).~.f.z.d.F ",
"J ~. X~.^.~.s.T ~  X^ 3 n 1.q.q.4.!.-X5X7XiX:XnXk.3XcX*XQ.[.7XjXpXC.V.b.pXOXjXqX2XiXrX~.G.r.0.x.k.K /.8 T G._.N T o.^.d.3.k.j.B ",
"K J.J.~.!.z.5.T ' '._.- ' f.K 1.x.k.tX*X5X`.*XtXzX3XsXR.Q.6XxXqXiXqXoXc.].+XzX;X).=X`.x.x O.gXK.$X`.~.8 [ z.q.N - ~ 9.J d.V K m ",
"g K d.z.M z.W T k.d.).' 1 k.M l.k.k.'.^.*X*X9XiX9XZ.E.4XaX}.dX9XU.wX{.qX,Xm.W.9XdX8X).x.h.#..Xl.g.J x - l.g.l.z.! T M :.5.q.z.b ",
"< Z f.k.f.l.- : (.^.3.n 1 p :.f.q.9Xb :.G H l.2XV.p.4XjXkXzX'.OXx.3XkX9X4XU.V.,XoXP b K H 3.XX,.G h , [ J.z.J.*X#.T ' :.,.9.z.n ",
"+ & g J k.4.T ) J.h.:.i 8 1 G g.h.3XJ.G g 7 j b.}.OX~.hXkXkX.XtXI.+XpX7XJ.5XqXM.X.j 9 P x 9.~.K K p - k.~.H.H.OX9.T ~ 9.g.3.g.n ",
"% * * & :.N T } d.q.k.;.v T , `.).G.d i.f $.y.@.:XiXK _.8X'.x.].F.`.3X#X0.&X$X@.K u.f k.& ,.@.g.O.T ` '.~.^.z.).g.; ~ z.D.:.g.m ",
"< x * i @.! T 5.k.k.`.!.k.5 , ;.).H.7 $.m.l >X3.^. X1.1.~.z.k.k.x ).$XG.N ~.H.p .XG.X.P.@ 3Xs V ! T k.].'.J.(.H.3.: ; i.~.~.w.G ",
"g z.C z.g : T a.j.d.^.M g K 0 < lXX.c.l bXK.S.H K q.G S H *.I 9.+ e.z.x x q.F w.).U lXG.{ ' K d j x J.).`.J.~.*X>.W T k.I.J.h.F ",
"s f.:.~.1.E T w.>.q.k.i n z.2.1 c.c I.0.).#X{.i d b & F.S 8 7 G @ s i 1.7 l @ x.9.5X).w.1.#.v 5 j n x./.~.!.~.`.>.W T I.).J.:.n ",
"-.H.F.~.z.W T 9.>.d.B g 4.^.4.1 %.9. XK )._.q.9.I h Y.9.l.K A x.G #.e.w.H J J %X1.).T.C `.=Xr.1 k C 3.!.~.~.`.k.d.W T I.`.).w.a ",
"-.z.!.`.H.W T j.q.M p $ 2.X.X.X.c x.3XH ).&XaXr.S 9.k.#XyXw.P :XH %XeX X_.x 1.J.kXx.P 1.s.aXH j y.| < 4.!.J. Xj.j.W T _.].G.H.b ",
"-.~.~.~.).^ T k.d.n -.3 1 { ).H.z 6.H ).k.`.cX1.x x K (.kXJ.1.^.J 8X8X`.I i yXJ.3XzXXXw.aX&X2 s.;Xh > T ' J.#Xh.3.^ T _.*X/.f.n ",
":. X X).).^ T i.d.O.R T c w.).3.O.' F.k.aX@.aXr.:.I @ _.9XjXd.%Xk.iXjXG.G 9.9.9.;X;XjX=X8Xv v iX_.i p q T Q i.j.:.W T J.`.$XJ.J ",
"J #X'.F. Xw.T _ 4 T : j.).i M N J ' @.s.I.H F a.G.).+ G.qXkX!._.*XkXfXK w.8X*.M ).~.'.F.|.j X.aX@ f.;.C c R ; ' f.: 4 g.k.H.h.L ",
"g H.r.g.-X@.T T W 2.'.-X-X-.y f.9.z M.O.a.~.).k.Y.^.* F.3XjX.X`.*XlX:Xq.J |.d %XP I.$X;.O.j G J h k.>.s n 1.' T R T ~ h.z.^.).-.",
"F g.J.~.(.) T W l.).#X*XeX;Xx.>.J P j i U.L c ].I $XZ @.OXiX2X(.qXvXJ.H &Xz.a.P ~.+ yXz.' o.h.>.;.:.m G s f.3.' E T E x.z.z.g.;.",
"Z z.!.2.R - ; T g.^. X#XeX%X^. X< 9.l z < >.9.H.g.&XZ . '.7X_.OX:XiXJ.  gX~.l.M >.@ G 0.c G w.q.k.G m d.f.~.3.k.Q T T E %.h.z.-.",
"J q.W T W h v - O.J.`.#X#X#X`.`.s G.& ' @ d h r. X8XZ . # +X5XY.lXOXo X &X^.l.d p N J 5 #.J f.q.w.:.f.d.~.g.k.g.R W 4.R T ~ w.b ",
"0 R T ! w.G O.T Q 3.f.~.f.w.w.h.G 4.I p 2 @ # |  XdXH & o 3.+XU yX:.9 O 9X$XK x h 9 8 0 H.# 2.2.O.@.2.y.G.y.2.$.T ~ @.X.k T R u ",
"T T T T T T T T T T T T T - T T , l 5 5 5 @ o + b.R.%., 1 5 z , $.j 1 k R.b., j , 8 1 5 1 1 T T T T T T T T T T T T T T T T T T ",
"j ] ........` ` T ^ ` [ ' ' | r y.M m.< # 2 o < y.{.wX# X.X.P # ].f p s.%Xa.M o   1 1 2.y.N < ) ] ` ` ` ` ~ _ T W ` [ _ ] ] ..6 ",
"K ~. X~.#X`.z.).R W x.h.s M J n ).k.P 1.. 2 , 2.F 3XdXG U K a.+ :XH n OX9XP t.f . , x =X).i.1.J ~.~.~.~.f.3. .T i.J.k.k.~.J.~.;.",
"-.!.z.x.).(.k.z.$.T y.q.n l i j.8X#Xe.P .   2 N x #XdXN k.@.9.a ).q.G yX*Xh f.s + @ ;.%X;Xk.k.K ).).).).f.:.R /  X'.z.^.H.g.g.J ",
"-.k.k.~.^.`.z.z.z.! T V :.J s x.aX0.`.x X o , , x.X.).fXx J g.O.I.d aXg.1.z.J d o o G. XOXJ.z.H #X-X*X*Xg.W T j.`.f.w.`./.q.>.b ",
"J j.3.k.z.h.w.w.k.k.R : :.>.M w.XX=X'.P o O @ , OXh r.8XJ.J.F.f.).0XI.9Xq.G.# + o d `.>X Xy.d.;.#XeXeX#Xo.T u.=X*Xi.4.#X1.>.z.b ",
";.z.;.3.I.k.k.!.q.q.x T | f.t.1.M '.*XJ.d Z + ' f h p #XF.H. X9. Xk.x.XXI h * | o q.%XrXw.;.k. X#XeX;Xf.R ^ %X*Xk.w.K d.e.w.h.F ",
"-.x.1.x.(.).~.z.f.).C ' T &. Xq.J F lX).K 0X% #.j g.@ 9.< ^.#Xf $XH *X* P Y.9 4X7 I.8XiX@ J ~. X'.-XI.R ^ '.-Xz.h.5.d.d.z.>.k.m ",
"J l.a.k.(.{.).d.~.I.q.9./ T s..Xk.+ 3X;XF zXd f o.'.f 0X% H.K i *.f I.# (.e., dXd ).aXT.# N h.).`.~.! T j.~.~.k.3.>.!.>.4.k.f.m ",
"n 5.4.z.`.!.>.J H.h.4.z.G.W T u.'.d.x zX4.nXM F 8 1 U.OXh.5X:Xg.eXP ;Xa.H O.l cXw.).cX$ h.M q.~.I.R T s.).z.f.F.f.k.j.9.^. X5.b ",
"s I 3.f.1.h.3.K q.3.w.x.*XG.` T %.J.< nX;.*Xi.g r.j #.r.(.yX$XXX8Xq.OXZ w.1 P.8XG :XiX$ z.k.rXO.R W b.#X-X~.K F.d.h.z.>.H.z.z.a ",
"F x s M d.z.x.f.j.d.4.F.`.OX Xn.T E M cX0.K 8Xi f j 0 q.Z R.).J.XXK @.a.N , ).# &XsXI.;.j.~...T 4 z.*X.X-Xk.h f.z.g.f.z.).L.k.Z ",
"h -.J Z J 3.z.h.J :.l.!.#X#X$X*Xm.E ' O.a.P XXd x.@ 0 U.3.aX9.'.=X|.].F 1 H ).+ aXtXl.J.j.Q T q ;.q.~.OX*XJ.H.J.l.k.!.`..X/.H.J ",
"J 3.3.3.g.k.z.f.3.!.`.H.~..X$X-X).;.U., $.i s H.l.*.< 5 e.6X].3X'.G.F 7 z % :.G 4.8Xs.^ T W s.{ x Z f.J.`. X).z.k.k.!.J.J.x.~.K ",
"J e.d.d.z.k.~.g.;.3.z.^.k.).$X`.H.:.d k.o 1 1 v M g.L.0 t n s F n h J.5 1 P P 0., c 5 : ' 4.z.J M I e.H.`. X Xz.h.x.g.3.l.!.).L ",
"K i.f.j.h.z.z.f.3.f.^.!.z.`.-X`.`.^.b X.i , f 1 5 5 f v k _.2.;X;.9Xj j l , 1 1 1 l r G.f.1.`.9.J :.~.`.J.'.).z.3.3.d.h.!.~.(.5.",
"B h.f.!.k.z.z.~.k.i.`.^.`.*X-X~.j.'.z.3.i g f K.1.t 5 2 0 1 5 0 1 5 j j 1 5 O.C # J ).`.d.:.k.K C 9.4.`.).H.z.w.:.1.z.).~.(.~.;.",
"V f.k.k.z.d.j.`.k.z.~.`.$X*X%XJ.!.!.j.g.z.d a ).@XK 1.z.#.0 X.w.w.{ j z s R.3X9 -.%X-X).f.f.z.1.G >.3.!.`.f.4.k.h.d.J.'.~.J.~.>.",
"-.g.f.3.~.f.~.z.~.!.`. X^.`.^.^.z.j.x.z.k.w.< K =XI.i 1.Y.z 6.:XG.v j K # 0Xk.h `.).$X^.j.!.^.f.J :.w.:.h.q.a.z.3.j.m.'.OXH.).-.",
">.~.~.r.z.h.`.k.z.H.#X#X~.~.~.H.H.3.h.z.>.f.;.a J x.S i.).z j ).c 1 H.~.A k.F. Xz.^.k.).h.^.`.F.>.z.k.J J 3.9.>.d.g.~.^.~.J.~.;.",
":./.`.J.!.~.~.z.h.^.`./.~./.*X~.`.z.k.g.h.>.f.z.J.H.3.H..Xl.; ) R #..X XP J..X.XOXz.3.h.z. X`.~.1.>.3.>.q.H.g.J L d.g.^.~.~.~.;.",
":.~./.^.~.!.).!.k.~.!.~.^. X#X). X~.k.z.j.d.3.f.~.`. X~. X`._ T : I./..X$X.X$X$X X#X1.h.^.!.).z.C p p z.~.`.g.B C b >.!.H.~..Xn ",
"b a a a w a a y a a a a a a w a a y y w w w w w w a a a a a r - , r a a a w a a y w w w a y y y $ w # y a a y w # % $ w w w w w "
};
