/* XPM */
static char *_620149142007[] = {
/* columns rows colors chars-per-pixel */
"64 64 92 1 ",
"  c gray9",
". c #1F1F15",
"X c #1C1C1C",
"o c #211E15",
"O c #201F1A",
"+ c #152D0D",
"@ c #1A2715",
"# c #1B2D16",
"$ c #272415",
"% c #282516",
"& c #23221D",
"* c #29251C",
"= c #2C291F",
"- c #30291F",
"; c #23321D",
": c #211F20",
"> c #1F2120",
", c #232323",
"< c #232E20",
"1 c #2B2A23",
"2 c #262628",
"3 c #292728",
"4 c #27282A",
"5 c #2B2B2B",
"6 c #322F26",
"7 c #392F23",
"8 c #2D3B2A",
"9 c #373123",
"0 c #3B3323",
"q c #373F27",
"w c #3B3D25",
"e c #32352D",
"r c #3C372C",
"t c #353B2C",
"y c #393C2D",
"u c #312F30",
"i c #2F3130",
"p c #353534",
"a c #383637",
"s c #373A32",
"d c #3A3C34",
"f c #373739",
"g c #393738",
"h c #3B3B3B",
"j c #48361E",
"k c #42391E",
"l c #443623",
"z c #443C24",
"x c #4B3921",
"c c #41372B",
"v c #443D29",
"b c #4F3E2C",
"n c #513E2D",
"m c #403E3F",
"M c #374025",
"N c #3D452B",
"B c #3F482B",
"V c #3D4132",
"C c #3E4139",
"Z c #4A452E",
"A c #424B2E",
"S c #534A2D",
"D c #414535",
"F c #4B4630",
"G c #464E32",
"H c #4A4C33",
"J c #41443B",
"K c #464A3D",
"L c #4A4D3C",
"P c #524A31",
"I c #475033",
"U c #4B5235",
"Y c #4D523C",
"T c #4F583B",
"R c #505336",
"E c #52553B",
"W c #54593D",
"Q c #5E543B",
"! c #3E3E40",
"~ c #413F41",
"^ c #3F4140",
"/ c #424242",
"( c #484647",
") c #464B41",
"_ c #4A4C42",
"` c #4B4B4C",
"' c #4E5143",
"] c #535644",
"[ c #565944",
"{ c #565948",
"} c #4F4F51",
"| c #525252",
/* pixels */
"h/h!5X2hhasahCf//stCJKUUANMKh!Vhh/Chp 5hhptahhfJ/stCyC~/BBNVh!Vh",
"hhhh5O,hhgpehhh^/syChKWUUAN_h!VmhJhheO3hfhuph^h^(ayCqfh/BBNChCDh",
"hhhh5o*hhapshhhh/stCJKEEGGBLhJV!hhDhp.=hhhpshhhh/syCqh//BBBVhhVJ",
"hhhh5.*haasshfhh^pNhCKE[GGB_hVh/hhdmu$=hahsshfhh/sNCqhCCNdBCCCh/",
"/Chh5o*fafpd/hhCyhVNCLR{GKB)~Jh~/Jhapo1aafpt/hdCdhVNqhChACBJ/Dh/",
"J!hdeo*hhppu/hhdphyMtYIWGGGDJ/NJ!Chd5o1ghppi!ChdphdMefNaAGBD~/VJ",
"45553&&2,,2,5522,22251etpsee555555555&&5,2,2554,,2,,2,,2ep5p5i55",
",,,2:X:,,>:@2,2,>,,>,:pe25552:,2,,,,,X:O&,X>222,,&,,,,,,5p555X22",
"JhC/hyNdadNY{KYDshgMI_U_UUK)5:hJhh!Jhczshfa5^hhgphaVf!t)QEJm5,hJ",
"h/hChrlyagrAWK'DhsNdG`I}UAL'5,VD!JhJa7ktappg/hphCsVsMfMaPFdD3&DJ",
"hhgKa00dadtAYK]DhCChA`I`AAU'5>V~/!h/a0jhapsphfhhfCChM^saSHDJ5,yJ",
"hDhDhrZhhMtTUL'JhsCaAJG}AA__5%CDhDCDa0zahtep~Jhhhs^atVMaSFDD5%VJ",
"hhhJawwhtrtTU_LDhphdAJL|AALL5%VJhhh/fljhp5tphhdCfshhMVtaSFCD3%NC",
"hhhhhylhawyYYKLChaCdA_K`BU))5%~h/h/ha0Zapeth~`dmhaCddVMaSF/C5%/h",
"hhh!htwhaMyUL)LJfhVsID'`AU()3%/hhhJ~a0bfgeefhJh/fCVsVVqfSZCJ5$~!",
"hff!drwhsMyULLDKhdVdIJ_`AL`Ke%h/hh~hp0jhaeuffNdmfdVsVVMfPZ/K6%~/",
"hdd/t0NhtMyUYKBDh!VsID)}AU`)9%h^hdJhe7ZpsMehaeC/C!CsVVMfAZCJ9%hh",
"hga/yavftqaU`_B/ha/sID_`J)`_9%h/hhh/pprhteagpph/hp/t^VMfKZ(J9$h/",
"dgV^ttdatqtU`_GJhgVsIC)`KK}_9%hhhCV/u5a8eeegptg/hdCtVVMpCVJJ9%hh",
"hhd^yppdpatG`)ADfVVsA()|`K`'9>d/hhd^pad8iapgppg/hdVdVhMaCB!J9,d/",
"fsh~wah8padI`LG/hdJsA/K`(K|'9,d/hdh/tsd8pada5gd/fgJsVheahBhK0>d/",
"hhff9Ma8p5a)`/AhaghsBsK`(/}K9%g/hhfh5ta8p5aadph/hs!s/dqaCBhK9%f(",
"335331;;5253aap2442235ippNee2&55555522<;2244435i44325225ee5p4&55",
",,,2@ @+XXX,p55:>&::,@pe5eee,&,2,:,,X @+X::@:@,,@:::OXO:,,,5,>,,",
"hh~~u #tppfU`KKhppsCDVUYKCLKM~DJhhmhu #tppffVfh^ppsCJgs!CUHNt^CJ",
"hh~h5 #aipfY|)KmahqCCqIYDC)JMhdmhhfh5 #fiipppsahahqC/MMfBAAMMhVh",
"fhhJ5X,hsih()DKhhfqCDVI')d/JM~Dhfhhhi 4hsiahppVhfhMC/VNfdAByyJVh",
"hf!!5X2asahJ)hDhhaqCDyGUAD/JMhV~hafh5X,atppapaffhaMC/VMhMGAMMhDh",
"ffmhuo*fhasCJChhysyC/^ILAAAdhJNhafha5o%gfaefh/aCyttCgJ!(NABCh/Vm",
"aahh5@%ppaihC!hfestC^hGLAAAdhhDhaagai@*uaaiehChfesyCshh/NAAChhDh",
"phhh5o*afppdhhfhgstC!hUYBBAdhhDmpdhguo1phiishhfhadtCtfK/BBAdh~N!",
"aahhuo1ghgaphahC(dyC!hULABNNd~dmhphauo*fhapaffhC(gyCdddgABBBgCVh",
"h/Chp 3hhppfhhg/(tyCy^^/BNBCh~Dhh^h^5 2hhfsahhfC/stC~KUUABwJhmDh",
"h/dhpO1hfheeh^h^/syCqhh(NBNdhhVJhhhh5&,hfdiph^!!/dyCCKWYGAA)hmDh",
"hhDheo1hhhashhfh/dyCqhC/BBBCh!Vhhhhf5o%hhfpshhhC/stCCKEEGAB)hhBh",
"hdhhuo=hahsdhfh!^syCqfC/NNBDhCC/!hhh5o*hahsphahhJsdCCGE]GGB)mVm/",
"/J!hp.1aahpt/hhCdhVNMhDhADBD/Dh/JJmf5o*faaet^hdJdhVNdLE[H)A)/Dh/",
"/hdduo*hfppi^CfdphyqeaVfAGBJ!/VC~mhdpo*hhaip/hhgphytsYIWGAAJ//VJ",
"35352&,322,25514,2,2,,2,5p555p3535354@&52,,25532222354etpteu5535",
",,22,X::::@>,,,,,>,,,,,:ppp52X23,,22::X::>&>2,,,@:,:,:pe355u2@,5",
"hh!JhcvddapiChhgphgdhhy(QQDh5&hKhhJ/hdvdhdyU{LLDshsNI_U'RHKK5>hJ",
"JJJJf7ktapia^CahhdNdqfMaPHdJ5,yJ!/hJhy0dadrGW)]DhdddG`I`UG''5>VD",
"~Ch/f0lfaapphfhhhdChMhsfSPAJ5@d~hhgKa0khadtAUK]DhCChA_I`AAH'5>V^",
"hChDa0xghtep//fhhs!fMVMpSZdJ5%DJhVdJfwZhhqyTU)'DhsCfAJI}BA'_5%CD",
"hhh/awjap5es!hd^dp^sVVMfSFVJ5%VJhhh^aMkhtytTU_LJashdAJK|AGK)5%NC",
"~h/!f0ngp6sh^`dCffCdsVMaSF/D5%/hhdhhfylhsyyUYKLDhaCdG)K`AH))5%~!",
"hh/ha0nghepfhCh/d!VsVVMfPFCD5$~hhhh^hywhawtULKLJhhVsID_`AH()5%!!",
"hhJhp0jhaeiffNh^fdVsVVMaHF/K6%!/hhahdrwhdqtU_LDKfdVsUJ_`GU`K6%!~",
"ddD/e7vpttehdeh/hhVsVVMfBZVJ9%h!hdd/slwhyqtUY)BJh!VsGJ)|AU`)9%h^",
"hhh/ppvfteagpih/hs/d/NMaKZ/J9%h/hga/yfwgtqfU`'BJhs/sGD)`K/`_9%h/",
"hdV/p5a8eeuasth/haVsVVqaCV/J9%h!hdV~ttdhtMyU(_AJhgVsID)}KL`'9%fh",
"hhh/iad8pppappa/hVVsChqaCV^K9>d/hfd!yppdpatG`_AJgCVsB()`(K`'9>C/",
"hhh/tsh8ppda5gd/adCsVfefVBh_9,V/fsfCydd8ppdI`LA(ddJsG/K`(L|'9&d/",
"hhggeta8piaadeh/ha^s/VqfVNhL9%a/hhhh0ra8p5f)`/Ahaa!sNsK`((`J9%h/",
"33552,;;2,52455e22223323iei52&55545241;;2255aa52432341iipNee2&55",
",,,2X @+XXX,OX,2:,O,&X:@,,25,>,,,:,2@ @+XX>,5p5,@,:>,,pe4see,,,,",
"hhhhi #8apadVfh^ppthCgd!CYGNMmCJhh//5 #tapfU`JK!ppsCJyHWKVKKM!CJ",
"hhhh5 #aiipaipahahqC(MMfBBGMwhVmhh~h5 #fiigY|KL!fhMCDMG'DC(KMCV!",
"hhhh5 2hsiafpfVhhhMC/dMhdABtM!Dhhah!i 4hsph(_D)hhhMCDNG')V/CMhVh",
"hffhpX,asppapffdhgMC/NMhMAANMhVChah^5X,psafKKhJhfaMCDsGUBJ/JMhDh",
"fhaa5o*hfaeff/fCVtyCh~//BABdh/Vhahmh5o%hfasCJChhdsyC^~GYAAACh/V!",
"paha5o*pphiehChfestCshh/BAAChhVmafhhi@*uppihChhfestC~fG_AAAdh~Dh",
"phaa5o*ahiishffhasyCshK/BBAdh~Vhph~h5o*phpadhhfhhtyC!hULNNAdhmVh",
"fahau@=ahapahah!(syhtddfDBBBdCVhaahhuo1ghaaphahC(gyCJhUHAABBdhV/"
};
