/* XPM */
static char *_620149145431[] = {
/* columns rows colors chars-per-pixel */
"64 64 152 2 ",
"   c #0B0B0B",
".  c #1B1A19",
"X  c #10220A",
"o  c #182A10",
"O  c #24211C",
"+  c #312F1A",
"@  c #3A291F",
"#  c #27341B",
"$  c #2A341C",
"%  c #2B3B1C",
"&  c #222222",
"*  c #2C2C2C",
"=  c #382E22",
"-  c #2B3222",
";  c #2E3D21",
":  c #303425",
">  c #3E3224",
",  c #343C24",
"<  c #393E27",
"1  c #31342C",
"2  c #363D29",
"3  c #3A3F2D",
"4  c #313131",
"5  c #3A3F35",
"6  c #3C3C3C",
"7  c #443D25",
"8  c #473E35",
"9  c #4A3D33",
"0  c #413C39",
"q  c #27481D",
"w  c #364126",
"e  c #394327",
"r  c #3D4921",
"t  c #3C452A",
"y  c #3F482C",
"u  c #3F4332",
"i  c #454124",
"p  c #4B4327",
"a  c #43472B",
"s  c #49412E",
"d  c #424A2E",
"f  c #5B4425",
"g  c #554C2F",
"h  c #434132",
"j  c #4C4436",
"k  c #464D31",
"l  c #494E33",
"z  c #43433B",
"x  c #4E4139",
"c  c #4C4B3B",
"v  c #544232",
"b  c #5C4734",
"n  c #544E33",
"m  c #574738",
"M  c #584638",
"N  c #475033",
"B  c #4B5135",
"V  c #4E5539",
"C  c #4F583B",
"Z  c #505537",
"A  c #585F35",
"S  c #52563B",
"D  c #5E5538",
"F  c #54593D",
"G  c #674625",
"H  c #604C34",
"J  c #644E3A",
"K  c #67523F",
"L  c #6A543F",
"P  c #70563F",
"I  c #3F4140",
"U  c #434343",
"Y  c #4B4E43",
"T  c #494748",
"R  c #4B4B4B",
"E  c #5C4C4C",
"W  c #4E5141",
"Q  c #515544",
"!  c #565C40",
"~  c #595E43",
"^  c #5A5C4E",
"/  c #525252",
"(  c #585657",
")  c #5C5C5C",
"_  c #6F4E45",
"`  c #704C4C",
"'  c #655447",
"]  c #6B5745",
"[  c #605E45",
"{  c #6E5843",
"}  c #705741",
"|  c #715A45",
" . c #755E4A",
".. c #645E52",
"X. c #685F56",
"o. c #566443",
"O. c #5A6346",
"+. c #5E6549",
"@. c #5F684B",
"#. c #636746",
"$. c #61664A",
"%. c #69634B",
"&. c #64694D",
"*. c #77614C",
"=. c #7B634E",
"-. c #716A4E",
";. c #626352",
":. c #676B50",
">. c #6A6E53",
",. c #746E53",
"<. c #706959",
"1. c #6C7155",
"2. c #6E7458",
"3. c #727055",
"4. c #72755A",
"5. c #7C755B",
"6. c #74785D",
"7. c #7C795D",
"8. c #646464",
"9. c gray42",
"0. c #737766",
"q. c #767B60",
"w. c #7B7D62",
"e. c #87543E",
"r. c #835F3D",
"t. c #804B43",
"y. c #875850",
"u. c #A04847",
"i. c #A24E4E",
"p. c #976A41",
"a. c #8B695F",
"s. c #81735D",
"d. c #807A5E",
"f. c #9C735D",
"g. c #957E5F",
"h. c #817C61",
"j. c #887A61",
"k. c #967D61",
"l. c #987E62",
"z. c #AC7467",
"x. c #7C8067",
"c. c #9A805F",
"v. c #868165",
"b. c #9B8163",
"n. c #9F856B",
"m. c #A08363",
"M. c #A18669",
"N. c #A38A6E",
"B. c #A68C73",
"V. c #A88D74",
"C. c #AA9178",
"Z. c #898989",
/* pixels */
"y y y a k y y y t t a y y t t e a t a t t t t y y y y t t a t y y t y k a y y t t d y y y t y w y y t a k y y y t t a y y t t e ",
"B $.1.2.4.>.1.2.1.4.>.>.2.>.S N V ~ 1.2.4.1.2.2.>.2.>.1.>.>.F V B #.1.4.2.1.2.2.>.1.:.:.2.:.S k B $.2.2.4.>.1.2.1.4.>.>.2.>.S N ",
"o.7.b.n.M.m.N.M.c.M.g.c.b.h.1.V ~ h.l.k.l.b.l.l.b.b.c.b.k.j.>.S ! 7.b.M.M.n.n.M.n.M.g.g.c.h.1.S ~ d.c.n.M.m.N.M.c.M.g.c.b.h.1.V ",
"S 3.6.7.h.6.w.6.6.x.d.d.7.7.1.S S w.4.6.6.2.6.6.4.6.2.4.2.h.2.S F 3.w.d.5.w.d.6.6.h.h.h.7.7.1.S S 3.6.7.h.6.w.6.6.x.d.d.7.7.1.S ",
"S F +.;.:.+.>.$.+.&.+.>.+.@.V B B ! +.@.$.~ &.&.o.$.! &.~ $.S V S Q @.&.&.&.1.#.@.$.$.;.$.@.S B S F +.:.&.+.>.$.+.:.+.>.#.O.C V ",
"l t e a k a k t e u e k e y e l y t e k t t t t t < t t t t t l k t e k d d k e t t t k t a e k N e e u k d k t e t e y e y t l ",
"Z t t t y t y y t t t t t e k S V e y y h y u e < y t t h y e N S y t y d t t t t t t t t e k S Z y e e t y t y t t y y t y k V ",
"S #.2.2.,.2.3.4.2.1.2.2.2.:.F S F O.2.2.>.1.2.2.:.>.&.1.1.>.! F S $.2.2.3.2.3.2.2.2.1.2.2.>.F S F #.2.2.3.4.,.4.2.>.2.2.1.&.Q S ",
"! h.l.m.V.M.C.M.b.b.B.M.b.h.1.S ! d.l.m.l.l.l.l.l.k.h.q.k.h.2.k ! d.l.M.B.N.B.B.b.m.M.N.c.v.>.F ! h.l.m.V.M.V.M.m.m.N.M.b.h.>.F ",
"! h.6.h.h.q.h.6.6.6.7.7.7.h.1.N ! w.w.w.h.h.5.q.6.6.>.4.6.h.>.d o.h.7.d.5.w.5.6.6.6.7.d.6.d.1.k O.h.5.w.h.q.h.6.6.6.w.5.7.h.2.l ",
"! :.4.>.>.4.4.>.1.1.6.1.4.:.O.k ! :.2.6.4.q.>.4.>.>.O.O.&.:.+.d F :.>.3.4.6.4.>.>.>.4.6.4.&.+.k F :.4.>.2.2.4.>.>.2.q.2.3.:.O.k ",
"F &.>.>.2.4.4.>.>.&.2.4.>.&.F k S $.2.2.4.6.>.>.:.$.! O.&.$.! k S $.>.2.>.4.4.>.4.&.>.1.>.&.F d S $.>.>.2.4.4.>.>.$.2.2.>.&.F k ",
"S $.>.>.1.2.4.&.&.$.2.>.&.&.F d F O.1.6.2.>.>.:.+.$.! O.+.&.! y S &.&.4.2.2.>.>.>.+.1.1.+.&.! k S $.>.1.4.2.2.:.&.&.4.>.&.&.! k ",
"S $.>.1.4.2.2.$.&.&.4.>.#.+.o.t S o.1.2.1.>.:.:.$.O.! O.O.F ! d S +.$.2.2.2.>.>.&.O.1.>.$.+.F y F +.:.1.1.4.2.$.&.&.1.>.+.+.! e ",
"S &.O.1.>.4.>.$.$.O.1.&.&.O.F k B O.1.&.:.:.:.O.+.O.! O.O.! F d S +.$.2.>.4.$.$.&.O.&.>.+.O.! B S &.O.1.>.2.>.+.$.O.1.&.@.O.! N ",
"V O.O.1.>.>.>.O.$.o.:.&.+.O.! B B O.1.&.&.$.@.O.+.O.! O.o.! ! y V O.&.4.>.1.$.+.+.O.&.:.+.O.! k V O.O.1.1.>.>.O.+.O.>.$.$.O.! B ",
"V o.O.1.>.:.>.O.O.O.&.&.&.O.! k B O.&.+.:.&.O.O.+.O.! O.O.F F t B O.&.1.&.>.:.>.o.O.$.>.@.+.F k V O.O.1.:.:.>.$.O.O.&.>.$.O.F N ",
"l +.o.1.$.:.>.$.O.O.1.$.@.O.! d B O.&.>.:.+.o.O.O.O.! ! F C F e N O.o.1.&.1.:.:.O.O.&.>.O.O.F d N O.O.>.&.:.>.+.O.O.>.$.$.O.! d ",
"B O.O.&.$.:.1.+.+.o.1.$.&.O.! y B O.&.$.&.+.O.&.+.O.! ! F N V e B O.O.&.$.1.$.+.+.O.&.>.&.o.F y B O.O.&.$.&.>.O.o.O.1.+.&.O.! a ",
"B ! O.&.#.:.>.O.O.O.1.#.>.O.! y B o.&.+.O.O.O.o.@.O.! F ! t B e B ! O.$.1.>.+.O.O.O.O.&.+.O.S y B O.O.&.$.:.1.O.O.O.1.$.1.O.F y ",
"e d k k k d k k k k k k d k t 2 e k #.B k k V l C V V B k 1 3 2 y k k k l B k k k k k k d k d < w k k k k k k k k k k d N k a 2 ",
", : , , , , , , , , , : , , 2 < 2 < w d w w 2 w e e w 2 e & - 2 % , : , , , , , , % ; , : , 2 w ; , , , ; , 2 : , , , , , ; , e ",
"e e t < y t e t t t t t y e y e e k d N k d d l B d a y a * t t e y t t t t t t t t i e t y y e e k d l < t k k a e t 2 2 t d d ",
"S ~ $.! ! #.! +.~ ~ ~ ~ ! #.! #.~ C C C S C F $.F O.O.+.V % , &.~ ~ Z Z ~ F B ! ~ V S ~ F B F #.! V V V S V ! @.&.$.+.! +.$.&.$.",
"F $.$.~ $.$.+.&.+.! &.$.&.1.$.$.y ; ; ; q w w +.F j O.F y X $ C +.F , w o.d e k F , w F a % d 1.y , q ; q w w O.>.&.+.F ! +.~ S ",
"F ! F ! O.O.O.&.O.S +.+.$.:.~ ~ a p i r #.;.A &.S , S Z u o # ! ! F i D &.%.X.! F 7 g o.a p Z &.a p 7 i i n J &.:.$.! V S ! ! ! ",
"S F ! ! O.O.O.! O.! ! +.&.&.o.+.4.,.,.,.,.5.7.1.V N V k w # - F F :.,.s.1.>.%.5.&.%.%.! [ %.-.&.3.,.-.3.-.5.5.2.+.O.S k B ! ! ! ",
"a k k d d B k B k d k k k B k k V B V ! S V S F V N N d k k B V k k B B V N B V k d d a a N V B S Z Z ! S Z Z F B l d k k B B S ",
"t t y e y y y y d y y e d d y y t e y y d y y y e t y t t t e d N F y d e y y d y y y t t a t y t y y e y t y y y e y y y y y t ",
"F +.2.2.2.2.2.4.2.1.1.1.4.&.S k S ~ 2.1.1.2.2.2.2.2.1.2.>.&.C S ! @.&.&.&.:.>.:.&.&.&.&.>.&.S l S +.2.1.2.2.2.2.1.2.>.1.4.:.F N ",
"! d.l.M.M.m.n.M.b.n.g.l.b.w.>.S ! d.k.l.l.b.b.M.C.M.c.b.c.j.1.S o.d.b.M.M.M.n.M.n.M.k.k.b.h.>.S F 7.b.M.M.M.n.M.b.n.g.l.b.v.>.C ",
"S 3.6.h.d.6.h.6.q.w.h.d.7.7.1.F F h.4.6.4.2.6.6.5.7.2.2.2.7.1.F S 3.q.h.5.q.h.6.6.w.h.h.7.w.1.F F 3.6.w.d.7.w.6.w.7.h.7.6.7.1.S ",
"S Q +.:.&.+.:.$.+.:.$.:.$.+.S l N F O.@.$.O.;.$.~ +.! @.~ $.F V S F $.&.$.&.>.$.$.&.&.&.$.@.S B S ! +.&.:.+.:.@.+.:.@.:.$.@.C B ",
"N t e y k d k y e t t d < a t k d y y y e t y t t t t t t t 3 l k t y d k d k t t e t a t t 3 l l e e u k k k t e t e k t t 3 l ",
"Z y e y d e a y t t t t t t k S B y y u k t t t 2 t t y h d t l Z a y e y e a t y e y y t t k S V t y e y t a t t t t t t t k V ",
"S +.2.2.,.2.3.4.2.>.2.2.2.>.F S S +.2.2.>.>.2.2.:.>.:.1.1.>.F F S $.1.2.3.2.,.2.2.1.>.1.4.>.S S S +.2.2.,.2.,.2.2.>.2.2.4.:.F S ",
"~ d.l.m.B.M.V.M.b.m.B.M.n.h.>.F ! h.l.b.k.l.l.l.b.j.h.w.k.h.1.k o.5.b.M.B.B.B.N.m.m.M.B.g.h.>.S ~ 7.l.m.V.M.V.M.m.b.N.n.l.h.>.F ",
":.h.x.j.x.h.w.x.5.v.h.-.>.w.1.k ! 7.w.h.h.h.5.6.6.6.>.6.6.7.1.k #.v.6.7.q.h.5.6.6.6.7.d.7.w.1.k ~ h.5.w.d.q.h.6.6.6.d.5.q.h.4.l ",
"+.6.6.x.w.x.x.6.3.1.x.f.z.6.+.k +.1.6.2.q.6.>.2.1.>.$.O.$.:.+.k +.3.x.6.x.w.a.L y.6.1.#.:.>.+.k ! :.4.1.4.2.4.>.>.1.q.2.4.:.~ k ",
"F 4.F Y c Y Y Y Y Y c Y Q ;.! k ! >.6.2.6.2.:.4.$.:.+.O.&.+.F d O.>.:.&.&.&.&.&.:.$.o.O.+.O.! k F $.>.1.>.4.2.>.>.&.,.4.:.&.! k ",
"o.&.5 I 6 U I 6 6 6 U 6 I Y ! k ! &.q.2.1.1.:.1.+.:.O.O.O.+.! d ! ~ z v 6 9 9 9 M j 7 5 h S ! k S :.1.>.2.4.4.&.>.&.2.4.&.&.! k ",
"F &.U / ) 8.U U U u I 8.9.W ! d ! &.4.>.4.>.&.>.+.&.O.O.@.O.! d ! +.M ..i.=.p. .=. .X.u.K c ! a S $.>.2.2.1.2.>.&.&.1.>.&.$.! d ",
"F #.U R Z.9./ I U 6 U 9.( W ! t ! &.4.>.4.1.$.>.+.+.o.O.O.O.! y ! O.H e.E | r. .| { e.E J n F y S +.>.>.3.2.4.+.$.$.1.:.$.$.! y ",
"O.#.T T 8.( R R U 6 R 9.8.Q ! t ~ &.1.1.2.1.$.>.O.&.O.O.O.O.! y ! ! 0 v G 9 H v v v v 9 9 Q F y S $.$.>.2.2.2.+.&.&.2.:.@.O.F t ",
"! O.T T U U U U U U U / ( Q F d ! &.6.:.2.>.&.:.O.O.O.O.O.+.F y O.~ M ] `  . . .=.*.L P K F ! d S +.&.1.1.2.4.$.$.+.1.&.#.O.! y ",
"o.2.T U 6 T U U U U U U U ;.! k ! $.:.:.>.>.$.:.O.O.O.O.&.&.! y ! &.H } _ { }  .{ { _ ' J S F k F +.O.1.1.1.>.+.$.O.1.&.+.O.F d ",
"$.w.! W 7 j Y Q / / / R ( 0.! k ! >.>.$.>.>.$.$.O.:.$.O.$.&.:.d F 2.z v v v M 9 v v v G 9 ^ ! k V O.O.1.1.4.>.O.$.O.>.$.$.O.! k ",
"$.6.v.5.J %.h.h.w.w.w.h.j.w.F d +.>.2.$.>.1.$.$.O.&.+.! O.$.@.d F 6.3.$.~ [ $.~ ! &.O.[ :.w.! d V O.O.1.>.>.>.$.+.+.&.&.+.O.! d ",
"! 4.>.:.= v >.>.>.:.2.6.4.>.! l C +.2.$.>.>.+.+.O.o.O.! O.O.~ k V &.5.6.q.w.7.4.1.4.3.:.4.1.F N V O.O.1.>.>.>.O.$.$.>.$.$.O.! B ",
"F $.3 + O 4 1.>.>.:.1.V 1 ! ! l S &.2.O.>.$.O.@.O.O.+.! O.O.! t V O.1.1.1.&.O.o.O.O.&.! &.O.! N V O.O.1.>.>.>.O.O.O.:.&.$.O.! k ",
"C &.2 . . . ;.6.>.:.2.S B S ! k C +.:.O.>.O.O.+.O.O.O.! O.~ ! t B O.&.1.>.1.&.&.O.O.&.>.&.O.F N B O.O.1.$.>.>.&.O.O.>.&.@.O.! k ",
"C 2.z =   @ ;.6.2.>.>.w.s.1.! d C O.1.+.>.:.+.O.O.O.O.! ~ ~ ! t V O.+.>.$.4.1.>.O.O.&.:.:.O.F a N O.O.:.$.&.>.$.O.O.1.+.+.O.! y ",
"C x.~ ] & 6 $.:.1.:.1.6.6.>.F y S O.>.O.&.$.O.#.O.O.+.F ! ! F e B ! &.:.&.&.&.&.O.O.&.1.&.+.! y B O.O.&.+.:.1.O.O.O.>.$.1.O.! y ",
"V 6.d.s.<.;.>.:.&.:.>.1.1.:.S y Z ! &.+.O.! O.+.O.o.F S F ~ F e B &.O.:.&.>.O.O.O.O.@.>.>.$.F y B ~ O.+.+.:.&.O.O.O.$.#.&.o.S y ",
"w d k S k ! l k B k B B B d y e e d k d k k d k k k k k l k d 2 e k N V Z F k Z V N N S d k y e w k k F k F B k B N B B B k y w ",
", ; , , , , 2 , , , , , 2 , 2 w , , : ; , , , , , , , ; , , k 2 , $ , , , , 2 , , , , , , , 2 2 , , ; : , , 2 , , , , , , , , 2 ",
"2 2 , w , e 2 < < , t < < , 2 2 2 2 2 , y , 2 w w 2 2 < < y k w < < < 2 2 e , 2 e , t 2 < , 2 w < e 2 w , e 2 < 2 2 e < e , 2 e ",
"N V l B B Z N B B B Z l B B B d k k N V B k k B B l B l k l B B N B k B B Z B N l B l V B B B l B B k B B V B l N B B B B B B d ",
"&.&.&.&.>.>.:.&.&.:.>.>.>.&.&.O.~ +.$.$.$.&.$.&.O.O.! F ! O.O.+.&.&.&.>.1.1.:.&.&.&.>.1.:.&.$.:.&.&.&.&.>.1.:.&.&.:.1.>.>.&.&.+.",
"~ ! +.~ O.1.$.! o.&.>.>.&.F +.o.! +.~ +.1.$.O.O.O.F S S S F F O.~ ! +.! &.:.&.O.~ &.:.>.+.~ O.~ ! ! O.! O.1.$.! O.&.:.:.$.! +.! ",
"F F +.O.+.&.$.S F &.&.>.#.! O.S ! F ~ +.$.O.+.! ! S S B V S F S F F ~ o.#.>.$.! F $.$.>.$.~ O.S F F ! +.+.:.$.F F &.&.>.$.o.O.S ",
"S F +.! ! &.$.! ! $.&.&.$.O.O.! F F ~ ~ &.+.F ! ! S B t d S F S S ! ! ! +.&.! +.! ~ $.1.O.O.O.! F ! +.~ ! &.$.F ! $.&.&.$.O.+.F ",
"F F ! F ! &.+.F F +.$.$.$.! O.F S F F ! &.! F ! F S k d a V F ! F F S F &.&.! O.F ! &.$.O.O.+.S F ! ! F ! &.+.F F O.&.$.$.! O.S ",
"l Z k k B ! B k k k V V F S B k k k B S F S F B V B d y a d k l l Z k k S F B k k k V V S B Z k l B k k B F V k k k B S F Z B k "
};
