/* XPM */
static char *_620149132881[] = {
/* columns rows colors chars-per-pixel */
"64 64 210 2 ",
"   c #1B1B1B",
".  c #141313",
"X  c #3C0E0E",
"o  c #3D2F16",
"O  c #382B1A",
"+  c #3C341F",
"@  c #2C281C",
"#  c #252525",
"$  c #2D2B23",
"%  c #2E2E2E",
"&  c #272729",
"*  c #342C23",
"=  c #302E2F",
"-  c #3A2824",
";  c #2E302F",
":  c #363024",
">  c #393124",
",  c #3B352C",
"<  c #323429",
"1  c #2F2F31",
"2  c #333333",
"3  c #3A3935",
"4  c #3B3B3B",
"5  c #373838",
"6  c #480101",
"7  c #460201",
"8  c #570707",
"9  c #411B0E",
"0  c #531D1D",
"q  c #481C1B",
"w  c #630C0C",
"e  c #6B1716",
"r  c #781615",
"t  c #781818",
"y  c #482413",
"u  c #43321A",
"i  c #4A351C",
"p  c #453416",
"a  c #533C1D",
"s  c #511F20",
"d  c #6F1F20",
"f  c #4C2828",
"g  c #4A2524",
"h  c #5D2C2B",
"j  c #572525",
"k  c #423522",
"l  c #443927",
"z  c #4A3B25",
"x  c #42362A",
"c  c #443B2B",
"v  c #483D29",
"b  c #573D21",
"n  c #573A26",
"m  c #433C32",
"M  c #413D39",
"N  c #4B3835",
"B  c #533333",
"V  c #5B3636",
"C  c #543A3A",
"Z  c #5D3B3A",
"A  c #602E2E",
"S  c #6F3534",
"D  c #613F3E",
"F  c #753B3A",
"G  c #7A3D3D",
"H  c #713535",
"J  c #53401F",
"K  c #4B402E",
"L  c #594525",
"P  c #5D4A29",
"I  c #5A4725",
"U  c #4B4135",
"Y  c #4D463B",
"T  c #4F483E",
"R  c #41413F",
"E  c #524431",
"W  c #5C4B36",
"Q  c #53473A",
"!  c #534A3E",
"~  c #5B4B3A",
"^  c #5A4439",
"/  c #624423",
"(  c #624925",
")  c #6A4E26",
"_  c #724E27",
"`  c #7A5524",
"'  c #644D3B",
"]  c #65513E",
"[  c #6B543D",
"{  c #7D5A3C",
"}  c #5C3F41",
"|  c #444444",
" . c #4C4545",
".. c #4D4943",
"X. c #474749",
"o. c #4C4C4C",
"O. c #474948",
"+. c #524141",
"@. c #5D4140",
"#. c #554D43",
"$. c #5B4E42",
"%. c #514E4B",
"&. c #4E504F",
"*. c #565146",
"=. c #5C5246",
"-. c #54514C",
";. c #5B534A",
":. c #4E4E50",
">. c #4F5150",
",. c #555454",
"<. c #595655",
"1. c #565856",
"2. c #5B5955",
"3. c #575759",
"4. c #575958",
"5. c #5D5D5D",
"6. c #6A4545",
"7. c #6E4A4A",
"8. c #644644",
"9. c #734D4D",
"0. c #7E4242",
"q. c #655444",
"w. c #6D5B4D",
"e. c #695846",
"r. c #715741",
"t. c #755B45",
"y. c #725D4D",
"u. c #7A5F49",
"i. c #7D5B42",
"p. c #764F50",
"a. c #6C5655",
"s. c #635B53",
"d. c #6B5F54",
"f. c #605E5D",
"g. c #6F5A59",
"h. c #645454",
"j. c #775A53",
"k. c #5E605F",
"l. c #7D6149",
"z. c #7F6044",
"x. c #6A6156",
"c. c #61615F",
"v. c #6B645B",
"b. c #726053",
"n. c #71665C",
"m. c #79665A",
"M. c #7B695B",
"N. c #5E5E60",
"B. c #615F60",
"V. c #5F6160",
"C. c #646464",
"Z. c #6B6764",
"A. c #666867",
"S. c #696966",
"D. c #666668",
"F. c #696768",
"G. c #676969",
"H. c #6B6B6B",
"J. c #736B65",
"K. c #716E6D",
"L. c #726464",
"P. c #6E706F",
"I. c #70706E",
"U. c #7E736B",
"Y. c #716F70",
"T. c #747474",
"R. c #7B7B7B",
"E. c #787677",
"W. c #AE7B1F",
"Q. c #865F3E",
"!. c #835A24",
"~. c #806025",
"^. c #8A6123",
"/. c #916521",
"(. c #996822",
"). c #976824",
"_. c #99653B",
"`. c #AF7C20",
"'. c #A27A34",
"]. c #836C5A",
"[. c #886B57",
"{. c #94785B",
"}. c #8C684D",
"|. c #AC7751",
" X c #8D7462",
".X c #8C7C6A",
"XX c #917663",
"oX c #9D7E6C",
"OX c #837972",
"+X c #B3815C",
"@X c #89827A",
"#X c #938679",
"$X c #958166",
"%X c #AE8265",
"&X c #B0876B",
"*X c #A7926D",
"=X c #AE9873",
"-X c #838383",
";X c #8A8A8A",
":X c #9A8E82",
">X c #939393",
",X c #9C9C9C",
"<X c #969797",
"1X c #B09687",
"2X c #A0A09E",
"3X c #A19FA0",
"4X c #9FA1A0",
"5X c #A0A0A0",
"6X c #AEAEAE",
"7X c #CFA58C",
/* pixels */
"4.T.T.H.H.H.E.T.E.T.E.T.E.T.E.Y.T.P.P.H.P.F.T.E.E.E.G.G.T.E.E.C.A.H.H.V.H.C.C.H.H.D.H.T.T.T.D.C.2.I.R.H.E.E.P.T.T.H.E.C.H.T.T.&.",
"O.T.T.H.H.Y.N. .5.+.f.%.o. .V.+.T.P.P.D.P.F.H.E.E.C.C.,.E.E.R.C.C.A.G.4.H.C.C.H.H.F.P.E.T.5.,.N.E.H.E.Z d r r r h H.E.C.H.T.P.M ",
"} H.H.C.C.C.3.,.5.,.4.5.,.,.5.,.D.A.D.P.D.C.D.H.H.H.5.,.E.E.E.C.=.*.=.*.*.#.*.*.=.C.F.H.H.,.,.o.E.G.E.H.g.9.6.7.P.H.E.C.A.P.P.5 ",
"O.C.B.<.H.T.5.,.V.,.C.4.3.,.5.,.P.P.P.T.H.F.H.T.T.H.C.>.E.R.E.H.*.*.*.#.*.#.*.*.#.F.*.k.C.H.C.E.E.G.E.@.e r t t h H.E.C.,.V.V.R ",
"| T.T.H.V.V.3.,.4.,.4.5.,.,.,.,.V.G.V.V.N.4.N.C.C.C.5.h H F F S a.P.T.T.T.H.H.T.T.E.H.E.T.H.D.E.E.P.E.H.g.a.6.7.T.H.R.C.H.E.T.4 ",
"X.V.4.G.P.P.N.,.B.,.5.5.3.,.5.,.T.T.R.P.P.4.N.4.5.4.5.V p.p.9.6.L.C.H.C.H.5.5.C.H.C.V.N.C.H.C.E.E.H.E.@.e r r t V H.E.C.H.k.C.R ",
">.V.V.N.H.P.P.D.H.H.H.C.4.C.H.H.T.R.T.N.V.C.A.A.C.A.F.C.E.E.E.H.H.G.C.H.C.F.4.H.C.H.4.D.C.T.P.H.H.T.E.H.g.7.7.7.I.H.E.C.V.D.V.O.",
"5 5 5 | | 4 | | | | | | 5 4 | | 4 | R } | 5 R | | | | | | | | | | 4 4 4 5 4 4 4 4 4 4 5 4 | | | | | | | | | R | | | | | | 4 5 2 ",
"* 5 5 4 ,.o.,.,.o.,.<.,.| o.3.o.>.3.,.o.X.,.1.,.| Y O.,.#.4.,.5.,.o.,.,.,.1.5.N 1.,.,.o.,.4.4.4.l 1.,.,.,.,.4.c ,.,.,.q.5 O.O.* ",
"> 5.o.:.C.T.C.H.F.F.C.C.,.5.H.H.F.o.} 4 4 | X.X.4 M 4 | Y | | O.| | 3.C.5.5.E.,.H.O.| |  .| o.H.W H.C.C.OXB.5.E <.S.T.[.o.,.5.* ",
"k M X.-.C.o.C.H.H.H.4.,.,.5.H.O.O.2 % % 1 1 4 5 2 % 1 % 1 % 2 % 2 5 5.C.G.k.E.,.H.| ; % % 5 ,.H.~ H.T.R.W d.4.q.,.H.o.U.o.| 4 > ",
"k 4 | o.C.C.C.F.H.,.c.5.4.,.C.4 | >.>.o.4 >.,.o.| U | X.T ,.o.,.o.o.5.N.G.5.E.<.H.,.| o.o.,.3.H.~ 4.#.i ;.C.o.E ,.H.5.U.o.o.O.> ",
"> | | o.C.C.H.C.T.,.5.5.}.-.X.5 O.3.5.5.X.N.5.5.4.$.5.5.b.A.C.H.5.o.5.C.H.5.T.3.H.4.O.f.C.,.3.H.~ o.E ' u ~ 4.W >.H.D.U.o.O. .* ",
"+ 5.o.o.C.,.C.4.4.,.V.5.i R | | ,.B.H.C.O.C.C.C.5.q.C.C.m.H.G.I.5.o.5.5.H.5.T.<.H.4.o.5.C.3.<.H.~ 4.l K _ a 4.e.5.H.>.U.O.,.5.: ",
"k 4 | ,.C.C.H.4.5.,.5.,.i X.,.%.N.V.5.q.o.C.C.C.N.q.C.C.[.5.<.C.5.o.5.C.H.N.T.4.H.,.o.C.C.4.3.H.~ ,.v : b ! C.' C.H.N.U.o.| 4 > ",
"k | O.o.C.H.F.5.C.F.V.X.u >.5.,.5.c.C.4.4.D.C.C.V.q.C.D.v.C.H.C.5.,.5.C.C.V.H.5.H.<.o.C.C.4.f.T.~ 1.o.* o m <.q.C.H.H.U.o.o.O.> ",
"k O.O.%.C.:.H.B.C.| o.v m 4.N.,.c.5.B.C.3.C.C.C.C.q.D.F.n.C.H.C.5.o.C.5.H.f.Y.5.H.4.o.C.C.5.4.H.~ 4.,.> O < ,.q.C.H.%.T.o.o.:.> ",
"k 3.o.o.N.C.H.#.2.R | k O.V.5.H.T.H.P.G.5.E.H.C.D.q.C.C.F.C.C.C.5.,.C.C.D.N.P.5.H.4.o.C.C.4.q.J.~ 1.<.W u o l ~ C.H.C.T.o.o.,.> ",
"k 4  .,.C.H.D.] o.4 m M :.C.5.4.,.C.,.o.4 o.C.C.P.e.C.D.D.C.C.C.5.,.C.N.H.5.P.5.H.4.o.D.H.5.z C.~ 1.,.r.b u i c 5.H.H.I.o.| 4 > ",
"k o.X.o.V.o.G.-.R 4 %.| :.C.N.F.H.H.H.K.H.T.G.C.H.e.C.F.C.V.N.C.4.,.C.f.H.N.T.5.H.3.>.C.T.T v H.~ 1.,.t.b ! k k ,.H.o.T.o.o.:.> ",
"u C.o.>.C.5.H.,.|  .5.O.o.C.B.4.,.C.>.o.O.&.C.C.H.e.F.F.T.H.H.H.4.,.C.B.F.5.T.5.H.4.,.F.H.,.,.v.~ 1.,.t.L $.,.l ,.H.5.Y.O.,.4.> ",
"k 4 | o.5.H.H.,.o.,.5.>.>.C.k.3.N.V.5.5.F.H.C. .O.O.O.o.O. .O.| m O.C.C.H.5.H.C.H.4.,.C.H.3.,.x.q.4.,.u._ ' F.X.,.H.H.Y.o.| 4 > ",
"k X.O.,.C.o.H.4.3.,.5.4.%.H.5.<.5.C.H.R.P.-XE.P.C.Q 3.3.3.5.O.o.i o.B.V.H.5.K.H.I.,.-.C.H.4.-.C.W ,.5.}.( $.F.o.4.H.o.H.o.o.o.> ",
"> o.| o.C.4.H.5.V.,.B.,.:.D.C.4.5.5.5.5.5.C.T.H.4.=.C.H.H.T.3.o.a o.C.C.D.C.H.C.H.4.,.C.H.3.4.H.~ ,.,.e.L ~ F.o.3.H.5.H.O.o.:.> ",
"x 4.o.o.C.C.F.5.5.H.;X;X4.G.5.R.H.T.E.H.E.C.H.H.C.].R.R.C.T.5.,.a o.C.5.C.5.H.H.H.4.,.C.H.3.<.H.' <.,.t.U j.P.>.<.H.C.H.o.o.,.< ",
"5 4 | ,.C.o.F.5.5.,.T.;XE.F.H.;XH.R.-X-XR.C.C.C.D.y.D.5.C.T.5.>.a ,.C.C.H.N.H.H.H.<.,.C.H.<.,.H.' <.,.t.Q q.5.,.4.H.:.H.o.| 4 ; ",
"5 o.O.%.C.4.A.5.5.,.1.C.D.C.F.F.B.C.H.A.H.C.a.a.<.! ,.3.C.P.V.-.a o.C.V.G.k.H.D.H.4.,.C.H.3.,.H.' 3.,.t.Q m.r.-.3.H.5.H.O.o.-.2 ",
"5 C.o.:.C.H.A.5.5.,.4.C.C.C.C.F.V.H.H.F.F.5.D D 3.! ,.3.C.T.C.,.a o.C.C.H.C.H.C.H.,.,.F.H.4.,.H.' ,.<.u.! q.$.3.<.H.H.H.o.,.1.2 ",
"5 4 | ,.C.,.F.5.5.,.4.F.H.H.H.<.# # 4 F.H.H.8.D B.%.5.,.C.T.A.,.a >.C.c.C.5.H.C.H.4.,.C.H.3.,.H.' <.,.l.$.$.D.,.<.H.3.H.o.| 4 2 ",
"5 O.O.>.C.H.F.5.-X<X;X-XT.F.a.5.7 g  .D.5.O.| | o.%.5.3.C.Y.A.,.a o.C.F.C.C.H.C.H.,.,.C.H.3.,.H.] 3.,.u.q.$.D.3.4.H.H.H.o.o.X.2 ",
"5 o. .>.F.T.C.H.4.f.H.H.C.H.j.5.0 f O.D.c.| % 2 O.,.4.3.K.E.T.C._ 3.C.B.T.I.T.C.H.,.5.5.E.H.3.H.' 3.H.}.w.q.C.4.,.H.Y.H.o.O.O.2 ",
"5 3.o.o.F.,.H.A.4.F.H.H.C.C.5.N.- f o.D.N.o.5.5.o.,.4.H.,X6X>XOX|.OXC.N.C.%.s.f.H.H.-XE.6X,XC.H.' G.,X&XoX X:XE.B.H.,.H.o.o.,.2 ",
"5 4 X.-.H.H.F.5.| | :.<.C.F.a.5.8 f o.H.5.o.C.5.O.5.5.C.C.C.G.,./ C.C.V.o.4.,.,.H.C.C.C.H.H.V.H.' C.H.[ y.].F.C.5.H.H.G.O.| 4 2 ",
"5 o.| o.H.H.F.5.| o.,.N.F.F.N.5.5 f o.C.C.o.C.C. .5.4.,.| | X.4 > :.C.F.*.C.=.F.H.<.| | O.| 4.H.' 3.| l m Y O.| -.H.H.G.o.o.O.2 ",
"5 V.o.&.H.,.H.4.5.,.<.5.4.| | | 5 f o.A.5.o.C.5.O.f.5.,.5 2 2 2 , %.C.D.] C.] G.H.4.| % %  .3.H.q.<.| @ $ $ 1 1 ,.H.,.C.o.,.4.2 ",
"5 4 O.o.H.F.A.5.5.,.4.5.5.X X X s f o.C.5.,.C.5.O.C.4.1.5.4.C.5.! <.C.C.v.H.J.F.H.4.,.k.C.3.,.H.[ <.<.U U Q O.O.4.G.H.C.o.| 4 2 ",
"5  .X.o.H.H.H.5.H.C.4.H.5.9 9 9 9 y T C.5.,.C.5.O.B.5.5.Y.P.E.T.M.4.C.C.C.T.H.C.H.C.R.R.;XR.N.H.t.C.E.l.w.[.E.E.R.H.H.5.o.o.O.2 ",
"5 ,.O.>.H.,.H.T.-X5XY.C.5.6 6 6 8 y Q C.5.,.C.5.o.5.C.<X-X-XE.XXXX;XF.C.-.,.5.D.C.>X;X;X,X,X;XH.t.,X1X|. X+X#XR.<XF.-.N.O.o.%.2 ",
"5 3.o.o.H.T.H.C.4.H.H.D.F.x.2.v.h.m.H.C.5.,.H.5.O.C.H.E.B.C.,.V.! F.H.C.4.5.C.C.F.H.C.H.H.H.H.H.F.C.F._.q.v.5.>.5.Y.C.B.o.>.>.2 ",
"5 5 | ,.T.E.H.C.5.H.H.H.S.C.<.H.5.H.H.C.5.,.H.B.O.C.H.E.5.C.>.f.$.F.H.C.N.C.C.5.5.B.5.N.V.f.C.H.C.C.C._.q.n.5.o.5.P.B.5.o.| 4 1 ",
"5 o.| >.F.F.C.B.,.F.C.C.C.C.,.f.4.C.C.F.f.,.C.B.o.C.H.E.5.H.,.C.$.F.H.H.N.D.B.k.5.N.5.f.B.B.4.T.F.C.F.}.y.L.f.>.5.P.C.N.o.%.:.2 ",
"5 B.o.>.T.Y.N.5.,.4.C.4.5.C.5.B.f.C.5.C.5.,.H.N.o.C.H.E.A.H.,.C.,.F.H.C.5.H.C.C.H.H.H.H.H.H.H.Y.H.F.F.J.y.B.5.>.5.Y.D.5.O.,.4.2 ",
"5 4 O.%.T.4.o.o.| ,.,.,.,.4.C.4.3.5.5.F.k.Z F S o.C.H.E.C.H.,.C.4.C.H.F.5.C.C.C.H.4.,.4.,.4.,.M.w.H.C.F.y.B.5.,.5.Y.H.N.O.| 4 5 ",
"5 O.O.>.T.C.C.N.,.F.F.H.H.C.f.3.3.4.5.B.5.} B B ,.C.H.H.A.T.,.H.4.H.H.H.,.*.5.C.F.3.o.C.:.q...H.C.H.C.5.y.5.5.>.N.H.H.C.o.o.| 2 ",
"5 %.O.>.T.3.,.o.,.4.4.4.4.4.B.4.4.5.5.D.k.Z G H ,.C.5.5 % 2 = ; = | V.D.4.5.G.C.F.| % = % , ,.s.C.,.,.O.%.>.>.o.%.3.3.C.O.o.>.2 ",
"5 3.o.:.Y.5.>. .o.5.f.B.<.C.C.H.C.D.5.V.k.Q B B ,.C.5.O.4 4 3 4 } O.&.X.R R | | o.| X.2 x -.4.N.C.5.% . u z   . O C.3.C.o.>.>.2 ",
"5 4 O.%.T.4.o.O.o.3.5.N.5.5.C.D.C.C.5.A.N.} G S ,.C.B.O.5.C.4.4.X.X.; ; % % < 2 2 | | <.4.,.,.5.C.5.5 ^.`.=.& ^.(.C.3.C.o.| 4 2 ",
"5 :.O.o.T.H.5.5.,.5.4.V.B.H.H.F.C.C.5.V.5.} B B ,.C.B.O.C.H.C.H.&.O.X.X.| | 4 Q | O.,.C.D.,.3.5.F.5.' (.l O.) )., C.3.C.o.%.>.1 ",
"5 >.3. .H.H.C.,.4.C.H.5.k.H.4.C.5.5.4.C.c.,.H.f.,.C.f.O.C.T.c.s.1.F.C.C.,.4.N.;.4.5.F.C.H.3.,.5.C.4.C.F.P.-XC.H.F.H.4.F.4.,.o.2 ",
"5 o.:.:.C.H.G.N.,.5.H.V.5.C.C.5.C.5.C.C.C.4.H.5.,.C.B.o.C.H.C.c.s.C.x.H.3.5.G.d.f.4.H.C.C.<.4.5.F.5.4.C.A.E.C.5.V.,.4.4.,.o.O.2 ",
"5 B.>.j e w 5.5.5.5.4.4.D.C.4.F.C.C.F.k.5.h w w ,.H.5.>.C.H.5.D.#.n.5.H.,.5.T 4.5.5.H.C.H.5.1.5.C.5.5.C.H.E.C.f.C.j e w >.,.<.2 ",
"5 4 O.B 0.G 5.C.H.H.F.H.D.F.C.H.C.C.F.A.5.,.C.2.,.C.B.o.C.H.C.C.5.t.C.F.3.5.N.C.B.5.H.P.;X>XK.2.F.4.5.C.C.T.C.5.Q C G G >.| 4 2 ",
"5 X.o.N C } C.C.T H.o.H.E C.C.H.5.c.F.C.c.R.R.C.o.C.C.>.C.H.C.F.4.l.C.H.<.5.C.C.4.H.;X1X2X>XR.5.C.f.5.F.C.T.C.N.%.h.h C o.o.O.1 ",
"5 o. .5 D.H.H.C.o.H.&.H.' C.C.H.k.C.F.A.R.,X,X-X4.C.f.,.C.H.F.C.4.l.F.F.4.C.B.C.R.-X#XOXR.H.I.f.C.5.5.F.H.H.F.5.k.H.,.C.5 >.o.2 ",
"5 >.1 u F.H.H.H.o.H.,.H.' C.C.H.4.C.H.C.C.E.>X5XE.C.N.4.R.R.-XR.T.%X;XR.H.-XR.E.>X-XOXE.s.F.<.C.C.4.5.F.A.H.H.V.5.H.<.H.* | %.2 ",
"5 >.<.Q F.H.H.H.,.H.,.F.[ F.C.H.C.F.F.A.C.C.H.E.-XC.C.<X4X<X>X<X-X7X,X>XR.>X4XR.H.H.n.Q z ,.o.4.H.#.o.....%.>.O.O.&.3.H.%.:.:.2 ",
"R N.>.| &.,.,.&.4 O.4 | m O.,.,.,.,.,.,.,.,.,.,.,.,.,.,.,.,.,.,.,.{ ,.,.,.,.,.,.,.=.5.3.#.-.,.,.,.#.O.T ..>.,.-.-.,.,.,.4 &.o.4 ",
"X.>X4X4X4X<X-XH.5.F.5.v.Q.m.H.<X<X2X4X2X;X<X2X2X>XY.R.4X,XT.R.-XE. XR.;XC.E.>XC.b.H.<X5X>XH.C.I.,X{.T.Q.i.].>XR.R.4X5X2X;X;X-Xo.",
"| 5.0 C s +.H.X.2 2 ; 5 * 5 5 5 2 3 2 5 2 3 5 5 C.C.C.E.C.H.C.H.4..XC.T.5.H.G.e.R 5 2 5 5 5 = ; 5 - 2 : $ 2 2 2 2 A.B q N 0 C.2 ",
"| C.5.5.4.5.H.P.3 L / ( # I /.( & a !.P & I ^.Z.H.C.5.f.5.4.B.5.,.C.V.N.4.C.m.v.E.3 I /.( & L ` L # I _ v & I ` K.H.5.5.5.5.C.5 ",
"| C.r C w 6.F.C.-X'.n % l W.!.1 P (.) 1 P W.@XT.P.5.5.4.4.,.f.4.,.4.5.N.3.5.B.C.H.-X'.~.; I ).) = k `.) & P W.J.T.D.H w h t C.5 ",
"| V.8 N 6 Z -.4 H.-X-.R.{.*XR.R.*X$XH.R.=X#XI.H.4.4 1 1 % % % 2 = & 2 % % = 2 o.C.H.-XR.R.=X*X4.E..X=XC.5.=X:Xc.5 4.h 7 g 8 C.2 ",
"| H.Y.T.T.I.H.H.H.G.4.I.C.P.T.E.E.A.C.E.T.H.H.<.5 2 O.C.,.5.1.c.,.J.,.C.,.o.4 5 &.C.H.T.T.T.H.5.I.c.H.5.5.E.H.f.H.C.H.H.F.K.F.2 ",
"  # # # # & # # & & & # & # # # & # # & # $ # & #   # # # # # # # # # # # # #   # # & # & & & # & & & & & # # & # # # # # # #   "
};
