/* XPM */
static char *_620149153125[] = {
/* columns rows colors chars-per-pixel */
"64 64 247 2 ",
"   c #040403",
".  c #090603",
"X  c #0C0905",
"o  c #0C0C0B",
"O  c #130E07",
"+  c #14120C",
"@  c #1C150B",
"#  c #19160B",
"$  c #141412",
"%  c #1B1B1B",
"&  c #1A1912",
"*  c #0D130B",
"=  c #241C0E",
"-  c #20160D",
";  c #241E13",
":  c #261D18",
">  c #301F16",
",  c #1D2319",
"<  c #252214",
"1  c #2C2414",
"2  c #24241B",
"3  c #2B241A",
"4  c #2D2B1B",
"5  c #292918",
"6  c #342C1C",
"7  c #362917",
"8  c #2C341C",
"9  c #3C331C",
"0  c #35331C",
"q  c #28210E",
"w  c #232323",
"e  c #2C2C2C",
"r  c #2A2C24",
"t  c #332C25",
"y  c #2E3227",
"u  c #3A3323",
"i  c #3C3C25",
"p  c #34332C",
"a  c #3C3E2C",
"s  c #363728",
"d  c #393935",
"f  c #302F31",
"g  c #5B330F",
"h  c #45381D",
"j  c #543717",
"k  c #4B2711",
"l  c #743507",
"z  c #463A28",
"x  c #423D35",
"c  c #503B2A",
"v  c #3E432B",
"b  c #3B422A",
"n  c #3D4135",
"m  c #58421D",
"M  c #724A17",
"N  c #44442B",
"B  c #444A2E",
"V  c #49442A",
"C  c #5A4929",
"Z  c #454B32",
"A  c #4A4D34",
"S  c #4A4C3B",
"D  c #454439",
"F  c #534C3C",
"G  c #564A36",
"H  c #4B5236",
"J  c #4C533A",
"K  c #53553C",
"L  c #5C543D",
"P  c #53593D",
"I  c #585539",
"U  c #68583C",
"Y  c #735C3D",
"T  c #645330",
"R  c #706531",
"E  c #434342",
"W  c #4B4C47",
"Q  c #564D43",
"!  c #4E5145",
"~  c #565C41",
"^  c #5A5D44",
"/  c #595648",
"(  c #545454",
")  c #5A5B57",
"_  c #635B44",
"`  c #635C4A",
"'  c #695A46",
"]  c #755E44",
"[  c #665E56",
"{  c #5B6245",
"}  c #5E644A",
"|  c #5F6354",
" . c #63644A",
".. c #68654A",
"X. c #73644B",
"o. c #776749",
"O. c #6A6D52",
"+. c #686757",
"@. c #736453",
"#. c #746C52",
"$. c #7A6B53",
"%. c #786C5B",
"&. c #6D7158",
"*. c #7B755B",
"=. c #7E795E",
"-. c #777457",
";. c #686866",
":. c #756F65",
">. c #6E7164",
",. c #7B7D62",
"<. c #767768",
"1. c #7B7A76",
"2. c #5E5E60",
"3. c #8D4B0B",
"4. c #9B6217",
"5. c #A46B18",
"6. c #AA751E",
"7. c #89732D",
"8. c #A27329",
"9. c #846B4C",
"0. c #836C53",
"q. c #856D57",
"w. c #8C7353",
"e. c #84755B",
"r. c #8C745B",
"t. c #87795A",
"y. c #947C5D",
"u. c #957A5A",
"i. c #87784D",
"p. c #837D62",
"a. c #8B7B62",
"s. c #887A68",
"d. c #937C64",
"f. c #967D66",
"g. c #847D73",
"h. c #7E8175",
"j. c #7A8163",
"k. c #7C805B",
"l. c #B58425",
"z. c #B08F30",
"x. c #9D8030",
"c. c #C39B2E",
"v. c #CEAC3A",
"b. c #C9A335",
"n. c #D0AE3C",
"m. c #D2B23D",
"M. c #A79252",
"N. c #8B8369",
"B. c #898267",
"V. c #938265",
"C. c #9B8265",
"Z. c #94856B",
"A. c #9B856B",
"S. c #96896E",
"D. c #8A8677",
"F. c #9C8C73",
"G. c #948D7A",
"H. c #958974",
"J. c #9B947A",
"K. c #93936F",
"L. c #A1866A",
"P. c #A38A6D",
"I. c #A18564",
"U. c #A48C73",
"Y. c #A78E76",
"T. c #A3927A",
"R. c #AC947C",
"E. c #A8957A",
"W. c #B4987C",
"Q. c #AD936A",
"!. c #B4A772",
"~. c #9C916F",
"^. c #D8BB43",
"/. c #C6B073",
"(. c #D8C570",
"). c #7E7E80",
"_. c #898986",
"`. c #948B83",
"'. c #9A9688",
"]. c #9A9995",
"[. c #AD9983",
"{. c #A69988",
"}. c #B49B83",
"|. c #B79E88",
" X c #A69D93",
".X c #ABA38B",
"XX c #B4A18E",
"oX c #BBA38B",
"OX c #BAA785",
"+X c #ACA49A",
"@X c #A8A498",
"#X c #B3A493",
"$X c #B9A593",
"%X c #BCA995",
"&X c #B5A99B",
"*X c #BCAC9C",
"=X c #B2A899",
"-X c #B7B099",
";X c #ACAAA3",
":X c #ACACAC",
">X c #A6A5A3",
",X c #B4ABA3",
"<X c #BBAEA3",
"1X c #B4AFA9",
"2X c #BCB1A5",
"3X c #B6B3AC",
"4X c #BCB3AB",
"5X c #BAB9AB",
"6X c #B4B4B4",
"7X c #BDBBB3",
"8X c #BCBCBC",
"9X c #BBB7B2",
"0X c #AFB1A6",
"qX c #9EA091",
"wX c #C5A78C",
"eX c #C6AC95",
"rX c #C8B69C",
"tX c #D1B395",
"yX c #C2B2A3",
"uX c #C9B8A9",
"iX c #D4BBA8",
"pX c #C2BBB4",
"aX c #C6BDB7",
"sX c #CEA68A",
"dX c #BEC0BA",
"fX c #D5C69B",
"gX c #D6C6A9",
"hX c #C8C2BB",
"jX c #D6C6B8",
"kX c #D4CFB0",
"lX c #E9CEAD",
"zX c #F1EAB9",
"xX c #C1BFC0",
"cX c #C4C4C4",
"vX c #CBCBCB",
"bX c #CBC8C3",
"nX c #D6CCC5",
"mX c #DBD3C6",
"MX c #DBDBDB",
"NX c #D6D5D4",
"BX c #CECFD1",
"VX c #E4DBD5",
"CX c #E8D6C5",
"ZX c #EBE5DA",
"AX c #F4E8CD",
"SX c #E7E5E3",
"DX c #F2E9E2",
/* pixels */
"3X$Xy S a ` Q $.w.0.Y 9.9.w.r.] r.d.o.Z.+. X+X7XhX[ P $.A.!.d.f.[.s.A.1.J.+X@X1X@X-XkXfX-XfX'.2X X5X( 1X;X9X:Xz 6X8X@X3XQ 4X#X{.",
"bXaXE &.A O.F ] o.U.u.i.0.o.y.w.I.9.w.o.L rX4XMXNX:.X...g.&.<.D.O.N.-. .D.h.h.J.B.J.J..XqXJ..XE.K.{.H mXnXMXpXD cXMXjXCXG pX%X$X",
"aXB.d H.=.=.9 ..e.C.i.w.I.w.9.u.y.o.S.Y H fX*XAXbXs.' #...p.h.D.s.G.g.1.%.:.O.#.$.p.' / H } L O.L / 1 kXgXnXeXw iXnXeXAX' %X|.}.",
"nXZ.D <.H '.B U w.t.$.U A.I.w.u.w.w.P.L.G jXVXjX<XS @.G.@X,X|.R.|.U.C.Y.OXR.U.A.=.B.V.s.-.#.-.#.Z.[.; AXCX4X'.e ].9XjXVXG <X|.|.",
"7X@Xa B O.U...0.9.Y Y o.0.u.w.u.9.C.%XL...jXXX$XiX/ eX2X5XE.P.E.Y.y.C.C.OXU.}.C.Y.f.a.s.r.f.Y.,.*.|.6 ,X&XyX}.e ].6X:X6XG |.|.|.",
"5X#Xi 4 O.V.$.9.Y 9.9.f.P.fXu.Q.L.U.oXU.q.mX4XaXaX' E.a.[.S.A.Y.L.L.U.t.L.U.C.I.f.U.P.oXR.W.|.#.S.gXi aXpXaX%X6 =X8X8X8X/ |.Y.yX",
"0X*XQ s { e.Z.9.j w.q.Z b n z 9 A *XI.|.%.iX,XhX9X%.p.A.U.V.w.L.P.Y.P.C.E.U.W.W.*X<X*X=XyX}.pX|.aX XD ;X9XaXXXE #X6X8X:X) 1XP.4X",
"3X}.&.| H X.' w.C o.p..X,.$.a.S.Z jXY.XX%.,XXX$XiXQ ] Y.V.P.u.I.U.U.C.d.f.W.}.wX4XiXlXiXyXyX#XjXlXiXJ &X&XyX[.e wX*X#X,X[ XXR.4X",
"7X=X' } P Z q.w.C Y S.].L C V ..%.tX}.Y.q.iX<XaXaX_ V.T.*.e.#.A.u.V.A.C.S.R.iXcXjXjXbXkXjXyX$XmXjXVX+.aXpXaXeX6 yXpX4XbXU  X:XmX",
"3XuXa U ..O.#.w.9.o.Z.[.} i V -.D.rX[.Y.d.uX#XiX9X+.y.}.A.y.U.y.C.r.Y.W.fXlXzXjXAXDXSXVXlXzX4X3X4XNX| ,X9XaX XE &XaX1X&X[ <XgXNX",
"pXkX8 { P  .%.U.7.q.A.p...N I #.1.rX}.[.$.yX|.}.9X' V.W.C.C.C.I.Y.C.R.F.XXvXMXNXbXMXbXmXCXhX<XW.7XVX^ $X&X6X+Xz 1X9X|.#X;.#XpXVX",
"hXBX5  .N #.I.}.0.[.e.'.t.I I B.1.uXR.XX@.1X X}.}.d C.W.L.U.] I V ..I U C X.A O.{ ,...&.D.T.[.uX8XmX/ :X6X:X,.w D.D. .6X<.&XcXDX",
"cXvXK A O.O.`.J.W.X.A.=X#.=.&.#.h.eXG.6XL }.[.yX*X! t.e.-..X$ 6 q @ + # 0 @ 9 7 ; 9 = U G U f.R.7X6X2.#X>X>X Xf F.yX,.}.<. XmXDX",
"dXnX..B E.$.].XX~.V.L.qXp.e.U.r.g.=XL.XX` F.*XmXuXD t. . .`.r K 5 = @ 5 , 0 B 4 5 6 H b P ~ }.{.;XrX/ @X<XVXF., [.VX%X'.<. X8XSX",
"t % % % % % % % % % % % % % % % % % % % % % % % % % % % : % 2 P 3 X ; 0 0 # K #.i # 0 { ~ G gXXXeXuXU }.%XcXoXw oXxX%XR.:.6X9XcX",
"% : k g g g g g g g g g g g g g g g g g g g g g g g g g k % % 1 = = 1 i = = 1 V V 7 < 6 s ^ wXyXtXNX` S.|.%XOXt XX*X}.A.;.vX:X:X",
"% % 3.5.5.5.5.5.% 9 M : h M % M j 4.& 9 M % 9 M 5.5.5.5.l : %  .} H ^ f.%.U _ *.O.Q &.P U.G.&XXX8XaX~ T.oXoXoXh oX%XoXK.>.nX[.|.",
"W % 7 5.b.v.v.v., 7.c.% T 7.% c.b x., I M $ T 7.v.v.b.l.: % x G B t.V.P.}.A.L o.q... XJ.>X&XoXH.vXbXJ +X*X$X%Xu $X*XyX'.;.;X<XG.",
"bXW % h n.^.^.n.7.^.c.8.7.n.7.x.7.v.x.x.6.7.z.z.^.^.b.t % x G 7 N o.-.C.L.V.{ L t.&.J.B..X@XE.@XhXdX..lXoX$XpXt pX$XoXgX) cX2X;X",
"xXMXw % z m.^.v.n.^.c.b.^.v.R T R b.^.^.l.n.^.b.^.^.6 : x w.C @.0.X.Y Y.W.wXeX..-.r.XX@X$X@XqX[.dXMX} lX#X*X*X9 4X$X*XfX<.cX#XcX",
"dXMXO.2 % h m.n.n.m.b.b.^.j 6.b.5.j ^.^.l.n.^.v.^.6 % x O.t.A G P w.o.*.t.W.V.! y.T.G.{.D.}.J.'.1XNX( 5XOX5XoXc uX9XoX*X<.:XcX|.",
"dXZX} b p % h n.n.^.c.7.7 g M T M j 3 7.z.n.^.b.0 % e Z.X...V 1 U U X.I H r.-.t.,.Z.p.V.t.C.p.J.B.NX~ 5XyX2XwXz uXpXyX4X<.6XxX&X",
"dXDX..s F.E % h m.^.c.v.m j M z.M g M ^.c.n.n.0 % < J.B.*...] I V ' H U G ..A O.{ t.X.&.B.J.Y.$XlXSX .lX#X$X<X9 4X=X%XfX<.yXiX8X",
"5XDXB J D.@X, % h m.c.^.v.7 6 j ; h v.^.b.b.0 % ( @.G.J.O. .s 4 < @ = # 0 @ h 6 ; u = L G ' U.yXrXZX+.lXoXeX4Xu pX%X$XiX;.:X]. X",
"dXNXJ H OX$X..p : z c.n.j > 3 m : : m b.v.6 % Q oX+. XG.B. .b L 1 < q 5 & 0 Z 6 5 6 A i ~ ~ U.eXzXMX/ @X%X%X*Xt $X%X*X'.) ].>X].",
"0XBXP H #XD.>X Xx % h c.7.z.6.7.l.c.7.b.0 % Q oXoXX.{.D.S.-.2 { 4 < = u 0 # K #.i c 9 { ~ G [.uXzXVXO.U.oXoXwXh $XwXoXZ.>.-X3X:X",
"5XSXZ X.B.`.`. X|.x % h c.6.6.6.l.6.l.7 % d [.*XoX` OX[.U.p.@ 1 ; ; = i ; = 5 V z 6 2 t i ` [.lXzXAX..F.oX*XoXt oXyX|.Z.+.6X6X@X",
"7XNX..P ,.'.{.#XwX$XE % k 4.5.5.5.5.: % d [.%XhXyX/ ].#XU.C.` ' v D z U ] ] U ..H.] p.q.r.A.&XpXjXVX..XXyXcXXXw oXcX*XR.;.4XcXH.",
"3XgX..L G.].g.J.*X7XX.t % 7 3.l l > : r ..*X*XmXiXD &X#X%.=.t. . .~ O.N t.u.*.V.}.Y.W.%XR.|.R.R.iXZX..#X*XVXF., E.ZX$X{.+.bX*XrX",
";XaXL H $XrX1.wXS.;X..$.e % > l : ; D O...$XF.4XpX! F.Y.a.d.u.o.o.o.{ C Z.F.R.f.}.wX|.tX[.OXiXW.zXZX[ [.V.MXU.f E.NXN.J.+.#XxX2X",
"hXpXs ^ @X+X@.iXY.}.a...e.t % % % F Y.<.g..X[.R.E.Q ,XY.p.V.t.O.U #.P v 9.a.V.}.1XJ.R.R.oXR.[.|.$XZXU Z.XXR.U.e U.E. XV.+.,X8XhX",
"bX0X8 P nX'.+.#XW..Xr._ U.w.s % Q pX XS.Z.fX}.T.T.%.iXA.U.}.W.t...=.*.K R.P.T.J.{.F.N.}.Y.Z.N.G.G.MXG R.|.Z.+Xc XXZ.|.[.[ 3XcX|.",
"BX>Xv O.6Xg.@.wXoXwX{.P C.#.P.p.a.aX X[.g.iX[.[.R.] |.oXE.U.G.{.O.a.S.J Z.S.$XS.B.Z.<.&.=.&.S.,.>XZX/ }.}.}.Y.z Y.}.}.oX[ 6XmX*X",
"NX9XB O.<XL.q.|.tXW.J.Z a.y.}.U ,X<XwX|.`.bXeX}.R.` W.L.S.Y.V.B.=.&.t.-.F.Y.W.J.F.'.B.D.S.Z.p.,.XXvX` 1XXX}.W.t R.[.|.4X;.8XaX,X",
"BXbXi >.,XW.' oX7XY.J.U 9.y.iXa  XgX<X{.].<X8X}.T.q.[.P.R.{.R.}.{.S.,.#X=X%X8X*X2X6XdX-X-XyX.XF.@XNXX.4XyXR.tXz wXF.4X1X[ pX8X,X",
"vXMXs :.,XR.] }.tX}.Q.' ] f.G.Q D.uX,X;XD.$X%XU.U.f.<.g.[. X[.&X:X*X X XyX2X4X6X3X5XpX5XhX].OX&X XMX..=X[.Y.eXQ wXL.}.$X;.,X1XXX",
"mXMX4 B.#Xa._ Y.E.Y.uXiXCXyXtX4XuX[.].>X+.p.L.C.E.s...d.W.tXT.{.wXJ.}.G.<XhXpXnXhXkXAXAXgXAX2XjX4XmXg.Z.Y.[.|.@.[.Y.d.p.' <X1X X",
"+XSX5 j.oX'.u L.r.0.A.f.{.s.f.L.A.d.a.g.( Q r.r.d.%.V x / D S ^ D ^ A b / ( ! ^ F `  .O.+. ...../ +.@.U d.d.f.' f.d.d.U Q g.]._.",
"].SX5 O.wX X/ `.`.g._. X X'.'.].`.].`.`.:.`.).XX].:.g.[.D.[ :.{ U.Q 7 z 7 > 2 % & ; 1 ^ I N 9 H A N N K ..s.`.[ s.f.f.s.Q g. Xg.",
"'.SX8  .oX&XC sX[.Y.|.=XjXxXoXoX$X}.{.:X:.1XVXNXxX9X#XeXeXu.U.C.G _ 7 1 O =   X O   p ..N Z 1 N V B B H <.R.2XZ.vXxXyX1X` 6XxX<X",
"].SX8 O.$X@XL wX|.R.sXlXlXnX*X%X$XR.].6X>. XxXBXuX6X9X$XlXC C.V [.i N @ @ q . + + . *.Z H } 1 N B v K Z O.G.W.$.yX&XyXrXX.xXcX*X",
"@XSX< ,.OXJ.F U.P.T.I.C.A.G.=.t.e.s.>X9X;.gXlXhX*X+X2XOX=XU t.L q.U 9 3 @ N   # @ X o.P H  .5 H b B P K O.j.Y.#.pX|.|.gX_ 6X:X].",
"mXMX5 B.%X$.' |.tX}.J.G.:.F V.$.G gXyX6X;.:XbX%XN._.}.E.iXf.S.-.u.L 6 9 = z . @ q O Q Z H K < B i Z H S { j.=.$.#X2XyX-X( 3X6X%X",
"vXMXa >.&X|.' wXpXR.E. X^ o.V #.` gX&X;X<.G.oXpXtX.X*XoX}.r.R.A.y.U 0 9 @ c @ O 9 * ) N P P 4 B 0 b Z K P O.C.X.eX$X|.G.+.xX8X+X",
"NX3XZ  .$XA.%.|.eXW..X&XL z Z ,.g.gXoX|.+.>XxXaXXX'.vXXXXXw.P.u.u.C B N = 4 & = 4 + e.P { H i H v b H H O.O.-.#.oXoX|.V./ xXaX9X",
"vX>XN O.6Xg.#.sXoXwX.XS.} N V %.g.kX@XE.^ H.4X8X;X_.&XiXoXw.W.w.V.; N 9 q G @ 1 5 . t.} ^ K p P v v J A O. .S._ oX7XoXU./ 1XnX&X",
"cX2X8 P jX]...$XW.#XE.'.t.G C -.g.aX XN.Q '.p.@XD.'.$XuX}.$.R.&.*._ A z z 0 O @ o . +.^ K ~ 4 H H v H Z H } N.` [.BX2X'.) <XcX|.",
"hXhXs ` @X&X@.iXP.OXJ.E.=.#. .*.g.rXU.,./ D. .,.*.1.G.G.S.L t.&.&.! A z @ s . $   O $.L P ..4 { b A J ! } O.,.} E.DXF.[.+.#X8XaX",
"+XpX` H .XiX1.%XS.;Xa.@X$.-.t.X.g.%XU.&.S >Xg.B.&.` |.,.+.J ,.=.j.~ N H 0 p o $   X  .J B { 8 S B H K K ~ ^ <.~ T.uX'.N.+.#XcX-X",
"5XjXX.I G.qXD.G.2X4X,.G.&.=.Z._ :.1XB.^ D ].f ) _.g.:.+ ( x / 2.* n d.#.U % o ;.! H $ . v ! O   . Z E S e $ ) L ) E w _.E mX=XfX",
"5XMX/ P ,.G.{.=X|.yXF.G.=.D.<.~ g.XXN.J d 1.2._.>X( $ 1.].b ( w ) >.].) & d E &.I + * ( i ! o w ;.E H w % ;.>.>.e W :X:X( *XbXD.",
"7XSXH X.B.'.`.XX$XiX].Z.[.B.=.n g..Xp.P y cX].h.d ( ].>X;.: 1._.>.,.e E ) h.&.s $ ) W v , % Z +.( r % W ) W E % ( ].>X>.( 6X6X#X",
"3XBX{ b -XD.;X XeXlXD.<.qX>./ / N.T.,.{ 2 +.E $ w w < y % r x d x + & ! y x , * d 8 y 2 % 3 < 2 % $ r $ $ # o w $ $ & 5 ( <X8XbX",
"dXNXH H XX#X' A.|.pXT.%XJ.J.N.H.J.U.s.O.y ^ ,.,.=.p.d.E. .o.] U U U 6 i > o 3 1 7 1 @ O O @ # + & 1 = = 0 = < @ . + 2 S E ].BX1X",
"0XDXH J B.=Xh.=X$X}.}.,X%XN.U.|.T.U.s.*.s ..Z.,.a.+.$.,.#.-.,.#.y.] L c h ' t + +     . O X . o O # < @ O 4 q < < ; z ! ( 1X>X4X",
"dXZX} s Z.-Xs.&XwX|.}.%X$Xu.L.E.e.F.,.*.a E f D S F ( 5 y n G p y t z 6 & # O - @ o   o * * $   . + $ $ + X + @ , , * ! ) BXnX8X",
"cXSX{ a T.rX] }.[.R.[.Y.R.f.a.C.,.d.t.&. .;.>X_.| p f ;.S n r w d +.! s a p d 4 8 o , W = s $ W d n e w $ d s d , $ , ^ ( xXcX6X",
"dXVXO.a |.8XH uXL.[.Y.P.U.[.U.&.-.H.{.'.:.D.xX1.( ( 1.;.~ r E ( : t $ E n s 8 s n ! r d r r n W n 2 o f y u e o y e & p ) cXcX:X",
"hXMX~ ~ +X;XS W.|.}.W.L.L.R.Z.a.a.y.a. .>.1.g.( 1.1.>X;.e ].;.;.d , ).>X_.( f W W n W o d ( ( E o $ w e d , $ 3 0 O o d ( cX8XcX",
"cXSX^ A %X5XG w.f.f.d.0.q.X.o.X.X.X.../ 2.W 2.) ) n x a ;.f D $ n E E D a p o o     % , e , $ r % % $ r r w o $ # o & a ( ).>XD.",
"@XSX^ ~ 7XjXu M.C X X 0 M.m X X 1 Q.7.o . . k.Y       D I.+ X o z M.# X o + s.s +     %.Y   X @ 1.U X   X ` &     X B.z     w 0.",
"+XNXZ  .vXyXR 7 O X G M.7 X o G (.I   . $ Q.h O * # !.7.+ O   !.M.@ * O F /.L X O 6 /.T X X z (.R . O ; '.V . X D /.9 O   >.R O ",
"@XVX%.b NXJ.O X @ !.!.@ X @ !.!.@ O X i.Q.+ . . R /.h X X F /.C O O O ~.o.- . X 0.W.: X . q.W.7 X . ' M.; . X 9.W.& . - Q.L   X ",
" XaX/ 4 vXs..   = z       = z   .   < N   X   : G . . o @ U - . . . h 9   .   z C   .   : `   .   w E   .   t K . .   c c     . "
};
