/* XPM */
static char *_620149161323[] = {
/* columns rows colors chars-per-pixel */
"64 64 113 2 ",
"   c #1E230D",
".  c #152B0D",
"X  c #1E2312",
"o  c #1F251B",
"O  c #183310",
"+  c #24240E",
"@  c #2B230F",
"#  c #2D280F",
"$  c #30290F",
"%  c #222414",
"&  c #2C2512",
"*  c #262813",
"=  c #2E2815",
"-  c #24251B",
";  c #2A261B",
":  c #2D291D",
">  c #312712",
",  c #332A13",
"<  c #3A2E16",
"1  c #322B1A",
"2  c #3B2E1A",
"3  c #373016",
"4  c #3E3016",
"5  c #3D301A",
"6  c #262624",
"7  c #292723",
"8  c #262827",
"9  c #2B2A23",
"0  c #272729",
"q  c #272928",
"w  c #2B2B2B",
"e  c #332D23",
"r  c #382F20",
"t  c #322F28",
"y  c #373022",
"u  c #3B3222",
"i  c #34312B",
"p  c #3D3429",
"a  c #31392C",
"s  c #3E3E3F",
"d  c #412F17",
"f  c #413117",
"g  c #43331A",
"h  c #49361D",
"j  c #42381F",
"k  c #4C391D",
"l  c #503B1C",
"z  c #433522",
"x  c #493722",
"c  c #453926",
"v  c #4C3A22",
"b  c #45392A",
"n  c #4D3D2B",
"m  c #513D24",
"M  c #533E29",
"N  c #473A31",
"B  c #4A3E31",
"V  c #564227",
"C  c #55412C",
"Z  c #59442E",
"A  c #4F4134",
"S  c #4A423A",
"D  c #554233",
"F  c #594634",
"G  c #5E4936",
"H  c #5C4A39",
"J  c #634A34",
"K  c #694B33",
"L  c #624D3A",
"P  c #65503D",
"I  c #6B523C",
"U  c #444444",
"Y  c #4B4B4B",
"T  c #4F594E",
"R  c #515B4C",
"E  c #545454",
"W  c #575958",
"Q  c #5C5C5C",
"!  c #635342",
"~  c #6B5342",
"^  c #60605E",
"/  c #636363",
"(  c #696866",
")  c #666668",
"_  c #676968",
"`  c #6C6C6C",
"'  c #70706E",
"]  c #797069",
"[  c #747474",
"{  c #7C7C7C",
"}  c #8A0000",
"|  c #A50000",
" . c #A80000",
".. c #BC0100",
"X. c #A12524",
"o. c #AF2525",
"O. c #B02423",
"+. c #BD3736",
"@. c #D40000",
"#. c #E80000",
"$. c #8C5958",
"%. c #985859",
"&. c #A0585B",
"*. c #817368",
"=. c #887869",
"-. c #877F7C",
";. c #7E7E80",
":. c #838383",
">. c #878988",
",. c #8B8B8B",
"<. c #988D87",
"1. c #90908E",
"2. c #939393",
/* pixels */
"% ; - - % + - X - - X & ; ; - ; X ; - - & X - % - - X = ; ; % ; X ; - - & + - X - - X & ; ; - - X ; ; - * + - + o - % = ; ; - ; ",
"c x z h h g z h z z c c b v k j c x z h h g z k z k l h k k v h c c z g h g u k c k l h h m k h c v j j h 5 u h c k l k k k v g ",
"g g g g g g g g 5 r h v k m u g g g g h x h d d 5 g h g g h < g g k j h g k h g 4 u h h h g g g g g g g h h g g 5 g g k h g 5 g ",
"g g u g g h h d 5 h x k k k u g g g z m k h v d g x g h M m g f g g 5 M M k h < g g h v M v h g g g z x k x h 4 g x h k k n h g ",
"5 g 2 x h h h < 2 k h x k k h g g g g n v M m j g h m m h g g x 2 v b M M B M k x x v M v v v g g g g M v M M k h k m M h h g h ",
"g g h M C M v < f g k M M x u g g x h M F D l f g g k M k m 5 g g h h M F B M g h g k M v M g g g g g C C C x f g g k M k m 4 g ",
"g g h V Z C h g 4 u v M M D 5 g g g g V M D h g 4 g k V k G < g g x g V F M v d 2 r v M M H h g g h g V D D h g < g k M k G , g ",
"g g u C F F n < 4 h n D M M u g g d z V H F n f g x n M m V g f g h r C L F M 2 g j M J M m g g g g u V G D n f g k n V m V g f ",
"j 5 g C F D V 3 g g F F F D g h g u h A G D F 5 g g F F Z C k 1 g z g D F Z D , g g G J F F j g g z g A H F F 4 g g F F F D k < ",
"z p 5 M H P Z , < g F F H D 2 g z i h n L L F 4 2 g ! G G F h g u y u n L L D 3 g h ! L J L g g z y h A L H F 4 2 f ! G G D h 5 ",
"u g f C I P C < , g L F L F 1 h g g g Z L L V 2 g g J I K Z g 1 g h g F L P M 2 g h P P ~ ~ 2 2 g g g C L L M 2 g f J I K C g 1 ",
"u i 3 h c x x , : d x z z z 9 g g c , z n x x 1 < g x g j z 2 g h i 3 h n v x 2 : 5 C c c v d 2 g p < j M c c 2 < g z h h j < g ",
"u u 1 = # + + 1 9 9 @     + : g g p u & = + @ r , 1 >     + : 2 j u 5 & & + * r q : #     + e g g p z & # + + 2 < 9 #     + 9 2 ",
"w i 9 5 4 < 2 9 9 : , < 1 < i u p u r > > > 1 9 1 1 < 1 : < t y g i t < < < 2 9 0 e 1 < 1 < r i y u r & > $ 2 9 1 , < 1 : < t y ",
"t w = g g g 5 : 1 7 < < 4 k y i y y w , , , < : 1 1 < d 4 4 4 9 z w i d < < g : 9 7 1 g < g e 9 p y w 1 , , 2 : 1 1 d d < f 4 9 ",
"z a : 1 3 3 1 1 q = < < 4 4 ; 9 z w 3 , , , 1 1 7 1 < < f 3 ; 9 5 w 9 1 < < 1 1 9 1 < < < < 1 ; z w , > , 1 1 1 9 , < < g 3 ; 9 ",
"- : - - @ + - X - - X = ; ; % : - 9 ; - & + - X o - X = ; ; % : - 9 - - & % -   o - o = ; ; % : - 9 - ; % + - X - - % & ; ; - : ",
"S D N M M x b v N A S n D B D b S A N n n z b m A C D M M F A n B M N n n x b M N D D M C F D c S A N n M x b m B M F M C D D b ",
"c m h h m m d m h 3 h 2 g h v 5 v V j h h v d m h < h l h h m 5 n 2 h d v v < m h f h 4 g x m g x m k h h v g m x 2 h l h h v g ",
"g m c g m v 2 g < < g < 2 x h < g v v j m h g g d 5 g l h x h < g < h g v h e g g d g < < h h < g m c h l h g g d d g k h k h 3 ",
"u k h k m v d d < 2 g < 4 g g 1 z x h h m k g g < 2 g l h g g f d < d d m k 2 g 1 g d , d g g 1 z h h x m k g g < 5 g l k g f f ",
"g l f h k k g d : 4 r 1 g h < e f x g g k h g g 1 2 2 l h g < 4 < < 2 g k h < d 1 f 2 1 g g < e g x < g k h g g 1 r 2 l h f < 4 ",
"g l h g m h g d < < e 1 2 2 < > f g h g h k g d 1 f < k k 4 f , < < d d k k 2 5 1 g 1 : g d 2 < d g g g h k g g 1 d < h k 2 4 , ",
"z k g g x d g d 5 < : 2 r g 2 < r h d < v m d g 1 f 1 g k g 1 < < > d < m k g g 1 5 : < g g d d u h g < v v d g 1 f 1 g l g 2 3 ",
"2 h g d g k f g 2 9 e 2 2 g e < 2 g g 1 g v f g 1 , 1 g g g r , , 1 f e g k d h 1 1 9 , d g e 2 2 g g 2 h k g g 1 < 1 g h f e , ",
"5 g g < g x f u 1 : > r w d < d 5 g h < 4 n f 3 : < < g f f < < < > d < < M 1 u q 9 9 , < g < 2 g g g < < n f 3 ; 1 < 5 g g < < ",
"d < g 2 g k < 2 < : < < 1 d 1 g 2 d 2 9 f k g 1 < 1 4 4 g < 1 , , = 5 q f h < r 2 1 2 , < < 1 r 2 d 5 q g k f 1 < 1 4 f 4 < 1 < ",
"g d r < 4 g f 9 : 9 : 5 7 g < h g : z 2 2 g g e : : 9 g h 3 5 < , : u < 2 g e 9 9 : 1 3 $ d < g g : z < < g g e : : : g g < 2 < ",
"2 g d d g h g d 2 9 1 2 q f < < g 1 1 1 g g < e ; : > g h 3 < 1 1 1 : 1 f g 1 e = = w < : g < 2 g e 1 1 f g < e ; 1 < g g 4 3 1 ",
"< g g 2 < h < r 1 : = y : 1 1 1 g g q 2 g f 1 7 & 1 = g g 1 1 1 1 2 q 2 g g 1 q ; 1 : : = : 1 < g g q 2 g 2 1 7 & : = g g 1 1 1 ",
"2 f d 2 g g < 2 2 1 & 2 ; e : 2 r d 1 < g < 2 9 , , 1 < g 5 : 1 , < 1 < g 2 2 e 1 > w : ; : : 2 u < , < f < 2 9 , > 1 < 5 5 : 2 ",
"f g 5 < < 5 g : 9 : > 5 = > 1 1 t 2 : 2 < 4 < : , : 1 < f > = y 1 , = 2 < g < : : : 9 q = ; : < t 2 : 5 < g 3 1 , : 1 3 f > : 1 ",
"2 g f d h k g f 2 1 & 1 ; : t = w : 1 = < g = r 1 : = < < & 9 = e 9 1 < > f , r = 9 = 9 & q w 1 w e = 1 3 f 1 r 1 : , < 4 # w 1 ",
"f g f 2 g g f 1 1 : , u 6 6 = ; : i 9 ; , 5 = 1 1 = : < < 7 1 + e i q - 9 < < 1 9 7 0 0 6 0 1 : : r 9 - , 4 1 , 1 : : < < 6 = + ",
"d d g 1 g g < 2 < : < 2 : 0 > 7 5 w 6 q < 1 1 6 : , 9 < < = 7 * < 0 0 w , 4 < 6 1 7 q ; ; q ; 6 g q 6 q < 1 1 6 = > 9 , < = 7 & ",
"g < j < 5 g f 9 e : : 5 9 6 > q ; : : t 3 1 , 9 7 1 : < < & 0 : : 0 1 t , < 1 9 7 7 9 ; 9 0 ; 0 - 9 : t 3 1 = 9 9 1 1 < < & q % ",
"2 g 1 1 g g d e ; : 9 f 1 6 = 9 9 , 1 1 < 1 & q ` [ { { :.>.>.[ { ;.1.;.{ [ { ) : 6 7 ; ; 0 o 7 t > 1 = 3 e * 9 : q : < < & o % ",
"1 d 9 5 d g < 7 = = : < 1 6 = = ; , : 1 1 1 & : ^ _ ` [ ;.:.;.` ` { >.{ ' _ ` W 6 7 0 ; % ; 7 q ; , : 1 , e & : q : : , < = ; ; ",
"1 < 1 < g f 2 9 < > t : $ 7 = = = , 1 w , e = = / ` ` X.o.+.o.X.' { ,.{ [ ` [ Q 7 7 7 7 ; ; 7 = = , 1 9 , 1 = = 9 ; : 1 < @ q # ",
"t d : < < 4 < = 9 ; 9 q > q > q = 3 = : < 1 = ; ) ' ' ..@.#.@...[ :.2.Q { [ [ / 9 9 ; = 7 6 & q : , , : 3 3 = 6 9 9 : > < & q ; ",
"w w 1 , d , > 9 : q - 9 q ; X ; t : 1 , 1 9 * 9 ` [ [ | ..@...| { >.<.=.-.[ ;.) : 0 ; - & 6 - 7 i = 1 , 1 9 * 6 : q 1 < < @ - o ",
"9 w : , < < = : 8 9 : : = = : 9 * w : 1 , q , : ' ;.[ } | ..| } { ,.*.~ ] -.;.` 0 ; ; & > = 7 6 * w : 1 , 6 > : q : 1 , < ; ; ; ",
"1 w 1 = < < = = 9 : : ; : 7 7 : = w 1 q 1 7 = = ' { { $.%.&.%.$.{ 2.1.U ;.{ :.` 7 7 & ; & & 7 : = w 1 9 1 6 = = 7 7 : , < & 0 = ",
"= e = 1 3 , = ; 9 9 : > : 1 & q = t = : , : = ; ` [ { :.,.1.1.{ { ,.2.Y ;.[ { ) 9 9 : & ; ; & q = w , : , : = ; 9 : 9 , < = 0 w ",
"= 7 : = < < ; # w 7 = 9 ; 7 ; ; = 6 - = , : & & ) ' [ { >.,.,.[ [ :.2.Y [ ' [ / 9 q = & ; & & 0 1 q ; ; > : = > w 6 1 , < & ; 6 ",
"; q < > = , = = 9 - : : q 6 : ; = w * : 1 : = : / ' ` a a a a i ` -.,.Y [ ` ' Q : 6 ; = ; & > w & q * : < 1 = : : - , , , & : w ",
"; : 1 1 , , 1 1 1 > * : : : 7 = ; : ; : , 6 , 1 ^ ) ` . O O O . ` { >.Y ' ) ' Q : : + & & & & > : : : 7 < : : 1 = , * > < 1 ; = ",
", , 1 f , < , : 9 : & = q 1 : ; = , < > f = = 1 Q / _ . O O O . ) [ :.Y ` / ) E 8 9 & * ; & - ; = = : : < 9 q = 1 = # , > # = , ",
"r g 1 1 , 3 g e : 1 e g = 0 & = e > 1 3 3 : # 7 W Q / . O O O . ^ [ -.' ) Q / E 9 , @ @ @ @ @ 7 t , 1 : < : * 9 : q = 1 < @ o ; ",
"1 4 9 < , 3 < 6 = : : 3 & ; > : ; , : 1 < 9 = : E W / T T R R R / ` [ ) ^ W Q E 0 & & & & @ @ q % , q : , e = : 6 9 1 $ > = ; ; ",
"5 < = < , 4 4 9 , = w : & & = & = , , 7 $ 1 = : Y E W ^ ` ` ` W E ) [ ( Q E W Y q > & & & % & = = , 1 9 < 1 = : q 7 = > , & q # ",
"w f ; 2 , , 3 1 : : 9 6 > ; 1 : : 1 > : < < = - U s U Y Y E E U U Y W Y U s U U : 1 & - & & ; 7 = 1 > : , 1 = - 9 1 ; 1 , & 7 ; ",
"i 9 1 : , , > 1 = q ; 9 # 7 = & : & > 1 3 f = y = : = , # = = & & ; q 9 , f , 1 @ & > & & ; & > w y = = 3 5 = y 1 : = < , & w = ",
"7 e 6 1 , , , 1 , : : 0 = ; & @ = > q - 1 1 1 1 , : : > > : @ + ; 6 7 9 q 4 , , , , @ & @ @ @ ; 9 1 7 ; 9 4 = 1 = : : > > : 1 + ",
"1 w w 1 : , , 6 1 # : = ; ; & + , : q q < 1 , 6 1 , 9 = $ & ; & & ; 6 q , 4 , ; 1 = & - ; @ @ 6 5 : 6 q 3 1 1 7 1 , = # & & 7 & ",
"w w e 1 = , 1 w 7 = : > : > &   + & : t < q 1 9 q , 1 > # & & % ; : 9 9 , 4 = > , 1 @ & @ @ @ & - & : i < 9 = w q 1 & & = & 6 o ",
"w w = < > > > 7 : q - 9 = @ + + & & 1 , 1 w * 9 : 0 : & & & + X ; @ : : , < = , 1 > & % & # & & e : 1 1 1 9 * 9 = 9 : # # & - o ",
": w 9 , , # = : q 9 @ : 1 & # ; @ ; : 1 , 6 > 9 0 : 1 & > & & ; @ ; = 9 > < 1 = 1 = > & > & @ 7 & = : # 1 6 > : q : 1 > & = & 7 ",
"= w 1 = = > & = 7 7 : ; & & ; @ = & 1 7 1 9 = = 9 ; = & > @ @ = @ : & 7 ; 4 > = 1 = > ; & @ @ & @ & , & 1 7 & = ; ; = @ & @ - = ",
"1 9 = , 7 > ; ; 9 : = > & & & & & @ > 9 , : = - 9 9 ; & & & @ @ ; & > : , $ = = > = # > & @ @ - = : > : , : ; 7 9 9 ; $ @ = q 0 ",
"= 9 ; & # @ & > 9 ; ; = ; @ & & & ; @ ; , ; = & 9 7 > 1 > & ; ; = & & ; 1 $ # > , ; > & & @ @ @ > ; & ; 1 & & > ; ; > @ > @ ; 6 ",
"; q & > & @ & = : - & & & & ; % & 7 = ; 1 : = = 9 6 > & & @ ; @ & 7 % 9 = = > > = @ > @ @ @ @ @ & @ + ; < : = : # - 1 > > @ > : ",
": : 1 # > # $ @ # > @ : ; ; @ @ & & & ; , 0 1 1 > # + # & > @ & @ & = , # # # > > & + & & @ @ @ & & ; & & q 1 1 > & + & & > ; = ",
": > 1 , @ = > : = : & & ; > ; & & > & & & & & 1 1 & & # & @ & @ & > @ & @ = > = & & & @ - & @ ; + & & @ @ & # 1 = > & & & & = , "
};
