/* XPM */
static char *_620149137940[] = {
/* columns rows colors chars-per-pixel */
"64 64 111 2 ",
"   c #3D2E15",
".  c #413117",
"X  c #44331A",
"o  c #4A361C",
"O  c #4D391D",
"+  c #533D1E",
"@  c #473522",
"#  c #493721",
"$  c #4D3B23",
"%  c #533D23",
"&  c #523D2A",
"*  c #523F30",
"=  c #56401E",
"-  c #4D4025",
";  c #564121",
":  c #5B4222",
">  c #56412A",
",  c #5B442B",
"<  c #514C2F",
"1  c #5C4929",
"2  c #554232",
"3  c #594634",
"4  c #544831",
"5  c #5D4935",
"6  c #5A4738",
"7  c #5E4A39",
"8  c #5B5133",
"9  c #53553C",
"0  c #5B5639",
"q  c #54593E",
"w  c #5F5B3C",
"e  c #644424",
"r  c #6A4726",
"t  c #654826",
"y  c #6C4926",
"u  c #62462A",
"i  c #6B4629",
"p  c #644A2D",
"a  c #6C4A2A",
"s  c #714B27",
"d  c #744D2A",
"f  c #7A4F2C",
"g  c #6F512E",
"h  c #73512D",
"j  c #7B512D",
"k  c #624D35",
"l  c #6B4E33",
"z  c #624D39",
"x  c #6A4F38",
"c  c #714E32",
"v  c #655235",
"b  c #6C5334",
"n  c #695837",
"m  c #66513B",
"M  c #6B553C",
"N  c #655C3D",
"B  c #6C5A3C",
"V  c #745534",
"C  c #7C5532",
"Z  c #745836",
"A  c #7B5935",
"S  c #72553A",
"D  c #795639",
"F  c #735B3C",
"G  c #7B5B3B",
"H  c #6F603F",
"J  c #70613F",
"K  c #79613E",
"L  c #565C40",
"P  c #5E5D42",
"I  c #6C5541",
"U  c #645F41",
"Y  c #6E5A42",
"T  c #695E48",
"R  c #705743",
"E  c #735C43",
"W  c #795F41",
"Q  c #755D49",
"!  c #785F4A",
"~  c #5A6346",
"^  c #5A6348",
"/  c #636143",
"(  c #6C6146",
")  c #63654B",
"_  c #6C634D",
"`  c #62684C",
"'  c #756142",
"]  c #7B6245",
"[  c #75614B",
"{  c #7B634C",
"}  c #7E6551",
"|  c #81542F",
" . c #85582F",
".. c #815532",
"X. c #845A35",
"o. c #8B5C34",
"O. c #855D39",
"+. c #885E39",
"@. c #935F37",
"#. c #955F39",
"$. c #83623D",
"%. c #8B613B",
"&. c #826343",
"*. c #80664D",
"=. c #81694D",
"-. c #806753",
";. c #836B53",
":. c #846A59",
">. c #897156",
",. c #877159",
"<. c #8A725A",
/* pixels */
"E F I I E W n ' F ] W E m E v m R M x 7 , z v v 5 7 z 5 x v x m j n X.h C l x p k M : M j n X.0 | ..5 b j V | f r f j j V 8 t y ",
"I ] ' ! ] [ W W F E E E M M n v E E B k 3 M I M z v k 5 I E n m h Z j h D b k 1 I E p m f F j .. ...p g h | j V e h d d j j s d ",
"I ' ' { { F E E M E W Y M E M M E F v 7 7 M R F v 7 k 3 R B v m d C j s V l 7 p I F l k d C h O.' j g n j n ....y g d j j F s i ",
"M Q G { ] E E E B M W I M E v M [ I x k 5 m M Q n k 5 3 W n 6 z f B j s h l 7 p W n c z d Z j W H j n h V Z o.j i | j d X.G s r ",
"m N B ] ;.B F F B M { Y M Y x z { I z k 7 v E ! z 3 3 3 { M 2 k d j j e V s 6 p { B k z d f h N ] C f f f j $.j r f d d o.&.y d ",
"k I n { =.n F E B M ] M m Y v k { E 3 z 3 k F [ m 6 * u =.E 7 7 f s h e a s u e ] Q 6 k f s h Z ] n f f s g @.j e M s y #.&.r s ",
"z M k M Y k m E B k M z m E v z I m 3 5 6 k m m m 3 * u z z 2 3 t d j e i i u e k 7 , 3 r s j d A 1 r n v 8 o.d e 9 s i D | e y ",
"7 m k $ . & k E b $ o & z B x < O o 5 2 5 3 X o $ 2 3 # .   $ 4 t y d % % i u o .   % 1 r y d + = = r j d O O + i n a : O O % r ",
"> > $ . X X > + ; X . X & p , # X X % % > # X X X @ $ X     X $ ; : : + o O o .   . X % = : : + O % : : - O O + : 1 : = O O + = ",
"{ Q ! I m I [ E ! m I I m R Y z 5 3 7 E Y x 4 > 6 I I m 7 7 I I F ] W ..7 c S x z u x c ] ] ] | j ..] O.O.d d d ] &.%.X.h j | $.",
"] { { 7 v Q :.M M Y 7 z z R -.M , 7 z { B M 3 2 k x M v > 3 v M K F $.| 7 s M v , , v M K F $...j d G j j s e s S V Z A y y j A ",
"F { ! z 4 Q } b M Y 3 3 z Y { m 2 7 I } B F 3 2 z M R 0 , 2 m M H N ] d x d E z , : m M J N ] d d e E y s y e e v q N h e r j / ",
"F { E z 3 E { v R { 7 3 I E } I , k z } M F 3 2 v B W I 3 6 z E n w o.s k Z W Y 3 : m E M w o.s f y H t f e e e v L L F r e d Z ",
"M { [ z 7 E { M F ! 5 7 z Y E I 2 7 I { E E 7 3 R M ] M * 3 M R B N O.s F m W B 2 : m F B N O.s y y ~ y n y e e 8 L F C e e f F ",
"n { ! z 7 E } R F ! k k M { E E 3 z m { ! F z 2 ! m W B 5 3 m E C / ' d E m ' M 3 1 I M C / ' f d h ) f n y r r v ~ B I t y d j ",
"M { ! m m { :.Q ! ! M m E E ' ! 7 m m { E ] I 3 M z W Y 6 3 R n F / [ h M z G E 3 u R M F / ( h s f _ j V s d d V ~ w C s y f j ",
"E ! ! I m { :.E { { B Y { ] ] ' z m z { } { E 6 I m W F 7 k E M A / J j R m G D k k V R G / F | j j _ d B d | h Y ~ N | e d s V ",
"S ! -.[ I } =.! } { Y I { ' } ! m z I [ ! { Y x M M W Y M v E E X./ ( o.m M G o.M k F W X./ ( o.h B / j A d j b F ~ Z S s j d j ",
"S } Q } M =.;.{ } =.E ] -.] { { m z I ! { { E k I M W W M v E W j N Y ] I n G O.m v S ' j N H K Z N ( V F f h C G ^ / S y d d h ",
"T ! ! { Y } <.-.} } Q ' ;.=.] { m I Y R { -.] m E M [ { Y v Y E j N ( G Q V +.%.D x C J j N ( K  .A ) | V j V Z G ~ ^ S d d y b ",
"M ! { { R { <.} -.=.' { >.<.{ { m m R E { } ] m E E { W F n Q W j N ^ H Q C O.A C n A ' j N ) J V Z ) C C j j G O.~ ( C d j h ..",
"Q E { =.R } <.{ } ;.{ { =.>.] { m z E W { } ] I R M ] W ] v Y F C H H A I V ] W A M E E V / B A F A ` Z N s | A X.~ F V s f d C ",
"M W ] { R } <.-.[ { { { ] >.] ' z m I F { -.{ I Q I ( ] [ v E M 8 H / F ! V F &.D b D M 8 B / F A V _ C S d j C ..N ` C y g c j ",
"I R ] ] E =.;.} ] { { =.=.:.E E z 7 I F } } ] Y R E E { W M E B 8 / B V R D A &.F b C B 8 / B V j A ' V N h j ..G F P j d a x d ",
"S ! { { R { <.} } -.! ! >.<.{ { m I F E [ } ] m Q Q ! W W m E W h N ` F E V ! G G b X.E j N ` J Z Z ) C | h j G O.~ Y D d j j j ",
"E Q { =.Y -.<.} } ;.E *.=.>.] ] z m E E } } ] I R n { W ] n F E b H B A E M ] ] W b S E V N B A F A ` V B d | C X.~ G V s d j j ",
"m ! { ] R } <.-.] { { =.] <.E W z x I F } } { I ! M Y { E m F B 8 H ~ F ! M [ $.E b W S 8 N / Z C Z _ V n h j A X.U ` C a g V h ",
"M E ] W E =.;.} ! { { *.=.:.E E z z Y M { } ] Y R E J { W M E B 8 / B Z E S V ] W b E B 8 / H Z j A ' C N h f | A W P j d a l d ",
"S Q ] { E { { -.B E *.-.;.=.E W z I I M { ! W I M B S F E M W n < F ' E M V V G E c F n < F [ ' d j H C b l j C G W 9 f d d a f ",
"M I [ ] E =.] R R I Y { { >.B ! z z I b } { E M R M F W B v E n V C G C I b h W n k C M V j Z ..s Z C j d c j C V P L h a h e y ",
"k v W ] E { Y M n M m ] ' { n W z z m M ! F E M M B R M S m M 5 k d D | m E f v S l s k k d V | s ..b h y a f d C 0 L c a y e d ",
", k W Q M ] n M v k m B F ] W E 7 7 z n W F v z x M m v m 5 5 v : f j d v b f k l 1 , x : C j j y | y r r u p a j g q j y u e s ",
"+ 7 M F 7 I M z z 7 3 M I M B n 2 6 7 7 I m z 7 7 k z 8 5 2 2 2 + c y s 7 p e x a > 3 * + c y d r y y e r e e r s d 0 s e e : r ",
"o 7 z 7 3 7 m * m 7 * m k I n v > 3 7 3 m I 5 2 & 2 6 3 5 2 & & : y t e % , 1 3 3 , & & : y e e r e r : e : + : r t s r : + % e ",
"X & z 2 2 3 2 2 7 2 * k 6 b Y z * * z 3 z z 3 & & > 2 3 > 2 O @ % r e = & % & 3 & # # @ % r e ; : : % : e ; + + : r y e + + + s ",
"O + & * 2 & 2 > 2 & & 2 6 k 7 7 * * 3 3 3 6 3 & $ & * * * 2 & X + : + + # % * * # O % X + = + + = + % = ; + o = : e % e + o + + ",
", > $ . . o > + % X X o , , , # X X % & , # . X X @ @ o .   X $ + : % + X O o X     X % ; : = O + O : e $ O O O : 1 1 + + o + e ",
"{ E [ M I m Q ( Q m I I m I Y m k 3 7 E R z 4 , 7 I I m 7 7 m I G ] &...z c M x p i z D ] ] &.| f ..] +.+.d d d ] &.o.X.f f C O.",
"] } { z n Q :.M M I 3 7 7 Y } I , 7 z -.n M 3 3 7 v M x , 2 v M K F $.j 7 s M k 1 , b n K F $.| j s G j j y e d S V F Z i y j A ",
"F { R z 2 Q } M M Y 3 3 I I { x 2 k m { B F 6 2 m M E k 2 3 z Y ( N ] d x f E k 2 : z B ( N ] d d e Q t s y e e v q H h e y f U ",
"F ! W z 3 E ! M R } 6 3 x Y } I 3 k I ! I F 2 2 k F J Y 3 3 z Y n P %.s k Z G Y 3 : m E B w +.s f y U y d r e e 8 ~ ~ n e r d V ",
"m { [ k z E ! M S Q 5 7 z Y E I & k x { E E 7 3 M M G Y 2 3 I F B B X.s M M ' Y 2 : m B B N O.s y y ^ y b r e r v q F ..e e f F ",
"I *.] 7 7 E } E E } k 8 I { W E 3 z I { [ W z 2 Q m ' B 5 3 m I S H ' h Q m ' M 3 , I M C / ' f d h ) f b y t y 8 ~ H N y y d | ",
"M { ! m m { :.R Q { m I E ' ' Q 7 z m ! ! W I 3 I m E Y 3 3 E n F / ' h I m G E 6 u E n F / H d d f _ f V d d s V ~ w j y y d f ",
"E ! { m m } :.E { { I S { ] { [ 7 7 z { } -.E 6 I m W F k k F I F H H j F m G A z k C M G / J | f j ) d B d | h ( ~ M ..t f s b ",
"S ! -.[ I *.-.E =.{ T M { ] { R m I I ! E { B x I M E Y M v R E | / ( o.m M A X.M k F ' ..U ( +.V B / j A f j b F ~ b V d f d j ",
"M { ! } I =.;.{ } ;.E ] -.] { { z m I ! { { E k I B F W m x E W j N H K I M F O.M k D E j N F K Z Y ( C Z h c C G ~ U S s h f d ",
"T ! { { I =.>.-.} } Q ] ;.=.' } z I Y W ! -.] m R M { ] Y v R W j N ( K ! V +.%.D k D W j N ( ] ..A ) C V j D G G ~ ~ M s f t b ",
"S ! { { R { <.} } -.' ! :.<.] } m m E E { } W m Q E { W F M F ' j N ) J ! j O.G C M X.W d N ) J Z Z ) A j j j G X.~ Y C d f h | ",
"R ! { =.R } ,.} =.:.' =.=.>.{ &.z m E E { } { I R M ] E [ v E E V / Y A Y V { G A m E E V H B A Z A ` V B s | A X.~ F V s f f C ",
"M ! { ] Y } <.} E { { { ] <.' ] m m I S ! -.{ Y ! Y [ ] E M E B 8 B / F ! d W &.A b F n 8 N / F Z Z _ C n j j C X.U ^ C d a V d ",
"m E ] ' Q =.-.} { { { =.=.;.E E z 7 Y F } -.W Y E R F { W m W M 8 / B S E V D &.W b V B 8 / H V j Z ' C N V j | A W U C d p l d ",
"M ! { { R { <.{ } } ' { ;.<.{ } m m E E { -.] M R R { W F M W W j N ^ J E S ! ] F b X.W j N ) F V V ` A | j j A X.~ Y C d j h ..",
"E ! ] =.R -.<.} } ;.] =.=.>.] &.m m E E } { { m R B ] W ' v E E V H H A E M &.W W c S E V / H A F A ` V N s | A X.~ J V s f f j ",
"M ! { { R } <.-.] { { { ] >.] ' m z I F { -.{ I ! I T { [ n F M 8 B / Z R I [ $.W b F B 8 N / Z V Z _ V Z d j A X.N ` C y g b f ",
"m E ] ] E *.-.-.[ { { { =.;.Q Q z z I F } } ] Y R Q W { E M E B 8 / H V E D V { E b E M 8 / H Z j C ' C N V j j A E P C d a l d ",
"S E ] ] E { { { E Y } =.;.=.J W z z Y B { ! ' M M I B W Y M W B < F [ B B V V G E c W n < F [ Y d j B | l V j C G W q j d a a f ",
"S E [ ] ! =.] R Y Y Y { } >.F ! z m R m } { Q M M n F W n v F v V j D X.I b h W n k C M V | A ..s F A f d l j C D U L h d d r a ",
"k k ] ] E { B R M n m ] F { B W z z m M W F R m M E R M E m m x p f V ..m E f v S l y z p d D ..d ..b d y y d f V 0 q a a a e d ",
"> z W [ M E M n v k m B W ' E Y k 5 z m ] F m k x M m m b 6 5 v : h j d k b f k l , 1 x % ..f f y | d t r u a s j g q j a e e s ",
"% 3 M B z I M 5 z 7 3 m I B B M 2 7 z 5 I m z 7 3 k 7 v 5 2 3 * + c y y 7 k r l p > 5 * + c y s y y y e e e e e s d 0 s e e : r ",
"o 7 x k 5 7 v * m z & m 5 I B v 2 3 7 5 m I 7 2 % 3 7 3 3 2 & & : y y e & : , 3 2 > % & : y r e y e y % e : + e r r s r : + : e ",
"o & 7 2 & 2 2 2 7 2 * k 6 v S z * * z 6 z z 3 & & 2 2 3 2 2 # # + r e ; & % & 3 > O # # + r e = e : : % e : + + = r y r = + + r ",
"o + & * 2 * 2 * 2 2 2 & 5 k 7 6 * * 3 2 3 3 2 & o & * & * * % . + : + % O $ 2 2 # O % . + : + + : + + = + + o + : e = : + o + % "
};
