/* XPM */
static char *_620149149124[] = {
/* columns rows colors chars-per-pixel */
"64 64 240 2 ",
"   c #3A1A0B",
".  c #4B0202",
"X  c #4A0907",
"o  c #550505",
"O  c #5B0605",
"+  c #5C0807",
"@  c #5D0909",
"#  c #570B09",
"$  c #47160B",
"%  c #57140A",
"&  c #5A1D12",
"*  c #541C10",
"=  c #640C0B",
"-  c #690F0E",
";  c #6A110E",
":  c #671801",
">  c #6C1211",
",  c #691B14",
"<  c #731415",
"1  c #771718",
"2  c #7C1B1B",
"3  c #791817",
"4  c #7E1D0D",
"5  c #4B2613",
"6  c #5C2113",
"7  c #5A2C18",
"8  c #56351C",
"9  c #532E12",
"0  c #632214",
"q  c #692516",
"w  c #6B2619",
"e  c #6D291A",
"r  c #652C19",
"t  c #742B1C",
"y  c #792E1E",
"u  c #76241B",
"i  c #66351D",
"p  c #77331C",
"a  c #743108",
"s  c #7F1F20",
"d  c #583E21",
"f  c #7B2D21",
"g  c #772D20",
"h  c #6A3B22",
"j  c #7D3122",
"k  c #743922",
"l  c #783A23",
"z  c #5B4122",
"x  c #634425",
"c  c #6C4A27",
"v  c #6D4B29",
"b  c #694727",
"n  c #744D2B",
"m  c #7B4D2B",
"M  c #784127",
"N  c #7C522E",
"B  c #76512C",
"V  c #7F5330",
"C  c #7D4313",
"Z  c #821E1E",
"A  c #82201F",
"S  c #973C03",
"D  c #841F20",
"F  c #852222",
"G  c #8B2525",
"H  c #8E2A2A",
"J  c #852B25",
"K  c #932C2C",
"L  c #932A2A",
"P  c #833525",
"I  c #8B3A26",
"U  c #853D2A",
"Y  c #8B3B2A",
"T  c #883627",
"R  c #923D2B",
"E  c #94352C",
"W  c #962F30",
"Q  c #963131",
"!  c #9B3434",
"~  c #9E3939",
"^  c #983B34",
"/  c #8D3531",
"(  c #A03837",
")  c #A33C3B",
"_  c #884716",
"`  c #9D4B11",
"'  c #97470D",
"]  c #AF4908",
"[  c #834125",
"{  c #84432A",
"}  c #8B452B",
"|  c #834A2C",
" . c #894B2B",
".. c #94422E",
"X. c #99412E",
"o. c #93492F",
"O. c #80542F",
"+. c #8E4532",
"@. c #9B4432",
"#. c #954B31",
"$. c #9A4D34",
"%. c #964536",
"&. c #845632",
"*. c #865933",
"=. c #8C5C35",
"-. c #8E5E39",
";. c #8C5233",
":. c #9E5235",
">. c #915E36",
",. c #9C5339",
"<. c #945F39",
"1. c #965637",
"2. c #9A5726",
"3. c #A95C29",
"4. c #A24936",
"5. c #A44D3A",
"6. c #A94D3B",
"7. c #A4443B",
"8. c #A25237",
"9. c #A3543A",
"0. c #AB523D",
"q. c #A35B3D",
"w. c #AB593D",
"e. c #B55D2D",
"r. c #956139",
"t. c #9B653C",
"y. c #9E683D",
"u. c #946237",
"i. c #8F6036",
"p. c #A1643E",
"a. c #A36A3E",
"s. c #AB663A",
"d. c #BB6937",
"f. c #C55206",
"g. c #CC7539",
"h. c #CB631C",
"j. c #A63F40",
"k. c #AB4444",
"l. c #AE4949",
"z. c #A84643",
"x. c #B34D4D",
"c. c #B04847",
"v. c #AE5341",
"b. c #AD5D41",
"n. c #A65843",
"m. c #B35D43",
"M. c #BA5D4B",
"N. c #B45845",
"B. c #B65252",
"V. c #B95555",
"C. c #BD595A",
"Z. c #B95C53",
"A. c #B25651",
"S. c #9C6941",
"D. c #A56B41",
"F. c #AA6E43",
"G. c #A96343",
"H. c #B46244",
"J. c #B96446",
"K. c #BC664A",
"L. c #BD6A4C",
"P. c #B56B47",
"I. c #AE7145",
"U. c #AD7248",
"Y. c #B27346",
"T. c #B97747",
"R. c #B57549",
"E. c #B9764A",
"W. c #B6784C",
"Q. c #BC7A4B",
"!. c #BA7846",
"~. c #BD6554",
"^. c #BC6C52",
"/. c #BD7D52",
"(. c #B97651",
"). c #994F42",
"_. c #C15D5D",
"`. c #C16B4D",
"'. c #C37D4D",
"]. c #CC7C49",
"[. c #C46D52",
"{. c #C36757",
"}. c #C57154",
"|. c #C97256",
" X c #C37E51",
".X c #CC755A",
"XX c #CC795B",
"oX c #C87957",
"OX c #D17B5F",
"+X c #D87E40",
"@X c #C56262",
"#X c #CC6B6B",
"$X c #C96766",
"%X c #CD7561",
"&X c #D47E62",
"*X c #D87F61",
"=X c #CF6F70",
"-X c #D37475",
";X c #D9797A",
":X c #CF7171",
">X c #BE8154",
",X c #C6804E",
"<X c #C68153",
"1X c #CB8353",
"2X c #CE855A",
"3X c #CC895A",
"4X c #D18655",
"5X c #D48857",
"6X c #D18659",
"7X c #D48B5B",
"8X c #D98D5C",
"9X c #DC905F",
"0X c #DE834A",
"qX c #D68263",
"wX c #D98466",
"eX c #DD896C",
"rX c #D98967",
"tX c #DD9262",
"yX c #D99265",
"uX c #E18A6E",
"iX c #E19664",
"pX c #E49867",
"aX c #E69A69",
"sX c #E99D6C",
"dX c #E38E71",
"fX c #E59174",
"gX c #EA9A79",
"hX c #ECA06F",
"jX c #EEA271",
"kX c #F2A575",
"lX c #F4A877",
"zX c #F6AA79",
"xX c #F9AC7C",
"cX c #FCB07F",
"vX c #E0864A",
"bX c #DC8382",
"nX c #E28B8A",
"mX c #EC9987",
"MX c #FEB281",
"NX c #FCAF81",
/* pixels */
"8X2X1X'.9X6X1XE.3X9., F 2 H ; Z ) D L Q ) l.k.) G u *.2.a s.s.p # 3 = < F D & I v.N.%.P v.N.@.6.W.7X8X5X X8X7X<XR.R.D.D.Y.Y.F.D.",
"tX8X1XT.tX8X<X!.7Xo < Z G H L k.k.( ( ) c.c.c.c.) F ; a D.W.sXs.0 + > 3 K L ^ m.&XwX&X&XwXeX&X&XeXeX*X&X2X8X8XtXI.F.W.1XY.I.W.1X",
"7X'.R.9X8XQ.Y.tX} + - = 1 Z H ! K ( k.k.c.c.c.) K 3 O n v =.yXaXy.q.I. X3X>XW.F.U.U.U.P.W.R.t.r.E.R.t.<.Y.t.t.F.r.E.8X1XY.r.'.7X",
"hX8X'.8XaX6XD.<XG.[.w.K.J.[.[.}.[.&X*X&X&X&X&X[.L.L.XXQ.r.n Y.aX3XB & % < F 1 ! l.C.#X#X#X@Xk.C.#X@Xk.C.$Xx.A k.- sXhXaXT.Y.,XpX",
"kXhXaXkXxXkX8X'.r.t.*.y.Y.R.Q.T.Y.D.t.S.F.D.t.y.P g %.6 v S.>.Y.3XV O 3 H ( V.C.XXeXdXdXdXeXeXeXdXeXeXuXdXdXuXmXgXkXkXjX4X7XtXkX",
"hXsXzXcXxXsXtXR.r.v j P t e } A.C.{.XX&X&XqXdX&X2XiX8X>X-.p.&.` h.g.| } L.qXpX8X<X&X%X.XM.M.~.%XM.M.~..XM.4.~.%X..yXxXxXiXkXMXxX",
"kXiXsXkXkXiX4XY.<.n u.D.I.Q.D.I.S.y.,.6.y.t.9.n.n.%.f & w 9 k a.8XzX1X'.q.j ! R m.qXaXjXlXjXlXlXzXkXkXlXlXjXjXxXsXxXxXxXkXxXzXxX",
"iX8X1X8XtX8X'.Q.a.=.*.x 6 $ X < L B.C.x.( V.V.$X_.C.l.v.%.$.a.v r.pXyX;.H.}.W.pXyXpXaXaXiXtXyXaXiXtXtXaX6XiXtXtXtXiXiXtXiXiXiXiX",
"hXpXpXhXlXaX7X'.&.l } $.[ } 5.u.R.'.Q.7X1X3X2X5X7X8XyX[.6.R R &.<.tXlXR.D.} Y I Y ) k.V.@X$X-X;X@X#X-X-X-X=Xx.j.k.1.kXiXtXiXaXiX",
"kXlXMXMXcXkXiXE.t.>.=.m O.&.N n M X.6.4.l X.6.4...! k.C.T m.#.t.p.aXzX9X7 < L Q V.-X#XbXnXnXnXnXnXnXnXnXbXbX_.#X7.m.xXkX8X8XiX8X",
"1X5XtXhXiX1X1XI.u.u.r.=.=.o.w.m.9.`.^.w.w.`.^.W.W.W./.F.r.S.&.N V e.] f.4 G Q k._.@XC.OXeXdXgXgXgXmXmXgXdXwXuX*XOXkXiX7X!.'.'.'.",
"I.F.I.I.F.F.a.a.a.y.<.r.>.u.r.O.v x q q v x q q +.~.n.( Q H K 1 a d.jXNXF.6X8XiX8XaXpXpXaXaXlXxXhXaXlXxXjXaXsX9X X X4X'.Y.T.'.R.",
"'.T.I.Y.'.R.I.Y.F.5 @ 2 G H ~ L x.@Xx.@.x.l.F [ .XXXXX~.OX|. XI.=.r. XlXF.F.@.R 5.9.n.R n.~.{.%X^.~.{.%X.X{.{..X<./.pXiX5X5X5X X",
"iXaXaXiXtX8XE.p.S.r.D.W.Q.1X1XQ.7X,XR.y.U.D.D.D.v.@.4.4.5.6.R @.m =.7XsX<XL.}.XXqXwXfXwXdXgXgXgXfXgXmXgXmXgXuXfX&XoXjXkXsXaXaXtX",
"iXkXlXzXaXiX X<.=.1.D.Y.a.Y.E.R.Y.q.:.9.n.b.L.^.^. X5X8X X'.1XR. X*.yXsXI.S.*.@.R 5.T @.v.M.{.{.v.N.[.K.~.M.S.R.7XaXsXjXzXkXsXiX",
",X7X4X<X X8X XF.D.t.<.y.I.D.&.e j y t g j y g j e ).n.L = Z ; - = F.S./.S.r 2 k.F ) K x.$X-X;X=X#X-X;X:XC.l.A F { U.P.5XsXzXsX4X",
"'.Q.E.Y.'.D.=.o.9.8.J.w.L.H.m.8.L.K.|.J.|.[.}.,.J.^.C.) > H 3 = : ' ] f.: 2 ) j.L ) k.C.#X;X;X-X-X;X;X-X$Xk.j.H R.1X6XtXkXxXkX4X",
"8X'.'.T.E.y.N =.t.r.a.p.t.F.F.F.t.F.F.U.y.U.F.U.U.R.W.3XQ.<XJ.9.F.,XlXt.T.} ) ) K ( l.V.@X#X$X#X#X#X$X#Xx.) ~ W K.sXsXzXxXxXkXiX",
"iX,XI.y.&.#.9.w.$.K.m.K.J.J.J.H.H.`.J.m.H.L.J.H.}.L.m.:.z.> j j <.Y.iX/.m 1X X5X8XXX&XXXOX|.}.z.c.c.c.k.k.N.[.3XsXkXjXxXkXkXkXpX",
"8X'.F.>.N *.r.r.F.F.F.>.a.Y.F.F.F.F.F.F.I.R.U.Y.I.W.Q.<X6XwX^.$.<.1XhX1X=.$.( f R 9.p.E.1X3XtXiX2X1XtXiXtXtX7X'.tX7XiXiXtXiXsXiX",
"4XR.r.n 7 0 & 6 w t w o o - 2 H ) ) ) H @ - 2 ~ ) l.~ O u ^ 0 >.F.aXxX1X&.I.3XtX6XwX|.@XB./ %.4.R ^ 5.5.4.1.'.'.,X X4X1X'.4X8X5X",
"I.y.=.&.n [ [ w.8.`.[.9.:.#.,.n.m.n.q.9.9.#.9.G.^.oX%Xq z.~.+ : a ` ` p.k t t | S./.7XiXtX&XgXdX&X&XfXfXOXfX|.[.I.Y.Q.I.D.D.R.I.",
">.>.N N =.u.i R 4.X.U P I I @.5.R 4.4.6.R Y @.6.N.n.R./.2XW.t.&.t.jX].O.3 ! 2 j.j.x.5.;.F.7X8X4X'.6XtX6X,XQ.R.F.r.=.=.u.i.>.<.>.",
"u.>.>.m N *.=.$.w.9.o.E ) k.B.@X) k.B.:X$Xx.B.:X$Xc.j.- H w P.b I.lXD.W.`.n.! l.V.#X$XH < ! G ! T 6.0.v.5.=.t.>.&.O.=.i.-.i.>.>.",
"D.a.>.=.6 0 0 y j N =.y.r.U.R.W.r.U.Y.W.r.U.Y.W.<XI.<X}.[.o.1.t.tXaXu.N Y G.1X8XwXwXH.z.B.C.-X_.B.C.=X@X) 2 F | D.<.p.F.t.u.p.t.",
"D.F.t.Y.5 + o = A L 2 ~ F 1 ! ~ W H ! l.H F ! l.l./ U r Y $ N yXjXiXa.8XoX#.7.~ ..5.Y.tX9XtXaXaX7XpXaXaXeXdXJ.1XR.F.R.F.I.I.I.t.",
"F.R.F.t.I.r.y.y.P.8.n.L.9.n.^.[.}.}.}.^.9.H.^.^._.c.K + > : a ` e.Q.t.u.I.oXpX7X<XL.{ ) 9.K.{.N.6.M.(.<XtXiX8X1X4X X'.E.Q.'.!.t.",
"r.I.U.r.=.i T U t T Y Y Y 0.N.p...^ n.1.T @.n.b.D.Y.Q.r.y.&.Y.hXvX` p < - F U ..,.W.6XaX2XoX|.m.K.}.}.$.P z.%.u.iX4X'.F.Q.Q.Y.r.",
"=.a.R.a.=.O.v v =.1.a.D.Y.I.I.I.D.H.`.`.D.m.K.K.#.F 1 + O O.I.pXY.=.s.u A ) ) z.^ j.).N.D.t.!.rX<XE.2XY.F.T.T.!.Y.E.Y.a.I.I.a.u.",
"t.F.!.T.r.O.z 8 z 0 f w t t t P Y Y I I Y I @.F.W.yXaXjXN Y.4X9X>.b  XtX6XL.M._.@X@X#XB.B.) y  .D.W.Q.'.F.a.E.4X'.Y.Y.D.a.Y.F.u.",
"I.'.4X'.R.1.c z z t.u.m.,.Z Z ! k.j.) ! k.k.( ! A > 6 y.a.<XtX3X&.-.7 u Y G.Q.qXfXeXqXZ.x.) 3 H ! T =.8XY.Y.'.1X'.Q.'.T.!.!.Q.a.",
"Y.'.4X4X'.a.u.=.v B =.>.t.R.F.q.H.J.`.|..Xw.#.H s > = & a r.F.3X>.N Y.Y.oX}.C.{.%X{.M.7X8XyXXX&XeXXX8X7X1X4X8X8X8X8X8X8X8X5X1XW.",
"E.Y.R.Y.Y.F.D.F.T.a.F.a.a.*.M r . % g T ..*.Y.1XyXG.o.F.T.h.] 6 8 & g T ..*.W.1X6X&X~.F f 5.9.,.<X6X3XtXiXiXiXaXaXaXsXsXaXtX8X].",
"Y.D.r.r.D.F.<.t.Y.F.>.&.B N =.U.W. XU.}.[ , Z > q h D.N '.pXs.[ & F ) ) k.x.~ P Y -.oX/.'.rX(.w.|.|.D.<X9X5X8XaXiXiXiXjXaX9X1X!.",
"D.D.<.-.>.>.*.=.u.=.B 5 + > . = . * g ;.Q.7X,XF.H.{ =.r.pXY.v =.t.,.7.j.z.x.) ! W Q ~ 5.9.D.F.D.Y.F.R. X,X'.,X1X4X8XtXiX9X1XY.t.",
"r.y.S.>.>.*.m &.m &.=.$ = = F 1 @ F K L H w y v &.x a.Y.yXt.n i t | I.R.2XoXJ.Z.B.B.$X-X$Xl.G w &.-.y.E.Y.Y.a.Y.'.iXaXtX8XQ.t.u.",
"i.u.i.-.*.&.O.N n O.=.k % < 2 @ > L ) j.7.( Z O $ =.r.iX<X*.u.| #.U s W %.6.P.<XyX2X&XwXXXv.G F ! 2 , D.Y.Y.a.Y.'.5X9XiX1XT.r.>.",
"=.u.u.-.&.&.O.&.B &.*.u.<.t.,.+.{ #./ ! ) K 2 O $ a ' 3.r.*.d b t.F.R.P.,.V.V.) u R N.R.1XiX6XP.m.`.J.t.Y.R.F.a.!.Q.1X4X'.'.D.>.",
"-.i.-.i.&.&.&.&.O.*.r.8 = 0 6 y T =.D.Q.I.K.,.#.V 2.+X+XS = ; 2 G O g | D./.W.E.8.5.B.k.W f P | I.Y.F.y.D.R.R.<.D.E.E.Y.Y.!.R.u.",
"i.i.i.=.-.=.&.;.&.*.&.>.t.u.#.,.b.b.{ G t q y D.v t.1XD.=.%.T H Q > F K ! ~ %.7.q.E.Q.E./.F.m.T 3 j | D.y.F.I.y.y.t.F.a.t.F.I.t.",
"S.a.a.u.t.a.x u x &.=.r.D.r.F. XG.r.F. XQ.r.,.P.b R.1X>.x y.D.R.<XL.w.) 7.k.@X-XB.! / P 1.I.F.W.Q.Q.Y.y.-.t.t.<.u.=.r.r.=.t.t.u.",
"D.Y.Q.I.t.t.X + o = - A ! z.z., ! z.z., u q *.=.S./.1X&.*.o.k @ t ..D.7X6X|.XX|.C.l.K ) G < # M D.r.=.V n m m O.V &.&.u.u.i.-.-.",
"I.1X6X1XY.v o Z o G Z j.k.V.B.2 k.V.V.2 Q 2 # 5 _ C a.N 6 M =.D.Y.w.9.E g 4.r.Y.4X1X1XOXs.8.:.;.S.t.&.m n c n b b N &.>.r.=.=.r.",
"Y.Q.7X4X'.Y.9 O = < 2 F G G Z ; L D 2 - > & 7 n g.vXd.i @ 3 o + t ..D.<X1XtXoX^.J.%.@.0.Y.1X1X'.Q.F.y.p.<.*.*.N m *.y.r.u.-.=.r.",
"F.t.a.F.D.y.r.N i.r.F.Y.Y.Y.1X'.Y.Y.,X'.Q.'.=.*.!.1XI.*.1.k < F L ! K Q @.4.,.Q.6XyX X`.9.a.T.Q.Y.Y.Y.F.t.r.y.a.D.F.D.y.t.r.>.D.",
"u.t.>.<.r.t.N 6 w 6 w f Y Y Y T I Y Y T e k 1.>.!.1Xa.n P #.R.'.1X2X[.|.K.n.J Q 1 Y j R R I.I.Y.F.E.'.Y.I.a.r.Y.Y.a.>.t.F.y.t.>.",
"&.=.&.&.*.O.8 ; @ o 1 k 1.n.w.w.`.`.`.w.9.w.N =.!.9Xr.q., O > 2 f t @.0.M.G.>XpXiXaXiXaX3X4XE.a.F.F.W.a.r.>.>.<.y.=.m *.t.>.=.-.",
"=.=.=.&.*.c v &.=.=.r.D.D.D.N R T y t t e y | N 5X9Xa.*.&.=.=.t.P./.E. X|.OX|.}.[.}.[.K.[.9.w.} 0.>.<.*.=.*.=.&.N n n V =.<.y.t.",
"T.I.F.a.t.B z z 8 & 0 * # 3 A G O 3 F F H + o $ ' ] ] % = ; > H ! K L ! E @.4.@.R R X.4.6.6.4.5.D.W.Q. Xa.>.N V m c x v =.t.a.Y.",
"'.'.1X].F.&.X . . O ; Z ! ( K 2 ( ) W 3 F =   b 3Xa.!.c o.l 8.w.$.9.K.[.[.OXXX|.[.OX.X|.OXoX[.J.q.{ } ,.Y.y.=.*.=.O.x v =.r.I.Y.",
"1X5XrX8Xa.N 5 5 l } :.,.w.s.J.H.|.[.K.0.w.[ m 8 '.t.T.n <.O.M j j P I R @.N.M.6.4.N.M.0.0.0.M.n.U.3X2X<X1XE.I.I.a.=.B O.=.a.Q.!.",
"'.'.5X8XY.r.&.i e e y y E I R T I I } Y T I M x Y.E.W.O.c U } [ o.:.s.K.K.}.OX|.`.`.OX|.|.|.E.[.XXoXJ.w.s.Y.Y.I.t.r.=.r.Y.'.'.'.",
"F.t.I.Y.r.&.$ + . < G ! c.k.3 Z W k.1 H t } k | x 3X1X>.c r.t. .y j P I Y I T I I I T I T j t j T R I m p.Y.Y.Y.Y.I.I.R.'.'.E.R.",
"=.*.>.1.&.=.c i U #.t.F.'.R.1XQ.'.R. XQ.E.u.<.*.n Q.a.<.r X = . o > Z H K l.k.) W c.k.) K 1 = 2 K G = = 1 o B r.1X1X1X'.Q.Q.I.t.",
"O.O.*.&.N m &.=.u.y.=.*.n y y j n t j j 0 + . o . a _ 3.3.% o O 1 F G ! ( k.b.H.m.H.H.H.[.[.|.P.Q.,X<X>XE.y.Y.a.8XiX8X4X'.E.a.*.",
"&.=.&.&.N m x 6 $ = F 7.C.k.) ) B.l.) K 3 O + r b p.E.1XN t.a.a.a.I.=.0.5.5.@.X.4.6.@.R Y P R 2 A < 2 > * O.I.Y.8X8X1XY.Y.E.D.u.",
"u.u.>.*.*.*.n . = < K ! H L K ! ;.9.b.0.$.1.r.a.z =.a.1Xv *.7 # = 3 F K 5.w.w.w.L.`.J.J.`.Y.!.'.1XQ.Q.I.*.D.I.E.5X'.E.Y.'.Q.E.r.",
"D.a.R.Y.Y.t.*.X 2 g 9.q.,.t.a.Y.W.Q.I.D.{ T P y h N R.1Xv W.E.F.F.a.$.R 4.R R X.4.R R X.P P I P , > = 3 . 9 t.a.Q.!.E.Q.E.R.E.E.",
"R.Q.1X4XE.a.=.-.t.S.t.r.d t t q W Q H + + F p M O.N !.,XI.=.i * = . = Z G L ! ( ! G ! ) ! H ( ( Z O > - # &.*.y.a.F.Y.].4X1XY.Y.",
"R.F.y.t.r.=.=.u.=.&.&.o O = G W C.,.w.G.E.W.D.v 8 c m _ ' % . 1 - ; < 2 A L K ( L L L ( 7.) ( G @ > ! o A i a.y.F.'.1X8X8X,XQ.Q.",
"Y.t.=.u.=.*.*.&.*.y.i = 1 k %.y.W.W.1X=.k w F 3 O 9 _ 3.g.3.l o.} } U } o.#.8.w.o.o.9.K.H.[.}.K.K.XX[.[.L.E.7XR.Q.4X4X8X8X1X,XR.",
"R.a.y.y.Y.t.r.>.=.t.y.I.Y.Y.I.=.k 0 - @ L k.,.+.&.B =.>.U.y.z O.m k y y q e e P q u e y P P j P P t q y i t.a.Y.Q.Q.]. X,X'.R.Y.",
"I.a.t.t.Y.a.t.p.a.a.u.p.| } } 9.w.H.n.*.y.r.=.n c b p.a.W.D.B 8 O G o > 3 Z ! ! Z Z ! ! ~ ~ ! ! G 3 F 2 A $ =.a.F.p.F.I.I.a.a.Y.",
"8XR.y.I.Q.Y.a.a.I.Y.r.O.N c z k g t f P P P j w q B u.!.W.F.*.Q.I.E.Y.R. X'.1X]. X'.1X'.'.'.Q.1XtX3X8XtX3X<XE.Y.a.>.O.&.r.=.O.&."
};
