/* XPM */
static char *_620151290994[] = {
/* columns rows colors chars-per-pixel */
"64 64 78 1 ",
"  c #010030",
". c #000031",
"X c #010031",
"o c #000131",
"O c #000032",
"+ c #000132",
"@ c #010133",
"# c #020032",
"$ c #030133",
"% c #000034",
"& c #510000",
"* c #530000",
"= c #540000",
"- c #550000",
"; c #550101",
": c #540002",
"> c #863311",
", c #873311",
"< c #873213",
"1 c #873412",
"2 c #893312",
"3 c #883410",
"4 c #883412",
"5 c #893513",
"6 c #8A3413",
"7 c #883314",
"8 c #A95500",
"9 c #AB5500",
"0 c #A85600",
"q c #A85700",
"w c #A95701",
"e c #AA5600",
"r c #AB5700",
"t c #AB5701",
"y c #AA5502",
"u c #AB5502",
"i c #01BB00",
"p c #02BA00",
"a c #01BB02",
"s c #00BC00",
"d c #02BC01",
"f c #B9881F",
"g c #BB881F",
"h c #BB8721",
"j c #BB8722",
"k c #BD8723",
"l c #B98821",
"z c #BA8920",
"x c #BA8922",
"c c #BA8923",
"v c #BD8820",
"b c #BC8920",
"n c #BC8822",
"m c #BD8822",
"M c #BC8823",
"N c #BD8923",
"B c #BD8924",
"V c #DEBB43",
"C c #DCBC43",
"Z c #DEB944",
"A c #DDBA44",
"S c #DFBA45",
"D c #DEBB45",
"F c #DDBA46",
"G c #DEBB47",
"H c #DCBC45",
"J c #DFBC46",
"K c #DFBC48",
"L c #4243ED",
"P c #4242EE",
"I c #4343EF",
"U c #4543EF",
"Y c #4344EC",
"T c #4344EE",
"R c #FFDDDB",
"E c #FFDDDC",
"W c #FFDEDD",
"Q c #FFDDDE",
/* pixels */
"OOOOOOOOOOOOOOOOOOOOOOOOOOOOOOOOOOOOOOOOOOOOOOOOOOOOOOOOOOOOOOOO",
"OOOOOOOOOOOOOOOOOOOOOOOOOOOOOOOOOOOOOOOOOOOOOOOOOOOOOOOOOOOOOOOO",
"OOOOOOOOOOOOOOOOOOOOOOOOOOOOOOOOOOOOOOOOOOOOOOOOOOOOOOOOOOOOOOOO",
"OOOOOOOOOOOOOOOOOOOOOOOOOOOOOOOOOOOOOOOOOOOOOOOOOOOOOOOOOOOOOOOO",
"OOOOOOOOOOOOOOOOOOOOOOOOOOOOOOOOOOOOOOOOOOOOOOOOOOOOOOOOOOOOOOOO",
"OOOOOOOOOOOOOOOOOOOOOOOOOOOOOOOOOOOOOOOOOOOOOOOOOOOOOOOOOOOOOOOO",
"OOOOOOOOOOOOOOOOOOOOOOOOOOOOOOOOOOOOOOOOOOOOOOOOOOOOOOOOOOOOOOOO",
"OOOOOOOOOOOOOOOOOOOOOOOOOOOOOOOOOOOOOOOOOOOOOOOOOOOOOOOOOOOOOOOO",
"OOOOOOOOOOOOOOOOOOOOOOOOOOOOOOOOOOOOOOOOOOOOOOOOOOOOOOOOOOOOOOOO",
"OOOOOOOOOOOOOOOOOOOOOOOOOOOOOOOOOOOOOOOOOOOOOOOOOOOOOOOOOOOOOOOO",
"OOOOOOOOOOOOOOOOOOOOOOOOOOOOOOOOOOOOOOOOOOOOOOOOOOOOOOOOOOOOOOOO",
"OOOOOOOOOOOOOOOOOOOOOOOOOOOOOOOOOOOOOOOOOOOOOOOOOOOOOOOOOOOOOOOO",
"OOOOOOOOOOOOOOOOOOOOOOOOOOOOOOOOOOOOOOOOOOOOOOOOOOOOOOOOOOOOOOOO",
"OOOOOOOOOOOOOOOOOOOOOOOOOOOOOOOOOOOOOOOOOOOOOOOOOOOOOOOOOOOOOOOO",
"OOOOOOOOOOOOOOOOOOOOOOOOOOOOOOOOOOOOOOOOOOOOOOOOOOOOOOOOOOOOOOOO",
"OOOOOOOOOOOOOOOOOOOOOOOOOOOOOOOOOOOOOOOOOOOOOOOOOOOOOOOOOOOOOOOO",
"OOOOOOOOOOOOOOOOOOOOOOOOOOOOOOOOOOOOOOOOOOOOOOOOOOOOOOOOOOOOOOOO",
"OOOOOOOOOOOOOOOOOOOOOOOOOOOOOOOOOOOOOOOOOOOOOOOOOOOOOOOOOOOOOOOO",
"OOOOOOOOOOOOOOOOOOOOOOOOOOOOOOOOOOOOOOOOOOOOOOOOOOOOOOOOOOOOOOOO",
"OOOOOOOOOOOOOOOOOOOOOOOOOOOOOOOOOOOOOOOOOOOOOOOOOOOOOOOOOOOOOOOO",
"OOOOOOOOOOOOOOOOOOOOOOOOOOOOOOOOOOOOOOOOOOOOOOOOOOOOOOOOOOOOOOOO",
"OOOOOOOOOOOOOOOOOOOOOOOOOOOOOOOOOOOOOOOOOOOOOOOOOOOOOOOOOOOOOOOO",
"OOOOOOOOOOOOOOOOOOOOOOOOOOOOOOOOOOOOOOOOOOOOOOOOOOOOOOOOOOOOOOOO",
"OOOOOOOOOOOOOOOOOOOOOOOOiiOOiiOOOOOOOOOOOOOOOOOOOOOOOOOOOOOOOOOO",
"OOOOOOOOOOOOOOOOOOOOOOOOdiOOiiOOOOOOOOOOOOOOOOOOOOOOOOOOOOOOOOOO",
"OOOOOOOOOOOOOOOOOOOOOOOOOOiiiidiOOOOOOOOOOOOOOOOOOOOOOOOOOOOOOOO",
"OOOOOOOOOOOOOOOOOOOOOOOOOOiiiiiiOOOOOOOOOOOOOOOOOOOOOOOOOOOOOOOO",
"OOOOOOOOOOOOOOOOOOOOOOOOOOEEiiiiOOOOOOOOOOOOOOOOOOOOOOOOOOOOOOOO",
"OOOOOOOOOOOOOOOOOOOOOOOOOOEEdidiOOOOOOOOOOOOOOOOOOOOOOOOOOOOOOOO",
"OOOOOOOOOOOOOOOOOOOOOOOORREEEEOOOOOOOOOOOOOOOOOOOOOOOOOOOOOOOOOO",
"OOOOOOOOOOOOOOOOOOOOOOOOEREEEEOOOOOOOOOOOOOOOOOOOOOOOOOOOOOOOOOO",
"OOOOOOOOOOOOOOOOOOOOOOOOOOTTEE%OOOOOOOOOOOOOOOOOOOOOOOOOOOOOOOOO",
"OOOOOOOOOOOOOOOOOOO$OOOOOOTTEEO%OOOOOOOOOOOOOOOOOOOOOOOOOOOOOOOO",
"OOOOOOOOOOOOOOOOOOOOOOOOOOLTTTEEOOOOOOOOOOOOOOOOOOOOOOOOOOOOOOOO",
"OOOOOOOOOOOOOOOOOOOOOOOOO%TTTTEEOOOOOOOOOOOOOOOOOOOOOOOOOOOOOOOO",
"OOOOOOOOOOOOOOOOOOOOOOEEOOTTTTEEOOOOOOOOOOOOOOOOOOOOOOOOOOOOOOOO",
"OOOOOOOOOOOOOOOOOOOOOOREOOUTTTEEOOOOOOOOOOOOOOOOOOOOOOOOOOOOOOOO",
"OOOOOOOOOOOOOOOOOOOOOOEEOOTTTTOOOOOOOOOOOOOOOOOOOOOOOOOOOOOOOOOO",
"OOOOOOOOOOOOOOOOOOOOOOEEOOTTTTOOOOOOOOOOOOOOOOOOOOOOOOOOOOOOOOOO",
"OOOOOOOOOOOOOOOOOOOOOOOOEEOOTTTTOOOOOOOOOOOOOOOOOOOOOOOOOOOOOOOO",
"OOOOOOOOOOO$OOOOOOOOOOOOREOOTUTLOOOOOOOOOOOO%OOOOOOOOOOOOOOO%OOO",
"OOOOOOOOOOOOOOOOOOOOOOOOOOOOEEEEOO$OOOOOOOOOOOOOOOOOOOOOOOOOOOO$",
"OOOOOOOOOOOOOOOOOOOOOOOOOOOOEEEEOOOOOOOOOOOOOOOOOOOOOOOOOOOOOOOO",
"**31ww669ww86663--6666rrw9wwmmzmmz66mm999w---*-----*-*16mzmmmkVK",
"-*13w962wwww1261-*121>wwww9wkkkgmz26zMww9t-*-**-****--61zkmkmhSH",
"zmHH89wwkzSSww11*-16rwzkgkkkwwwwKKzmzk88mm13HS-*66HHHSzmwwmzzmHS",
"mBSS9ww9hmSVww76--61wwkmkkgkwww9SSmBMmwwmz62SK--12SSSVmzw9zkmmSJ",
"VVmmmkw9kkwwSSzm61--9wzmwwkkVK9wSHzmSHkz61wwmz71wwmm9wSSkk62w9ww",
"SCzzhmwwkzw9SKkg11-*w9mzwwkkSSw9SSkzSVkk22wwkk22wwgkwwKSzk26wwww",
"SShBBzhkww9www9w11*-62kzw9mm9wwwww16zmmgmk3>wwwwSSmmzmkgzkVKgk--",
"KSBhzhmkwww998w936**61zmw9zkwww9ww27mzgkmz22w9wwSHmzgmgkkkSVkz--",
"hMzmSSgzSSw8SK9w1366-*6122wwkk8w8wMzmkwwmk9wkkzkHSmkVKw9HKww>6**",
"hBzkSSkkSH9wSSww6111*-6166wwkmw99wkkkkwwzzwwzmmBSHmzSHwwSS9w66**",
"wwmkwwwwmmSSwww9HS61ww*-116>SS9wSSwwwwkkkmVKmhmzSHmm66zmw9ww**16",
"w8kzwwwwmzVS9w98SH22ww*-62>1HCwwSVwwwwkkmmSSghkkSHmm12km8www*-16",
"w9SS72kkSSKVkkw9SSVKw916ww6216wwkkVKmkwwzkzkmkw9HSSHwwHSkk61-*ww",
"9wSS61zzHHHHmmwwVSSSww11ww22629whkSSzzwwkkmkmmwwHSHS9wVKzk26**ww",
"SSwwSSHSmmSSSHhkmkww>261SSw912w9SVmBwwSSw9w9mmzmmmmzSZwwww>216hk",
"SSwwHVVSzkSSHSmmmzww2221SSww1>wwSSMzwwSSwww9zkkkmmkkSVwwww3222mz",
"kzBhzzSSwwwwmkwwmk>6wwSSVVzm6>HSSHHSSHSSmk9wwwzzSHwwmkVHw922VKww",
"mkBmkkVS9wwwmmwwkz21wwHSSSmz22SSSSSSVSSSmzwwwwzgHSwwkkVSww16VSww",
"zM61SSwwwwkkwwSSgk61wwSSzzwww9kzzzSSzzBzHSkgww66SHmkwwSS2612wwkk",
"kk11KVww99kzwwSSkk>3wwSSzm89wwkkmmKVkhhBSSzk9961SVmmwwSH2>229wzg",
"w9wwwwzkkkhkSSwwwwmkkk16mkzkhkwwMzwwhkwwzkww62mmHHSCzmCS62wwSKw9"
};
