/* XPM */
static char *_620151287353[] = {
/* columns rows colors chars-per-pixel */
"64 64 76 1 ",
"  c #000030",
". c #000031",
"X c #000131",
"o c #020031",
"O c #000032",
"+ c #000132",
"@ c #010133",
"# c #020032",
"$ c #000233",
"% c #000034",
"& c #530000",
"* c #520100",
"= c #520002",
"- c #540000",
"; c #550000",
": c #540002",
"> c #873412",
", c #883211",
"< c #893312",
"1 c #883410",
"2 c #883412",
"3 c #893513",
"4 c #A95500",
"5 c #A95401",
"6 c #AA5400",
"7 c #AB5500",
"8 c #A85600",
"9 c #AA5600",
"0 c #AB5701",
"q c #AA5502",
"w c #00BA00",
"e c #01BB00",
"r c #02BA00",
"t c #02BC00",
"y c #BB881F",
"u c #BB8721",
"i c #BC8721",
"p c #BA8920",
"a c #BA8922",
"s c #BB8A23",
"d c #BC8920",
"f c #BD8A21",
"g c #BC8822",
"h c #BD8822",
"j c #BC8823",
"k c #BD8923",
"l c #BD8924",
"z c #DEBB43",
"x c #DDBA44",
"c c #DFBA45",
"v c #DEBB45",
"b c #DCBB47",
"n c #DEBB47",
"m c #DCBC45",
"M c #DFBC44",
"N c #DDBD46",
"B c #DFBC46",
"V c #FFFF64",
"C c #FEFF65",
"Z c #FFFF65",
"A c #FDFF66",
"S c #FFFF66",
"D c #FFFF67",
"F c #4243ED",
"G c #4343EF",
"H c #4543EE",
"J c #4244EE",
"K c #4344EE",
"L c #4345EF",
"P c #4445EF",
"I c #FEDCDB",
"U c #FFDDDB",
"Y c #FFDCDC",
"T c #FFDDDC",
"R c #FDDEDC",
"E c #FFDEDD",
/* pixels */
"OOOOOOOOOOOOOOOOOOOOOOOOOOOOOOOOOOOOOOOOOOOOOO%OeeeeeeOOOOOOOOOO",
"OOOOOOOOOOOOOOOOOOOOOOOOOOOOOOOOOOOOOOOOOOOOOOeeeeeeeeOOOOOOOOOO",
"OOOOOOOOOOOOOOOOOOOOOOOOOOOOOOOOOOOOOOOOOO OOOteeeeeeeOOOOOOOOOO",
"OOOOOOOOOOOOOOOOOOOOOOOOOOOOOOOOOOOOOOOOO O OOttIEEEeeOOOOOOOOOO",
"OOOOOOOOOOOOOOOOOOOOOOOOOOOOOOOOOOOOOOOOOOO OOeeEEIEeeOOOOOOOOOO",
"OOOOOOOOOOOOOOOOOOOOOOOOOOOOOOOOOOOOOOOOOOEEOOEEEIIEIEOOEEOOOOOO",
"OOOOOOOOOOOOOOOOOOOOOOOOOOOOOOOOOOOOOOOOOOEEOOEEIEEEIEOOEEOOOOOO",
"OOOOOOOOOOOOOOOOOOOOOOOOOOOOOOOOOOOOOOOOOO OEEOOGGGGOOEE  OO$OOO",
"OOOOOOOOOOOOOOOOOOOOOOOOOOOOOOOOOOOOOOOOOOOOEEOOKKKKOOEEOOOOOOOO",
"OOOOOOOOOOOOOOOOOOOOOOOOOOOOOOOOOOOOOOOOOOOOOOOOKKKKOOOOOOOOOOOO",
"OOOOOOOOOOOOOOOOOOOOOOOOOOOOOOOOOOOOOOOOOOOOOoOOKKKKOOOOOOOOOOOO",
"OOOOOOOOOOOOOOOOOOOOOOOOOOOOOOOOOOOOOOOOOOOOOOOOKKFFOOO OOOOOOOO",
"OOOOOOOOOOOOOOOOOOOOOOOOOOOOOOOOOOOOOOOOOOOOOOOOKKKKOOO OOOOOOOO",
"OOOOOOOOOOOOOOOOOOOOOOOOOOOOOOOOOOOOOOOOOOOOOOOOKKKFOOOOOOOOOOOO",
"OOOOOOOOOOOOOOOOOOOOOOOOOOOOOOOOOOOOOOOOOOOOOOOOKHKKOOOOOOOOOOOO",
"OOOOOOOOOOOOOOOOOOOOOOOOOOOOOOOOOOOOOOOOOOOOOOOoKKKKOOOOOOOOOOOO",
"OOOOOOOOOOOOOOOOOOOOOOOOOOOOOOOOOOOOOOOOOoOOOOOOKFKKOOOOOOOOOOOO",
"OOOOOOOOOOOOOOOOOOOOOOOOOOOOOOOOOOOOOOOOOOOOOOEIEEEEIEOOOOOOOOOO",
"OOOOOOOOOOOOOOOOOOOOOOOOOOOOOOOOOOOOOOOOOOOOOOEEEIIEEEOOOOOOOOOO",
"OOOOOOOOOOOOOOOOOOOOOOOOOOOOOOOOOOOOOOOOOOO SSSSSSSSSSSSOOOOOOOO",
"OOOOOOOOOOOOOOOOOOOOOOOOOOOOOOOOOOOOOOOOOOOOSSSSSSSVSSSVOOOOOOOO",
"OOOOOOOOOOOOOOOOOOOOOOOOOOOOOOOOOOOOOOOOSSSSSSSSSSSSOOOOOOOOOOOO",
"OOOOOOOOOOOOOOOOOOOOOOOOOOOOOOOOOOOOOOOOSVSSSSSSSSSSOOOOOOOOOOOO",
"OOOOOOOOOOOOOOOOOOOOOOOOOOOOOOOOOOOOSSSSSSSSSSSSOOOOOOOOOOOOOOOO",
"OOOOOOOOOOOOOOOOOOOOOOOOOOOOOOOOOOOOSSSSSSSSSSSSOOOOOOOOOOOOOOOO",
"OOOOOOOOOOOOOOOOOOOOOOOOOOOOOOOOSSSSSSSSSSSSOOOOOOOOOOOOOOOOOOOO",
"OOOOOOOOOOOOOOOOOOOOOOOOOOOOOOOOSSSSSSVSSSSSOOOOOOOOOOOOOOOOOOOO",
"OOOOOOOOOOOOOOOOOOOOOOOO%OOOSSSSSSSSSSSSOOOOOOOOOOOOOOOOOOOOOOOO",
"OOOOOOOOOOOOOOOOOOOOOOOOOOOOSSSSSSSSSSSSOOOOOOOOOOOOOOOOOOOOOOOO",
"OOOOOOOOOOOOOOOOOOOOOOOOSSSSSSSSSSSSOOOOOOOOOOOOOOOOOOOOOOOOOOOO",
"OOOOOOOOOOOOOOOOOOOOOOOOSSSSSSSSSSSSOOOOOOOOOOOOOOOOOOOOOOOOOOOO",
"OOOOOOOOOOOOOOOOOOOOSSSSSSSSSSSSOOOOOOOOOOOOOOOOOOOOOOOOOOOOOOOO",
"OOOOOOOOOOOOOOOOOOOOSSSSSSSSSSSSOOOOOOOOOOOOOOOOOOOOOOOOOOOOOOOO",
"OOOOOOOOOOOOOOOOSSSSSSSSSSSSOOOOOOOOOOOOOOOOOOOOOOOOOOOOOOOOOOOO",
"OOOOOOOOOOOOOOOOSSSSSSSSSSSSOOOOOOOOOOOOOOOOOOOOOOOOOOOOOOOOOOOO",
"OOOOOOOOOOOOSSSSSSSSSSSSOOOOOOOOOOOOOOOOOOOOOOOOOOOOOOOOOOOOOOOO",
"OOOOOOOOOOOOSSSVSSSSSSSSOOOOOOOOOOOOOOOOOOOOOOOOOOOOOOOOOOOOOOOO",
"OOOOOOOOSSSSSSSSSSSSOOOOOOOOOOO@OOOOOOOOOOOOOOOOOOOOOOOOOOOOOOOO",
"OOOOOOOOSSSSSSSSSSSSOOOOOOOOOOOOOOOOOOOOOOOOOOOOOOOOOOOOOOOOOOOO",
"OOOOSSSSSSSSSSSSOOOOOOOO%OOOOOOOOOOOOOOOOOOOOOOOOOOOOOOOOOOOOOOO",
"OOOOSSSSSSSSSSSSOOOOOOOOOOOOOOOOOOOOOOOOOOOOOOOOOOOOOOOOOOOOOOOO",
"SSSSSSSSSSSSO%OOOOOOOOOOOOOOOOOOOOOOOOOOOOOOOOOOOOOOOOOOOOOOOOOO",
"SSSSSSSSSDSSOOOOOOOOOOOOOOOOOOOOOOOOOOOOOOOOOOOOOOOOOOOOOOOOOOOO",
"----22-=-------=21992>mMggvvgOOOOOOOOOOOOOOOOOOOOOOOOOOOOOOOOOOO",
"----22------=---229722MMjavvgOOOOOOOOOOOOOOOOOOOOOOOOOOOOOOOOOOO",
"--99vv99li9999agvn9999ajvv99gOOOOOOOOOOOOOOOOOOOOOOOOOOOOOOOOOOO",
"--99vv99ja9909ggvM9999ilMv90gOOOOOOOOOOOOOOOOOOOOOOOOOOOOOOOOOOO",
"22vvggguvMgg09vvilgg99gi99MMgOOOOOOOOOOOOOOOOOOOOOOOOOOOOOOOOOOO",
"22vvgggivvja99vvgglg99jj99vvaOOOOOOOOOOOOOOOOOOOOOOOOOOOOOOOOOOO",
"Mnulgg999999vvvvgguguu9999999OOOOOOOOOOOOOOOOOOOOOOOOOOOOOOOOOOO",
"zvgggg999999vvvzggullg9999959OOOOOOOOOOOOOOOOOOOOOOOOOOOOOOOOOOO",
"vv99gg99livMgggiggvvugvv59vb0OO%OOOOOOOOOOOOOOOOOOOOOOOOOOOOOOOO",
"vv99gg99lgMMggggggvMgivM99MvqOOOOOOOOOOOOOOOOOOOOOOOOOOOOOOOOOOO",
"vv99vvvv99gggggggg9799agMm999OOOOOOOOOOOOOOOOOOOOOOOOOOOOOOOOOOO",
"vv99vvMv99gggggggg7999livv999OOOOOOOOOOOOOOOOOOOOOOOOOOOOOOOOOOO",
"<2igvvlujjggggggvv22ggvMvzug9%OOOOOOOOOOOOOOOOOOOOOOOOOOOOOOOOOO",
"22gavvagilggggggvv22ggMvvvgu9OOOOOOOOOOOOOOOOOOOOOOOOOOOOOOOOOOO",
"2222vvggguggguvv99vvvvguvvvv9OOOOOOOOOOOOOOOOOOOOOOOOOOOOOOOOOOO",
"2222vvigllggguvv99vvvvggvvvv9OOOOOOOOOOOOOOOOOOOOOOOOOOOOOOOOOOO",
"9999gg79ug22vvgggulavv99vv99<OOOOOOOOOOOOOOOOOOOOOOOOOOOOOOOOOOO",
"9999aa99gg22MvlulggjMn99mv992OOOOOOOOOOOOOOOOOOOOOOOOOOOOOOOOOOO",
"ga9999gggg22222222Mvaivv992>2OOOOOOOOOOOOOOOOOOOOOOOOOOOOOOOOOOO",
"gg9999ggga22<>2222Mvilvv99212OOOOOOOOOOOOOOOOOOOOOOOOOOOOOOOOOOO",
"ggglgglggggujj99222><>99--22MOOOOOOOOOOOOOOOOOOOOOOOOOOOOOOOOOOO"
};
