/* XPM */
static char *_620151283325[] = {
/* columns rows colors chars-per-pixel */
"64 64 86 1 ",
"  c #000030",
". c #000031",
"X c #010031",
"o c #000131",
"O c #020031",
"+ c #000032",
"@ c #000132",
"# c #010133",
"$ c #020032",
"% c #000233",
"& c #000034",
"* c #000134",
"= c #010135",
"- c #020034",
"; c #530000",
": c #540000",
"> c #550000",
", c #550101",
"< c #540002",
"1 c #873311",
"2 c #873412",
"3 c #893310",
"4 c #893312",
"5 c #883410",
"6 c #883412",
"7 c #893513",
"8 c #8A3413",
"9 c #883314",
"0 c #A95500",
"q c #A95401",
"w c #AA5400",
"e c #AB5500",
"r c #A85600",
"t c #A95701",
"y c #AA5600",
"u c #AB5701",
"i c #AA5502",
"p c #AB5502",
"a c #AB5603",
"s c #AC5603",
"d c #01BB00",
"f c #03BB01",
"g c #00BC00",
"h c #BB881F",
"j c #BB8721",
"k c #BB8722",
"l c #BC8622",
"z c #BA8920",
"x c #BA8922",
"c c #BA8923",
"v c #BB8A23",
"b c #BD8820",
"n c #BC8920",
"m c #BC8822",
"M c #BD8822",
"N c #BC8823",
"B c #BD8923",
"V c #BE8923",
"C c #BD8924",
"Z c #DDBA42",
"A c #DEBB43",
"S c #DFBB43",
"D c #DDBA44",
"F c #DFBA45",
"G c #DEBB45",
"H c #DEBB47",
"J c #DDBD44",
"K c #DCBC45",
"L c #DFBC44",
"P c #DFBC46",
"I c #DFBC48",
"U c #4243ED",
"Y c #4343EF",
"T c #4543EE",
"R c #4344EC",
"E c #4244EE",
"W c #4344EE",
"Q c #4444F0",
"! c #FEDCDB",
"~ c #FFDDDB",
"^ c #FFDCDC",
"/ c #FFDDDC",
"( c #FDDEDC",
") c #FFDEDC",
"_ c #FFDEDD",
"` c #FFDDDE",
/* pixels */
"++++++++++++++++++++++++++++++++++++++++++++++++++++++++++++++++",
"++++++++++++++++++++++++++++++++++++++++++++++++++++++++++++++++",
"++++++++++++++++++++++++++++++++++++++++++++++++++++++++++++++++",
"++++++++++++++++++++++++++++++++++++++++++++++++++++++++++++++++",
"++++++++++++++++++++++++++++++++++++++++++++++++++++++++++++++++",
"++++++++++++++++++++++++++++++++++++++++++++++++++++++++++++++++",
"++++++++++++++++++++++++++++++++++++++++++++++++++++++++++++++++",
"++++++++++++++++++++++++++++++++++++++++++++++++++++++++++++++++",
"++++++++++++++++++++++++++++++++++++++++++++++++++++++++++++++++",
"++++++++++++++++++++++++++++++++++++++++++++++++++++++++++++++++",
"++++++++++++++++++++++++++++++++++++++++++++++++++++++++++++++++",
"++++++++++++++++++++++++++++++++++++++++++++++++++++++++++++++++",
"++++++++++++++++++++++++++++++++++++++++++++++++++++++++++++++++",
"++++++++++++++++++++++++++++++++++++++++++++++++++++++++++++++++",
"++++++++++++++++++++++++++++++++++++++++++++++++++++++++++++++++",
"++++++++++++++++++++++++++++++++++++++++++++++++++++++++++++++++",
"+++++++++++++++++++++++++++++++ ++++++++++++++++++++++++++++++++",
"++++++++++++++++++++++++++++++++++++++++++++++++++++++++++++++++",
"++++++++++++++++++++++++++++++++++++++++++++++++++++++++++++++++",
"+++++++++++++++++++%++++++++++++++++++++++++++++++++++++++++++++",
"++++++++++++++++++++++++++++++++++++++++++++++++++++++++++++++++",
"++++++++++++++++++++++++++++++++++++++++++++++++++++++++++++++++",
"++++++++++++++++++++++++++=+++++++++++++++++++++++++++++++++++++",
"+++++++++++++++++++++++ffff+++++++++++++++++++++++++++++++++++++",
"+++++++++++=+++++++++++dddd++++++++++%++++++++++++++++++++++++++",
"+++++++++++++++++++++dddddddd+++++%+++++++++++++++++++++++++++++",
"+++++++++++++++++++++dddffffd+++++++++%+++++++++++++++++++++++++",
"+++++++++++++++++++++^``)fffddd++%++++O+++++++++++++++++++++++++",
"++++++++++++++++++++=))))dddddd+++++++++++++++++++++++++++++++++",
"+++++++++++++++)_++++++))))++++++))+++++++++++++++++++++++++++++",
"++++++++++++O++))++++++)))) +++=+))+++++++++++++++++++++++++++++",
"+++++++++++++++))))))))UUQU`))))))_+%+++++++++++++++++++++++++++",
"+++++++++++++++))))))))RUQR))))))^)++++ ++++++++++++++++++++++++",
"++++++++++++++++++++++=QURR+++++++++++++++++++++++++++++++++++++",
"+++++++++++++++++++++++RRQW+++++++++++++++++++++++++++++++++++++",
"++++++++++++++++++++++=RQRW+++++++++++++++++++++++++++++++++++++",
"++++++++++++++++++=+=++QRQU++++++++%++++++++++++++++++++++++++++",
"+++++++++%O++++++++++RRRQUQRW+++++++++++++++++++++++++++++++++++",
"+++++++++++++++++++++RRRQRRQQ+++++++++++++++++++++++++++++++++++",
"+++++++++++++=++++++=RQ=++=RU))+O+++++++++++++++++++++++++++++++",
"+%+++++++++++++O+++++RR++++UW))+++O+++++++++++++++++++++++++++++",
"++++++O+++++++O+++=))))++++))+++++++++++++++++++++++++++++++++++",
"++O++++=+++++++++++))))=+++))+++++%+++++++=++++=++++=+=+++++++++",
"LmmLGmmLKGGGFmmhmmmmjmxjm17mjuuuu,,,,;,,,,,,,;,,,77mmmmmmGG47,;,",
"GjjAKCxGGGGGHmmmmmjjjjCjm74mjuuuu,;,;,;;;,,;,;,;;71mjmmmjGG11,,;",
"jGGwujjGGmjuummmmmjuuwuGGmmmjwumm14GGuu;,,;17AGKGxjuumjmjGGuujju",
"jGGuummGGmjuujjmmmjuwuuGFmjxjuujm17AAuu;;;,11GGKGjmuumjjCGGuumCu",
"juuGGmj79mjmxjjuumjGKwuGGmmGGjm77uujjuqjm71uujmuuGGjm47wuuumjmjG",
"juwGGjj41jjxjmmuujjGGuqKGjjGLmm71uujjuujj11uummuuGGmm41uuuujmxmG",
"uuuuuwujCuu47mjuuxjuquuuw91Cmjmmj11uuuwwuuuAGmjCjmmmmGGGGjmmcmmm",
"qwquwuuxjuq17jjuujjuuuwuu77xxjmmx41uquuuuuuGGmCmjjmmjGGKGjjmmmmm",
"GuwGGuuGGjxuuCjmjuumjuuwuCmjjuuhjuujjqu71jmGGxjGGuuGGuuGGjmmjjCG",
"GuuKKwqGGjjuujjjxuujjuuwujjxxuumxuujmuu14mmGGNCGAuuGGuuGGmmjCjmG",
"jGGuuwuGGuwqujj74mjGGquGGuquujCmjGFjjCj,;xmGFjj74GGuujmmmGFCxGGu",
"jGKuwuuGGuuuujm41mjGGuuKGuuwujjjmGLCmmm,,jmKGjj41GGuujmmmGGjjGAu",
"GGGjjuwAAGGuuGKuujxGGqujjGGjjuujmmmmjuu14uuFGGGuuGGxjjxjmKGGGjjj",
"GGGjjquGGGGuqGGuujjAAuujjKGjxuujmxjxjuu44uuGGGGuuGGjmmCmmGLKKmmm",
"xGGGKuujjuquuquGGuujjuuGGjjuuGGuuuwjmmjjjmjjmxmGGGGwummGGmmmm775",
"jGGGGuujjuuuquqKGuumjuuGIxjuwGGuuwujmjmmjmmjjjmGGGGuujjGGmmmm917",
"uGGwu1741GGuuDGGGmjjjGGAGGKGLGGmjuuuu7477mmALuujjGGuuxjGAGKmmjju",
"uGKuu4114GGuqGGGFmmjmAGGGGFGKFGmxqqqu1117xjGGuujjGGuujxGGGGjmmmu",
"Gwu1817xjjj11KGxjuuuuCmmjGGjmmmGGxxuwuu7147GGjjuuGG4944uuGGGGmjA",
"Guu1714jmmj17SGjjuuuujjmjGGCjmmGGmjuuuw1474GGjcuuGG1171uuGGGFjmG",
"u;;11GGuuuuuu47mxjj44uumjuumjuumxuu91uu;,jjGGGGjcGG14jjwu57mmmjG"
};
