/* XPM */
static char *_620151278693[] = {
/* columns rows colors chars-per-pixel */
"64 64 72 1 ",
"  c #000031",
". c #010031",
"X c #000131",
"o c #020031",
"O c #000032",
"+ c #000132",
"@ c #010133",
"# c #020032",
"$ c #010232",
"% c #000034",
"& c #020034",
"* c #530000",
"= c #520100",
"- c #540000",
"; c #550000",
": c #550101",
"> c #540002",
", c #873311",
"< c #873213",
"1 c #873412",
"2 c #883211",
"3 c #893312",
"4 c #883410",
"5 c #883412",
"6 c #893513",
"7 c #883314",
"8 c #A95500",
"9 c #A95401",
"0 c #AA5400",
"q c #AB5500",
"w c #A85600",
"e c #A85700",
"r c #AA5600",
"t c #AB5700",
"y c #AB5701",
"u c #AA5502",
"i c #AB5502",
"p c #A85602",
"a c #01BB00",
"s c #02BA00",
"d c #02BC01",
"f c #BB881F",
"g c #BB8721",
"h c #BC8721",
"j c #BA8920",
"k c #BA8922",
"l c #BA8923",
"z c #BB8A23",
"x c #BC8920",
"c c #BD8A21",
"v c #BC8822",
"b c #BD8822",
"n c #BC8823",
"m c #BD8923",
"M c #BD8924",
"N c #DEBB43",
"B c #DFBB43",
"V c #DCBC43",
"C c #DFBA45",
"Z c #DEBB45",
"A c #DFBA47",
"S c #DEBB47",
"D c #DCBC45",
"F c #DDBD46",
"G c #DFBC46",
"H c #4344EC",
"J c #4344EE",
"K c #FFDDDB",
"L c #FFDCDC",
"P c #FFDDDC",
"I c #FFDDDD",
"U c #FDDEDC",
/* pixels */
"OOOOOOOOOOOOOOOOOOOOOOOOOOOOOOOOOOOOOOOOOOOOOOOOOOOOOOOOOOOOOOOO",
"OOOOOOOOOOOOOOOOOOOOOOOOOOOOOOOOOOOOOOOOOOOOOOOOOOOOOOOOOOOOOOOO",
"OOOOOOOOOOOOOOOOOOOOOOOOOOOOOOOOOOOOOOOOOOOOOOOOOOOOOOOOOOOOOOOO",
"OOOOOOOOOOOOOOOOOOOOOOOOOOOOOOOOOOOOOOOOOOOOOOOOOOOOOOOOOOOOOOOO",
"OOOOOOOOOOOOOOOOOOOOOOOOOOOOOOOOOOOOOOOOOOOOOOOOOOOOOOOOOOOOOOOO",
"OOOOOOOOOOOOOOOOOOOOOOOOOOOOOOOOOOOOOOOOOOOOOOOOOOOOOOOOOOOOOOOO",
"OOOOOOOOOOOOOOOOOOOOOOOOOOOOOOOOOOOOOOOOOOOOOOOOOOOOOOOOOOOOOOOO",
"OOOOOOOOOOOOOOOOOOOOOOOOOOOOOOOOOOOOOOOOOOOOOOOOOOOOOOOOOOOOOOOO",
"OOOOOOOOOOOOOOOOOOOOOOOOOOOOOOOOOOOOOOOOOOOOOOOOOOOOOOOOOOOOOOOO",
"OOOOOOOOOOOOOOOOOOOOOOOOOOOOOOOOOOOOOOOOOOOOOOOOOOOOOOOOOOOOOOOO",
"OOOOOOOOOOOOOOOOOOOOOOOOOOOOOOOOOOOOOOOOOOOOOOOOOOOOOOOOOOOOOOOO",
"OOOOOOOOOOOOOOOOOOOOOOOOOOOOOOOOOOOOOOOOOOOOOOOOOOOOOOOOOOOOOOOO",
"OOOOOOOOOOOOOOOOOOOOOOOOOOOOOOOOOOOOOOOOOOOOOOOOOOOOOOOOOOOOOOOO",
"OOOOOOOOOOOOOOOOOOOOOOOOOOOOOOOOOOOOOOOOOOOOOOOOOOOOOOOOOOOOOOOO",
"OOOOOOOOOOOOOOOOOOOOOOOOOOOOOOOOOOOOOOOOOOOOOOOOOOOOOOOOOOOOOOOO",
"OOOOOOOOOOOOOOOOOOOOOOOOOOOOOOOOOOOOOOOOOOOOOOOOOOOOOOOOOOOOOOOO",
"OOOOOOOOOOOOOOOOOOOOOOOOOOOOOOOOOOOOOOOOOOOOOOOOOOOOOOOOOOOOOOOO",
"OOOOOOOOOOOOOOOOOOOOOOOOOOOOOOOOOOOOOOOOOOOOOOOOOOOOOOOOOOOOOOOO",
"OOOOOOOOOOOOOOOOOOOOOOOOOOOOOOOOOOOOOOOOOOOOOOOOOOOOOOOOOOOOOOOO",
"OOOOOOOOOOOOOOOOOOOOOOOOOOOOOOOOOOOOOOOOOOOOOOOOOOOOOOOOOOOOOOOO",
"OOOOOOOOOOOOOOOOOOOOOOOOOOOOOOOOOOOOOOOOOOOOOOOOOOOOOOOOOOOOOOOO",
"OOOOOOOOOOOOOOOOOOOOOOOOOOOOOOOOOOOOOOOOOOOOOOOOOOOOOOOOOOOOOOOO",
"OOOOOOOOOOOOOOOOOOOOOOOOOOOOOOOOOOOOOOOOOOOOOOOOOOOOOOOOOOOOOOOO",
"OOOOOOOOOOOOOOOOOOOOOOOOOOOOOOOOOOOOOOOOOOOOOOOOOOOOOOOOOOOOOOOO",
"OOOOOOOOOOOOOOOOOOOOOOOOOOOOO&OOOOOOOOOOOOOOOOOOOOOOOOOOOOOOOOOO",
"OOOOOOOOOOOOOOOOOOOOOOdaaaOOOOOOOOOOOOOOOOOOOOOOOOOOOOOOOOOOOOOO",
"OOOOOOOOOOOOOOOOOOOOOOaaaaOOOOOOOOOOOOOOOOOOOOOOOOOOOOOOOOOOOOOO",
"OOOOOOOOOOOOOOOOOOOOaaaaPPaaOO&OOOOOOOOOOOOOOOOOOOOOOOOOOOOOOOOO",
"OOOOOOOOOOOOOOOOOOOOddaaPPdaOOOOOOOOOOOOOOOOOOOOOOOOOOOOOOOOOOOO",
"OOOOOOOOOOOOOOOOOOOOddPPPPPPOOOOOOOOOOOOOOOOOOOOOOOOOOOOOOOOOOOO",
"OOOOOOOOOOOOOOOOOOOOaaPPPPPPOOOOOOOOOOOOOOOOOOOOOOOOOOOOOOOOOOOO",
"OOOOOOOOOOOOOOOOOOOOOOPPJJOOOOOOOOOOOOOOOOOOOOOOOOOOOOOOOOOOOOOO",
"OOOOOOOOOOOOOOOOOOOO&OPPJJOOOOOOOOOOOOOOOOOOOOOOOOOOOOOOOOOOOOOO",
"OOOOOOOOOOOOOOOOOOOOOOPPJJOOOOOOOOOOOOOOOOOOOOOOOOOOOOOOOOOOOOOO",
"OOOOOOOOOOOOOOOOOOOOOOKPJJOOOOOOOOOOOOOOOOOOOOOOOOOOOOOOOOOOOOOO",
"OOOOOOOOOOOOOOOOOOOOOOJJPPOOOOOOOOOOOOOOOOOOOOOOOOOOOOOOOOOOOOOO",
"OOOOOOOOOOOOOOOOOOOOOOJHPPOOOOOOOOOOOOOOOOOOOOOOOOOOOOOOOOOOOOOO",
"OOOOOOOOOOOOOOOOOOOOOOJJJJOOOOOOOOOOOOOOOOOOOOOOOOOOOOOOOOOOOOOO",
"OOOOOOOOOOOOOOOOOOOOOOJJJJOOOOOOOOOOOOOOOOOOOOOOOOOOOOOOOOOOOOOO",
"OOOOOOOOOOOOOOOOOOPKJJJJJJJJXOOOOOOOOOOOOOOOOOOOOOOOOOOOOOOOOOOO",
"OOOOOOOOOOOOOOOOOOPPJJJJJJJJOOOOOOOOOOOOOOOOOOOOOOOOOOOOOOOOOOOO",
"OOOOOOOXOOOOOOOOOOPPOOOOKPPPOOOOOOOOOOOOOOOOOOOOOOOOOOOOOOOOOOOO",
"OOOOOOOOOOOOOOOOOOKPOOOOKPPPOOOOOOOOOOOOOOOOOOOOOOOOOOOOOOOOOOOO",
"ttmmmfmm6,jg88t8:::*::*::*:*55jmmmmmSS55::::13::::*:*:*:548t51ZZ",
"88mhhmmj,,hmy888**::::*::*:*45mmjmMjSV55:*::55::**:**::*55ty55ZZ",
"mm8t88ZZmmmgt8mm53SZ*:5,SNSNfm88gmjmSSt8*:88SS88jm888tjmGC88t8mm",
"hm8tttZZmghm8tmm55NS::,5SNNSmm88mmgjSZ88::88VS88fm8t88mhZG8888jm",
"mhSC88ZZgmSNhm5588hm1588mm88SNmh,38888::,5SSmgmmSSMj88SNmmmmt8gm",
"ggSSttNShhSSmm,5y8mm55ttjji8SZmf3388t8*:5,NShmhmSGmm88SSmfmg88jh",
"gm888t8t55gmfhmm558888ZZMmhMhmmmNSmm::55NSmgmm8t8888SNSNhmgmhm88",
"mmt8t8t857mgmmgg5588y8ZZmgmhmmhmSZmg:*,5NSmmhm8t888tNSNNmgmgmmt8",
"88mm8t8tmhgm88gm88mmmmZZjmSS88SB8855*:mgNN88mgt8mmZZmgmggmNSgMZC",
"8ymm8888mmmm08mm88mggmNSgmSS88CCtt53::jjSN88mm88mmSSmggmmhSSmmSN",
"55ZZt8SN8888ghmgSNmmmjSNhj65jmt8t8::55::NS8tSCZS88hmfmmggm8088mf",
"55BB88CS8t88mmgmSSmhgmNSmh55mm8888::55::SSttSNZS88mhmmgmmgtt88mh",
"5555ttmmSChm88gmgmhm88SZSN88SShm6,:*883555hhSSjhMmmjfmmgNS55mmSG",
"555588hmSNhht8mhmmhj88SNZZ88ZGmm71:*885555mjSSjhmgmghgmgSN54mmSN",
"8855t8SSmmt8SSt88tmhjmgmmmZN88885555mm885555NSmhgmgmmfSN88SNNNmg",
"8y558tCSmht8NS8t8tmmMgmhmjNS8y8t5555mmtt5566SNmmmmmgggNS88ZSNSgm",
"mf55ZZNSNSSNSShm888tmmSN88mmZZtt55NS88SCt888mh88mg55SSmgmmmmSS88",
"mm55NSNNSNSSNSmf8888hfNSy8mmZS8855VGt8CZ88t8fm88gm31ZSmmmmmmVSw8",
"t888hmmhNSmgmhNShmt851SNmm88SN5555t8hhmmjj8t88mgmg555555,,VSmmNS",
"888ymmmmSVmjjmCCmh8855NSmm88NS5335t8jmmgmh888tgmgj553,5555ZShmSN",
"mmmm88gm88hm88mh8t55MmSNNZmmSZ558tSS88gmmmmmjmmgmmmfmm88555553t8"
};
