/* XPM */
static char *_28284b0ccff41dbe112715726bc6eddbvtVy00IyvDTFMvY[] = {
/* columns rows colors chars-per-pixel */
"40 40 66 1 ",
"  c #A0A0A0",
". c #A2A2A2",
"X c gray64",
"o c #A4A4A4",
"O c #A5A5A5",
"+ c gray65",
"@ c #A7A7A7",
"# c gray66",
"$ c #A9A9A9",
"% c #AAAAAA",
"& c gray67",
"* c #ACACAC",
"= c gray68",
"- c #AEAEAE",
"; c #AFAFAF",
": c gray69",
"> c #B1B1B1",
", c #B2B2B2",
"< c gray70",
"1 c #B4B4B4",
"2 c gray71",
"3 c #B6B6B6",
"4 c #B7B7B7",
"5 c gray72",
"6 c #B9B9B9",
"7 c gray73",
"8 c #BBBBBB",
"9 c #BCBCBC",
"0 c gray74",
"q c gray",
"w c gray75",
"e c #C0C0C0",
"r c #C1C1C1",
"t c gray76",
"y c #C3C3C3",
"u c gray77",
"i c #C5C5C5",
"p c #C6C6C6",
"a c gray78",
"s c #C8C8C8",
"d c gray79",
"f c #CACACA",
"g c #CBCBCB",
"h c gray80",
"j c #CDCDCD",
"k c #CECECE",
"l c gray81",
"z c #D0D0D0",
"x c gray82",
"c c #D2D2D2",
"v c LightGray",
"b c gray83",
"n c #D5D5D5",
"m c gray84",
"M c #D7D7D7",
"N c #D8D8D8",
"B c gray85",
"V c #DADADA",
"C c gray86",
"Z c gainsboro",
"A c #DDDDDD",
"S c gray87",
"D c #DFDFDF",
"F c gray88",
"G c #E6E6E6",
"H c gray91",
/* pixels */
"-$$3OO7Xt707X-7O$7tt30,30xxC7lp,33t3,0X$",
"737t33p3xlxp70l33plx0t,30llx3lp330pt0f-3",
"073t,,t,ftf0-3t$-7tt,3$O30tt$t0$,7t00f-3",
"3-,7-,0-fppt-7p-,tpf70330fll3ft337t37p$,",
"pttf00p,fpt0$,0O-7tp303,tflx0lp7ttxffS0t",
"lpfxttl0Cxlp70f,3tpp37--300t-t0,00lffGtf",
"pttpttl0Snnl0pl77fff77,-7tt0-t0307ftpStt",
"73,7,,0-fpt0-3t-,00t73,,0000-00-33t70p3,",
"t000070,p003$-3O$737,---3777-33373p0px0t",
"3337337$t773O,3O$70t000tfflf0pt7p0f0tl07",
"t007737-003,X$,X$7307700fffp7pp0p0ftpxt0",
"$$$O---$t073-33$,0773,330337-,,,3-3-,7,$",
",---333,ft00370-3t377-3,73,,$---7$7-703,",
",,,-3,,-t77,$,3O-7-3,$3,3---O-$-7$7,7t7,",
"333-73,$03,-O$-X$7-37,ttp0073337p3t7tpt7",
",--O3,$$03,,$--X-3$--O,-3-$OXXX-7O3-700-",
"-,,$0037fftp7pt7pl0tf0lfnpt00770f3t30t03",
"000,fp0tnlfftpp7pf7tt3t0p,,----7p,t7pllt",
"0tt3fp00xftt0tt3tl7tp7lpxt07737tn3ftfnnt",
"ppt7llttSxfftpp0tx70t,t0p-,$$$-7f,p0lnSf",
"707,fpttCxlfpff0lCtpl0xlnt07037tn3p7ffl0",
"333$0033ft0t770,0p370,t0t,,--$$,t$0,0tp7",
"-,-O77,3fptt0pt3tl70p7fpl7733,,7f-0-000,",
"$--O73,,fttt70030f70t3ftf0733,,0p-7,700-",
"ptp7lft0nlpp0tt7tl0pf0xlCptt000fC0xpxCCp",
"---O3,--033,--,$,0,37,07t37,,--3t$0-707,",
"333-0073lfpp7tt30f000300t33,--,3t-030pt3",
"t007ptt7lfpt70t30ftpptffnffpttttx7ltfxpt",
"3,,,7703lffp0pp7tlppptppxppp7t00p3t30p0,",
"tpttttt7lptt370,7t000307p0003707p7fpfCfp",
",,-,3703xfff7tp37p0t7,,-3,3,O,--3-7-3t3,",
"tttt0003fp07-37-,00733,,0007,73307ftpCtt",
"00007003fpp0,3t-,0tt373,00t0-00377p0tx00",
"0770330,f007$30O-700333,0ttp,t0377f0tl77",
"7,,7,-0$t007O,0O-70t7077plll7fp307p77p-3",
"pttf77t-p07,X$3XX,37$-OO,777$77-37fppStt",
"3,,0-,t-pppt-7t-,tpf0077pxnC0lf700p07f-,",
"3,,7$-7$t003O,7OO30t,3$$30tp-t0$,3t73p$,",
"t77t,3t,ltt0$,t$-7tt,,OO300t$t0-,7p00l,0",
"ftpnttn0HnCx7pn73pfp33$O-770Ot7-37ftpF7p"
};
