/* XPM */
static char *_620147130450[] = {
/* columns rows colors chars-per-pixel */
"64 64 37 1 ",
"  c black",
". c #010000",
"X c #000100",
"o c #010101",
"O c #000002",
"+ c #C74B0B",
"@ c #C74D0A",
"# c #C64C0B",
"$ c #C74D0C",
"% c #C84D0A",
"& c #C84C0C",
"* c #C94C0C",
"= c #C94D0D",
"- c #C84E0D",
"; c #C84C0E",
": c #00A700",
"> c #01A800",
", c #01A802",
"< c #7FCF0E",
"1 c #7FD00F",
"2 c #82CF0D",
"3 c #82CF0F",
"4 c #80D00D",
"5 c #80D00F",
"6 c #80CF11",
"7 c #81D110",
"8 c #83D010",
"9 c #5C93FA",
"0 c #5B94FB",
"q c #5D94FB",
"w c #5D93FD",
"e c #5E95FC",
"r c #FBBBAF",
"t c #FBBDB0",
"y c #FCBCB0",
"u c #FDBDB1",
"i c #FEBCB0",
/* pixels */
"qqqqqqqqqqqqqqqqqqqqqqqqqqqqqqqqqqqqqqqqqqqqqqqqqqqqqqqqqqqqqqqq",
"qqqqqqqqqqqqqqqqqqqqqqqqqqqqqqqqqqqqqqqqqqqqqqqqqqqqqqqqqqqqqqqq",
"qqqqqqqqqqqqqqqqqqqqqqqqqqqqqqqqqqqqqqqqqqqqqqqqqqqqqqqqqqqqqqqq",
"qqqqqqqqqqqqqqqqqqqqqqqqqqqqqqqqqqqqqqqqqqqqqqqqqqqqqqqqqqqqqqqq",
"qqqqqqqqqqqqqqqqqqqqqqqqqqqqqqqqqqqqqqqqqqqqqqqqqqqqqqqqqqqqqqqq",
"qqqqqqqqqqqqqqqqqqqqqqqqqqqqqqqqqqqqqqqqqqqqqqqqqqqqqqqqqqqqqqqq",
"qqqqqqqqqqqqqqqqqqqqqqqqqqqqqqqqqqqqqqqqqqqqqqqqqqqqqqqqqqqqqqqq",
"qqqqqqqqqqqqqqqqqqqqqqqqqqqqqqqqqqqqqqqqqqqqqqqqqqqqqqqqqqqqqqqq",
"qqqqqqqqqqqqqqqqqqqqqqqqqqqqqqqqqqqqqqqqqqqqqqqqqqqqqqqqqqqqqqqq",
"qqqqqqqqqqqqqqqqqqqqqqqqqqqqqqqqqqqqqqqqqqqqqqqqqqqqqqqqqqqqqqqq",
"qqqqqqqqqqqqqqqqqqqqqqqqqqqqqqqqqqqqqqqqqqqqqqqqqqqqqqqqqqqqqqqq",
"qqqqqqqqqqqqqqqqqqqqqqqqqqqqqqqqqqqqqqqqqqqqqqqqqqqqqqqqqqqqqqqq",
"qqqqqqqqqqqqqqqqqqqqqqqqqqqqqqqqqqqqqqqqqqqqqqqqqqqqqqqqqqqqqqqq",
"qqqqqqqqqqqqqqqqqqqqqqqqqqqqqqqqqqqqqqqqqqqqqqqqqqqqqqqqqqqqqqqq",
"qqqqqqqqqqqqqqqqqqqqqqqqqqqqqqqqqqqqqqqqqqqqqqqqqqqqqqqqqqqqqqqq",
"qqqqqqqqqqqqqqqqqqqqqqqqqqqqqqqqqqqqqqqqqqqqqqqqqqqqqqqqqqqqqqqq",
"qqqqqqqqqqqqqqqqqqqqqqqqqqqqqqqqqqqqqqqqqqqqqqqqqqqqqqqqqqqqqqqq",
"qqqqqqqqqqqqqqqqqqqqqqqqqqqqqqqqqqqqqqqqqqqqqqqqqqqqqqqqqqqqqqqq",
"qqqqqqqqqqqqqqqqqqqqqqqqqqqqqqqqqqqqqqqqqqqqqqqqqqqqqqqqqqqqqqqq",
"qqqqqqqqqqqqqqqqqqqqqqqqqqqqqqqqqqqqqqqqqqqqqqqqqqqqqqqqqqqqqqqq",
"qqqqqqqqqqqqqqqqqqqqqqqqqqqqqqqqqqqqqqqqqqqqqqqqqqqqqqqqqqqqqqqq",
"qqqqqqqqqqqqqqqqqqqqqqqqqqqqqqqqqqqqqqqqqqqqqqqqqqqqqqqqqqqqqqqq",
"qqqqqqqqqqqqqqqqqqqqqqqqqqqqqqqqqqqqqqqqqqqqqqqqqqqqqqqqqqqqqqqq",
"qqqqqqqqqqqqqqqqqqqqqqqqqqqqqqqqqqqqqqqqqqqqqqqqqqqqqqqqqqqqqqqq",
"qqqqqqqqqqqqqqqqqqqqqqqqqqqqqqqqqqqqqqqqqqqqqqqqqqqqqqqqqqqqqqqq",
"qqqqqqqqqqqqqqqqqqqqqqqqqqqqqqqqqqqqqqqqqqqqqqqqqqqqqqqqqqqqqqqq",
"qqqqqqqqqqqqqqqqqqqqqqqqqqqqqqqqqqqqqqqqqqqqqqqqqqqqqqqqqqqqqqqq",
"qqqqqqqqqqqqqqqqqqqqqqqqqqqqqqqqqqqqqqqqqqqqqqqqqqqqqqqqqqqqqqqq",
"qqqqqqqqqqqqqqqqqqqqqqqqqqqqqqqqqqqqqqqqqqqqqqqqqqqqqqqqqqqqqqqq",
"qqqqqqqqqqqqqqqqqqqqqqqqqqqqqqqqqqqqqqqqqqqqqqqqqqqqqqqqqqqqqqqq",
"qqqqqqqqqqqqqqqqqqqqqqqqqqqqqqqqqqqqqqqqqqqqqqqqqqqqqqqqqqqqqqqq",
"qqqqqqqqqqqqqqqqqqqqqqqqqqqqqqqqqqqqqqqqqqqqqqqqqqqqqqqqqqqqqqqq",
"qqqqqqqqqqqqqqqqqqqqqqqqqqqqqqqqqqqqqq    qqqqqqqqqqqqqqqqqqqqqq",
"qqqqqqqqqqqqqqqqqqqqqqqqqqqqqqqqqqqe0 5565 qqqqqqqqqqqqqqqqqqqqq",
"qqqqqqqqqqqqqqqqqqqqqqqqqqqqqqqqwqq  551555 q9qqqqqqqqqqqqqqqqqq",
"qqqqqqqqqqqqqqqqqqqqqqqqqqqqqqqqq0 75655556 q w9qqqqqqqqqqqqqqqq",
"qqqqqqqqqqqqqqqqqqqqqqqqqqqqqqqqqq 555551665 7 eqqqqqqqqqqqqqqqq",
"qqqqqqqqqqqqqqqqqqqqqqqqqqqqqqqq9q 555257>555<7 qqqqqqqqqqqqqqqq",
"qqqqqqqqqqqqqqqqqqqqqqqqqqqqqqqqq 555>>5<5:5<55 qqqqqqqqqqqqqqqq",
"qqqqqqqqqqqqqqqqqqqqqqqqqqqqqqqq <55>5555555555 qqqqqqqqqqqqqqqq",
"qqqqqqqqqqqqqqqqqqqqqqqqqqqqq   5555555555555555 qq 0qeqqqqqqqqq",
"qqqqqqqqqqqqqqqqqqqqqqqqqqqq 5555555555555555555 q 5 qqqqqqqqqqq",
"qqqqqqqqqqqqqqqqqqqqqqqqqqq 555555555555555555555 55 eqqqqqqqqqq",
"qqqqqqqqqqqqqqqqqqqqqqqqqqq5555555555555555555555615 e 9qqqqqqqq",
"qqqqqqqqqqqqqqqqqqqqqqqqq  5552<555555555555555556165 5 qqqqqqqq",
"qqqqqqqqqqqqqqqqqqqqqqqq 555555555555555555555555555155 qqqqqqqq",
"qqqqqqqqqqqqqqqqqqqqqqqq 555555155555555555555555555555 qqqqqqqq",
"qqqqqqqqqqqqqqqqqqqqqqqqw 5555655555555555555555555555 qqqqqqqqq",
"*tittyyyy ;yyyy;;rritiity *ttyy*;yityytii ;ttit*%iitritrr ;yyyy;",
"i*;$*$;%* y$;$* y;**&$*%; r;*$; r;$*;$*@$ r*$$* r*$*;%;%* t*;@* ",
"i*****$** i**$* y;**&*$+* r**$* r***;*$*; y*;+* r;**;**$* i**$* ",
"t+;$$*@$$ t&$*$ t*$$&&$;$ i*$*$ i*+;$*$** y$**$ i;;$;$$** t$$*$ ",
"y&**$;$** i *** y;+****** t *** t;+%$;*;$ i **$ t;**$**$* i *** ",
"y&*;;;*** $    *y$**;**** *    *t;*;*$$*; *    *r+*+;$$** $    *",
"y;;@+**$$ yytit i$*$$*;+* iyiyt r;*@**+;* tytyt i$*@;$**$ yytit ",
"y@+%**$** y&&@* t*$$-*%+$ t&$@; r%$***%$* r;*@* i@$;***$* y&&@* ",
"y**@;;*$$ y&&+& r;+%*$;%* t*;+* r**@*+*%* i&&&* y**@;;*$$ y&&+& ",
"y$**+$*&* y&&&* t***$*%;* y*+$* i**$$;*+$ t&&&* y$**+$*&* y&&&* ",
"  **%%$* t&&%;*   **;%$* i+*%%*   $**@$* i&&@&&   **%%$* t&&%;* ",
"ti  +;$* i&&@$* ti  +%;+ t+;@;* ti  $*$* y&&$&& ti  +;$* i&&@$* ",
"y;rr   Oi@&&;*$ y;yr    i%*$$;+ i+yy    i%*&;$* y;rr   Oi@&&;*$ ",
"y@**yti i&&@+*% y%;+iti i$&&*$% t%;;iti y&$&+*% y@**yti i&&@+*% ",
"t**$*** i$*$$*  t;$**$* i*&&$*  y;*$**$Oi$$*@*  t**$*** i$*$$*  ",
";      $i      **      ;t      ;%      *i      +;      $i      *"
};
