/* XPM */
static char *_620147126624[] = {
/* columns rows colors chars-per-pixel */
"64 64 55 1 ",
"  c black",
". c #010000",
"X c #000100",
"o c #010101",
"O c #000002",
"+ c #C74B0B",
"@ c #C74D0A",
"# c #C64C0B",
"$ c #C74D0C",
"% c #C84D0A",
"& c #C84C0C",
"* c #C94C0C",
"= c #C94D0D",
"- c #C84E0D",
"; c #C84C0E",
": c #3BBBFC",
"> c #3BBAFD",
", c #3EBBFD",
"< c #3CBBFE",
"1 c #3BBCFD",
"2 c #3CBCFD",
"3 c #3DBDFE",
"4 c #5A93FA",
"5 c #5D92F8",
"6 c #5C93FA",
"7 c #5E93FB",
"8 c #5B94FB",
"9 c #5D94F9",
"0 c #5D94FB",
"q c #5E95FA",
"w c #5A93FC",
"e c #5D93FD",
"r c #5B94FD",
"t c #5C95FC",
"y c #5F94FC",
"u c #5E95FC",
"i c #FBBBAF",
"p c #FBBDB0",
"a c #FCBCB0",
"s c #FDBDB1",
"d c #FEBCB0",
"f c #FBFBFB",
"g c #FAFCFB",
"h c #FCFCFA",
"j c #FDFCFA",
"k c #FDFDFB",
"l c #FCFEFB",
"z c #FDFBFC",
"x c #FBFDFC",
"c c #FBFCFE",
"v c gray99",
"b c #FDFDFD",
"n c #FEFCFD",
"m c #FCFCFE",
"M c #FDFDFF",
/* pixels */
"000000007007000000eu00000800000000000000000000000000000000000000",
"00000000000000000000700e7000000000000000000000000000000000000000",
"000000000000000    u00008000000000000000000000000000000000000000",
"00000000000880 vvvv 00040000008000000000000000000000000000000000",
"000000000000  vvvvvz 0000007700000000000000000000000000000000000",
"00000000007 hvvvvvvv 0 00000000800000000000000000000000000000000",
"00000000008 vvvvvvvvv x 0000000000000000000000000000000000000000",
"00000000000 vvzxvv1vvvvx 800500000000000000000000000000000000000",
"00000e0000 vvv33vvv2zvvv 000087e0008800w000000000000000000000000",
"000u0e00w vvv3zjvvvvcvvx ee0000u0000000u000000000000000000000000",
"u00000   vvvvvvxvvvvvvvvx 00 0u400080008000000000000000000000000",
"00000 vfvvvvvvzvvvvvxvvvv 0 c uu00000000000000000000000000000000",
"0800 vvvzxvvvvvvvvvvvvvvvv vv uu00u00050000000000000000000000000",
"8007ccvvxzjvvvvvvvvvvvvvvvzvv u 00000000000000000000000000000000",
"eu  xzvvzvzvvvvvvvvzvvvvvvxfvv v 0007000000000000000000000000000",
"7 vvvvvvvvvvvvvvvvvvzxvxvvvvvvvv 00000e8000000000000000000000000",
"0 vvhvvvjcfjczvvvvjcjjcjvvvvvvvv 0000u00000000000000000000000000",
"00 hvvvvcvjczxvvvvcjfcjcvvvvvvv 00700000000000000000000000000000",
"078 vv3zvvxjxzvvvj:ccjzcvvvvvv u00000000000000000000000000000000",
"0000 vv1vv:czxvvz3czjczjvvvvvvv e0000008000000000000000000000000",
"00u07 zv3223vvj222:jcjc:hvvvvvvv 0007000000000000000000000000000",
"00700 vvvvj:33:32c3222:jvvvvvvvv00000000000000000000000000000000",
"077000   vjch31xjcf222vhvvvvvv  00u00000000000000000000000000000",
"u00000000 fzxfxh zcxjcjcv vg  00e0007008000000000000000000000000",
"0000000008  vvv u  vvvv  0  8u0700000000000000000000000000000000",
"000000000804   87eu    80000000000000000000000000000000000000000",
"0000000000070008080000000000000000000000000000000000000000000000",
"0000000000e08070007000000000000700000000000000000000000000000000",
"0000000000000000000000000000000000000000000000000000000000000000",
"0000000000080000000000000000000800000000000000000000000000000000",
"000000000u000000000000000000048000000000000000000000000000000000",
"0000000000800000e07000000000700700000000000000000000000000000000",
"0000000000000000000000000000000000000000000000000000000000000000",
"0000000000000000000000000000000000000000000000000000000000000000",
"0000000000000000000000000000000000000000000000000000000000000000",
"0000000000000000000000000000000000000000000000000000000000000000",
"0000000000000000000000000000000000000000000000000000000000000000",
"0000000000000000000000000000000000000000000000000000000000000000",
"0000000000000000000000000000000000000000000000000000000000000000",
"0000000000000000000000000000000000000000000000000000000000000000",
"0000000000000000000000000000000000000000000000000000000000000000",
"0000000000000000000000000000000000000000000000000000000000000000",
"0000000000000000000000000000000000000000000000000000000000000000",
"0000000000000000000000000000000000000000000000000000000000000000",
"0000000000000000000000000000000000000000000000000000000000000000",
"0000000000000000000000000000000000000000000000000000000000000000",
"0000000000000000000000000000000000000000000000000000000000000000",
"0000000000000000000000000000000000000000000000000000000000000000",
"&aaaaaaia &aaaa&&aaaaaiia &aaaa&&aaaaaaaa &aaaa&&aaaaaaaa &aaaa&",
"a&&&&&&-& a&&-& a=&&&&--& a&&&& a=&&&&&&& a&&&& a&&&&&=&& a&&&& ",
"a&=&&-&&& a&&&&oa&-&&=&&& a=&&&oa&=&&=&&& a&&&& a&&&&&&&& a=&&&o",
"a&&&&&&&& a&&&- a&&&&&&&& a&&&& a&&&&&&&& a&&&& a&&&&&&&& a&&&-o",
"a&-***&&& a &&& a&&&+&*-& a &=& a&&&&-&-& a &&& a&&&&&&-& a &&& ",
"a&--**&&= &    &a&&&&*+-= &    &a&=&-&&=& &    &a&&&&&&-& &    &",
"a&&-*&&&- iaiia a&&#&&**& aaaii i-&&&&=&& aaiia a&&-&&&&& aaaia ",
"a-&&&&&&& i-=-& i-&&&&+*& a&&-= i-&&-=&&& a&--& a&&&&-&&& a&&-& ",
"i**-&&&&& i&&-* a&&--**-& i+--& i&&--**-& a&&-& i**-&&&&& i-**+ ",
"i*-&&&&&&oi*&&& a&&&***+& i*-&& a&=&***+& a&+*& i*-&&&&&&oi***& ",
"  &&&-&& a-*-&&   &&*-+- a+--*&   &&*%*- a++-*+   &&&-&& a-*-&& ",
"aa  --&& a**-&& aa  +-*+ a+*+*& aa  ++** i**#*- aa  --&& a---&& ",
"a*ii    i-&&**+ a&aa    a---&&& a&aa    a--***& a*ii    i-&&*+- ",
"a-*-aaa i&&#*+- a&&&aaa a&**&&- a&&&iia a&****- a-*-aaa i&&#+*- ",
"a&**=&& a&&&$&  a&&&&&& a&**&&  a&&&&&& a&&&#-  a&**=&& a&&&$&  ",
"&      &a      &&      &a      &&      &a      &&      &a      &"
};
