/* XPM */
static char *_620147134386[] = {
/* columns rows colors chars-per-pixel */
"64 64 55 1 ",
"  c black",
". c #010000",
"X c #000100",
"o c #010101",
"O c #000002",
"+ c #03060B",
"@ c #0A0E19",
"# c #C74B0B",
"$ c #C74D0A",
"% c #C64C0B",
"& c #C74D0C",
"* c #C94C0A",
"= c #C84D0A",
"- c #C94B0E",
"; c #C84C0C",
": c #C94C0C",
"> c #C94D0D",
", c #CA4D0D",
"< c #C84E0D",
"1 c #C84C0E",
"2 c #C94D0F",
"3 c #FB9737",
"4 c #FA9837",
"5 c #FC9836",
"6 c #FB9739",
"7 c #FE9738",
"8 c #FB9938",
"9 c #FC9838",
"0 c #FD9939",
"q c #FC983A",
"w c #5A93FA",
"e c #5D92F8",
"r c #5D92FA",
"t c #5C93FA",
"y c #5E93FB",
"u c #5B94FB",
"i c #5D94F9",
"p c #5D94FB",
"a c #5E95FA",
"s c #5A93FC",
"d c #5C92FC",
"f c #5D92FC",
"g c #5D93FD",
"h c #5B94FD",
"j c #5C95FC",
"k c #5F94FC",
"l c #5E95FC",
"z c #5C95FE",
"x c #5E94FE",
"c c #FBBBAF",
"v c #FCBDAE",
"b c #FBBDB0",
"n c #FCBCB0",
"m c #FDBDB1",
"M c #FEBCB0",
/* pixels */
"pplppppypwppppppglgpuplwplpplglglyppppyypppppppppppppppppppppppp",
"pp=;;;:=:=;;;;:=gmnnnnvnnnnbnnnbbppgpppppppppppppppppppppppppppp",
"p=89699669996565X:#;;;;;X;;;;##:Xppppppppppppppppppppppppppppppp",
"p;9X9995999996X9X;;;;;=;X;;;;;;:Xypppppppppppppppppppppppppppppp",
"p=9965::::;99995XXXOXOXXXXXXXXXXXppypppypppppppppppppppppppppppp",
"y:969;,XXX;;9699X;:&X#:;&:;;O:;;:ppsyppppppppppppppppppppppppppp",
"p#599;;X69;;X999O;;#O&;;:;;;X#;##lppgppupppppppppppppppppppppppp",
"p&659=;o99;;X999X;;:X;#:#;;;X:&;&yglpppppppppppppppppppppppppppp",
"p29999XX9;:=X569OXXOXOXXOXXXXXXXXppppppppppppppppppppppppppppppp",
"p;999999;;oXX699X#:#;;#2X#:;:#:;Xypppppppppppppppppppppppppppppp",
"p;999999;;X99999X:2#;;;;X:#;#;;;Xpppuppppppppppppppppppppppppppp",
"l;9999999XX69995X#::&;;;O#:2;;#:Xpppyppppppppppppppppppppppppppp",
"l;599999;;696999@XXXXXXXXXXXXXXXXypppppppppppppppppppppppppppppp",
"p;999999;:o96995+&:#X::;:-#:X::&&ppppppppppppppppppppppppppppppp",
"l;9X99999XX999X9X:;;X::#;;;;X:;#:lpupppppppppppppppppppppppppppp",
"y;99599996999999X;;;O:22;#;;X;;:#pppywpppppppppppppppppppppppppp",
"gXXXXXXXXXXXXXXXXXXXXXXXXXXXXXXXXuppippppppppppppppppppppppppppp",
"yywlgppyppyppypppyppyppyppyppypppppppppppppppppppppppppppppppppp",
"ppplpppppppppppppppppppppppppppppppppppppppppppppppppppppppppppp",
"pppllypgpppppppppppppppppppppppppppepppppppppppppppppppppppppppp",
"pppppppppppppppppppppppppppppppppppyppuppppppppppppppppppppppppp",
"ppppuplpppppppppppppppppppppppppuppppppppppppppppppppppppppppppp",
"hpppplgppppppppppppppppppppppppppppppppppppppppppppppppppppppppp",
"pgpspppppppppppppppppppppppppppppupppppppppppppppppppppppppppppp",
"pppppppppppppppppppppppppppppppppppppppppppppppppppppppppppppppp",
"pppppppppppppppppppppppppppppppppppppppppppppppppppppppppppppppp",
"pppppppppppppppppppppppppppppppppppppppppppppppppppppppppppppppp",
"pppppppppppppppppppppppppppppppppppppppppppppppppppppppppppppppp",
"pppppppppppppppppppppppppppppppppppppppppppppppppppppppppppppppp",
"pppppppppppppppppppppppppppppppppppppppppppppppppppppppppppppppp",
"pppppppppppppppppppppppppppppppppppppppppppppppppppppppppppppppp",
"pppppppppppppppppppppppppppppppppppppppppppppppppppppppppppppppp",
"pppppppppppppppppppppppppppppppppppppppppppppppppppppppppppppppp",
"pppppppppppppppppppppppppppppppppppppppppppppppppppppppppppppppp",
"pppppppppppppppppppppppppppppppppppppppppppppppppppppppppppppppp",
"pppppppppppppppppppppppppppppppppppppppppppppppppppppppppppppppp",
"pppppppppppppppppppppppppppppppppppppppppppppppppppppppppppppppp",
"pppppppppppppppppppppppppppppppppppppppppppppppppppppppppppppppp",
"pppppppppppppppppppppppppppppppppppppppppppppppppppppppppppppppp",
"pppppppppppppppppppppppppppppppppppppppppppppppppppppppppppppppp",
"pppppppppppppppppppppppppppppppppppppppppppppppppppppppppppppppp",
"pppppppppppppppppppppppppppppppppppppppppppppppppppppppppppppppp",
"pppppppppppppppppppppppppppppppppppppppppppppppppppppppppppppppp",
"pppppppppppppppppppppppppppppppppppppppppppppppppppppppppppppppp",
"pppppppppppppppppppppppppppppppppppppppppppppppppppppppppppppppp",
"pppppppppppppppppppppppppppppppppppppppppppppppppppppppppppppppp",
"pppppppppppppppppppppppppppppppppppppppppppppppppppppppppppppppp",
"pppppppppppppppppppppppppppppppgpppppppppppppppppppppppppppppppp",
";nnnnnnnnX;nnnn;;nnnnnnnnX;nnnn:;nnnnnnnnX;nnnn:=mmcnnnvnX;nnnn;",
"n;;;;;;=;Xn;;;;Xn;2;;;=<;Xn;;&;Xn;2;;;;=;On;#&:Xv:#:;;;<;Xn;;;;X",
"n2;;;<;;;Xn;;;;on;<;;;;;;Xn;;;:Xn;;;;;;;;Xn;;;:Xm2;;;;;;;Xn;;;;X",
"n;;;;;<;;Xn;;;;Xn;;;;;;;;Xn;#:&Xn;;;;;&;:Xn;;;&Xn;;;;;;;;Xn;;;;X",
"n;;;;;;2:XmX;;;Xn;;;;2;;;XnX:::Xn;;;;;;2:XmX:::Xn#;;;;;<:XmX;;;X",
"n;;;2;;;:X:XXXX;n;;;;;;;,X:XXXX:n;;;2;;;:X:XXXX:n:;;2;;2:X:XXXX:",
"n;;%;;;;:XnnnnnXn;;<;;;;:XmmmmcXn;;<;;;#:XnnnnbXn:#%;;;;:XnnnnnX",
"n;;;;;;;:Xn;;;:Xn=;;2;;;:Xm:#=#Xn=;;2;;:#Xm#;%:Xn&;;;;;;:Xn;;;:X",
"b;;;;;;;#Xn;;#;Xn##;;;;=;Xn;;#:Xn;;=;;;=#Xm:##:Xb;;;;;;;#Xn;;#;X",
"n;;#;;;#:Xn;;;:Xn:;;;;;;;Xn;;#:Xn;;:;;;#:Xn#;;:Xn;;#;;;#:Xn;;;:X",
"XX::;=&;Xn##;;:XXX;;;=&;Xm#;;;#XXX;:;;;;Xm##;;;XXX::;=&;Xn##;;:X",
"mmXX;;::Xm#:&#:XnmXX;;;;Xm;;&;:XnnXX;;;;Xn;:&;;XmmXX;;::Xm#:&#:X",
"c:cvXXXXn;;#;;;Xn;nnXXXOn=::;;;Xn;nnXXXXm::&;#:Xc:cvXXXXn;;#;;;X",
"m##:mmmXn;;&;;=Xn;;;mnmXm:##;#;Xn;;;nnmXm###;:&Xm##:mmmXn;;&;;;X",
"n:;;::;Xn;:#&:XXn##::#:Xm:&:&:XXn;:#:::Xm:#:&;XXn:;;::;Xn;:#&:XX",
"#XXXXXX;nXXXXXX::XXXXXX#mXXXXXX;;XXXXXX:mXXXXXX;#XXXXXX;nXXXXXX:"
};
