/* XPM */
static char *_619891324204[] = {
/* columns rows colors chars-per-pixel */
"64 64 252 2 ",
"   c #000000",
".  c #0D0D1B",
"X  c #0B1828",
"o  c #141529",
"O  c #161B37",
"+  c #0D172C",
"@  c #341A31",
"#  c #0A2536",
"$  c #1C293D",
"%  c #2E1528",
"&  c #4A213A",
"*  c #621420",
"=  c #0C2E43",
"-  c #1C2348",
";  c #12384E",
":  c #1F2854",
">  c #153857",
",  c #0F3850",
"<  c #202856",
"1  c #232C5B",
"2  c #282854",
"3  c #2D3054",
"4  c #2A3869",
"5  c #31386D",
"6  c #173056",
"7  c #4A2C4D",
"8  c #692A48",
"9  c #752A4A",
"0  c #5C3862",
"q  c #144867",
"w  c #175679",
"e  c #2D4774",
"r  c #32477A",
"t  c #2F5077",
"y  c #266775",
"u  c #24646F",
"i  c #164754",
"p  c #645170",
"a  c #B71319",
"s  c #AE1017",
"d  c #BE1B22",
"f  c #A41C28",
"g  c #AF2838",
"h  c #8C1B29",
"j  c #C21E27",
"k  c #C6242B",
"l  c #DA362A",
"z  c #CC2A37",
"x  c #D12C3A",
"c  c #D4343B",
"v  c #CE3434",
"b  c #C8221D",
"n  c #DE4537",
"m  c #E0493E",
"M  c #8B2849",
"N  c #943757",
"B  c #90344F",
"V  c #A92E43",
"C  c #D63846",
"Z  c #C63344",
"A  c #9B4565",
"S  c #864F6D",
"D  c #A24B6A",
"F  c #AA5978",
"G  c #B3526D",
"H  c #AC5774",
"J  c #D74648",
"K  c #DE5A57",
"L  c #DD504A",
"P  c #E15748",
"I  c #E34859",
"U  c #E25D56",
"Y  c #E36759",
"T  c #E07C58",
"R  c #EA5569",
"E  c #F25C73",
"W  c #EA5368",
"Q  c #E6786B",
"!  c #F36379",
"~  c #E97975",
"^  c #E46A65",
"/  c #D24D66",
"(  c #E98476",
")  c #E98878",
"_  c #E69375",
"`  c #E5AA7B",
"'  c #E2865F",
"]  c #E3C27F",
"[  c #175B82",
"{  c #195B83",
"}  c #185692",
"|  c #384A87",
" . c #275C84",
".. c #3A5888",
"X. c #375493",
"o. c #1B6387",
"O. c #1A7098",
"+. c #256889",
"@. c #386F92",
"#. c #1C71AB",
"$. c #2974B5",
"%. c #327CB8",
"&. c #2772AA",
"*. c #435498",
"=. c #595998",
"-. c #635C9D",
";. c #4A6388",
":. c #476E98",
">. c #736B8D",
",. c #475BA3",
"<. c #4679A4",
"1. c #976E8E",
"2. c #8E7191",
"3. c #AA6988",
"4. c #B46A86",
"5. c #BA728B",
"6. c #B97391",
"7. c #BB7895",
"8. c #A77191",
"9. c #C27E98",
"0. c #F66D81",
"q. c #378A96",
"w. c #30A29E",
"e. c #1D8CB7",
"r. c #3A86BA",
"t. c #2D80A8",
"y. c #3BA6A3",
"u. c #2EA0A0",
"i. c #458B9D",
"p. c #429397",
"a. c #4A8DB8",
"s. c #5091AD",
"d. c #49ACA9",
"f. c #59AFAE",
"g. c #6AB9B8",
"h. c #74B9BC",
"j. c #69AEB1",
"k. c #6CB39B",
"l. c #78C2BF",
"z. c #1D9AC5",
"x. c #3293C2",
"c. c #1FA5D2",
"v. c #2BACD7",
"b. c #4996C6",
"n. c #549BC7",
"m. c #699DC5",
"M. c #57A4CE",
"N. c #5AA7CD",
"B. c #5AA8D1",
"V. c #47A9C8",
"C. c #65ADD3",
"Z. c #78B7D8",
"A. c #6CAFD0",
"S. c #79C1DD",
"D. c #7DC4C2",
"F. c #79C4E1",
"G. c #B196A6",
"H. c #C88698",
"J. c #CD909F",
"K. c #EC8B83",
"L. c #EC9888",
"P. c #F09B95",
"I. c #EEA693",
"U. c #F1A89A",
"Y. c #ECB799",
"T. c #EBAD8E",
"R. c #C78AA5",
"E. c #CD92A3",
"W. c #CC95AA",
"Q. c #D29CAC",
"!. c #D198A5",
"~. c #D19AB7",
"^. c #CE97B4",
"/. c #D5A2AF",
"(. c #D8A9B6",
"). c #DEB4BE",
"_. c #F3B8A8",
"`. c #F6B3AB",
"'. c #B1D2BB",
"]. c #9AC4A3",
"[. c #E4D28B",
"{. c #E8D798",
"}. c #E6C78A",
"|. c #C6D9BD",
" X c #D6DBB4",
".X c #EDC9A6",
"XX c #ECDAA9",
"oX c #F6C7B7",
"OX c #F0D6B4",
"+X c #EEE2B5",
"@X c #EFE3B9",
"#X c #E5E2BA",
"$X c #F0E4BA",
"%X c #ECE0AE",
"&X c #D2D094",
"*X c #84B9D9",
"=X c #8BB3D4",
"-X c #A7BDE2",
";X c #A2BADE",
":X c #DAA7C4",
">X c #DEB6C2",
",X c #E1BBC4",
"<X c #E2B9CA",
"1X c #E5B8D5",
"2X c #E0ADCC",
"3X c #83C7C5",
"4X c #83C8C5",
"5X c #89C9C7",
"6X c #95CDCF",
"7X c #ABD7CF",
"8X c #83CBE3",
"9X c #94DBEB",
"0X c #91D0E6",
"qX c #B3D1E4",
"wX c #9DE3F0",
"eX c #A4EAF4",
"rX c #BBEBF4",
"tX c #BCE7EA",
"yX c #BBE2DE",
"uX c #E5C5CB",
"iX c #F9D8C7",
"pX c #EACDD3",
"aX c #E9C5D7",
"sX c #EDD4DA",
"dX c #F9DFD2",
"fX c #CCE1D0",
"gX c #F4E9C8",
"hX c #F8EAD7",
"jX c #F7F1DA",
"kX c #E5E5C4",
"lX c #C9DCEA",
"zX c #D1DCE9",
"xX c #EEC9E3",
"cX c #F1DAE4",
"vX c #F0CCE6",
"bX c #C7E8EA",
"nX c #D4EBEF",
"mX c #C8E8F1",
"MX c #D9F3F2",
"NX c #D7ECF1",
"BX c #F3E3E5",
"VX c #F5EAEC",
"CX c #F6E9E9",
"ZX c #F8F5E9",
"AX c #E7EDF3",
"SX c #F7EDF1",
"DX c #F3F2F4",
"FX c #FCF4F5",
"GX c #FCF8F6",
"HX c #FEFAFA",
"JX c #FBF7F7",
"KX c #ECF2F2",
/* pixels */
"                                                                                                                                ",
"                        s.o.[ [ [ o.#.t.a.m.Z.;X-X-X;X=XA.a.a.&.O.O.[ w q y q.                                                  ",
"                  i.o.[ [ [ [ +.-.G.G.~.(.:X1XaXvXvXxX1X1X:X:X^.G.2.:.w q q > ; i y                                             ",
"          j.i.+.{ { {  .;.>.3.9.9.R.^.~.:X1XxXxXvXcXvXvXaX:X:X~.R.R.6.3.p p 3 ; # # # i y                                       ",
"D.h.f.@.+.{ w w o...2.8.5.6.6.7.R.Q.>XaXsXcXBXBXFXFXSXCXBXcXpXaX>XW.9.4.F F A p 7 $ # X X # i y                                 ",
"+.o.[ [ [  .;.2.3.6.5.6.7.R.Q.(.>XuXpXpXsXcXVXSXSXFXSXDXBXcXsXpXuX,X).Q.H.4.G N N B 8 & $ # # # i q y                           ",
"{ w  .;.>.1.6.6.6.6.R.Q.(.).>X>X,XuXsXCXSXFXJXHXHXHXHXHXFXFXVXBXsX<X).).(.!.H.4.A B M M M 8 7 3 ; i q q w w +.+.+.+.+.+.o.[ { [ ",
"2.8.6.6.6.6.6.R./.).).).).>XpXBXGXHXHXHXHXHXHXHXHXHXHXHXHXHXHXHXHXHXSXsX)./.Q.!.J.H.H M M M B N A p p r t w w o.[ [ [ [ [ {  .>.",
"6.6.7.7.R.Q.).).).).uXpXBXFXHXGXJXDXAXNXmXrXtXrXrXrXrXmXrXmXmXAXDXFXGXGXGXCXpX).!.H.H.H.9.G D A A A F F 4.4.1.1.2.2.1.1.8.6.6.5.",
"H.W./.).).).).<XpXBXFXHXGXJXKXlXqX0XF.F.8X9X9XwXeXeXeX9X9X0X8XS.8X0XlXNXKXFXGXFXcX,XQ.H.H.H.H.9.7.4.4.4.4.6.6.6.6.6.6.6.6.6.7.7.",
">X).).).>XpXBXFXGXGXGXKXlX*XC.B.B.A.Z.Z.Z.Z.*XZ.Z.*XZ.*XS.S.*XS.Z.C.n.n.n.;XzXSXFXFXFXhX<X!.J.E.!././././.Q.W.E.R.R.E.E.^./.(.).",
",XuXsXCXDXGXHXJXAXqX*XC.M.M.M.n.s.:.*.*.X.*.X.*.,.,.*.*...*.*.*.:.<.a.n.b.b.r.n.=XqXSXFXFXFXcXaXuX(.(.(.(.>X).).).).).).).>X).>X",
"JXHXHXGXHXDXlXZ.M.M.M.M.n.<.e < 1 4 4 5 | | *.-.-.-.-.=.*.| r 5 5 4 < < t &.r.%.$.$.$.m.xXDXFXFXZXFXSXBXsXaXuXuX,X,XuX,XuXpXcXSX",
"HXFXAXqXZ.B.M.M.M.n.@.5 : : < < 1 0 0 G / W W E E ! E E E / G N 0 4 2 - - $ - 1 } #.#.#.#.$.m.qXDXGXFXGXFXHXFXJXHXJXGXGXHXHXGXGX",
"8XC.M.M.M.n.a.:.r 1 2 2 2 3 8 V Z C C I I W E ! 0.0.0.E R W I I C C V M & @ - o o O > } } #.$.$.r.m.=XqXlXAXAXKXDXDXDXKXAXNXlXqX",
"n.M.n.a.@...1 < < < 3 8 V z x x C J W ^ 0.K.U.`.,X`.`.`.U.0.~ U I C C x k f * & % . . . - 6 } &.%.r.b.n.n.N.Z.Z.*X*XZ.Z.C.N.M.M.",
"<...4 1 < < < 3 8 g z x x x C J Q K.P.U._..XoXiXiXgXiXiX`.oX_.U.L.( Y c g d d d s * %   . . X O >  .%.a.n.M.M.B.M.M.M.M.M.M.M.a.",
"< 2 < 2 7 8 V z x z Z J K ^ ( ) K.L.I._.oXiXdXhXjXZXhXhXdXoXoXU.P.L.) Q Y J n d a a a s * % o X + O O 2 1 e t ....@.....t e 4 > ",
"3 7 M g x z z x C K Q ( ( ( ( K.T..XgXgXjXZXCXZXZXGXGXZXZXZXhXgXOX_.L.Q T Y Y m l b a a a a a h * @ - - - 2 2 : : < < 2 < < < < ",
"x x x x x C ^ ( ( ( ) ( _ OX@X@XgXgXgXhXhXjXZXKXKXKXKXKXjXjXjXgXgXgX$X$X%X` P P m l l b b a a a d j k k z g M 9 8 7 8 9 V z x x ",
"x x J Q ( ( ( ( ( ) OX+X$X+X@X@X$XfX7XwXyXtXbXMXMXMXMXMXbXyXyX9XfXkXgX+X{.%X{.{.' n l l l l n l d d k k v z x x x x x z x x x x ",
"( ( ( ( ( ~ ) .X+X$X$X$X$X$X6X5X6X6X7X7X7XtXbXnXMXMXMXmXbXtX7X7X6X6X5XD. X%X{.XX{.{.[.l l l n n L K U J x z x x x x x x x x J Y ",
"( ( ) ) T.+X$X$X@X@X$X'.3X5X3X5X5X6X6X6XA.z.z.c.v.v.c.c.z.V.D.7X7X6X5XD.g.f.g.&X{.[.[.[.[.] P n P Y Y ^ Q ( ( ( ( ( ( ( ( ) ~ ) ",
"I..X@X$X$X@X$X$X|.3X5X3X5X3X4Xj.O.q.O.t.e.e.z.c.c.c.v.c.z.e.e.#.O.O.q.l.l.g.f.d.d.k.&X[.[.[.[.{.{._ Y Q Q ( ( ( ( ) ( ( ( ( ( ) ",
"@X+X$X$X@X#X7X3X3X4X4X4Xh.+.[ o.o.O.O.#.e.z.x.C.Z.Z.Z.B.z.e.e.#.O.O.o.[ q @.f.d.d.y.y.u.].[.{.{.{.XX%XXX+XXXY.T.I.I.T.Y..X+X$X$X",
" X6X3X3X4X4XD.4Xs.w w o.[ [ [ ;.G.7.W.^.:X2X1XxXxXvXxXxX1X:X~.~.R.R.>.{ q q i ; # i w.w.w.w.y.d.f.].XXXX+X$X$X$X@X+X$X$X$X+X+X$X",
"3X3X3X3X4Xh.@.[ [ w [ [ +.3.6.7.7.R.W.^.:X:XaXvXvXvXvXxX1X:X~.~.W.R.7.4.F p , , = # # X u w.y.d.d.f.g.l.l.5X7X'.|.|.|.7X7X5X5X3X",
"3X3Xj.+.[ [ [ [ { +.1.6.6.6.6.7.7.^.uXpXsXcXBXVXJXSXSXSXBXcXsXpX:XR.7.4.F F A A 7 # # X X # # u d.g.g.h.l.3X3X3XD.3X4X4X3X3X3X3X",
"[ w [ [ [ [ { 1.6.6.6.6.6.6./.>XuXuXuXpXsXBXVXVXDXFXDXVXBXcXsXpXuXuX,X(.3.F A A N N B o # # # = , , w p.h.D.3X3XD.4X4X3Xl.3Xj.@.",
"[ [ [ [ ;.6.6.6.6.6.6.W.).).).,X>XuXpXsXKXHXHXHXHXHXHXHXHXFXBXpXuX,X,X).(.Q.J.D N B M M M 8 $ = , i q q w w [ [ [ [ [ [ w { { { ",
"6.6.6.6.9.5.6.Q.).).).).).).BXHXJXHXHXHXHXHXHXHXHXHXHXHXHXHXHXHXHXHXHXGX)././.!.J.H.H.M M M B N A D S p w w [ [ [ [ [ [ { w ;.>.",
"6.6.6.6.J.).).).).).).sXGXGXHXHXJXJXHXKXtX9X9XwXeXeXeXwX9XeXmXJXHXHXGXGXGXGXCX/.J.J.H.9.H.5.A A A D F 3.4.5.6.6.7.6.6.7.6.6.6.7.",
"R./.).,X).>X).,XpXJXHXJXHXFXFXnXF.Z.S.F.8X9X9XeXeXeXeXeX9X0XF.F.Z.C.0XDXFXDXFXGXFXcXW.9.H.H.J.J.J.9.G 3.4.6.6.6.6.6.6.6.6.6.6.6.",
").).).).).,XBXHXHXHXFXFXAXZ.M.B.B.C.C.F.8X0X8X*X*XZ.*X*X9X0XF.F.F.C.B.n.b.;XGXFXFXFXFXSX).H.J.J.!.!././.(.(.Q.W.R.R.R.E./.).>X).",
").).uXFXFXJXFXJXHXKXZ.M.M.M.M.B.C.a...5 | | *.*.,.,.,.X.X.| | 5 @.N.B.M.b.b.r.%.=XSXFXSXFXFXFXuXQ.!./.(.(.).).).).).).).).).).).",
"JXFXJXHXJXJXHX*XM.M.M.M.M.M.t < 4 4 5 5 | | *.*.,.,.,.,.X.| | r 5 4 1 : %.x.r.%.$.$.$.zXFXFXFXFXGXGXSXpX).).).>X).).).).).).uXBX",
"GXJXlXZ.M.M.M.M.M.n.4 < < < < < : 0 V I I W E E 0.E E E W W I C N 5 2 - O - O - 4 $.#.#.#.#.#.=XDXFXFXFXHXHXFXHXJXJXJXGXGXHXHXHX",
"M.M.M.M.M.M.M.r < < < < < < V x C C I I I W E E E 0.0.E W W I I C C C z @ - O o O 2 : } #.#.$.%.%.r.n.qXAXHXHXHXHXJXJXGXJXJXzX0X",
"M.M.M.M.@.1 < < : : : 9 x x x C C C C W K.oX,XiXiXdXiXiX_.U.~ I C C Z z z j f @ o . - : : - O.$.%.r.x.b.n.M.M.M.M.M.M.M.M.M.M.M.",
"<.e < < < < < : 8 x x x x x z J ~ L.I.U.`.`.oXiXiXiXiXiXiX_.U.U.P.L.^ x k j d d a h - - : O - o O e b.b.b.M.M.M.M.B.M.M.M.M.M.M.",
"1 < : : : 2 V x x x x x c Q ( ) ) P.I.U._.oXoXhXjXCXhXhXoX_._.I.P.L.) ( ^ n d a d a s s * . . X O O - - - 4 ..@.<.<.:.X.t 1 < < ",
"< : 8 V x x x x c c Q ) ( ( ( ) K.Y.kXgXjXjXZXZXZXGXZXZXZXjXjXgXoXP.) Q ^ U P P v s a s s a s * O O O - - : : : : : 2 2 < < < < ",
"Z x x x z C K Q ) ( ( ) K.Y.XXgXgXgXgXjXjXjXZXZXJXKXKXJXjXjXjXjXgXgX$X%X}._ U L n n l b a s a a d j k g M 9 8 7 7 7 7 7 8 M V g ",
"x C J U ^ ) ) ~ ) L.Y..X$X$X$X@X#XfXfXfXyXbXbXnXMXMXMXMXbXbXfXfXfXkX$X+XXXXX{.` T m l l l l l k k j b k z z z z x x z Z x x x x ",
"^ Q ( ( ) ) L.T..X+X+X+X#X#X'.'.6X6X6X7XyXyXbXbXMXMXmXmXbXtXyX7X7X6X6X'.|.&XXX{.{.] ' P n n n n L L J n c C c c c C c Z C J J K ",
"( ( ) I._.XX+X@X+X+X|.7X6X5X4X4X5X4XD.A.V.V.V.v.v.v.v.V.v.V.N.g.D.5X5Xl.l.g.].].&X[.[.[.] ` ' T P U Y ^ Q Q ( ( Q Q Q ~ ~ ( ( ( ",
"T..XOX+X+X$X@X X'.6X5X3X4X3Xg.s.q.&.O.t.e.z.z.c.c.v.c.c.e.e.e.#.&.q.q.s.f.g.f.d.f.k.].[.] [.[.[.T.` _ ( ( ( ( ( ) ( ) ) ( ( _ P.",
"$X@X+X+X#X7X5XD.3X3X3Xg.i.o.w o.o.O.O.%.a.s.=X;X-X-X;X=XA.j.r.#.O.O.{ w q y q.d.d.y.y.w.k.].[.[.{.XXXXXX+XXX.X_..XY.Y..XXX+X@X@X",
"#X|.6X5X4X4X4X5Xj.i.o.{ [ [ [  .>.G.G.^.:X2X1X1XvXvXvXxX1X:X:X^.G.>.;.w q i ; ; i u w.w.w.w.d.k.].|.%X%X+X+X+X$X$X$X@X@X@X$X$X$X",
"4X3X4X4XZ.j.p.+.[ w [ y ;.>.1.9.7.R.R.^.:X1XaXxXvXcXvXxX1X>X:X^.^.R.7.4.p p 3 ; # # # i u q.y.d.d.f.l.4X'.'.'.|.|.|.|.|.7X'.'.5X",
"3Xh.f.@.+.w { w  ...2.8.6.6.6.9.R.~.>XpXxXcXAXCXSXSXSXVXBXcXpXuX:XW.7.4.4.F D p 7 $ # X # # i y p.f.f.l.l.4X3X3X4X5X5X3X3X3X3X3X",
"+.+.w w [  .;.>.8.6.6.6.9.R.Q.(.>XuXuXpXsXcXBXSXSXFXSXSXBXcXsXpXuX<X).!.H.4.D D A B 8 & o # # # i i y y i.s.j.h.h.h.h.j.j.f.i.@.",
"[ [ +.;.>.1.6.6.6.7.R.W.(.).).).>XaXcXBXSXFXHXHXHXHXHXHXHXDXVXBXsXuX>X).(.!.H.F D B M M 9 8 & 3 , i q t w w +.+.+.+.+.o.{ { { [ ",
"2.8.6.7.5.5.6.R./.).).>X>X,XaXBXFXHXJXHXHXHXHXHXHXHXHXHXHXHXHXHXHXHXSXpX)././.E.J.H.H B M M B N A p p t u w w { { [ { { { { y =.",
"5.6.7.7.R.Q.).).).).,XsXBXFXGXGXHXDXAXMXmXmXtXrXrXmXrXrXrXrXmXAXDXDXGXGXGXCXpX).!.H.H.H.9.G D D D H F F 4.3.1.1.2.2.1.1.3.6.9.9.",
"H.R.~.).).).).<XpXcXFXJXHXJXKXzXqX0XF.F.F.0X9XwXeXeXeXwX9X9X8XS.8XqXqXNXKXJXJXDXcXoX!.H.H.H.H.9.5.F F 4.4.6.6.6.6.6.6.6.6.5.4.9.",
").).).>X,XpXBXFXGXGXJXKXlX*XC.B.C.C.Z.S.Z.Z.*XZ.=XZ.Z.Z.*XZ.S.Z.Z.C.N.M.N.=XzXDXSXSXFXcX<XQ.J.J.!.Q././.Q.Q.W.E.R.R.E.W.Q./.(.>X",
">XaXsXCXSXJXHXHXKXqX*XC.M.M.M.n.b.@.X.....*.X.*.,.,.*.*.*...*.;.:.<.a.n.b.a.b.n.=XqXSXFXFXSXcXaX,X(.(.(.).).,X,X).).).).).>X).).",
"FXHXFXJXJXDXlXZ.N.M.M.M.b.<.e 1 1 4 5 5 | | *.=.=.-.-.=.*.| r 5 4 4 2 1 t &.%.$.$.#.$.m.zXSXSXFXFXFXFXcXaXpXuX,X<X,XuXuXuXpXcXSX",
"GXGXAXqXZ.B.M.B.M.n.@.5 < < < 1 1 0 N D / I E E E E E E R / G A 0 5 2 - - O - 1 | $.$.#.#.$.m.lXDXFXFXGXGXJXJXJXJXHXGXJXHXGXGXGX",
"8XA.M.M.M.M.a.@.r 1 : : 2 3 9 V Z C C I I W E ! 0.0.0.E W W I I C C g M & @ O + o O > [ } $.$.$.r.m.=XqXbXAXAXAXDXDXDXAXAXNXlXqX",
"n.N.n.a.@.| 1 : 1 1 3 8 V z z x C C W ^ 0.P.U.`.`.iX`.`.P.K.! R I C c x z g * @ % . . . O > { &.%.r.b.n.b.N.A.*XZ.*XZ.Z.A.B.M.M.",
"<...5 1 : : < 3 8 V z z x x C J Q K.P.U.`._.oXiXiXiXiXiXoXoX_.U.L.) U C k k k j s * % . X . o O :  .%.a.b.M.M.M.B.M.M.M.M.M.n.a.",
": < < 1 7 9 V z x x x J K ^ ~ ) K.L.I.Y.oXiXdXhXjXCXcXdXiXuX.XU.P.L.) Q Y J c b a s s s * % o X O O O : 4 e ......@.....t e 4 1 "
};
