/* XPM */
static char *_618879017392[] = {
/* columns rows colors chars-per-pixel */
"64 64 253 2 ",
"   c #050125",
".  c #05012B",
"X  c #0B002C",
"o  c #020928",
"O  c #16002A",
"+  c #040133",
"@  c #0A0033",
"#  c #04013C",
"$  c #09003B",
"%  c #12003B",
"&  c #120033",
"*  c #701738",
"=  c #050143",
"-  c #05014A",
";  c #0C014B",
":  c #0A0044",
">  c #140044",
",  c #13004A",
"<  c #040153",
"1  c #0A0154",
"2  c #03015B",
"3  c #0A015C",
"4  c #00095B",
"5  c #140059",
"6  c #2B045C",
"7  c #3E015B",
"8  c #370358",
"9  c #040263",
"0  c #0A0163",
"q  c #04016C",
"w  c #0A016B",
"e  c #00096E",
"r  c #130163",
"t  c #14006B",
"y  c #1C016B",
"u  c #1B0065",
"i  c #040373",
"p  c #0B0174",
"a  c #04037B",
"s  c #0C017B",
"d  c #010976",
"f  c #130274",
"g  c #1C0174",
"h  c #14017B",
"j  c #1B017C",
"k  c #1E097E",
"l  c #2B0163",
"z  c #24006C",
"x  c #2B016D",
"c  c #250264",
"v  c #3B0165",
"b  c #370569",
"n  c #230072",
"m  c #22017B",
"M  c #2A0476",
"N  c #360677",
"B  c #3F1372",
"V  c #440259",
"C  c #490457",
"Z  c #57095A",
"A  c #5B135B",
"S  c #4F0D4B",
"D  c #68144C",
"F  c #7C1B4B",
"G  c #781649",
"H  c #660B59",
"J  c #64115C",
"K  c #6B1557",
"L  c #761755",
"P  c #6E0C4B",
"I  c #752248",
"U  c #772152",
"Y  c #470866",
"T  c #550A63",
"R  c #581466",
"E  c #430972",
"W  c #4A1179",
"Q  c #551273",
"!  c #651466",
"~  c #6F1564",
"^  c #B40303",
"/  c #B70B07",
"(  c #BB1302",
")  c #BC1A08",
"_  c #AC0308",
"`  c #BD2408",
"'  c #BB241B",
"]  c #B83407",
"[  c #8A183B",
"{  c #961A3A",
"}  c #A91E2A",
"|  c #B31E29",
" . c #A51D37",
".. c #B21D35",
"X. c #992438",
"o. c #922233",
"O. c #A9242A",
"+. c #B42224",
"@. c #B92427",
"#. c #A42433",
"$. c #AB2433",
"%. c #AC2834",
"&. c #A92539",
"*. c #B42333",
"=. c #BA2735",
"-. c #B5302E",
";. c #C71C0E",
":. c #C32C02",
">. c #C22708",
",. c #CA3E02",
"<. c #C63703",
"1. c #DC350E",
"2. c #CB2B1B",
"3. c #C72818",
"4. c #D42B1D",
"5. c #D92919",
"6. c #CA341C",
"7. c #DA341B",
"8. c #D93817",
"9. c #DB280D",
"0. c #E82A0B",
"q. c #FD2C01",
"w. c #F62B09",
"e. c #E4330D",
"r. c #EC340C",
"t. c #EA3807",
"y. c #F43403",
"u. c #FC3401",
"i. c #F33B02",
"p. c #FD3C01",
"a. c #F3330B",
"s. c #F33C0A",
"d. c #FC370A",
"f. c #E52C16",
"g. c #E33413",
"h. c #E63816",
"j. c #F33313",
"k. c #C72928",
"l. c #C93228",
"z. c #D53324",
"x. c #DA3825",
"c. c #CF2E31",
"v. c #E43623",
"b. c #E43529",
"n. c #CC4403",
"m. c #CC4B01",
"M. c #D14D02",
"N. c #D35301",
"B. c #D45B00",
"V. c #DA5C01",
"C. c #CB4C12",
"Z. c #EB4302",
"A. c #EE4707",
"S. c #F44402",
"D. c #FE4301",
"F. c #F54B02",
"G. c #FD4C01",
"H. c #F3440C",
"J. c #FB440B",
"K. c #FB4D09",
"L. c #F64A0C",
"P. c #F45301",
"I. c #FE5402",
"U. c #FD5C02",
"Y. c #FC5B0B",
"T. c #F75809",
"R. c #F64911",
"E. c #F95112",
"W. c #F65713",
"Q. c #E74312",
"!. c #DB6401",
"~. c #DB6B00",
"^. c #D66704",
"/. c #DB7703",
"(. c #CD6604",
"). c #E26C01",
"_. c #E36602",
"`. c #FD6401",
"'. c #FE6B02",
"]. c #FC640B",
"[. c #F76907",
"{. c #E37401",
"}. c #E97302",
"|. c #E47B01",
" X c #EB7B00",
".X c #EB720A",
"XX c #FD7302",
"oX c #FE7C02",
"OX c #FD720A",
"+X c #F77A05",
"@X c #FC7213",
"#X c #CA482A",
"$X c #D54529",
"%X c #D94730",
"&X c #871A48",
"*X c #941C47",
"=X c #831954",
"-X c #9B1C51",
";X c #A21D47",
":X c #862149",
">X c #992244",
",X c #862052",
"<X c #A62545",
"1X c #B52745",
"2X c #EC8401",
"3X c #E88802",
"4X c #F38302",
"5X c #FD8302",
"6X c #F38C02",
"7X c #FD8B02",
"8X c #FF830A",
"9X c #F38C0A",
"0X c #FE8C0B",
"qX c #F4860A",
"wX c #EC9606",
"eX c #F49201",
"rX c #FD9402",
"tX c #FE9B02",
"yX c #FD940B",
"uX c #FF9C0B",
"iX c #F49809",
"pX c #FF8C12",
"aX c #F38D12",
"sX c #FE9413",
"dX c #FD9B13",
"fX c #F79517",
"gX c #EA9D15",
"hX c #FFA303",
"jX c #FAA607",
"kX c #F9A216",
"lX c #F79E21",
"zX c #F7A224",
"xX c #DF8100",
"cX c #040283",
"vX c #0B0183",
"bX c #03038B",
"nX c #0C018A",
"mX c #01098B",
"MX c #010B85",
"NX c #130184",
"BX c #1B0183",
"VX c #13008C",
"CX c #1B018D",
"ZX c #140A84",
"AX c #010493",
"SX c #0C0193",
"DX c #04029A",
"FX c #080597",
"GX c #150091",
"HX c #160096",
"JX c #230283",
"KX c #290485",
"LX c #360988",
/* pixels */
"              . X   . . + + . X X   : 1 w p j 7  .8.W.].5XrXtXhXhXhXtXwX3X|.^.B.m.<.] ) ( / ^ ^ _ ) ] N.7XrX'.C.R j w 4 + o + # ",
"          X .   . . X . X . . . X X : 3 w f h 7  .8.W.].8XrXtXhXhXhXtXeX3X|.^.B.m.<.:.) ( / ^ ^ / ' ] B.7XrX'.C.A g t < + o o + ",
"              . X . . . . + @ . X + = 3 w p j 7 #.7.W.].8XrXtXhXhXjXhXrX6X X~.B.m.,.:.) ( ( / ^ / >.n.V.5X7X'.#XR n t < o o o + ",
"          . . . . X . @ @ . @ @ @ + - 3 w s h V #.z.W.].oXrXtXhXjXjXhXuXyX2X~.!.N.n.<.:.;.( ( / ) 3.n._.0X7X`.$XH n u 1 . o   X ",
"X X . X . . . X + @ X + X + @ + + # - 0 p p h 7 &.7.W.].+X7XrXtXtXuXuXuXyX9X{.~.N.M.n.<.:.;.;.( ) 3.M._.pXpXT.%XJ x y 1 + o   X ",
"@ . + @ @ . + @ @ + @ @ + @ @ $ # # < q p s h 7 #.h.R.[.OX5XrXtXtXtXuXuXuXaX2X}.!.V.M.,.<.<.:.:.:.n.N..XpX@XI.%XK x y 5 = +   X ",
"+ + # + + + # # # + $ # # # # # = - < w p s h V #.h.R.T.oX5X7XyXrXtXtXjXuXyX9XqX{.~.B.M.n.n.n.<.n.N.!.+XfXpXK.%XK x z 0 - = $ @ ",
"= # # # = # # # = $ = # : # : = - < 4 p d s h 7 } h.Q.T.OXoX5XyXeXeXtXuXuXuXiX9X|.{.~.^.N.M.m.m.M.V.{.qXfX@XP.%XL l y t 2 3 : : ",
"- = - - - - - - - - - : - - : - < < 9 i a s j V $.e.R.Y.`.oX5X6X6X6XeXtXtXtXuXdX3X3X|.{.~.^.!.!.!.{.6XyXpXOXI.$XL b y f d 9 2 3 ",
"1 < < < 1 1 1 < 1 1 < 1 1 1 1 < 3 3 e a s s ZXV *.f.H.I.U.'.oX+X7X6X6X6XeXtXuXuXuXyX9X2X X{.{.{. X4XrXyXpX@XF.$XG v u f vXa 9 0 ",
"3 0 0 0 0 0 0 0 3 3 3 2 3 3 0 2 0 e d a vXs JXC *.0.s.G.I.'.'.XX+X4X4X4X7XrXeXrXuXuXdXyXsX0X0X7X7X7XrXyXqX[.F.x.I 7 u s nXcXi w ",
"w q q w w w w w w w w w w w 0 w w p ZXvXvXvXJXZ *.0.s.D.I.U.'.[.'.XXXXoX+X5X5X7X0XyXyXdXsXsXsXsXuXrXrX7X@XT.S.h.o.S 6 f SXSXvXp ",
"s p i s p p p i p p p p p p p p p p ZXvXvXNXKXR =.0.u.D.G.I.`.`.`.`.'.'.'.oX+XoX5X5X7X0XpXpXpXpX0X8X5XoX].L.p.h.o.S 8 y VXSXs f ",
"vXvXvXs vXs s s s s s s s p s p p s cXnXvXNXLXQ ..w.u.p.D.G.I.U.I.U.I.U.`.`.'.'.'.XXXX+XoXoXoXoXOXoX'.`.T.J.u.j.O.* 8 c CXGXf t ",
"nXnXnXnXnXvXvXvXvXs s s s vXs s s vXvXnXnXNXLX! ..0.u.u.D.G.P.I.K.K.K.I.K.I.U.U.`.`.`.[.`.[.[.`.`.U.U.P.H.d.q.0.O.* A b KXCXg y ",
"x x x z n n g j h h NXvXvXvXvXnXvXNXVXVXNXm W ~ @.0.a.i.p.D.G.D.D.J.J.K.K.D.I.G.F.F.Z.P.P.P.P.P.G.K.F.A.s.a.q.y.6.X.G A N N 7 7 ",
"=XF L K H C C 8 l n h nXSXFXDXDXnXVXCXBXM N ! U $.3.e.i.p.p.p.p.p.p.i.p.S.i.i.i.t.Z.i.Z.Z.Z.Z.Z.j.j.s.i.t.1.r.0.;.;.@.X.:X=X&X[ ",
"c.=.=.&.*X*XF L Z Y b x m NXVXNXCXJXKXM b T L ,X#.k.8.y.y.u.u.p.p.i.i.a.r.r.r.f.8.7.8.4.6.6.6.k.c.k.4.2.6.6.2.5.w.w.5.2.-.-.k.k.",
"x.v.x.z.l.c.=.<X:X&XP H Z C V v v Y Y T A D :XX.O.' 3.f.r.a.d.a.w.r.w.f.7.4.k...&.<X*X*XF G G G G &X[ o.o.X.*.k.0.w.w.e.$Xx.j.j.",
"H.S.L.H.Q.h.7.c.c.=.&.{ &XG P P P D K L F &X{ X.| k.3.5.5.f.f.f.f.5.5.k.=. .*X=XP H Z Y Y v v v 7 8 S S D F <Xc.0.q.q.y.Z.S.D.G.",
"I.I.I.I.I.G.J.s.j.h.4.k.k.*...} { o.X.X.#.#.O.+.@.3.| k.=.k.c.k.k.| .. .[ P H T E N KXJXCXVXVXHXnXs t 6 6 A =X1Xf.u.D.D.I.I.I.I.",
"'.'.'.`.U.I.G.D.D.i.r.h.f.7.4.k.6.6.6.k.3.' ' ' | | | } ..;X;X-X{ { [ P Z C Y x JXVXSXFXFXDXDXDXDXAXa p y 6 K <Xv.u.D.I.U.`.`.'.",
"5X5XoXXX'.`.U.I.G.D.i.s.r.h.h.1.1.1.1.1.1.9.>.3.' | { { &X=X=XL K A Z V b z g s vXnXbXbXcXvXa MXFXbXa p f 6 J ;Xb.y.G.`.'.+XoXoX",
"yXyXyX5X5XXX'.`.U.I.D.S.s.s.r.r.s.s.y.y.t.y.9.2.|  .{ =XH ~ R R R B N M j s cXbXmXbXMXa d w 0 0 a a i f f l Z ;Xb.d.U.'. X9X0X0X",
"kXgXkXfXsX8XoX'.'.`.I.G.L.H.H.H.S.p.u.u.u.y.0.4.@.X.F K A B b B k m ZXZXvXbXmXMXMXa q 9 < ; > ; 3 w r t y 6 Z *Xx.L.`.XXaXzXzXfX",
"gXgXgXkXdXsX8XoXXX`.`.I.I.I.L.L.J.p.p.p.u.u.e.4.O.>XK R B B z k ZXCXGXGXnXbXbXcXa i 9 < = $ @ % , 3 5 r g 6 C *Xx.K.`.oXfXzXfXfX",
"xXwXiXdXdXuXyX7XoXXX`.`.I.I.I.K.J.J.p.p.u.u.r.4.-.:XJ B M f h h CXHXHXHXSXnXnXvXa q 2 < - # # # ; 1 1 r w u C [ $XI.'.5XsXdXfXwX",
"xX3X3XwXuXuXtXtX7XoXXX'.`.U.I.I.E.E.D.p.p.p.r.z.%.:XA b M h cXnXHXCXCXHXVXVXNXs q q 2 < - = # # : ; - 9 p r 7 &X$XI.XX7XuXeX9X X",
"|.|.2X2X6XrXjXjXrX7XoXXX'.`.U.U.Y.E.K.D.D.p.r.z.%.:XR b f ZXnXSXGXGXVXVXNXBXh t r 0 1 - = = = # # : - 2 d 0 8 &X$XI.XX7XrX6X X).",
").{.{. X3XwXjXjXrXrX5XoX'.`.`.Y.].W.I.G.D.p.y.4.$.U T M h bXSXSXFXnXVXNXh f t r 5 , ; : = # # + @ $ = 4 e q 6 I #XU.oX7X0X X)._.",
"!._.)./.3X3XwXjXjXiX6X4XXX'.'.].@XW.U.G.D.p.y.7.$.&XT x h nXSXFXAXbXbXvXp t 5 5 > % & @ + . X   X X # < e e 6 I #XU.oXrXpX{.!.^.",
"V.!.~.{./.3XwXjXjXwX6X4X+XXX'.].W.].U.G.D.p.y.7.%.,XR x h nXSXSXAXmXMXa p r 5 , > % & & X X X   O O @ < e e c I #XT.5XsXaX/.(.^.",
"V.!.~.{.xX9XuXkXuXtX7X5XoXXX'.`.].Y.I.I.D.p.y.8.%.,XA M h nXSXFXbXcXcXi w 0 3 , > $ % @ & @ @ & O O & 1 i w l U #X_.5XyX9XxX(.(.",
"!.^..X{.|.3XyXuXuXrX7X+XoXXX'.'.].].I.G.D.p.y.7.%.U C x h nXSXFXFXnXnXa p w 0 1 ; = $ $ # @ # $ O O % 1 i i b I #XW.oXrX9XxX(.(.",
"_..X}.}.4X6XrXuXrXrX5XoXXX'.`.`.].W.I.G.D.p.y.x.%.:XZ M j nXSXSXFXDXHXSXvXs p 0 < < - # # + o o @ $ : 4 d q 8 U #XY.oX7X0X X/.^.",
"_..X X5X4XrXrXtXrX7X5XXX'.`.`.Y.].W.I.G.D.u.r.z.%.&XZ b j NXVXSXHXHXDXHXnXs s i 9 4 < - = # # # + = - 9 d q v F $XK.XX7X7X2X}._.",
"}. X4X7XrXtXtXtX7X5XXXXX'.Y.Y.Y.W.T.K.D.p.p.r.x.&.,XA v n BXBXvXVXVXVXNXvXvXa s q 9 2 < - - = # = - - 9 d w v &Xx.I.XX5XyX9X X}.",
"6X6XeXrXuXtXtXyX5XoX'.[.].Y.Y.E.R.L.D.D.p.i.r.z.%.-XJ Y M m j h h h vXvXvXvXvXs s p 9 9 4 - - ; - - < 4 p u V &X%XK.'.5XyXsXqX+X",
"iXiXiXkXdXuXyX7X+X}.[.P.E.E.E.R.J.D.D.D.p.u.0.z.*.*XL T B N M g f h s h h vXs s h p t 5 , , > > < 1 1 r f c C *Xb.E.`.oXfXlXfXaX",
"kXkXkXkXdXyX4X+XXX[.T.P.R.E.d.d.J.p.p.p.u.w.g.z.| { G A T E N x g f h h NXNXNXNXZXf t 5 5 , > , 3 w r t g c Z *Xb.R.].oXfXzXfXfX",
"uXuXrXyX7X5XoX'.'.I.I.D.D.p.d.d.p.u.u.q.y.a.e.4.@.{ &XL J R Q W N LXKXBXBXVXVXVXNXs p 0 1 ; ; ; p a p f f l T -Xc.R.U.XXqXfXsXuX",
"7X7X5X5XXXXX'.U.I.G.D.p.p.d.d.w.a.a.j.w.0.f.5.3.+.} { &XG L K ! Q W W N M JXBXNXvXvXa i e 9 4 e bXbXvXh f x H -Xb.s.P.'. X4X5X5X",
"XXXXXX'.`.`.I.G.D.p.u.y.w.w.w.f.f.4.4.4.4.2.3.' ' } } { [ *X&X=X,X~ ! R Y b n j NXbXbXmXmXmXMXmXDXAXvXh g b ~ ;Xb.d.D.I.'.XXXXXX",
"`.`.U.U.I.I.D.S.i.r.e.f.5.5.3.' | ..=.=.*.| | | +.+.+.O.$.$.%.&.&.X.*X&XD Z V l z j vXvXmXmXmXFXAXvXf z l V L 1Xb.d.D.G.U.`.`.U.",
"I.G.P.F.F.H.h.h.z.l.k.*.#.{ [ [ &X=X=X&X*X>XX.} O.' ' 2.2.3.z.2.3.3.' O.O.* G D C 7 b x m j BXj z c 8 8 S D >X=.f.q.u.S.F.F.G.G.",
"A.Z.Q.h.h.x.l.c.&.<X&XF K A Z Z C T ! ! K L &XX.O.' 6.1.e.e.e.e.t.1.9.8.6.' %.>X&XF L H H Z H Z Z P * * * o.%.k.j.w.y.t.Q.Q.i.D.",
"7.6.2.2.k.=.>X*XP H T b M BXZXNXJXN N b Y A L [ #.@.7.t.y.y.u.u.u.q.a.j.r.f.z.z.l.l.=.=.........#.#.' +.O.-.@.5.j.w.0.7.l.c.v.f.",
"<X&.>X*X&XP P Z Y b n h vXmXAXAXnXNXBXm M E R I %.3.e.y.i.p.u.p.u.u.u.u.s.s.s.h.t.h.8.h.h.v.v.v.x.8.1.,.4.4.f.f.f.;.k.%.<X>X1X..",
"W W B b N x z n g h BXvXbXbXbXbXvXNXNXNXBXm W ~ ..e.w.q.p.S.D.D.D.D.p.D.D.S.S.S.S.F.A.A.A.H.H.H.R.R.Z.Z.r.j.q.w.3.&.>X~ Q Q A Z ",
"NXNXNXNXNXNXvXnXvXvXvXvXvXbXnXvXs s BXvXvXZXLX~ ..w.q.u.D.F.F.G.D.D.D.D.G.D.I.P.P.P.U.I.I.Y.T.Y.K.I.P.F.J.d.q.w.+.&XK Y LXKXz 6 ",
"s h s h h vXNXvXvXvXvXcXvXa vXcXs s h vXcXNXLX! +.0.q.u.D.I.I.K.I.I.I.I.I.`.U.`.`.'.'.OXOXOXOXOX'.'.`.`.E.d.q.a.O.I S l JXBXg u ",
"f f h s p h p f s p p s s s s s p p s vXa h M H @.e.u.u.G.T.I.].Y.U.`.`.`.'.XXXXXX+XoX5X8X8X8X8X8XoX+X'.Y.F.u.r.X.D 8 c NXVXg y ",
"t w w w w w w w w q w i i q p q i p s vXa s M Z ..e.d.D.I.`.].].].].'.OXOXoX5X5X7X0XrXrXrXrXrXrXrXrX7X5X'.P.p.8.o.S 6 y VXnXh f ",
"3 3 3 3 0 3 0 0 0 0 0 0 0 0 9 0 9 w f s cXs KXZ O.1.d.D.Y.'.OXOXOX+X+XoX5X7X0XrXuXjXuXtXtXtXtXrXrXrXrXrX4X[.G.$X* C c f nXnXp w ",
"< 1 1 1 1 1 3 1 < 3 2 3 3 2 3 3 2 9 p s a s m Z O.e.s.G.].'.OXOXoX4X5X5X0XrXuXuXuXuXrXeX2X2X2X2X2XeXtXrX0X[.F.$XG b y h vXa q t ",
"= - = = - - - - - - - ; - - < < - 2 w p a s M C O.1.J.D.].oX+XoX5X7X7X7XrXyXuXuXiXeX2X|././.~.^.~. XeXuX9X+XA.6.D b u p i 9 2 3 ",
"# # # # = # # # : = : = = = = - - < 9 p d a m V O.1.R.K.'.+XoX7X7X7XrXtXuXuXyXyX2X|.{.^.(.!.(.B.B.~.|.6XdX+XF.$XL l n t 0 3 - ; ",
"# + # # # # # # # # # # $ $ $ : = - 0 w i p g C #.8.L.I.OX5X5XrXrXrXtXtXtXuXyX4X{._.V.N.M.n.n.m.m.B.~.qXsX8XP.#XK x n r < - $ % ",
"+ + + + + + + + @ @ $ $ $ $ $ $ = = 3 w i s j C #.1.L.U.XX5X7XrXtXtXtXhXtX7X2X X_.V.M.n.<.6.>.>.:.m.B..XsX8XU.$XK x y 5 = $ @ & ",
". . . . . . + + @ + @ + + @ @ + $ = 1 0 i i m V #.C.R.`.oX7XrXtXtXtXtXtXtX6X{._._.N.n.<.3.] ` ) ` <.M.).yX8X`.$XK z y 1 + .   X ",
"o . . . . . . . @ + X @ @ @ @ @ @ $ , r i p n V #.C.K.Y.oXrXrXtXhXtXtXtXrX2X{.!.B.M.,.:.>.;.) / ) >.m.~.0X7X`.$XJ z u 1 + o     ",
".   . . . . . . . X . @ X + @ X @ $ ; 0 q p j V #.8.E.`.5XrXtXhXhXhXtXtX6X2X~.B.m.m.<.>.;./ / / / ' ,.!.7X7X'.$XJ n t ; o o   X ",
". .     .   . . X . X . X @ X X @ @ ; r w p m V #.Q.E.].5XrXtXhXhXjXtXwX3X|.~.!.m.<.:.` ( / ^ ^ _ ` ] B.7XrX'.C.A n t < . o . @ ",
"    . o   .   . X . + X X X X X X @ , 3 q p n C o.8.R.].5XrXtXhXjXjXiXeX3X/.(.B.m.n.:.) ( / ^ ^ _ ) ] B.7XrX'.C.A g t < o o . @ "
};
