/* XPM */
static char *_619904269330[] = {
/* columns rows colors chars-per-pixel */
"64 64 28 1 ",
"  c black",
". c #010000",
"X c #000100",
"o c #010101",
"O c #000201",
"+ c #000002",
"@ c #010002",
"# c #FFFD00",
"$ c #FEFE00",
"% c #FFFE00",
"& c #FEFF00",
"* c yellow",
"= c #000086",
"- c #000087",
"; c #010088",
": c #000188",
"> c #020088",
", c #020189",
"< c #01008A",
"1 c #0001FC",
"2 c #0000FD",
"3 c #0000FE",
"4 c #0100FE",
"5 c #0001FE",
"6 c #0101FF",
"7 c #FFFFFD",
"8 c #FEFEFE",
"9 c white",
/* pixels */
"                                                                ",
"                                                                ",
"                                                                ",
"                                                                ",
"                                                                ",
"                                                                ",
"                                                                ",
"                                                                ",
"                                                                ",
"                                                                ",
"                                                   @            ",
"                                                  @             ",
"                                                                ",
"                                                     @          ",
"                                                      *         ",
"                                                                ",
"                       O                                        ",
"                               @    *                           ",
"                                       @                        ",
"                            @                                   ",
"                @    *  *       @                               ",
"                      *8          @                             ",
"                      **                                        ",
"                     *@ *                                       ",
"                   @                  *  *    @                 ",
"                    @               @  8*                       ",
"                                       **   @                   ",
"                                      *  *     *                ",
"                                 @      O  O                    ",
"             *  *        8                                      ",
"           @ @** @                          O                   ",
"              8*                                                ",
"             *  *                                      8        ",
"              @                                                 ",
"                             666666                             ",
"        @        @         666--,,666                           ",
"         @                66-666666166  @       o               ",
"                         66-16611166-66                         ",
"                         6-6166666166-6      * *                ",
"                        66166666616666-6      *                 ",
"                        6-61616  6666611     * *                ",
"          @       @     6-1666    161666                        ",
"            *           1-6611    666161                        ",
"                        6161666  6161666                        ",
"                         66616666666166 @                       ",
"                * *   @  66666116666166                         ",
"               @ *        16616666--66                          ",
"        @       * *        61616--616          8                ",
"                             666666                             ",
"                          @  666                                ",
"                             6-66                               ",
"                             6-6-6                              ",
"                             6-66-6                             ",
"                             6-666                              ",
"                             6,66                               ",
"                             6,6-6                              ",
"                             6-66-6                             ",
"                             6-166                              ",
"                             6-66                               ",
"                             6-6-6                              ",
"                             6,66,6                             ",
"                             6-666                              ",
"                             666                                ",
"                                                                "
};
