/* XPM */
static char *f4212328d1c14e91a7baa3b8877124a2cphcRnPKn8LhDLT2[] = {
/* columns rows colors chars-per-pixel */
"40 40 122 2 ",
"   c #282828",
".  c #2A2A2A",
"X  c #313131",
"o  c #323232",
"O  c #343434",
"+  c #353535",
"@  c #373737",
"#  c gray22",
"$  c #393939",
"%  c gray23",
"&  c #3B3D3C",
"*  c #3C3C3C",
"=  c gray24",
"-  c #3E3E3E",
";  c #3F3F3F",
":  c gray25",
">  c #414141",
",  c #414342",
"<  c gray26",
"1  c #434343",
"2  c #424443",
"3  c #444444",
"4  c gray27",
"5  c #444645",
"6  c #454746",
"7  c #464646",
"8  c gray28",
"9  c #464847",
"0  c #484848",
"q  c #494949",
"w  c #494B4A",
"e  c gray29",
"r  c #4B4B4B",
"t  c #4B4D4C",
"y  c #4C4C4C",
"u  c gray30",
"i  c #4C4E4D",
"p  c #4D4F4E",
"a  c #4E4E4E",
"s  c gray31",
"d  c #505050",
"f  c #515151",
"g  c #515352",
"h  c gray32",
"j  c #535353",
"k  c gray33",
"l  c #555555",
"z  c #555756",
"x  c #565656",
"c  c gray34",
"v  c #585858",
"b  c gray35",
"n  c #5A5A5A",
"m  c #5B5B5B",
"M  c gray36",
"N  c #5D5D5D",
"B  c gray37",
"V  c #5F5F5F",
"C  c #606060",
"Z  c gray38",
"A  c #626262",
"S  c gray39",
"D  c #626463",
"F  c #646464",
"G  c #656565",
"H  c gray40",
"J  c #676767",
"K  c #686868",
"L  c DimGray",
"P  c #6A6A6A",
"I  c gray42",
"U  c #6B6D6C",
"Y  c #6C6C6C",
"T  c #6D6D6D",
"R  c gray43",
"E  c #6F6F6F",
"W  c gray44",
"Q  c #717171",
"!  c #727272",
"~  c gray45",
"^  c #747474",
"/  c gray46",
"(  c #767676",
")  c #777777",
"_  c gray47",
"`  c #797979",
"'  c gray48",
"]  c #7B7B7B",
"[  c #7C7C7C",
"{  c gray49",
"}  c #7E7E7E",
"|  c gray50",
" . c #808080",
".. c #818181",
"X. c gray51",
"o. c #838383",
"O. c #848484",
"+. c gray52",
"@. c #868686",
"#. c gray53",
"$. c #888888",
"%. c #898989",
"&. c gray54",
"*. c #8B8B8B",
"=. c gray55",
"-. c #8D8D8D",
";. c #8E8E8E",
":. c gray56",
">. c #909090",
",. c gray57",
"<. c #929292",
"1. c #939393",
"2. c gray58",
"3. c #959595",
"4. c gray59",
"5. c #979797",
"6. c #989898",
"7. c gray60",
"8. c #9A9A9A",
"9. c #9B9B9B",
"0. c gray61",
"q. c #9D9D9D",
/* pixels */
"X.;.&./ 5.>.~ 5.N K F ~ 5.X.K 7.;.R n l / F [ [ N 4 = = R > f [ / R C / _ F 0.;.",
"K ~ ~ n _ ~ f / = 4 4 f ~ C q _ ~ l 4 > F N / _ N 4 4 > ~ 4 f _ R C f C F q X./ ",
"F ~ R N [ _ n X.a l l C +.~ n &.+.K N n [ / ;.>._ C C n ;.N F &._ ~ n K K a [ ~ ",
"/ X.[ K +.[ C +.q l f N X.R l +.[ N f a R F _ _ C a q 4 / a n _ ~ R n R ~ l ;.X.",
"f n N a K K l [ q n n R ;.[ F >.&.F n f R F / / n a 4 > R 4 a R C n > a a X F n ",
"4 f a 4 N n 4 K + > > f / C f / / n l f ~ / +.&.~ F F C &.N F _ K C 4 a q   n f ",
"f N N a N N 4 F X = = q F l 4 R K a a a K K [ [ K C C N +.C F [ K F a l l # C N ",
"~ _ _ R _ / F X.a n n C X.~ N +.[ F N N ~ ~ [ X.K C C N X.F R X.~ / N ~ F l [ _ ",
"n C F F R R F X.f C F / 5.X.~ 5.&.~ / R _ X.X.&.~ R K K &.R / [ K ~ f F n > F F ",
"K ~ ~ ~ ~ / R &.n K R _ >.X.~ 5.X.K K N K R C F q q q q F f n K l K a F N q K R ",
"C F F R K ~ R +.N K ~ [ 7.;.[ 0.&.R ~ F R ~ C F a f a a K l n F a C q N l > N F ",
";.;.;.>.+.+.[ >.N K K ~ +./ ~ ;.[ F / K / [ / _ F R R ~ +.[ [ +.~ &.~ +._ K X.;.",
"[ X.X.+./ / / [ f n N F _ R F +./ N ~ K ~ X.~ [ K _ _ [ ;.+.+.+.R ;.R X.~ C ~ X.",
"_ [ [ &./ _ _ &.C K ~ / &.[ _ 5.X.K X._ _ ;./ [ R X.X.+.>.;.&.+.K ;.K [ K N F [ ",
"~ ~ ~ +.K / [ &.F ~ _ X.5.&.+.0.+.R X./ R [ C C f F C R / ~ / K f _ n ~ N f n R ",
"X.X.X.>./ [ +.;.F / [ X.;.+.+.0.+.~ ;.+.X.7._ X.~ ;.;.5.7.7.5.&.K 5.~ X.~ F F X.",
"[ [ [ ;.K K ~ / q a l n F N n ~ n 4 C n f F 4 a = l n F K R R C 4 [ N / F n N [ ",
"F F F / f l C F # 4 a a N f l R f 4 K C n _ n F n _ _ +.+.&.X.~ a X.n R l q 4 C ",
"N N N / a l C F > a n n K N C / N q K C l R 4 f > C F R R ~ ~ n # ~ a C q = = n ",
"l l n K 4 q N N + > q a n f l F f 4 K F N _ n F n [ X.&.+.;.&.R a [ f F 4 = + f ",
"K F K [ f l C N # > 4 q f a a C q # N f q F = q = C C K K / ~ n = / f K f q 4 F ",
"_ / / &.C F _ / a l C C R F K _ F f / ~ F X.N K n _ X.&.+.>.;./ l &.F [ C n l ~ ",
"+.X.+.5.K R _ / q l N N F N N ~ N 4 K C l R q l q F K / / [ [ K f &.K [ R C C +.",
"+.+.X.5.R ~ [ [ f n N C R C F / C a R C n ~ f l q F K ~ / [ [ R f &.K X.R F F X.",
"l l n K a f N F & 9 p l F N n R l > C l a C > q # l f N C F C l # F > n > + = l ",
"+.+.X.5./ _ +.&.D U / _ &.X.[ 5.[ F X./ ~ X.F R n ~ ~ _ X.+.X._ n &.K X.R C K X.",
"~ / ~ [ K F K ~ 9 p k v F N n ~ C a F F N / C K n ~ ~ _ +.[ [ _ N +.C / F l N / ",
"C F C ~ N N N R , i g n R C N / F q N l f C q f # a a f C N N n > F q N a > f C ",
"/ / _ [ K K F ~ , w a f F l a ~ N > l a f C f n 4 f f l R F F F l / n R C l K _ ",
"l n N C n N N ~ 9 g v C _ R F X./ n K C K / K R n F C F / K R R f K q n a # f l ",
"[ X.X.[ / ~ F / 4 p a l R N l / K l C C R _ _ +.~ _ _ [ 5.[ X.&./ &.R [ ~ N _ X.",
"n N N N C F N / w l N F X.~ F &.[ K K F / _ _ [ F K K K X.R R / C R a N f = n N ",
"N K K F K K N _ q l n C [ ~ N +._ C F N ~ ~ _ [ F C C C +.F K _ F R f F n 4 F K ",
"F R R F ~ ~ F X.f N N R ;._ K >.+.K F C ~ ~ _ _ F N n N [ N F _ K R f F N q R R ",
"~ _ _ ~ X.[ K &.n F C ~ ;.[ R >.+.K C l K F ~ ~ f 4 4 > R q f ~ F K l K K l X._ ",
"a n n f K ~ N +.f F K [ 0.;._ 0.7.[ ~ R ;.+.>.5.[ R R K >.K K X.~ K a n f + C n ",
"~ _ _ F X.[ C +.a n n C +.~ N +.[ C f a F N R R l > = # K > f ~ F K f F K f +.[ ",
"/ [ [ K &.+.K ;.n F C ~ 5.X.K 7.;.~ F C X._ ;.;./ N N l +.N F +.[ / C ~ ~ n ;.[ ",
"C R R n _ / n X.q n n F ;._ C >.&.R N N [ / >.>._ C C N ;.N F +._ R l C C 4 _ R ",
"q l f > C N = F . # # 4 K l = R R l a a / / >.5.X.R K F >.F R &._ K a l f + K l "
};
