/* XPM */
static char *_618879427574[] = {
/* columns rows colors chars-per-pixel */
"64 64 239 2 ",
"   c black",
".  c #010101",
"X  c gray1",
"o  c #040404",
"O  c gray2",
"+  c #060606",
"@  c #070707",
"#  c gray3",
"$  c #090909",
"%  c gray4",
"&  c #0B0B0B",
"*  c #0C0C0C",
"=  c gray5",
"-  c #0E0E0E",
";  c gray6",
":  c #101010",
">  c #111111",
",  c gray7",
"<  c #131313",
"1  c gray8",
"2  c #151515",
"3  c #161616",
"4  c gray9",
"5  c #181818",
"6  c #191919",
"7  c gray10",
"8  c #1B1B1B",
"9  c gray11",
"0  c #1D1D1D",
"q  c #1E1E1E",
"w  c gray12",
"e  c #202020",
"r  c gray13",
"t  c #222222",
"y  c #232323",
"u  c gray14",
"i  c #252525",
"p  c gray15",
"a  c #272727",
"s  c #282828",
"d  c gray16",
"f  c #2A2A2A",
"g  c gray17",
"h  c #2C2C2C",
"j  c #2D2D2D",
"k  c gray18",
"l  c #2F2F2F",
"z  c gray19",
"x  c #313131",
"c  c #323232",
"v  c gray20",
"b  c #343434",
"n  c #353535",
"m  c gray21",
"M  c #373737",
"N  c gray22",
"B  c #393939",
"V  c #3A3A3A",
"C  c gray23",
"Z  c #3C3C3C",
"A  c gray24",
"S  c #3E3E3E",
"D  c #3F3F3F",
"F  c gray25",
"G  c #414141",
"H  c gray26",
"J  c #434343",
"K  c #444444",
"L  c gray27",
"P  c #464646",
"I  c gray28",
"U  c #484848",
"Y  c #494949",
"T  c gray29",
"R  c #4B4B4B",
"E  c #4C4C4C",
"W  c gray30",
"Q  c #4E4E4E",
"!  c gray31",
"~  c #505050",
"^  c #515151",
"/  c gray32",
"(  c #535353",
")  c gray33",
"_  c #555555",
"`  c #565656",
"'  c gray34",
"]  c #585858",
"[  c gray35",
"{  c #5A5A5A",
"}  c #5B5B5B",
"|  c gray36",
" . c #5D5D5D",
".. c gray37",
"X. c #5F5F5F",
"o. c #606060",
"O. c gray38",
"+. c #626262",
"@. c gray39",
"#. c #646464",
"$. c #656565",
"%. c gray40",
"&. c #676767",
"*. c #686868",
"=. c DimGray",
"-. c #6A6A6A",
";. c gray42",
":. c #6C6C6C",
">. c #6D6D6D",
",. c gray43",
"<. c #6F6F6F",
"1. c gray44",
"2. c #717171",
"3. c #727272",
"4. c gray45",
"5. c #747474",
"6. c gray46",
"7. c #767676",
"8. c #777777",
"9. c gray47",
"0. c #797979",
"q. c gray48",
"w. c #7B7B7B",
"e. c #7C7C7C",
"r. c gray49",
"t. c #7E7E7E",
"y. c gray50",
"u. c #808080",
"i. c #818181",
"p. c gray51",
"a. c #838383",
"s. c #848484",
"d. c gray52",
"f. c #868686",
"g. c gray53",
"h. c #888888",
"j. c #898989",
"k. c gray54",
"l. c #8B8B8B",
"z. c gray55",
"x. c #8D8D8D",
"c. c #8E8E8E",
"v. c gray56",
"b. c #909090",
"n. c gray57",
"m. c #929292",
"M. c #939393",
"N. c gray58",
"B. c #959595",
"V. c gray59",
"C. c #979797",
"Z. c #989898",
"A. c gray60",
"S. c #9A9A9A",
"D. c #9B9B9B",
"F. c gray61",
"G. c #9D9D9D",
"H. c gray62",
"J. c #9F9F9F",
"K. c #A0A0A0",
"L. c gray63",
"P. c #A2A2A2",
"I. c gray64",
"U. c #A4A4A4",
"Y. c #A5A5A5",
"T. c gray65",
"R. c #A7A7A7",
"E. c gray66",
"W. c #A9A9A9",
"Q. c #AAAAAA",
"!. c gray67",
"~. c #ACACAC",
"^. c gray68",
"/. c #AEAEAE",
"(. c #AFAFAF",
"). c gray69",
"_. c #B1B1B1",
"`. c #B2B2B2",
"'. c gray70",
"]. c #B4B4B4",
"[. c gray71",
"{. c #B6B6B6",
"}. c #B7B7B7",
"|. c gray72",
" X c #B9B9B9",
".X c gray73",
"XX c #BBBBBB",
"oX c #BCBCBC",
"OX c gray74",
"+X c gray",
"@X c gray75",
"#X c #C0C0C0",
"$X c #C1C1C1",
"%X c gray76",
"&X c #C3C3C3",
"*X c gray77",
"=X c #C5C5C5",
"-X c #C6C6C6",
";X c gray78",
":X c #C8C8C8",
">X c gray79",
",X c #CACACA",
"<X c #CBCBCB",
"1X c gray80",
"2X c #CDCDCD",
"3X c #CECECE",
"4X c gray81",
"5X c #D0D0D0",
"6X c gray82",
"7X c #D2D2D2",
"8X c LightGray",
"9X c gray83",
"0X c #D5D5D5",
"qX c gray84",
"wX c #D7D7D7",
"eX c #D8D8D8",
"rX c gray85",
"tX c #DADADA",
"yX c gray86",
"uX c gainsboro",
"iX c #DDDDDD",
"pX c gray87",
"aX c #DFDFDF",
"sX c gray88",
"dX c #E1E1E1",
"fX c #E2E2E2",
"gX c gray89",
"hX c #E4E4E4",
"jX c gray90",
"kX c #E6E6E6",
"lX c #E7E7E7",
"zX c gray91",
"xX c #E9E9E9",
"cX c gray92",
"vX c #ECECEC",
"bX c gray93",
"nX c #EFEFEF",
"mX c #F3F3F3",
"MX c #F9F9F9",
/* pixels */
"P.%X`.J.l.l.'.].1X9X+X&X5X1X4X:XOX!.Y._. X{. X*XtXfX7XlXpXY.e.Y T h P m Q 0./.wX>X=X-X+X~.R.!.W.W.Y.F. X}.>X<XjXhXtX].oX%X:XpXXX",
"3.S.G.Z.h.a.D.N.(.%X|.&X5X;X*X XXX~.R._.{.(./.].,XuXiXhX6Xn.o.E n 4 V c F -.!.6X;X-X&X X~.U.P.I._.^.~.^.`.R. XiXiXiX7XH.A.%XW.8.",
"! w.m.D.V.M.J.B.S.}. X-X5X%X X!.}.~.E.^.(.W.T.W.].-X9X0X3Xn.Q ' d # N D F $._.3X*X;XOX].[.(.E.^.U.L.T.M.I.y.D.>XnXuXwX1.| N.O.U ",
"F &.k.F.I.W._.^.H.@X#X:X2X+X|.Q.].~.Y.U.T.E.Q.^.{.XX-X;XeXE.) &.v & Z ^ W ;.@X5X$X$X'.^. X.X'. XQ.W.I.C.L.t.j.{.yX}.W.[ F _ z G ",
"l ~ w.m.K.~.!.Q.W.:X&X&X-X+X+X[.]./.I.S.F.R.).].#X*X<X,XaXXX2.j.! 0 C ) ( >.>XrX%XoX(.Q.(.`.`.[.).^.V.F.n.s.7.n.C.n.8.' K k p Z ",
"u F 6.v.L.~.G.D.E.-X+XXX#XOX$X}.^.~.P.V.Z.R.`.'.!.OX*X*X6XoXF.[.4.S J _ ` @.@XwX+X}.XX].H.H.!.!.E.L.l.C.e.h.e.s.d.J.@.K n 8 z c ",
"w b >.f.D.Q.B.V.K.$XoXXX$XXX|.T.B.J.J.C.D.Q.`.^.b.P.S.J.!.T.Q./.s. .` O.{ U n.!.Z.D.@XoXf.p.Y.T.).L.G.b.>.r.M.k.b.Y.^ u q - p p ",
"2 y [ 1.j.J.x.N.D.@X+X#X=X.X^.m.r.v.S.Z.K.).'.W.c.n.1.8.g.l.Z.r.t.=.@.:.} f | 2.%.4.`.}.>.-.H.U._.A.I.3.I R t.;.q.r.n 2 9 $ = 3 ",
"3 a ..2.w.3.b.S.G.Y.<X2X.X'.I.J.q.*.a.I.F.#XH.v.C.z.;.@.1.l.A.6.4.D -.Z R w I I _ J B.p.+.K.W.Q.D.S.7.' v T Q ( w.*.b ; - # O 3 ",
"> a X.,.3.&.k.A.{. X#XZ.p.A.V.j.>.T | c.G..XM.s.z.z.=.' [ @.6.-.$.b _ v C 0 C C P D =.).OX}.R.~.K.S.i.:.V Z A J Q Z e , > & # > ",
"= d &.7.8.&.p.l.L.m.g.{ K | { W M v { d.e.p.u.F.V.N.o.Y ^ Q ) ` R u D b x a N Z B P m ~.qX].~.XX_.P.v.y.D Z K W h 2 - 1 ; $ = , ",
"- f ;.a.x.q.i.7.q.[ } _ U F k h v j D X.:.0.u.n.E.B.E C { ( J A b 0 M Z s a d k l W N A.{./.{.XX XQ.b.5.n L { o.k - = 4 # o < 3 ",
"3 a o.t.A.c.l.<.( n H W I V r q c S J P { ;.f.n.L.l.H n } _ D v p 7 b V 4 1 & ; a n } Q.|.+X~.A.W.Q.g.] y P ] ^ v 4 3 9 $ o < 2 ",
"w p / ;.x.c.v.4.S j n s e g w 2 p ! ' P ! _ s.S.c.f.^ G ) ) ^ T t 1 j h - - % & i < O.Q.%X).f.7.k.Y.p.E u J F v u 9 0 9 ; % ; : ",
"p z [ $.w.q.a.>.Q N B i 3 e w y M P V Z ;.&.p.t.g.d.o.W ^ ..1.$.M 6 a 6 & : 4 2 w w &.b.oXd.@.<.%.V.0.E c S f l < e 0 , : - = , ",
"d Z -.,.5.*.2.o.` j z z 8 & & a t S J W 1.( 6.f.k.i. .E ! -.s.:.[ s s $ X @ 1 = , R j.z.#X:.{ 5.I p.-.Y N M e C ; p 8 O & ; - 6 ",
"e E 5.3.%.2.:.W 1.Z M 9 7 : q j u d f ^ ` I <.j.;.4.) S G ) } M S d x 9 & $   7 e  .tX-XF.` -.*...q.~ c V k a d & * ; , < < 3 7 ",
"f E 1.6.>.<.X.B <.N k > , > d D j f d Y W R 5.i.e.<.) E V z V s h a A x 9 , # t T p.0XqXC.<.<.<.{ 7.] P E n r 5 & # @ * > , , 1 ",
"n I +.<.2.6.$.J @.z s % * : f F x a a Z D / y.y.T.p.1.t.X.A Y I D D ~ K k y t S w.E.<XsXv.d.5.4.=.6.R c x r w t - + o % > , < 2 ",
"T T ` X.$.1.:.) ~ p a = - * 0 g j y s l x ] h.g.Y.0.>.x.q.{ @.| +.] _ ! I T } 7.Z..X*XtXz.s.7.:.{ 4.O.^ H i q 8 > % $ : < 1 7 u ",
"-.+.+.O.o.=.$.! J e s ; ; & 5 t h s l p d ] a.c.N.5.@.u.d.6.4.{ &.} ) @.5.u.B.P.E.@X:X3XC.0.w.o.Q 1.-.] C w 0 1 < ; > 4 2 1 i Z ",
"a.y.y.e.e.f.0.' F q p & & = e g c b b e h ' 4.v.G.n.3.w.x.g.0.| X.O.@.f.G.D.I.F._.$X3X2X/.y.v.#.| 8.:.) S M A i 4 < 2 8 5 6 v ) ",
"N.M.N.M.J.`.J.>.C 0 i $ % - y j m C c 6 M | $.b.G.T.q.:.y.5.$.| %.6.q.D.I.n.A.n.).#X:X0X=XG.).r.%.d.j.j.c.V.u.C r 5 5 w e a L -.",
"P.J.A.B.W.=X/.4.b 7 p & & = 9 u M Z h < G #.X.M.H.].p.=.9.#.{ -.,.p.a.D.V.p.S.J.W.oX.XuX6XXX<XC.9.g.e.i.L.-X[.o.j q 6 y f b ) 9.",
"P.C.G.F.I.6Xx.3.F < 5 % * = l 8 S z 9 e V ^ <.M.U.^.M.7.9.1. ...&.7.i.U.K...b.U.W.#X;XoX@X1X;X].E.Z.z.b.K.5XB.4.L.5.} _ ` 0.H.L.",
"C.H.S.A.Y.5XB.O.H p p % .   q 6 5 q q y z A [ u.B.P.n.r.i.q.*.%.-.w.C.Y.D.' n.S.R.|.{.).@X<X%X}.V.m.b.M.S.&XM.4.%XG.N.G.B.Z.E.!.",
"j.P.b.C.~.3X!.@.h y t - $ . 7 s 3 u h M Y ( O.9.a.M.b.f.j.d.7.2.+.q.Y.Y.N.+.Y.I.E./.J.K.@X=X'.(.g.l.M.M.M.'.M.1.kX&X.X#X/.S.D.I.",
"s.L.f.S.}.>X1Xc.I n p y u ; ; u a p y m o.5.,.*.8.j.b.j.f.d.y.0.>.k.W.R.h.t.'.^.R.P.z.B.oXXXJ.G.u.p.z.l.v./.H.1.yX,X$XXXT.l.q.5.",
"n.P.a.J.OX+XhX&X5.Y a n S j y V D N f V :.j.y.<.6.g.N.z.e.r.a.i.C._.^.Y.e.N.!.Y.L.m.u.n.{.].C.z.q.7.r.y.c.`.|.r.^.@X=XXX/.B.<.^ ",
"I.T.j.F. X].zXpXU.2.G K C Z B T ) ] W Q 2.c.c.h.u.M.R.D.t.y.m.B.].;X^.M.p.P.T.Y.A.s.t.M.~.`.K.g.>.;.8.q.z.`.6Xm.v.].+X/.~.I.g.<.",
"W.Y.n.b.).`.sXwX8X|.x.:.v G I L %.3.=.o.8.b.M.c.V.~.>XoXM.N.`..X X%X/.6.V.P.Q.~.G.u.d.A.J.).~.d.o.-.p.y.d.U.yXK.r.T.).P.I.K.A.J.",
"U.L.B.s.R.{.tX;X#X2X+Xm.K *.u.4.c.V.h.t.C.).Q.F.Q.&XkXrX!.~.4XtXXX+X{.X.R.C.E.Q.T.s.v.G.B.^.'.a.[ 1.m.h.t.N.eXU.$.B.^./.^.F.C.^.",
"U.E.0.d.m. X;X4X:X@X2X3X7.N.!.s.Z.m.J._.).~.Y.Z.XX=X9X9X3XeXfXyX:X#Xz.v.E.~. X/.^.G.N.V.Y.=X8X=Xp.6.v.m.i.p.$X_.J =.'.XX!.R.D.^.",
"!.~.z.u.S.`.4X>X&X-XrXuXl.z.#XE.T.~.{.{._.{.].U.|.>X6X2X7XpXdXuX,X2XA.m.^./.].`..XA.x.I.$XtXyX,Xd.8.j.m.h.0.(.`.#.+.E. X'.U.I.W.",
"!.).K.y.F.~.rX,X&X*X7XuXU.y.5X*X!..X+X'.`.oX|.T.{.6X3X*XrXlXpXuX8XwXZ.h. X%X]._.XXn.i.V.E.(.Q.G.0.,.7.s.n.w.E.+XA...x.].[.R.'./.",
"].=X Xn.x.J.6X-X3X&X%X5X X3.5X3X/.(.Y.L._.XX).I..XeX1X#XaXcXrXrXuXeXz.5.+XrX|.^.%XE.S.V.c.z.k.i.r.w.2.8.F.b._.;X=X-.<.`.].oX;X$X",
">XlX8X).9.m.#X*X8X>X=X3X+X..OX8X XG.q.y.U.(.R.^.*XyX<X%XgXxX0X0XrXeXn.-.).wX{.).rX0X4X$X{.OX}.F.H.L.d.0.Q.~.$X*X0Xg.@. X$XdXeX8X",
"3XvXyX@X2.x.&X9X:X>X4X4X{.T C.1X$XC.o.O.c.G.L.oX4X0X,X1XhXgX8X0X5XtXW.1.S.-X_.'.gXhXgXuXaXcX9XL.).'.B.d.|.$X7X-X4X~.<.(.qXMXsXeX",
"2XyXwX{.5.a.<XiX*X$X,X2X.X` 9.].%X!.8.*.x.G.E.<XqX,X:XeXgXiXqXrX4X8X`.8.N.>X{.~.yXwXeXrXtXpX-XF.@X.XT.P.<X<XiX5X;X<Xu.u.tXnXdXeX",
"wX8XeXE.7.<.&X3X6X+X$X2X2X9.1.J.&X,XI.j.L.(.|.eXtX%X-XaXgXrXrXuX0X>XW.7.F.iX$XK.eX8XeXtX4X>X*X{.tX1X$X=XaX1XpX0X;XiXj.W 6XeXsXwX",
"4XwXqX^.d.j.).=X#X-XoX5X8X2.5.T.=X&X@X).}.U.4XrXrX_.sX5XiXiX5XtXqXiXF.:.+X8X:XI.2XeXeXeX>XsX}.!.eX5X,X4XyXfXpXwXtX9X(.} 2.$XmX<X",
"&XwXtX|.<.X.4.x.].>XXX#XwXj.8.z.wX9X2X$X>X.XaXhX0X/.sXrXuXuX7XwXpXiXj.1.0XdX1XP.1XeX0XeX9XpX(.~.tX3X;X2XwXiXpXiXfXwXI.] <.'.bX<X",
"2XdXiX1X2.| } 9.L.7X,X|.7Xv.=.;.6XyXiXyXsX3XaXqX%XH.qXsXtXyXeXwXjXhX9.1.iXpX=XF.[.3X9XwXeX,XS._.eX2X:X5XqX9X9XeXyXuXL.[ O.x.sXtX",
"0XiX,X:X>.X.) 2.s.:X0XoX<Xs.' #.<XaXsXsXuX5XyX4XG.i..XtX7XwXrXwXiXfX$.o.1XeX*XG.T.:XrXeXeX(.i./.wX5X5XeXtX7X2X4X<XaXE.{ L _ +XaX",
",XeX>X=X$.` Q 1.9.R.;X$X3Xu.! *.5XxXdXiX5X7XfXuXp.3.L.6X3X8X9XqXyX5XR K _.iX;XS.U.{.*X-XwXW.w.L.uXrXrXiXaXyXqX9X5XfX/.] V M x.oX",
"m.].#X[.] K R 2.h.k./.OX,X0.H ` (.eXuXlXtXaXuX>Xp.y.Z.5XwXeX5XuXxX{.V c v.<XY.w.f.r.g.n.OXU.a.A.qXyXyXrXpXhXpX6XrXeX^.' R P %.h.",
"Q 2.k.0.V h S _ a.>.G.`.).#.n I 3.I.).3X,X9XOXZ.t.h.k.*XrXqX&XtX0Xk.m c ..c.$.o.$.^ X.X.a.0.8.c.[.,X9X7XeXpX;XU.Q.T.F.E _ { R %.",
"R { *.( n z G G X.W m.T.N.^ M / ! 7.4.n.V._.L.r.:.t.3.^.2X;X(.2XI.' v m M _ N @.@.) *.Q ~ G [ r.b.].1X3X8X6XY.:...*.p.B T ' M ] ",
"I I Y M / L K C Q 0.k.l.#.T %.o.O.[ %.3.$.| +.#.&.7.<.m.;XF.&.p.Y S S a Z D ] ' :.{ [ O.E d l ^ J { D.D.,X'.$...F P p A ' F L R ",
"%.] R I | ' ..;.r.d.9.6.O.[ <.X.#.+.<.;.~ T T n [ -.:.f.I.8.J ! J Y ' ` X.] ] ~ ;.-.:.#.Y x V ( ~ _ t.$.e.4.R ` v C z P #.| ` { ",
"s.9.*.9.t.7.-.r.m.f.,.%.} } =.[ &.1.c.z.>.<.-.A P / { &.3...T ! R  .>.y.6.;.` ~ Q / ) / / ] @.-.+.| 9.Q T L D ! N F ! [ 3.u.8.a.",
"h.k.9.x.h.j.,.9.k.g.d.t.-.#.:.%.O.#.d.l.4.t.a.} _ _ _ ! Y ) %.<.>.9.8.l.4.2.o.=.@.^ G U ..;.$.] X...i. .E G G H v S X.` | 6.6.n.",
"5.u.;.1.<.f.7.9.,.<.u.r.=.+.+.@.<.$.8.t.;.<.8.@.=.$.+.^ D ! =.:.j.f.9.g.1.6.3.j.q.| I ! o.O.` Q ~ ` 8.| / P I Z C R 9.*.` %.,.x.",
"} <.$.o.=.t.1.$.$.' %.%. .O.| o.:.3.a.c.f.9.=.] Q _ o.| ) ..;.*.s.9.1.r.4.,.3.j.7.*. .{ ^ P I ^ (  .&.R / W ] ~ R } d.d.;.&.<.e.",
"T ` } ` ,.,.%.} 6...,.&...-.=.9.] 6.e.9.p.e.#.] F R ' o.*.1.6.6.9.&.:.7.q.o.O.>.p.g.t.@.U A G I _ =.o.D ) ! ..o.E Q O.w.>...&.{ ",
"H B Z m  .{ -.2.*.] 2.@.Q ' ..e.>.l.<.Y ..7.6.w.@.$.X...=.,.1.9.w.$.3.8.p.' ) ' 6.f.i.#.] %.,.%.L $.[ N / U ^ ` } R P 2.4.#.2.( ",
"S U C S ! / ) ^ >.` =.:.#.0.u.u.<.o.1.-.I X.s.4.:.4.;.%.1.6.9.i.8.,.a.4.1.q.O.*.#.w.5...X.*.#...n m ) / I #.o.E R B k ` } ~ o.L ",
"F P N N R / ( ^ / J ] | X.w.e.1.' <.O.( #.O.} 2.8.7.&.O.=.&.} [ <.;.o.O.#.=.0.y.( X._ L E ` / ! K F { ` T X...( ] Q U { O...X.W ",
"! W A m I ! U I U D / _ ..6.%./ P U ~ } @.%.:.5.u.r.=.] ) T H I { [ M L T L <.4.=.,.#.} O. .! T S N ' ` ^ ` ` ] S D P Y [ O.~ ( ",
"| ` Q K ) ..E E H m Y ) X.$.Q L Q J Q } _ ] =.4.0.9.O.L b f n ~ } ( C L P Z ) | ` @.;.6.p.w.,.,.( U +.) Y l y a v v P P }  .S [ ",
"X.} O.] =.6.{ | ~ H ` >.y.q.%.6.$.r. .P ] H B 2.l.u.%.! I G R #.=._ { / ~ ) W o.I [ @.*.:.+.[ o./ K { J K u 0 f ` E  .O.:. .V ..",
"$.O.4.$.<.9./ ' &.{ $.6.k.g.7.v.7.t.1.| ) W { e.v.q...} &.o./ _ ] J / D G [ W @.@.1.=.` E J D U Y A ~ n ~ F E @.+.' X.&.-.{ T o.",
":.=.p.<.5.w.~ { %.O.[ ! &.5.+.,.7.#.e.t.` &.z.e.$.` P E [ R b c D D S c B ^ } X.#.4.=.( ) X.$.:.5.*.5.U *./ [ =.}  .[ o.o.%.8.,.",
":.;.l.q.p.v.*.9.1.3.X.F ..y.;.*.,.t.p.7.>.>.>.-./ ( ^ _ ) D c A H { P I Q { 0.%.$.8.>.' ..2.5.4.f.u.v.X.a.*.$.-.:.q.:.;.%.u.E.s."
};
