/* XPM */
static char *_619892541007[] = {
/* columns rows colors chars-per-pixel */
"64 64 256 2 ",
"   c #000000",
".  c #0B0A0A",
"X  c #181516",
"o  c #120F11",
"O  c #231E1E",
"+  c #23211E",
"@  c #241E20",
"#  c #2B1D27",
"$  c #2C1E30",
"%  c #252122",
"&  c #2B2425",
"*  c #2C272A",
"=  c #332929",
"-  c #372A35",
";  c #3A3538",
":  c #303332",
">  c #443838",
",  c #553938",
"<  c #472E2D",
"1  c #6F332D",
"2  c #532023",
"3  c #3B4A39",
"4  c #334E33",
"5  c #2B6D2F",
"6  c #514838",
"7  c #695234",
"8  c #7E632D",
"9  c #393145",
"0  c #3D215D",
"q  c #473A47",
"w  c #5A3855",
"e  c #4C304D",
"r  c #672E57",
"t  c #4F326B",
"y  c #773765",
"u  c #703570",
"i  c #611D55",
"p  c #354B4A",
"a  c #386D6C",
"s  c #3C6951",
"d  c #494849",
"f  c #584859",
"g  c #51534F",
"h  c #6C5252",
"j  c #4E714E",
"k  c #77674A",
"l  c #736C57",
"z  c #5A496C",
"x  c #674967",
"c  c #695966",
"v  c #725270",
"b  c #4F7171",
"n  c #726A6D",
"m  c #B92414",
"M  c #B42920",
"N  c #D02916",
"B  c #C93827",
"V  c #CF322E",
"C  c #E83B27",
"Z  c #E02610",
"A  c #94493B",
"S  c #B6463A",
"D  c #9D7231",
"F  c #C84636",
"G  c #D64838",
"H  c #D55E32",
"J  c #8F2F74",
"K  c #AA266E",
"L  c #CE2A46",
"P  c #E53254",
"I  c #8C534E",
"U  c #AB554C",
"Y  c #8B7155",
"T  c #885079",
"R  c #8B716C",
"E  c #B7756E",
"W  c #B1625C",
"Q  c #D0564A",
"!  c #E65846",
"~  c #CD6954",
"^  c #E36757",
"/  c #CF756C",
"(  c #DC696D",
")  c #2DB538",
"_  c #20A32C",
"`  c #0DCA1A",
"'  c #1ACE27",
"]  c #2AD037",
"[  c #29E638",
"{  c #16E826",
"}  c #3BB845",
"|  c #518C55",
" . c #4CB554",
".. c #6F9170",
"X. c #5EB664",
"o. c #6AAF70",
"O. c #5E9361",
"+. c #39C746",
"@. c #39D547",
"#. c #3AED46",
"$. c #4AC755",
"%. c #49D355",
"&. c #49C752",
"*. c #49E556",
"=. c #5ACE64",
"-. c #6ECD75",
";. c #67E670",
":. c #58E663",
">. c #B99030",
",. c #9AA026",
"<. c #D29815",
"1. c #C99627",
"2. c #C89A36",
"3. c #D29C25",
"4. c #D9A52F",
"5. c #E5AD2D",
"6. c #E4A61D",
"7. c #9B8A49",
"8. c #AD8C4E",
"9. c #94886A",
"0. c #A99373",
"q. c #B6A774",
"w. c #9CA858",
"e. c #C89849",
"r. c #CFA850",
"t. c #E7B74E",
"y. c #D48777",
"u. c #E98478",
"i. c #CDB170",
"p. c #E3BE68",
"a. c #F3C352",
"s. c #EDC872",
"d. c #57348C",
"f. c #7D2A87",
"g. c #6532B7",
"h. c #5920B6",
"j. c #6D4D90",
"k. c #7C6B8A",
"l. c #7650B2",
"z. c #5D4082",
"x. c #580FD4",
"c. c #611BD4",
"v. c #7335D7",
"b. c #692DCB",
"n. c #681CE5",
"m. c #7832EE",
"M. c #5A06E9",
"N. c #7948C7",
"B. c #7D4BCF",
"V. c #7F44E5",
"C. c #B32B8F",
"Z. c #A315B9",
"A. c #9833A7",
"S. c #A92BBB",
"D. c #9F1E94",
"F. c #C61A98",
"G. c #CE0E99",
"H. c #C52D9D",
"J. c #D712A3",
"K. c #E812AF",
"L. c #D12EA9",
"P. c #E528B3",
"I. c #8C528A",
"U. c #B34B97",
"Y. c #8E6E8F",
"T. c #A56795",
"R. c #9A4FA9",
"E. c #B250B0",
"W. c #966CB2",
"Q. c #B26DAC",
"!. c #C846A6",
"~. c #CD52AF",
"^. c #E54ABC",
"/. c #CC6DB4",
"(. c #D56C95",
"). c #B014C8",
"_. c #B62ACA",
"`. c #B638C8",
"'. c #BA2FD0",
"]. c #C535DA",
"[. c #CF33E9",
"{. c #D518E0",
"}. c #8455D0",
"|. c #B947C9",
" X c #BC55C9",
".X c #956ED3",
"XX c #B770C9",
"oX c #894CEC",
"OX c #9D6EE8",
"+X c #A477F0",
"@X c #C64DD6",
"#X c #CB71D1",
"$X c #EA6CCA",
"%X c #D54FE9",
"&X c #D870E8",
"*X c #EB50D4",
"=X c #32B3AE",
"-X c #2C9D98",
";X c #519391",
":X c #6F8E8B",
">X c #4AB5B1",
",X c #6CB3B1",
"<X c #6BA693",
"1X c #14C4BC",
"2X c #30C4BE",
"3X c #7BCB83",
"4X c #7CE284",
"5X c #4AC2BC",
"6X c #6AC1BE",
"7X c #1AD2C9",
"8X c #2FD3CC",
"9X c #2EE4DC",
"0X c #32F7ED",
"qX c #14E8DF",
"wX c #48C9C4",
"eX c #57C9C5",
"rX c #52D8D3",
"tX c #77DAD8",
"yX c #6DD0CC",
"uX c #54F0E9",
"iX c #73F0EA",
"pX c #65E3DD",
"aX c #968890",
"sX c #B39088",
"dX c #89B28C",
"fX c #B6AF8B",
"gX c #B494B5",
"hX c #8CB6B5",
"jX c #B5AAB3",
"kX c #8E91AB",
"lX c #D3948F",
"zX c #CFB78C",
"xX c #C795B8",
"cX c #EEB0AA",
"vX c #D6B1A6",
"bX c #8DD392",
"nX c #8FEB96",
"mX c #AAEDAF",
"MX c #A8CAA9",
"NX c #E9CC8E",
"BX c #D7CAAA",
"VX c #EAD5A3",
"CX c #AF8DCE",
"ZX c #B18FEB",
"AX c #B29CD4",
"SX c #D48DCD",
"DX c #EE8ED5",
"FX c #D1ADD4",
"GX c #D98DE5",
"HX c #CEB5EB",
"JX c #F1A6EB",
"KX c #8FD1D0",
"LX c #8CEAE7",
"PX c #ADF9F6",
"IX c #9BDEDC",
"UX c #DDD0E2",
/* pixels */
"                                                                                                                                ",
"                                                                                                                                ",
"                                                                                                                                ",
"                                                                                      aXc         .   jXg       aXn             ",
"                                                                                      n d %           aX;       & g             ",
"                                                                                                      q *                       ",
"            n                                                           c UX@ jXaX.                   UXf                 * g HX",
"            :X              X     . 9.9.      o o       o ; vXc         .     @ %             c ;                         ; % % ",
"            9               X     d g +           9.= d n - c n c .           c g o           c > #                     X q c k.",
"                          g : o o j ;             vX= n aXO O l R     X %     Y.n & q #       q : O                   . % f W.jX",
"                        . :X3     o # .                 . + + O %     aXaX    % + = SX=       FXc # O X X @ .   X     X % % + + ",
"              . hX& O > MX        . aXBXBX% 0.n .         UXsXh %     + %     % c xX% & . . X % O d UXHXf # @ d ; = @ @ jXn p HX",
"            g <Xq dXj * 6         . ; 6 6 @ > : o         h d c l     h n     v n h sX$ @ - Y.& c aXAXf : @ @ - @ O + + kXn * z ",
"            X .   . *     l % .               . X h o       . h R     n R     R v - UXf ; - gX@ n SXY.+ q q @ @ O : d + Y.c * g ",
"                          MXg %                 . VXo         O #     # @         - FXxXn @ @ O v Y.O # Y.aX@ $ @ z AX+ % % 9 HX",
"                          . ..dX        .         O .         aXjXX X R R         % = O # @ @ @ & O O + * @ % UXd O 9 HX: z W.% ",
"            hXhXKX          : g o.dX3 > Y .     X fXO         ; > .   R R   . T c O T x + + O O # O @ @ O O # d = @ % q k.z 9 + ",
"            kXb UX          o : ....: 6 l & g g h BXh g d @ @ O #     R R     n h O x w > f x x ; - w O q f f O # - w @ k.f @ + ",
"            b ; IX& X X *       = = % % + ; 0.zXzXq.fXfXE ; @ & *     I I .   O # + O @ x xXFXgXf e XXO Y.CXCX- O f kX@ @ @ @ @ ",
"            + ; PX* n mXmX    . > bX3 % = VX> + @ @ # O q cX+ R 0.. . O x FXO O O O O O # O = > * @ @ @ @ @ & HXq O # @ @ @ @ @ ",
"  <X:X    <Xk.+ - @ % 3 bX    * <X4 9.Y + ; 0.n : zX& + # > % h T.sX    . # # O f gXxXT.x > CXO % @ @ @ @ @ % 9 % @ % CX* % @ @ ",
"  d p     g % o @ O.d 3 bX    X O.j 9.9.+ % l g = NX& + % % % , I Y         o f n R Y.v T n Y.c x f @ @ @ - x % @ @ * k.* % $ z ",
"p 9 :           p ..j j MX* X @ O mXfX9.@ @ @ @ ; VX* # > - < * % <       X < Q.Y.- + > T T.  FXgXY.@ @ @ w SXd : 9 9 : % O 9 CX",
"PXyX;X      .   KX. j bXmXmXj % + UXBX0.@ @ @ @ < VX= Y cXcXlXh , cX    f DXJXxXDXSX> xX/.U.  UXc   @ @ @ w GXUXFXHXZX+X$ @ @ + ",
"    g KXLX- b ,X  . n bX3X% % % + bXq.9.= zX< + + & + + * & & @ > lX. o # * FX< x xXFX= h I.        - #XQ.Y.= AX9 f CXB.* % 9 AX",
",X; g KXs k.,XhX    : d 3 ..3 % + bXO.k l k k l k R & , h I @ @ d lXk h v T T     d SXT v v x       # v v v j.AX9 : z .X* 9 j.AX",
"<X9 g KXs ,XhX,X  . 6 4 @ O.j 3 + dXg 7 q.6 9.0.0.NX6 l lXE @ @ > sXE lXvX/.>   . = Q.xXR w GXq -   q     e W.& X * 9 .X: z CXZX",
"%   g IXLX6X,X,X  O.3X-.@ @ j o.+ + 9.0.= VX< O : p.vXvXsX@ @ + + + @ R lXSX*X< r !.+ /./.DXGX&Xx q JX            9 CX@ @ z ZXZX",
"iXp     LX  b 6X  3X3Xo.+ + O 6 bX& O 7 i.@ 0.i.q.+ + O O + @ I / ~ UXE U & ^./.I.= ^././.~.GX@ I.W..   I.I.  9 j.k.$ ZX.Xz o ZX",
"LXp     tX,X,XyX,X-.| g hX@ j | g O...l 7 Y q.9.7 + + & = aX% < h / lXsXT O r w h Y.~./.T y @XI.R.T.% I.x -   e f 9 @ o . X . OX",
"tXp .   tX,X<X;XtXj j j ..O j O.4 4Xw.R 6 7.9.k 6 g & = h vX% @ < W y.E R d f , c T.U./.v - A.#XXXQ.f W.x q           %       j.",
"tXp     tX>Xa . tX* j X.O O | -.;.bXp 7 i.+ O k zXNX= 1 Q u.% @ % O u., w /.DXxXY.% % U.y @ @ XX XSXFXO Y.aX        . ZX        ",
"9 ;XyXuXLXtX;X: uX3X4Xw.. ;.-.nXnXO 0.NXBXp.i.p.s.NXp.zXcXcXQ I h u.^ , r $X+ T.$X$XDX~.J   @ GXx e &X[.i X   +XCXk.$ ZXOXOXZXZX",
"yXs : p iXyX,X,XiX3X3X-. .-.-.o.  -.q.0.6 NXi.9.6 r., I / ~ e R E / y., & e O T.Y.w /.~.y     XXT.R.#X'.R.I.j.e q t j..X0 d z .X",
"pX:XO.k.tX6X,X>Xb j O.-.&. .X.o.j j j l k k k k Y 8 O 7 ~ I R R E I lX6 - w O v x   $X/.T e O SXXXCXGXA.I.R.XXt t z j.OX9 p z OX",
"pXhXhX6XtX>X=X=X  * j -. . .X.=.=.* % 6 r.= + g q.= & h E - fXE U   ( , w ~.= #   < SX~.~.T.= Q.CXSXSX% $ f XXv.l.z.9 OXq z.}.OX",
"PXtXiXLXiX9 a rXiXbX;.X.+ ;.-.X.X ;.4 7 p.NX6 7 p.s.r.y.u.u.. I u.! ( , r $X$X$X/.$XDX= @ 9 %X+ I.GX&X[.@XA.@ @ + t B.; }.}.oX+X",
"  ;X;X  PX9 a eXpX: 5 =.MX=.-.O.+ ;.w.i.e.p.q.9.< s.i.e.~ (   I / y.y.W W H.< T.xXgX< D.U.E.@X+ u  X'.- Y.#XA.}.g.d.9 % l.l.t   ",
"<Xb     iX: : p g | j s bX5 s 3 O ;.j h 7 p.k k Y k q.Y , 1 h U W / / / U J   U./.Q.O y y T D.X u |.f.% I.XX`.z.l.j.f t l.l.X   ",
"IXg   p rX: : p p O.j s -.: 4 : : -.4 & 6 p.< 6 Y   q.l + 2 U U U ~ ( E I = ; D.L.!.- - - - # ; I.R.- - Y.#XE.@ k..X.X}.B.d.X   ",
"iXIXtX9XuX: a uX0X* j 4X;.;.=.:.:.mXg 7 a.VX6     @ r.I < C         ^ 1 i P.JX/.^.$XJXFXSX/.X #XSX&X%XGX#XQ.+ + l.oXB.% N..X.X  ",
"  ;XyXwX    a eXtX-.=. .% -.s @ % mXw.i.BXNX;   X r.= h y.^ X < 2 1 y., w (.= & r U.= = y !. XXXE.@X#X@Xw & % AXl.N.B.B.kXj.- }.",
"  9 ;XeX;Xa >X>Xa X.=.$.} -.O.j + g 7.i.BXp.D D >.p.& h / ^ A 1 1 1 / I r v x y r y J y U.U.u x u j.`.u 9 - u OXN.j.d..Xz z d.v.",
"  p a wXrXyX,X>Xp  .}  .| | X. .4 + 7.0.9.i.>.2.e.t.& 7 ~ Q A <   < Q Q U , ^.~.I., U.U.U.C.e . $ i _.e 0 r R.oX}.j.9 OX- t B.m.",
"  =XrXtXuXyXyXrX9X@.+.) @ @ _ ] [ + aXsX* s.r.r.r.a.* 7 Q C     < ! ! Q ( ^.JX~.^.SXO O i P.%X. u @X%X%X@XA.& +X.X}.oXoX$ z OXHX",
"  ;XrXrXLXwXwXrXuX%.$.%.*.$.-.;.-.+ 0.i.r.a.;   : a.r.~ Q ! S 2 G V B ~ (.!.^.L.~./.^.!.~.~.%XW.|._.@X@XE.@X|.@ o 0 b.V.b.b.B.V.",
"=X=X=Xp uXwXwX8X   .+.&.%.%.$.-.=.% 9.7.6 4.8.7.>.4.e.~ Q G   A Q F 2 A W L.!.E.!.!.L.Q.~.H.@XXX X`.'.@XE.R.t d.9 j.N.V.b.d.t v.",
"-X=X;Xb rX>X>X>Xa )  .} | &. .&.+.5 7.>.7 8   7.2.r.8 D Q N 2 A Q ~ 1 U ( L.^.~.U.U.P./.U.C.].|. X XA.#X@XR.e oXB.}.}.V.N.z.t V.",
"O -X6XKXiX2XwXwX9X) +. .  =.} +.' #.w.1.>.    7 2.p.& 7 ~ B N B Q lX! / (.J.^.~.T $ ^.F.J e %X@X XR.% @X`.|.'.+XN.B.}.V.b.B.CXm.",
"PXwX9X7XuXrXrXpXiX@.%.%.:.;.%.} + *.4 7 6.a.r.5.t.a.= 1 G ! N 1 2 ! ! Q S # ^.L.J @ # /.v 0 {.].`.[.{.&Xw i %Xm.N.oXZXoXCX.XV.+X",
"tX8X8X8X9XeXeXwXiX+.$.$.%.-.$.+.} -.,.>.2.t.r.r.r.> D e.y.^ B S U F G F S D.SX!.C.K C.C.C.D.'.|._.D.0 ).A.A.`.m.N.l.N.  h.g.g.0 ",
"rX=X2X>Xa =X5XeXtX$.} ] ] bX .&.=.3X,.1.2.4.k Y q.8 >.~ / ( S A U V G F Q L.SX~.~.!.K J C.H.[.|.`.S.f [.`.|.`.d.d.l.b.0 h.b.N.0 ",
"9X=X5X>X  =X>XeXKX .) ' ] bXX.&.3X=.,.4.>.>.. k q.2.2.2.Q ~ F 1 2 Z G F L L.P.SX#XH.# # y ~.[._.|.XXGXFX X X@X    0 v.v.N.N.v.m.",
"uX9X9X9XiXpXrXeX  ] ] ] { nX:.*.;.#.w.5.<.    7 3.  4.H S   G G C Z Z N P J.$XP.K.K.P.J.J.K.[.[.#X&X[.JXf t [.m.}.OXCX  l.ZXZXm.",
"9X2X8X2X  =X1X7X1X] ] ] ` =. .] =.[ ,.2.zX3.8.2.2.zX2.D V B N F F B Z m L F.$ K F.G.P.2 y F.{.Z.).|.|.SXA.R.XXoXb.b.b.g.9 t g.x.",
"rX8X8X5X-X,X5X8XqX-.=.) 5 ] &.&.] { ,.>.r.6.r.e.1.5.>.H F ! N M F G N m L L.i C.F.G.K.y J S.f.).).`.|.XX|.`.XXv.g.b.c.M.0 d.c.n.",
"rX>XwX5X8X,X5X2X8Xo.X. .  ) } } ` ' ,.<.>.<.>.>.<.6.<.D F Q B B F ! B M V J.P.E.H.L.P.F.~.Q.. Z.Z._._.%X`._.'.n.b.b.b.M.b.b.b.n.",
"uXtXtXpX0X9X8X9X0X@.] #.nX  _ [ [ [ ,.5.5.5.3.4.4.a.r.e.^ C ^ / u.C   M P P.DXL.P.K.P.P.P.^.[.  f.S.  %X@X&XGXoXoX}.OXOXc.n.n.M.",
"LX8X7X1XqXyXeX7XqX3X=.%.:.' ) ' ` *.,.1.3.5.1.1.3.<.q.~ V C lXsXy.Q B m M F.P.F.F.F.P.C.C.L.@XZ.Z._.|.|.S.'.|.x.l.N.N.x.x.g.N.x.",
"LX2X7X7X9X2X2X1XqX+.} +.] &.) ' ` @.,.2.i.5.1.1.<.<.r.~ N C / / E ~ F M L F.G.F.F.F.J.C.H.F.].Z.Z.).`.'.Z._.`.M.h.N.}.B.h.b.N.c.",
"8X=X1X2X8X=X1X1X8X) ) ] @.%.) ' ' ' ,.2.i.6.>.>.1.3.2.U F C ~ S G ( Q B L G.J.G.F.F.J.L.H.L.{.).Z.).{.).).).].n.x.N.CXZXh.b.B.n.",
"qX7XqX7XqX7X7X9XuX%.] ] nXbX%.] { { ,.<.6.6.<.3.6.t.6.e.( G N G ! C Z N L G.K.G.J.K.K.K.~.#X{.&X|.).{.{.).].[.n.c.x.n.ZXb.b.x.M.",
"IXKXeX1XqX7X7X7XqX' ` ' { ' &.=.*.{ ,.<.<.6.r.2.3.NXr.H G u.m m m N Z m L J.K.H.H.J.G.L.L.L.).).).'.+X).Z.).).x.b.N.N.n.W..X}.n.",
"IXwXwXeX9X1X1X1XqX} ' ' %.' ] ] ] { ,.<.<.<.2.2.4.4.2.H N Z m m m N N m M H.J.F.F.H.G.C.C.D.).).Z._.).Z.Z.).S.x.h.g.N.b.g.g.g.v."
};
