/* XPM */
static char *_619904615313[] = {
/* columns rows colors chars-per-pixel */
"64 64 19 1 ",
"  c black",
". c #010000",
"X c #000100",
"o c #010101",
"O c #000201",
"+ c #000002",
"@ c #000086",
"# c #000087",
"$ c #010088",
"% c #000188",
"& c #020088",
"* c #020189",
"= c #01008A",
"- c #0001FC",
"; c #0000FD",
": c #0000FE",
"> c #0100FE",
", c #0001FE",
"< c #0101FF",
/* pixels */
"                                                                ",
"                                                                ",
"                                                                ",
"                                                                ",
"                                                                ",
"                                                                ",
"                                                                ",
"                                                                ",
"                                                                ",
"                                                                ",
"                                                                ",
"                                                                ",
"                                                                ",
"                                                                ",
"                                                                ",
"                                                                ",
"                                                                ",
"                                                                ",
"                                                                ",
"                                                                ",
"                                                                ",
"                                                                ",
"                                                                ",
"                                                                ",
"                                                                ",
"                                                                ",
"                                                                ",
"                                                                ",
"                                                                ",
"                                                                ",
"                                                                ",
"                                                                ",
"                                                                ",
"                                                                ",
"                             <<<<<<                             ",
"                           <<<##$$<<<                           ",
"                          <<#<<<<<<-<<                          ",
"                         <<#-<<---<<#<<                         ",
"                         <#<-<<<<<-<<#<                         ",
"                        <<-<<<<<<-<<<<#<                        ",
"                        <#<-<-<  <<<<<--                        ",
"                        <#-<<<    -<-<<<                        ",
"                        -#<<--    <<<-<-                        ",
"                        <-<-<<<  <-<-<<<                        ",
"                         <<<-<<<<<<<-<<                         ",
"                         <<<<<--<<<<-<<                         ",
"                          -<<-<<<<##<<                          ",
"                           <-<-<##<-<                           ",
"                             <<<<<<                             ",
"                          +  <<<                                ",
"                             <#<<                               ",
"                             <#<#<                              ",
"                             <#<<#<                             ",
"                             <#<<<                              ",
"                             <$<<                               ",
"                             <$<#<                              ",
"                             <#<<#<                             ",
"                             <#-<<                              ",
"                             <#<<                               ",
"                             <#<#<                              ",
"                             <$<<$<                             ",
"                             <$<<<                              ",
"                             <<<                                ",
"                                                                "
};
