/* XPM */
static char *_619965358785[] = {
/* columns rows colors chars-per-pixel */
"64 64 20 1 ",
"  c black",
". c #010000",
"X c #000100",
"o c #010101",
"O c #000002",
"+ c #007100",
"@ c #007200",
"# c #017200",
"$ c #007300",
"% c #007201",
"& c #017301",
"* c #23FF00",
"= c #25FE00",
"- c #24FF00",
"; c #25FF00",
": c #25FF01",
"> c #26FF00",
", c #27FF00",
"< c #27FF01",
"1 c #26FF02",
/* pixels */
"                                                                ",
"                                                                ",
"                                                                ",
"                                                                ",
"                                                                ",
"                                                                ",
"                                                                ",
"                                                                ",
"                                                                ",
"                                                                ",
"                                                                ",
"                                                                ",
"                                                                ",
"                                                                ",
"                                                                ",
"                                                                ",
"                                                                ",
"                                                                ",
"                                                                ",
"                                                                ",
"                                                                ",
"                                                                ",
"                                                                ",
"                                                                ",
"                                                                ",
"                                                                ",
"                                                                ",
"                                                                ",
"                                                                ",
"                                                                ",
"                                                                ",
"                                                                ",
"                                                                ",
"                        OO                                      ",
"                             >>>><>                             ",
"                         OO>>>++++*>>                           ",
"                          <>+>>>>>>>>>                          ",
"                         <>+>>>>>>>>+1>                         ",
"                         <+>*>>>>>>>1%>O                        ",
"                        >>>>>>>>>><>>>%>                        ",
"                        >+>>>>1  >*>>>>>                        ",
"                        >+>>>>    >>>>*>                        ",
"                        >+>>>1    >>>1>>                        ",
"                        >>>>1>>  >>>>>>>                        ",
"                         >>>>>*>>>>>>>>                         ",
"                         >>>>*>>>>>>>>>O                        ",
"                          >>>>>>>>++>>                          ",
"                           >>>>>++1>>                           ",
"                             >>>11> O  O                        ",
"                             >>>                                ",
"                             >+>>  O                            ",
"                             >+>+>                              ",
"                        O    <+>>+>O                            ",
"                             <+>>>                              ",
"                             >+>> O                             ",
"                             <+>+>                              ",
"                             >+>>+>   O                         ",
"                             >+>>>                              ",
"                             >&1>    O                          ",
"                             >+>+>     O                        ",
"                             >+<>+> O                           ",
"                          O  >+>>>                              ",
"                             ><>                                ",
"                                                                "
};
