/* XPM */
static char *k4sxl_1ho7j[] = {
/* columns rows colors chars-per-pixel */
"32 32 83 1 ",
"  c #2C2218",
". c #2D2319",
"X c #2E241A",
"o c #2F251B",
"O c #30261B",
"+ c #31261C",
"@ c #32271D",
"# c #33281E",
"$ c #34291E",
"% c #352A1F",
"& c #362B20",
"* c #372C21",
"= c #382D21",
"- c #382E22",
"; c #392E23",
": c #3A2F24",
"> c #3B3025",
", c #3C3125",
"< c #3D3226",
"1 c #3E3327",
"2 c #3F3428",
"3 c #403529",
"4 c #41362A",
"5 c #42372A",
"6 c #43382B",
"7 c #44392C",
"8 c #453A2D",
"9 c #463A2E",
"0 c #473B2F",
"q c #483C2F",
"w c #493D30",
"e c #4A3E31",
"r c #4B3F32",
"t c #4C4033",
"y c #4D4134",
"u c #4E4235",
"i c #4F4336",
"p c #504437",
"a c #514537",
"s c #524638",
"d c #534739",
"f c #54483A",
"g c #55493B",
"h c #564A3C",
"j c #574B3D",
"k c #584C3E",
"l c #594D3F",
"z c #5A4E40",
"x c #5B4F41",
"c c #5C5042",
"v c #5D5143",
"b c #5E5244",
"n c #5F5345",
"m c #605445",
"M c #615546",
"N c #625647",
"B c #635748",
"V c #645849",
"C c #65594A",
"Z c #665A4B",
"A c #675B4C",
"S c #685C4D",
"D c #695D4E",
"F c #6A5E4F",
"G c #6B5F50",
"H c #6C6051",
"J c #6D6152",
"K c #6E6253",
"L c #6F6354",
"P c #736758",
"I c #74685A",
"U c #75695B",
"Y c #766A5C",
"T c #776B5D",
"R c #786C5E",
"E c #796D5F",
"W c #7A6E60",
"Q c #7B6F61",
"! c #7C7062",
"~ c #7D7163",
"^ c #7E7264",
"/ c #7F7365",
"( c #807466",
/* pixels */
"@aREUg$llsdad$g~zvsfkf@df%kRupal",
"$mRFGj;kfhda0+jRCCsjtw$q7w@OO&+d",
"sRJGGs#ufp5,0$zYAZfh74&788#hdud@",
"hRFGV4%8r35*#fWNnvw,0%#&o#ORTRx+",
"fQgud2#<@O#apRpfhu7e#giggp (vbep",
"gigpd8,oqfhRUpdy412%zRY!!p$svgyi",
"fufpkr;o2mRphdfe;;;$0NpNd7Xrw2 a",
"ftfca95+0ws072@=@++%o7imt81$=2@d",
"r80tfq2OX%%O-+sIWE^U>2+w8,;o;;#o",
"#90f5e6$hjyw$8TWImdhk5o:2-6$oyfp",
"9+wg094*iR~z&gYWknfaj7wo#:#lj^/R",
"i@$#23@dRGHf%eAVCbisehye1#g^Ubxp",
"dOky#7hYHLDj@rZnvdfsdhph9@fQvvnf",
"a#WE@dDCHKHj+wAnBzhakjg0XhEmDxvs",
"&m!TOkRCxNi73ojkwzjajpaw.sRmcaw5",
"hRNcs*fp08hgw*tjk0wapl02+ubNB70O",
"QBmxq+wih95q=+20su07wy;+i#he<,+W",
"PhfarOrwgf3;*@>17ppsp1<OugX$oO3W",
"dhjp3@osp05<O3++@tr72-&a/TYg;o3s",
"dkh04>s&750&s/w50%+:@:$tRbxp:+2g",
"kcut#hE=%@:a~RERIjs@$+sEmbMjr5Oa",
"kpr2 p!=jtgIWSmvfs$y&fkEmvM73:1&",
"w00+nWv*u!RYVVMmhp@hc$#000>3;>2*",
"*=+gUfg%uQnZBlqyw#zY(ha+35%:@&&u",
"g-yYbh0+@gnMva0d0#dTWRIq@$o+2gfd",
"s@j!r+50h;$.gp068-hYbmuzrh$48dyg",
"5q%j@rdRYERf#q<;%rWECbkpj7=9rsai",
"0wO7@8GAGxvWs+**@qYvVayyh0O$+$hf",
"X7o@%dYCHnmf8OO+1wbbxdau3orqwpXo",
"a 88+jWbmpj3+::8+%;gisf95#yQYWpd",
"$gQPOydgjhw3+;3dudk*hgsw$gTgfpfs",
"&sPE$pdjkw7$210dhdjz*7rrOjEfpgdk"
};
