/* XPM */
static char *_620149432381[] = {
/* columns rows colors chars-per-pixel */
"64 64 130 2 ",
"   c #000000",
".  c #170E07",
"X  c #1F170C",
"o  c #1E180C",
"O  c #2A220F",
"+  c #2B2310",
"@  c #332B14",
"#  c #3F2F16",
"$  c #3E3016",
"%  c #2D2B26",
"&  c #2F2F2F",
"*  c #302E2F",
"=  c #2F2F31",
"-  c #302E31",
";  c #420101",
":  c #5A0000",
">  c #670001",
",  c #680001",
"<  c #670C0B",
"1  c #720000",
"2  c #7E0001",
"3  c #4B371C",
"4  c #4A381D",
"5  c #533E1F",
"6  c #732C00",
"7  c #4F3B23",
"8  c #523D22",
"9  c #513E2F",
"0  c #523F30",
"q  c #5E4423",
"w  c #5B472C",
"e  c #5B482A",
"r  c #564333",
"t  c #584234",
"y  c #5F4A37",
"u  c #5F4D39",
"i  c #604323",
"p  c #6B4727",
"a  c #6B4828",
"s  c #774F2B",
"d  c #794E2B",
"f  c #76502B",
"g  c #604B36",
"h  c #604B38",
"j  c #68533E",
"k  c #7F5330",
"l  c gray28",
"z  c #474749",
"x  c #685340",
"c  c #6E5843",
"v  c #705743",
"b  c #715844",
"n  c #785F40",
"m  c #775E4A",
"M  c #785F4B",
"N  c #7C634F",
"B  c #7C6251",
"V  c #800001",
"C  c #8B0101",
"Z  c #9A0000",
"A  c #A60000",
"S  c #B30101",
"D  c #BE0000",
"F  c #872301",
"G  c #952F01",
"H  c #9F3700",
"J  c #A03700",
"K  c #C00001",
"L  c #CB0101",
"P  c #D60000",
"I  c #E20001",
"U  c #EE0000",
"Y  c #FE0000",
"T  c #874207",
"R  c #884308",
"E  c #9B5B13",
"W  c #AF4400",
"Q  c #B74600",
"!  c #B84600",
"~  c #80542F",
"^  c #875733",
"/  c #8F5F37",
"(  c #905F37",
")  c #906038",
"_  c #9A633C",
"`  c #A46B3E",
"'  c #C44F00",
"]  c #C35000",
"[  c #CC5707",
"{  c #CC5805",
"}  c #D75E0B",
"|  c #D85F0C",
" . c #DE670D",
".. c #DF6710",
"X. c #F37417",
"o. c #FF7F1A",
"O. c #846B4C",
"+. c #846B57",
"@. c #856B5A",
"#. c #8F7753",
"$. c #8B735B",
"%. c #A46B40",
"&. c #AC6F43",
"*. c #937B63",
"=. c #9B7F6A",
"-. c #FE801A",
";. c #FF8F3B",
":. c #9F866F",
">. c #9F8670",
",. c #A08363",
"<. c #A68E76",
"1. c #A78E78",
"2. c #AF977F",
"3. c #CF8352",
"4. c #D08252",
"5. c #FFA35A",
"6. c #F7AB7A",
"7. c #F8AC7B",
"8. c #ECDB57",
"9. c #ECDB59",
"0. c #AF9680",
"q. c #B79F87",
"w. c #B89E87",
"e. c #B79E88",
"r. c #BFA78F",
"t. c #BFA690",
"y. c #C0A88E",
"u. c #C0A890",
"i. c #FECFB3",
"p. c #FFD0B6",
/* pixels */
"                                                                                                                                ",
"                                                                                                                                ",
"                                                                                                                                ",
"                                                                                                                                ",
"                                                                                                                                ",
"                                                                                                                                ",
"                                                                                                                                ",
"                                                                                                                                ",
"                                                                                                                                ",
"                                                                                                                                ",
"                                                                    K                                                           ",
"                                                                    D                                                           ",
"                                                                D K S                                                           ",
"                                                              I D S                                                             ",
"                                                          L L K D K                                                             ",
"                                                          2 Z D S [                                                             ",
"                                                        S 2 C Q S ..2                                                           ",
"                                                        Z Z 2 [ Q ..[ S I                                                       ",
"                                                        2 S 2 } Q [ ..Z D S S                                                   ",
"                                                    P Z ' D ] Q D I I D Y D S S                                                 ",
"                                                  L P X.V ] ..] I ! I I P L Z S I                                               ",
"                                                A P [ Z Z A ] U [ X. .I U D A Z K                                               ",
"                                                S S X.2 A ! P L } 5.X. .L I ] A [   2                                           ",
"                                                  2 S A L | U } X.9.5.X.| U ] L X.S V                                           ",
"                                              P Z 2 D A P X.U X.;.9.9.;.X.U Q P A ..Z Z P                                       ",
"                                            L L Z 2 [ A A ;.Y X.5.9.9.5.X.{ } A A L S Z L                                       ",
"                                          A L D 2 S X.D A ;.U ..5.5.5.5.....o.A K D L 2 D L                                     ",
"                                          S L Q A Y [ A *.] } o.r.r.r.r.o.X.5.*.[ ] P A Q L                                     ",
"                                          Z Z } D 8 D :.2.r.t.r.r.r.r.r.t.r.q.2.] [ ] P } Z Z                                   ",
"                        b B             D S 2 X.Y D $.>.<.2.q.r.r.r.r.r.t.q.0.<.>.$.} P X.2 S D             N v                 ",
"                        r b N :.*.$.+.m M B +.+.) D $.:.<.2.q.r.r.r.r.r.r.r.2.<.:.$.} / +.+.N N N +.$.*.=.N v r                 ",
"                          r v N N +.B N b j g h c N +.=.:.<.2.q.q.q.q.q.q.0.<.:.=.+.m b h g j j N B @.B N v r                   ",
"                            r h x v c m b x h h 3 b M @.$.:.:.1.2.2.2.2.<.,.>.$.+.m b 3 u y x c M c b x h r                     ",
"                                h h g G J W J F F h h x m +.$.*.*.:.,.=.*.$.@.M x y y F F H W H G y h h                         ",
"                                      r @ @ @ 1 1 0 r u c m B N +.+.+.+.B B M c y r 0 , 1 @ @ @ r                               ",
"                                          A 8 C 1 # 7 8 9 r r u g g g g y r r 0 7 3 3 A C 5 Q 2 2                               ",
"                                        V 2 E ' S o p 3 3 3 3 4 5 5 5 5 8 4 3 3 7 p X S Q [ D 2                                 ",
"                                        2 D W 2 > o k 8 7 i i q 5 5 8 5 5 i i 8 q k X : A L A 2                                 ",
"                                          2 2 > : o ^ q i p i i i i i i i i p q p ^ o : : 2 2                                   ",
"                                            S : o @ ^ ^ k s s s s s s s s s s k ^ ^ @ o : S                                     ",
"                                          V I > 5 ^ + + O 3 i i ~ ^ ^ ^ i i 3 + + + ^ 5 > I 2                                   ",
"                                          V > C + s : T 6 = * = * % % * & & & 6 R : s @ C S 2                                   ",
"                                            > D 3 w : 6 E 8.D & % &.p % & D 8.E 6 : e 3 @ >                                     ",
"                                            2 D @ O.1 2 D I < a ) O @ 3 / < I D 2 1 O.+ @ 2                                     ",
"                                            2 2 + n #.%./ / p ~ @   @ @ 3 ~ / / %.#.n + @                                       ",
"                                            2 1 + p 3 # 3 $ @ e O O a O e @ $ 3 # 4 p + @                                       ",
"                                            V L 2 p 3 @ @ O $ i a ) ` a i 3 O @ @ 3 p A I                                       ",
"                                              S L ; O + @ @ i q i s i s i i O @ + ; Z { C                                       ",
"                                              1 I Z 1 X @ $ i %.^ %.^ %.^ ) 3 @ . Z I D 2                                       ",
"                                                : S ] | _ a ! L 6.& & 6.L Q i _ | ] V 2                                         ",
"                                                  : > a 4 ! ! = & & = & & Q [ 4 p X X                                           ",
"                                                    X 8 , 1 p.* & & & - * i.1 , 8 X                                             ",
"                                                    X X k , 4.1 7.1 1 6.1 4.1 s X X                                             ",
"                                                      @ z 8 1 C S 1 1 S C 1 5 l @                                               ",
"                                                        @ i 8 5 i i q q 8 5 i @                                                 ",
"                                                          @ 3 d ^ / / ^ s 4 @                                                   ",
"                                                            $ @ @ @ @ @ @ @                                                     ",
"                                                                                                                                ",
"                                                                                                                                ",
"                                                                                                                                ",
"                                                                                                                                ",
"                                                                                                                                ",
"                                                                                                                                ",
"                                                                                                                                "
};
