/* XPM */
static char *_620151295556[] = {
/* columns rows colors chars-per-pixel */
"64 64 190 2 ",
"   c #000000",
".  c #050711",
"X  c #390011",
"o  c #150720",
"O  c #1B0021",
"+  c #000032",
"@  c #070835",
"#  c #0E0F3B",
"$  c #100F3B",
"%  c #17173D",
"&  c #18163D",
"*  c #1B1B3E",
"=  c #191635",
"-  c #131429",
";  c #2D1128",
":  c #281227",
">  c #391C21",
",  c #311426",
"<  c #2F0F2E",
"1  c #392639",
"2  c #3E282A",
"3  c #540000",
"4  c #5B0603",
"5  c #4D0A11",
"6  c #651106",
"7  c #600B04",
"8  c #4C261D",
"9  c #50201E",
"0  c #5B221B",
"q  c #77230C",
"w  c #7D270E",
"e  c #6F380F",
"r  c #712F15",
"t  c #6D3716",
"y  c #7C3611",
"u  c #703912",
"i  c #753313",
"p  c #550B2E",
"a  c #710E2A",
"s  c #493F39",
"d  c #473A37",
"f  c #5B3F3E",
"g  c #533733",
"h  c #502F2C",
"j  c #713A27",
"k  c #774329",
"l  c #654A3A",
"z  c #644839",
"x  c #67583D",
"c  c #7D502E",
"v  c #796737",
"b  c #1C1F42",
"n  c #262746",
"m  c #2D2D4A",
"M  c #2D2D47",
"N  c #2A2A54",
"B  c #393A52",
"V  c #171771",
"C  c #191772",
"Z  c #252678",
"A  c #454454",
"S  c #47475E",
"D  c #504F5F",
"F  c #56554B",
"G  c #6B5B43",
"H  c #6C504C",
"J  c #7D6050",
"K  c #444463",
"L  c #5C5B6B",
"P  c #5B5B65",
"I  c #676676",
"U  c #686777",
"Y  c #676678",
"T  c #71717D",
"R  c #6D6869",
"E  c #943E0B",
"W  c #873311",
"Q  c #883412",
"!  c #803E1C",
"~  c #8A350B",
"^  c #AA1729",
"/  c #AB182A",
"(  c #8E2B26",
")  c #8E122C",
"_  c #FE3B1D",
"`  c #FE2222",
"'  c #9F4A07",
"]  c #9B480B",
"[  c #884E1C",
"{  c #954C16",
"}  c #935114",
"|  c #A14B06",
" . c #A04B08",
".. c #A65201",
"X. c #AA5600",
"o. c #A6590A",
"O. c #A5590B",
"+. c #A85F10",
"@. c #B0670B",
"#. c #B1680C",
"$. c #AD6812",
"%. c #AA6B1C",
"&. c #A86215",
"*. c #AE701B",
"=. c #B67515",
"-. c #BB7617",
";. c #B67718",
":. c #B67A1B",
">. c #BA7718",
",. c #8B5D29",
"<. c #976A2D",
"1. c #9D7329",
"2. c #927D3E",
"3. c #9F7D3E",
"4. c #937132",
"5. c #84672F",
"6. c #A46023",
"7. c #B37924",
"8. c #C64C1D",
"9. c #FF5218",
"0. c #FE6C17",
"q. c #984E5B",
"w. c #857358",
"e. c #826375",
"r. c #BA821E",
"t. c #BB881F",
"y. c #97843F",
"u. c #BB8721",
"i. c #BC8822",
"p. c #BF8E28",
"a. c #BA8329",
"s. c #C0821F",
"d. c #FF9D0E",
"f. c #FFB50C",
"g. c #C58E23",
"h. c #C18B28",
"j. c #C39229",
"k. c #C5992C",
"l. c #CC992C",
"z. c #C9952F",
"x. c #C18E33",
"c. c #C99F31",
"v. c #C19F3B",
"b. c #CEA434",
"n. c #CCA139",
"m. c #D2AA39",
"M. c #D1A535",
"N. c #D4B13C",
"B. c #D9B43E",
"V. c #FFFF00",
"C. c #9B8D46",
"Z. c #9B954F",
"A. c #82835B",
"S. c #A6984A",
"D. c #B59F54",
"F. c #B8A349",
"G. c #AAAA54",
"H. c #938E6C",
"J. c #BB826E",
"K. c #BB9B68",
"L. c #AFA462",
"P. c #DEBB45",
"I. c #DFBC48",
"U. c #C8B04A",
"Y. c #DFD359",
"T. c #E3C644",
"R. c #E4CA4A",
"E. c #E3C748",
"W. c #E9D54F",
"Q. c #ECD94F",
"!. c #E9D250",
"~. c #EBD952",
"^. c #F4E95B",
"/. c #F1E156",
"(. c #CCCC6C",
"). c #FFFF66",
"_. c #2D2DAF",
"`. c #444588",
"'. c #4445BB",
"]. c #3435C3",
"[. c #4544CC",
"{. c #4344EE",
"}. c #898886",
"|. c #878989",
" X c #888888",
".X c #89878A",
"XX c #9A8E9B",
"oX c #FF9FA0",
"OX c #FEE893",
"+X c #FFDDDC",
/* pixels */
"                                                                                                                                ",
"                                                                                                                                ",
"                                                                                                                                ",
"                                                                                                                                ",
"                                                                                                                                ",
"                                                                                                                                ",
"                                                                                                                                ",
"                                                                                                                                ",
"                                                                                                                                ",
"                                                                                                                                ",
"                                                                                                                                ",
"                                                                                                                                ",
"                                                                                                                                ",
"                                                                                                                                ",
"              ^ a   a /             x 2.G.G.G.C.2.G.S.C.Z.G.G.G.G.C.C.G.C.2.G.S.y.5.c u 8                                       ",
"              ` /   / `             2.I.).).).R.P.).^.P.^.).).).).!.!.).!.I.).^.I.k.t.X.u                                       ",
"              ` ` ` ` `           X.T.).).).).).).I.P.P.^.).I.W.).W.P.P.^.).P.P.I.^.).X.' Q ;           p ` p                   ",
"          < p ` _ 0._ `           g.Q.).^.^.^.^.^.P.B.m.W.^.m.P.^.R.B.m.E.W.P.P.I.~.^.@.o.E ,           p ` ) p                 ",
"          / ` ` 0.V.0.`           ).).).P.I.I.I.P.P.m.i.m.P.u.k.P.P.b.i.i.i.P.P.P.P.I.t.:.X.>           p ` ` `                 ",
"          / ` f.d.0.( p       8 u )./.!.k.k.k.k.k.P.m.i.j.k.u.p.k.k.b.m.j.i.P.N.k.m.I.m.h.X.r 0       ^ 8.f.9.` / a             ",
"          a / V.f.` p         ,.g.^.T.m.t.p.k.k.k.m.c.u.j.k.i.p.k.p.k.P.b.k.m.b.k.b.m.m.j.@.] ]       ` 0.V.0.` / a             ",
"              V.f.` p         G.).P.p.i.u.k.P.I.I.i.i.u.m.I.i.k.I.j.k.P.P.P.i.k.P.k.u.u.i.i.#.X.      ` 0.V.0.`                 ",
"        m m m Z.K.oXe.K m d u v.W.P.k.i.m.b.k.k.k.i.i.i.j.k.i.k.P.N.N.P.M.l.m.M.k.M.m.u.j.m.&.E 0 1 m q.J.OXJ.q.m -             ",
"      . A A A Y XX+XXXI A z X.l.P.P.j.u.I.m.t.t.i.i.i.u.i.u.i.k.I.P.P.P.k.u.P.m.u.m.I.u.k.P.6.W Q f A Y XX+XXXI A m             ",
"              Y T  Xm     F ).!.P.i.i.i.P.m.i.i.t.u.;.X.X...X.X.X.X.#.u.t.i.I.m.u.m.P.P.m.u.i.i.Q ;   U T |.N                   ",
"              Y T  XS b > v ).T.m.k.p.i.m.M.k.p.i.:.$.' ..X. . .' ..+.%.r.u.m.b.k.b.m.m.b.k.k.k.E 9 ; U T |.m                   ",
"              U T  XT I X.g.).N.u.I.k.u.u.k.P.k.u...| Q ' X.Q Q W ' ' Q %.u.u.k.P.k.i.i.k.P.P.P.X.E Q U T |.m                   ",
"              U T  XL D T.E.W.l.u.I.N.m.m.b.k.;.@.E [ f z l f f f z f f 1.u.m.N.T.k.t.t.p.k.N.P.E ] | U T .XB                   ",
"              U T  XP A ).^.I.k.u.P.P.P.P.m.u.#.X.W j A A A A A A A A A 4.u.I.P.P.k.i.i.u.u.m.P.Q | X.I `.XXs                   ",
"              A P U ,.X.P.I.I.I.P.u.m.I.u.;.X.X.X.A m + + + + + + + % A A A ).W.t.M.P.P.I.P.k.u.u.#.X.Q k I b                   ",
"              m m K <.=.P.P.M.M.m.k.M.m.u.>.X.} [ m N V C V V C V V Z `.K A W.E.N.m.m.m.m.m.c.k.k.:.@.E k K .                   ",
"                    2.P.P.m.u.u.u.I.k.u.i.:.X.l A + V {.{.{.{.{.{.{.{.{.`.A i.N.).N.h.u.u.u.m.P.P.k.u.X.u                       ",
"                : e U.^.k.j.u.c.m.k.b.m.#.O.~ h % _.].{.{.{.{.{.{.{.{.{.[.'.G Z.).N.i.i.j.m.B.P.k.j.i.E y 0 o                   ",
"                > X.T.).u.h.i.m.P.t.m.P.X.' W ; + {.{.{.{.{.{.{.{.{.{.{.{.{.A A.).N.i.i.k.I.P.P.u.u.i.W W W ;                   ",
"                s I.P.P.I.m.u.i.t.I.k.h.X.[ A = + {.{.{.{.{.{.{.{.{.{.{.{.{.A G a.~.).I.m.u.m.P.I.k.i.X.| W ;                   ",
"              u 1.^.N.k.k.j.u.c.m.I.7.$.E t % @ + {.{.{.{.{.{.{.{.{.{.{.{.{.A F w.U.!.^.W.b.B.P.j.b.m.:.$.| r 0                 ",
"              X.g.).N.t.u.i.u.m.P.I.-.X.Q 0 + + + {.{.{.{.{.{.{.{.{.{.{.{.{.S D I F.P.).^.P.P.P.u.m.I.u.>.X.] W                 ",
"              I.P.P.k.u.u.k.P.k.s.i.#.X.A A A % + {.{.{.{.{.{.{.{.{.{.{.{.{.A D I 3.u.).^.P.k.u.P.P.P.i.:.X.X.X.                ",
"          : > !.T.m.c.k.k.c.m.j.u.;.o.' A B m # + {.{.{.{.{.{.{.{.{.{.{.{.{.A D I w.3.^.~.P.b.k.m.m.m.i.t.-.o.X.; o             ",
"          u X.).~.t.m.I.T.m.u.i.u.X.] W A M + + + {.{.{.{.{.{.{.{.{.{.{.{.{.A D I I I P.P.P.I.T.u.u.u.u.k.I.-.X.Q 0             ",
"          y.T.!.B.u.j.k.k.j.t.i.u.X.k f % b m # + {.{.{.{.{.{.{.{.{.{.{.{.{.A D I I I H.L.^.B.k.u.l.m.t.h.k.r.:.Q 0             ",
"          G.).I.m.u.u.u.u.u.t.s.i.X.z A + % A % + {.{.{.{.{.{.{.{.{.{.{.{.{.A D Y I I I H.).N.t.i.m.P.h.u.u.u.u.Q 0             ",
"      > X.l.P.t.k.I.k.i.I.P.P.-.X.W ; + A m + + + I.l.X.X.X.Q q 3 3 3 3 3 3 + & A L I I w.h.W.).P.k.u.P.I.P.k.u.X.] Q ;         ",
"      h -.M.P.j.b.I.k.i.I.B.m.=.X.j 1 % m n % @ + m.g.X.| ' Q w 6 4 3 3 3 3 + & A P I I R 3.Y.).I.b.k.P.P.P.b.k.#.O.Q ;         ",
"      s I.P.P.P.P.P.k.i.I.m.i.#.X.A A A + % A % + u.:.X.E Q Q W W 6 3 3 3 3 + & A L Y I Y Y (.).P.P.P.P.I.P.P.P.u.%.W ;         ",
"    8 1.^.B.k.P.P.P.k.u.k.i.#.] ] A n % m n % G 2.M.M.l.7.%.%.+.' ~ q q 4 3 X ; & B D I I Y S.N.^.R.P.P.N.z.N.I.i.;. .r 0       ",
"    e s.).N.u.P.P.P.k.i.i.;.X.E W A % + A m + 2.P.P.I.I.k.i.u.>...E W Q 6 3 3 X + m A I I I 3.u.).R.E.I.m.u.m.P.i.;.X.E W       ",
"    G.^.I.P.P.P.m.i.i.i.i.;.X.l A + M A + + + 2.P.I.m.i.@.X.X.X.X.X.' W Q Q 3 X + m A I I I I Y ).W.I.u.k.P.P.P.P.m.u.#.X.      ",
". > F.Q.m.B.I.m.b.k.p.i.;.$.' g M % n m + = s a.E.I.U.j.h.-.-.=.#.#.+.{ ] E 6 5 O * m P L I I I ~.W.!.u.j.m.m.m.I.N.k.@. .; o   ",
"> X.k.m.u.m.I.t.k.P.k.i.X.' Q ; + A = + + s P.P.I.I.P.P.P.P.P.m.u.i.i.u.@.X.W q 4 O + A D I I I u.~.).u.u.u.u.u.I.P.P.6.W W 0   ",
"F ).W.m.u.m.P.p.k.I.l.i.X.[ A A A + M A + s P.P.I.u.i.u.u.u.u.u.i.i.u.u.a.u.X. .W ; + A D U I I I (.).I.m.t.h.u.P.m.u.{ Q X.u   ",
"z T.n.u.%.h.l.%.7.x.:.:.X.} f f f ; g l ; g j.l.l.%.%.%.%.%.%.*.>.%.%.%.;.>.| ] E 9 : f H J J J H F.T.l.g.;.=.:.l.h.%.{ Q ' y ; ",
"t.t.u.u.I.I.u.u.P.P.X.X.I.I.X.X.Q Q Q Q 3 3 Q Q Q Q X.X.u.u.X.X.X.X.t.u.h.u.X.X.t.t.X.X.u.i.i.i.I.I.t.t.I.P.X.X.P.P.X.X.Q Q Q Q ",
"X.X.u.u.X.X.X.X.u.i.P.P.X.X.X.X.P.P.Q Q X.X.3 3 Q Q Q Q P.I.X.X.I.I.X.X.X.X.u.u.u.h.P.P.i.i.i.i.P.P.h.u.Q Q u.u.X.X.X.X.3 3 E ' ",
"X.X.h.t.X.X.X.X.i.i.P.P.X.X.X.X.P.P.Q Q X.X.3 3 Q Q Q Q P.I.X.X.P.I.X.X.X.X.u.u.u.h.P.P.i.i.p.i.P.P.u.u.Q Q u.u.X.X.X.X.3 3 E X.",
"X.X.P.P.Q Q u.h.P.P.P.P.u.u.X.X.P.P.I.I.X.X.Q Q X.X.Q Q Q Q X.X.u.u.I.I.u.u.X.X.u.i.u.u.u.i.X.X.P.I.I.P.X.X.I.P.i.i.W W 3 3 X.X.",
"X.X.P.P.W W i.i.P.P.P.P.u.u.X.X.I.P.P.I.X.X.Q Q X.X.Q Q Q Q X.X.u.u.P.P.u.u.X.X.i.i.i.i.u.u.X.X.P.P.P.P.X.X.P.P.i.i.Q Q 3 3 ' ' ",
"P.I.X.X.P.P.P.P.i.u.P.P.P.P.u.u.u.i.X.X.Q Q Q Q P.I.X.X.Q Q X.X.P.P.u.u.X.X.P.P.X.X.X.X.i.i.i.i.i.i.i.i.P.P.X.X.X.X.Q Q W Q Q Q ",
"P.P.X.X.P.P.P.P.i.i.P.P.P.P.p.u.i.i.X.X.Q Q Q Q I.I.X.X.Q Q X.X.I.P.u.t.X.X.P.P.X.X.X.X.i.i.i.i.i.i.i.i.P.P.X.X.X.X.W Q Q Q Q W ",
"i.i.i.u.t.i.P.P.X.X.X.X.i.i.X.X.i.i.Q Q X.X.I.P.B.P.u.u.Q Q I.P.P.I.I.P.P.P.P.P.i.i.X.X.X.X.i.i.P.P.X.X.i.i.P.P.X.X.W Q P.P.Q Q ",
"i.i.i.i.i.i.P.P.X.X.X.X.i.u.X.X.u.u.Q Q X.X.P.P.P.P.u.i.Q Q I.I.P.I.P.P.P.P.P.P.i.i.X.X.X.X.i.i.P.P.X.X.i.i.P.P.X.X.Q Q P.P.X.X.",
"i.i.W W P.P.X.X.X.X.i.i.X.X.P.P.u.h.Q Q X.X.P.P.u.i.X.X.X.X.u.u.t.u.P.I.u.u.u.u.P.P.i.t.X.X.Q Q P.P.i.i.X.X.P.P.Q Q Q Q X.X.'  .",
"i.i.W W P.P.X.X.X.X.i.i.X.X.P.P.u.u.Q Q X.X.I.P.i.i.X.X.X.X.u.u.u.u.I.I.i.i.i.i.P.P.i.i.X.X.Q W P.P.i.i.X.X.P.P.Q Q Q Q X.X.Q Q ",
"X.X.X.X.X.X.u.i.i.i.i.i.P.I...X.X.X.i.u.i.u.Q Q i.i.i.u.u.u.X.X.h.u.X.X.i.u.X.X.i.i.X.X.Q Q i.i.P.P.P.P.i.i.P.I.Q Q X.X.P.P.6 6 "
};
