/* XPM */
static char *_620140093288[] = {
/* columns rows colors chars-per-pixel */
"64 64 29 1 ",
"  c black",
". c #010000",
"X c #010101",
"o c #000002",
"O c #353533",
"+ c #343434",
"@ c #353535",
"# c #363435",
"$ c #353537",
"% c #00A700",
"& c #00A701",
"* c #02A702",
"= c #00A800",
"- c #01A800",
"; c #00A900",
": c #01A900",
"> c #02A901",
", c #01A802",
"< c #7FCF0C",
"1 c #7ECF0E",
"2 c #7FCF0E",
"3 c #7FD00F",
"4 c #82CF0F",
"5 c #80D00D",
"6 c #81D10E",
"7 c #80D00F",
"8 c #80CF11",
"9 c #81D110",
"0 c #83D010",
/* pixels */
"                                                                ",
"                                                                ",
"                                                                ",
"                                                                ",
"                                                                ",
"                                                                ",
"                                                                ",
"                                                                ",
"                                                                ",
"                                                                ",
"                                                                ",
"                                                                ",
"                                                                ",
"                                                                ",
"                                                                ",
"                                                                ",
"                                                                ",
"                                                                ",
"                                                                ",
"                                                                ",
"                                                                ",
"                                                                ",
"                                                                ",
"                                                                ",
"                                                                ",
"                                                                ",
"                                                                ",
"                                                                ",
"                                                                ",
"                                                                ",
"                                                                ",
"                                                                ",
"                 @@@@@@@@@@@@@@@@@@@@@@@@@@@@@@@@               ",
"                 @732929777797777777777777777777@               ",
"                 @&----977727-------------------@               ",
"                 @929--777777-77----------7-7-77@               ",
"                 @987--777777-37-----------7-777@               ",
"                 @297--323777-77----------7-7-77@               ",
"                 @877--747777-77-----------4-477@               ",
"                 @773--779777-77----------7-7-77@               ",
"                 @798--777777-77-----------7-792@               ",
"                 @777--777977-79----------7-7-73@               ",
"                 @777--777777-87---------&-9-772@               ",
"                 @779--773777-77---------&9-7-77@               ",
"                 @777--777773-77--------&--7-727@               ",
"                 @777--339777-77----------7&7-77@               ",
"                 @@@@@@O@@@@@@O@@@@@@@@@O@@@@@@@@               ",
"                   @+@@@@@@@@@@@@@@@@@@@@@@@@@@                 ",
"                   @777--77777-77--------7-783@                 ",
"                   @777--77777-77---------7-79@                 ",
"                   @777--77777-77--------7-777@                 ",
"                   @777--77777-77---------7-77@                 ",
"                   @777--77777-77--------3-777@                 ",
"                   @777--77777-77---------7-77@                 ",
"                   @777--77777-77--------7-793@                 ",
"                   @777--77777-77---------7-39@                 ",
"                   @777--77777-77--------7-777@                 ",
"                   @777--77777-77---------7-77@                 ",
"                   @777--77777-77--------7-777@                 ",
"                   @777--77777-77---------7-77@                 ",
"                   @777--77777-77--------3-777@                 ",
"                   @777--77777-77---------7-79@                 ",
"                   @777--77777-77--------7-777@                 ",
"                   @777--77777-77---------7-77@                 "
};
