/* XPM */
static char *_620133767322[] = {
/* columns rows colors chars-per-pixel */
"64 64 19 1 ",
"  c black",
". c #010000",
"X c #000100",
"o c #010101",
"O c #000201",
"+ c #000002",
"@ c #FD0000",
"# c #FD0100",
"$ c #FD0001",
"% c #FE0000",
"& c #FF0100",
"* c #FF0101",
"= c #FD0002",
"- c #FE0002",
"; c #FFFFFD",
": c #FEFEFE",
"> c #FFFEFF",
", c #FEFFFF",
"< c white",
/* pixels */
"                                                                ",
"                                                                ",
"                o     o                      oo                 ",
"                 oo                                             ",
"                    %                   o %                     ",
"                   % %                   % %                    ",
"                    -                     -o                    ",
"                                           o                    ",
"                                                                ",
"                 o                               o              ",
"                 o           o                                  ",
"                  o  o        %                                 ",
"                  o  o       % %                                ",
"                              %                    %            ",
"                o        o                        % %           ",
"                o%                                 %ooo         ",
"                % %                   o                         ",
"                 %                o     % oo                    ",
"                                    o  % % o o                  ",
"                                    o   %    ooo                ",
"                                     oo                         ",
"                                        oo                      ",
"                                   %    o                       ",
"                o                 % %  oo                       ",
"                         %         %  oo                        ",
"                        % %            o                        ",
"                         %                                      ",
"                                      oo                        ",
"                                                                ",
"                                                                ",
"                            <<<<<<<<<<<                         ",
"                           <           <                        ",
"                           <           <                        ",
"                            <         <                         ",
"                             <<     <<                          ",
"                               <   <                            ",
"                               <   <                            ",
"                               <   <                            ",
"                               <   <                            ",
"                               <   <                            ",
"                               <   <                            ",
"                               <   <                            ",
"                               <   <                            ",
"                               <   <                            ",
"                               <   <                            ",
"                               <   <                            ",
"                             <<<<<<<<<                          ",
"                           <<         <<                        ",
"                         <<  O  O       <<                      ",
"                     o  <           O     <                     ",
"                o      <%%            o  %%<                    ",
"                      <%%%%%%         %%%%%%<                   ",
"                o    <%%%%%%%%%%%%%%%%%%%%%%%<                  ",
"                     <%%%%%%%%%%%%%%%%%%%%%%%<                  ",
"                     <%%%%%%%%%     %%%%%%%%%<                  ",
"                     <%%%%%%%% %%%-- %%%%%%%%<                  ",
"                    O<%%%%%%%% % % % %%%%%%-%<                  ",
"                     <%%-%%%%% %%-%% %%%%%%%%<                  ",
"                   O  <%%%%%%%  %%%O %%%%%%%<                   ",
"                       <%%%%%%%% % %%%%%%%%<                    ",
"                        <%%%%%%%   %%%%%%%<                     ",
"                         <<%%%%%%%%%%%%%<<                      ",
"                           <<%%%%%%%%%<<    o                   ",
"                             <<<<<<<<<                          "
};
