/* XPM */
static char *_620157495482[] = {
/* columns rows colors chars-per-pixel */
"64 64 18 1 ",
"  c black",
". c #010000",
"X c #000100",
"o c #010101",
"O c #000002",
"+ c gray34",
"@ c #585858",
"# c gray35",
"$ c #001DFF",
"% c #021DFF",
"& c #001EFF",
"* c #011EFF",
"= c #001FFF",
"- c #021FFF",
"; c #FEFEFE",
": c #FFFEFF",
"> c #FEFFFF",
", c white",
/* pixels */
"                                                                ",
"                                                                ",
"                                                                ",
"                                                                ",
"                                                                ",
"                                                                ",
"                                                                ",
"                                                                ",
"                                                                ",
"                                                                ",
"                                                                ",
"                                                                ",
"                                                                ",
"                                                                ",
"                                                                ",
"                                                                ",
"                            --  --                              ",
"                            --  --                              ",
"                              --                                ",
"                              --                                ",
"                            --  --                              ",
"                            --  --                              ",
"                                              --                ",
"                                              --                ",
"                                                --              ",
"                                                --              ",
"                                                                ",
"                                                                ",
"                                                                ",
"                                                                ",
"                    =-                                          ",
"                    --                                          ",
"                      --                                        ",
"                      --                                        ",
"                                                                ",
"                                                                ",
"                            ,,,,,,,,,,,,                        ",
"                            ,,,,,,,,,,,,                        ",
"                          ,,@@@@@@@@@@@@,,                      ",
"                          ,,@@@@@@@@@@@@,,                      ",
"                            ,,@@@@@@@+,,                        ",
"                            ,,@@@@@@@@,,                        ",
"                              ,,    ,,                          ",
"                              ,,    ,,                          ",
"                              ,,    ,,                          ",
"                              ,,    ,,                          ",
"                              ,,    ,,                          ",
"                              ,,    ,,                          ",
"                            ,,,,    ,,,,                        ",
"                            ,,,,    ,,,,                        ",
"                          ,,            ,,                      ",
"                          ,,            ,,                      ",
"                        ,,$-            --,,                    ",
"                        ,,-$            --,,                    ",
"                        ,,-----$    -$$-$$,,                    ",
"                        ,,----$-    -$-$--,,                    ",
"                        ,,$-$-$----$-$-$$-;,                    ",
"                        ,;-$$$-$--$-$-$---,,                    ",
"                        ,,$-%-$--$-$-$-$--,,                    ",
"                        ,,-$--$-$-$-$-$---,,                    ",
"                          ,,-$-$-$-$-$-$,,                      ",
"                          ,,$-$-$-$-$-$-,,                      ",
"                            ,,,,,,,,,,,,                        ",
"                            ,,,,,,,,,,,,                        "
};
