/* XPM */
static char *_620223177807[] = {
/* columns rows colors chars-per-pixel */
"64 64 72 1 ",
"  c black",
". c #010000",
"X c #000100",
"o c #010101",
"O c #020001",
"+ c #000201",
"@ c #000002",
"# c #010002",
"$ c #020003",
"% c #49017F",
"& c #4A007E",
"* c #4B007F",
"= c #4C007F",
"- c #FD0000",
"; c #FD0100",
": c #FE0000",
"> c #FF0100",
", c #FF0101",
"< c #FE0002",
"1 c #FE7E00",
"2 c #FF7F00",
"3 c #FF7E02",
"4 c #FF7F02",
"5 c #00FE00",
"6 c green",
"7 c #01FF00",
"8 c #00FF01",
"9 c #01FF01",
"0 c #01FF02",
"q c #00FF03",
"w c #FD8000",
"e c #FF8000",
"r c #FF8100",
"t c #FF8001",
"y c #FD8002",
"u c #FEFE00",
"i c #FFFE00",
"p c #FEFF00",
"a c yellow",
"s c #FFFE01",
"d c #FEFF01",
"f c #FFFF01",
"g c #FFFF02",
"h c #490181",
"j c #4A0080",
"k c #4B0081",
"l c #490083",
"z c #4B0083",
"x c #4A0282",
"c c #4C0081",
"v c #4D0082",
"b c #4C0182",
"n c #4A0184",
"m c #0000FB",
"M c #0001FC",
"N c #0000FD",
"B c #0102FD",
"V c #0000FE",
"C c #0100FE",
"Z c #0001FE",
"A c #0101FF",
"S c #8D00FE",
"D c #8F00FE",
"F c #8F00FF",
"G c #8E01FF",
"H c #8F02FF",
"J c #9000FD",
"K c #9000FE",
"L c #9000FF",
"P c #9100FF",
"I c #9101FF",
"U c #9200FF",
/* pixels */
"                                                      a :       ",
"                 UO         $             I          $ A   $    ",
"         $  $    +O      +                      +O    b r       ",
"                                        +                       ",
"   I 9                  O                                       ",
"    :                        $a                                $",
"   A a  $   B                  A                  A             ",
"                         o                +:$   $            a$ ",
"                                                                ",
"                 I                                              ",
"    $                 O                                         ",
"       +                                          +             ",
"$ +    +                 +                           :          ",
"                           IIFIFIIFIFI              I  $        ",
"                       IFFIIIFFFIFIFFFIIII                      ",
"    :               FIIFIIIIFIFFFIFIIIIFIIIFI      +            ",
"+  I              FIIFIFFFFI*kkkkk*kkIFIFFIFIFI                 ",
"   +            IIIFFIFJFkb=kkkkkkkkkkkkIIFIFFIFI               ",
" $             IIFFIFF*kkk*kkkkk*kkkkkkkkkkFIFFFFF +            ",
"              IIIIIFIkkkkkkkkkkkkkkkkkkkk*k*IIFIFII          A  ",
"   ++        FIFFFFkkkkkkkkkk*bkkkkkkkkkkkkkkkIFIFII            ",
"           IIIFIIIkk*kkk**kkAAAmAAAAm*bkk**kkkkFFIFIFI          ",
"          FIFFIFFk*kkkkk*AAmAAAmmAAAAAAAkkkkkkkkIIFFIIF       $ ",
"          IFIFFFkkkkkkkAAAAAmAAAAAAmAmAmAAkkkkkbkFIIFII  ++$    ",
"  A     +IIIIFIkkkkk*AAAAmAAAAmmAAAAAAAAAmAA*kkkkkFFIIFI       +",
"        IIFIFIkkkkkkAAAmAAmAAAAAAmAAAmAmAmAmA*kkkkkFFFIFI       ",
"       IIFIFFFk*kkkAmAmAAAAAA99999999AAmAAAAAA*kkkkIIFIIIF      ",
"   O   FFIFIIkkkkkAAAAAmAA99999999999999AmAmmAAkkkkkIIFIII      ",
"  o   FFIIFIkkkkkAAAmAAAm9999999999999999AAAmAAmkkkkkFFIIFI     ",
"    + FIFIFFkkk*AAAmAAA999999aaaaaaaa999999AAmAAAkkkkIIFIIF     ",
" +   IIIIFII=bkAAAAAAA99999aaaaaaaaaaaa99999AAAAAA*kkIIFIFII    ",
" O   UIIFFFkkkkAAmAmm99999aaaaaaaaaaaaaa99999mmAAAkkkkFIFFII  $ ",
"     IIFIIFkkkmmmAmAA999qaaaaa1r1ry1aaaaa9999AAAmAmkkkFIFFFI    ",
"     FFIFFIkkkAAAAAA9999aaaa1r11111r1raaaa9999AAAAAkkkIFFIIF    ",
"    IFFFIIkkk*AmAAAA999aaaa11rr11r11111aaaa999AAmAA*kkkFIIFII   ",
"    FIFIIFkkkAAAAmA9999aaa3r111::::11rr1aaa99q9AAAAAkkkFFFIFI   ",
"    FFIFFF*kkAAmAAA999aaga11r::::::::11yaaaa999AAAAA**kFIFIII   ",
"    FIFIIFkk*AAAAmA999aaa11rr::::::::rr11aaa999AAmAmbkkFFIFFF   ",
"    IFIFIFkk*AAmmAA999aaar1r::::::::::111aaa999AmAmA*kkIFFFII   ",
"    FIFIFF*k*AAAAAA999aaa111::<:::::::1r1aaa999AAAAAkkkFFIIFI   ",
"    IFFFIFkkkAAAAAA999aaa1rr::::::::::r11aaa999AAAAA*kkFIFIFI   ",
"    IIFIFIkkkAmAAmA999aaa111::::::::::r1raaa999AmAmAkkkIFIFII   ",
"    IFIFFIkkkkAAAmA999aaaa111::<:::::11raaag999AAAAkkkkFIFIFI   ",
"     IFIIFIkkkAAAAAA999aaa11r::::<:::1r1aaa999AAAAAkkkFIFIFI    ",
"     FIIFJIbkkAAmmAm999aaaa1111::::r111aaaa9q9AAmAmkkkIIFFII    ",
"     IFFIFF*k**AAAAAA999aaaar1r1rr1r1raaaa999AAmAAkbkkIIFIFF    ",
"     IFFIIIFkkkAAAAAA999qaaaaa1111r1aaaaa999qAAAAAkkkFIIIFII    ",
"      FIFIFFkk**AmmAAA9999aaaaaaaagaaaaa9999AAAAA=kkkIFFFII     ",
"      IFIFFIkkkkkAAAAAm9999aaaaaaaaaaaa9999AAmAA*kk*kIFIFII     ",
"       IIIIFFkbkkkAmAmAAA9999aaaaaaaa9999AAmAAAk*kkkFIIFIF      ",
"       IFIFIIF*kkkkAmAmmAA99999999999999AAAAAmkkkkkFIFFIFI      ",
"        IFIFFIkkkkkkAAAAmAAAA99999999AAAmAAAAkkkkkkFFIIFI       ",
"  $    $ IFFFIFkkkkk*AAAAAmAAAAmAAmAAAAmAAmAkkkkkkFIFIIF      I ",
"  a$      IFIFFIkkkkkk*AmAAAmAAAAAAAmAmAAAk*kkkkkIIFIFI         ",
"          IFFFIFFkkkkkkkkAmAAmAmAAmAAAAAkkkkkkkkFFIIFFI         ",
"  O        FIFFIFFkkkkkkkkkkAAAAAmAAAkkkkkkkkkkIIFFIIF          ",
"$            IIIFIFkkkkkkbkkk*k****kkkkkkkkkkkFFIIII            ",
"              IIIFIFIkkbkkkkkkkkkkkkkkkkkkkkFFIFFFI             ",
"   :           IFIIIFIkkkkkkkkkkkkkkkkkkkkkIIFIIIF        I     ",
"    +           FFFFIFIFIkkkklkkkkkkk**kFIFFFFFII          :    ",
"       I          IIFIFFIFIF**k*k*kkkIFIFFIIFIF               O ",
"  $                 IIFFFIFIIFFIFFFFFFIFIFIFI                   ",
"       $               IIIIIFIFIIFFIIFFIII            a      A  ",
"   +                       FIDIFIFFIFI                          "
};
