/* XPM */
static char *_619966242145[] = {
/* columns rows colors chars-per-pixel */
"64 64 46 1 ",
"  c black",
". c #010000",
"X c #000100",
"o c #010101",
"O c #000002",
"+ c #191919",
"@ c #181A19",
"# c #1A1A18",
"$ c #1B191A",
"% c gray10",
"& c #1B1B1B",
"* c #191A1C",
"= c #1A1A1C",
"- c #262624",
"; c #272725",
": c #272526",
"> c #252726",
", c gray15",
"< c #272727",
"1 c #282627",
"2 c #262825",
"3 c #262827",
"4 c #272729",
"5 c #282629",
"6 c #282828",
"7 c #28282A",
"8 c #01631A",
"9 c #026419",
"0 c #474745",
"q c gray28",
"w c #464847",
"e c #474749",
"r c #484848",
"t c #019523",
"y c #009623",
"u c #009723",
"i c #009524",
"p c #009624",
"a c #009625",
"s c #009725",
"d c #009527",
"f c #009726",
"g c #6BFF75",
"h c #6CFF76",
"j c #8F8D8E",
"k c #8E8E8E",
/* pixels */
"                                                                ",
"                                                                ",
"                                                                ",
"                                                                ",
"                                                                ",
"                                                                ",
"                                                                ",
"                                                                ",
"                                                                ",
"                                                                ",
"                                                                ",
"                                                                ",
"                                                                ",
"                                                                ",
"                                                                ",
"                                                                ",
"                                                                ",
"                                                                ",
"                                                                ",
"                                                                ",
"                                                                ",
"                                                                ",
"                                                                ",
"                                                                ",
"                                                                ",
"                                                                ",
"                                                                ",
"                                                                ",
"                                                                ",
"                                                                ",
"                                                                ",
"                                                                ",
"                                                                ",
"                                                                ",
"                      qqerwqewqqqqrqqqqqqqq                     ",
"                     q<<jkkk13<5<<3<<<<4<<<q                    ",
"                   qq<<k5135<<<#++<<<<<<<<<<qq                  ",
"                 rq<<<k<1313<5<fff<<<<<3<<<<<<qe                ",
"               qq<<<<k<<4131#ffgttff#<<<<<*##<44rq              ",
"             qq<<<<<<<<13313#tfgifff#<<<<<44####66qq            ",
"             q4<<<<<<<<3<<<<#ftftftf#<4<<<<<<<<#<<<q            ",
"            r<4##<<<<<<<<<<<<4<fff8<<<<<<<<<<<<<<<<<q           ",
"            q<<#4<<<356<<<<<<<<###<<<<<<<4<<<-<<<<<<q           ",
"      rrqqqq<<#4<<<<1*##<<<<<<<<4<<<<<<<<#@#-<<<<<<<<qqqrqr     ",
"      r#<<<<3131<4<53tft<<<<<<6<4<<<<<4<<tff<<4<<<<<<<<64#r     ",
"      r*<<<<<31344#ifgtftf#<<<<<<<6<<<#ffgifif#<<<<<<<<<<#q     ",
"      q#<<<<<<3151#ftgfftf#<<<53<<<<<<#fthfitt+<<<<<<<<<4#q     ",
"      qeqqqq<<1313+fffftff*<<<<<<<<<1<*ffififf#4<<<<<qqqqeq     ",
"            r313<<<<<tff8<<<<<<<<<<<<<<<5fft8<<<<<<<r           ",
"            q131<<<<<###<<<<<<<<<<<<<<<<<###<<<<<<<<r           ",
"             q##<<<<<<<<<<<<<<<<<<<<<<<<<<<<<<<<<<<q            ",
"             er*##<<<<<<<<<<<4<<<<<<<<<<<<<<<<<4<<qq            ",
"               qe#5<<<63<<<<<<<<<<<<<<<<<<<<<*##qq              ",
"                 qq<<<<<<<<<<-<<<<<<<<<<<<<<4#eq                ",
"                   qq<63<<<<<<<<<<<<<<<<<kjkrr                  ",
"                     qr6<<<<<<<4<<<<<<<<kkqq                    ",
"                       rqqqqqqqqqqqqqqqqrq                      ",
"                                                                ",
"                                                                ",
"                                                                ",
"                                                                ",
"                                                                ",
"                                                                ",
"                                                                "
};
