/* XPM */
static char *_620344344042[] = {
/* columns rows colors chars-per-pixel */
"64 64 22 1 ",
"  c black",
". c #010000",
"X c #000100",
"o c #010100",
"O c #010101",
"+ c #000002",
"@ c #010002",
"# c #010103",
"$ c #515151",
"% c gray32",
"& c #6700FF",
"* c #6900FD",
"= c #6800FE",
"- c #6900FF",
"; c #6A00FF",
": c #848482",
"> c #858583",
", c #848484",
"< c gray52",
"1 c #848685",
"2 c #858587",
"3 c #868686",
/* pixels */
"                                                                ",
"                                                                ",
"                                                                ",
"                                                                ",
"                                                                ",
"                                                                ",
"                                                                ",
"                                                                ",
"                                                                ",
"                                                                ",
"                                                                ",
"                                                                ",
"                                                                ",
"                                                                ",
"                                                                ",
"                                                                ",
"                            ;;  ;;                              ",
"                            ;;  &; #                            ",
"                              ;;         X                      ",
"                              ;;                                ",
"                            ;;  ;&                              ",
"                            ;;  ;;                              ",
"                                          #   ;;                ",
"                                        X     ;;                ",
"                                                ;;    X         ",
"                                                ;;   #          ",
"                                                                ",
"                                                                ",
"                                                                ",
"                                                                ",
"                    ;;                                X         ",
"                    ;;                                          ",
"                      ;;                                        ",
"                      ;;                     #                  ",
"                                                                ",
"                                                                ",
"                   #        2>2>2>>>3111                        ",
"                            >2>2>2>>1113                        ",
"                          33%%%%%%%%%%%%33                      ",
"                          31$%%%%%%%%%%%13                      ",
"                            11%%%%%%%%>2                        ",
"                            13%%%%%%%%>>                        ",
"                              33    13                          ",
"                              31    31                          ",
"                              2>    23                          ",
"                              >2    31                          ",
"                              2>    2>                          ",
"                              >2    22                          ",
"                            >2>>    2>11                        ",
"                            1112    >221  #                     ",
"                          31            33                      ",
"                          23            31                      ",
"                        1>;&            ;;11                    ",
"                        13;;            ;;21                    ",
"                        >>;;;&;;    ;&;&;;3>                    ",
"                        1>;;;;;&    ;&;;;;>2                    ",
"                        1>&;;&&;;;;;&&;;;&11                    ",
"                        11*&;;;&;;&;;;;&;;11                    ",
"                        >2;;&;&;;&;;;;;&;;13                    ",
"                        2>&;&;;;;;;&&&;;;;>1                    ",
"                          11;;;&;&;;;;;&13                      ",
"                          21;;&;;;;;;&;;33                      ",
"                            2212112>2211  #                     ",
"                            >>>>21>2>111  #                     "
};
