/* XPM */
static char *_620048134484[] = {
/* columns rows colors chars-per-pixel */
"64 64 19 1 ",
"  c black",
". c #000100",
"X c #010101",
"o c #2C2C2A",
"O c #2C2C2C",
"+ c #2D2D2D",
"@ c #2E2C2D",
"# c #2C2E2D",
"$ c #2C2C2E",
"% c #2F2D2E",
"& c #2E2C2F",
"* c gray18",
"= c #FE0000",
"- c gray77",
"; c #C5C5C5",
": c #C6C6C6",
"> c #FFFFFD",
", c #FEFEFE",
"< c white",
/* pixels */
"                                                                ",
"                                                                ",
"                                                                ",
"                                                                ",
"                                                                ",
"                                                                ",
"                                                                ",
"                                                                ",
"                                                                ",
"                                                                ",
"                                                                ",
"                                                                ",
"                                                                ",
"                                                                ",
"                                                                ",
"                                                                ",
"                                                                ",
"                                                                ",
"                                                                ",
"                                                                ",
"                                                                ",
"                                                                ",
"                                                     <<         ",
"                                                     <<         ",
"                                                    <<<         ",
"            <<<<<<<<<<<<<                         <<++<         ",
"         <<<<+++++++++++<<<                      <<+++<         ",
"       <<<+++++;;;++++++++<<<                  <<<++;+<         ",
"     <<++++++;;++++++++++++;<<<             <<<<+++;++<         ",
"     <;+++O+;++++++++++++++;;;<<<<<<<<<<<<<<;;;;++;+++<         ",
"     <;+++++++++++++++++++++++++++++;;;;;;;;;+++++++++<         ",
"     <;++++++O+++++++++++++++++++++++++++++++++++++O++<         ",
"     <;+++++++++++++++++++++++++++++++++++++++++++++++<         ",
"     <;+++++++++++++++++++++++++++++++++++++++++++++++<         ",
"     <;+++++++++++++++++++++++++++++++++++++++++++++++<         ",
"     <;+++++++++++++++++++++++++++++++++++++++++++++++<         ",
"     <;+++++++++++++++++++++++++++++++++++++++++++++++<         ",
"     <;++++++++++++++++++++O++++++++++++++++++++++++++<         ",
"     <;+++++++++++++++++++++++++++++++++++++++++++++++<         ",
"     ;+++++++++++++++++++++++++<++++++++++++++++++++++<         ",
"     ;++++++++++++++++++++++<<++<+++++++++++++++++++++<         ",
"     ;++++O+++++++++++++++++++++++++++++++++O+O+++++++<         ",
"     ;++++++++++++++++++O+<<++++O<+++++++++++++++=+=Oo<         ",
"     ;++++++++++++++++++++++++++++<+++++++++++++++=+++<         ",
"     ;+++++O+++++++++O++<<O++++++++++++++++++++++=+=+#<         ",
"     ;++++++++++++++++<++O+++++++++<O++++++++++<++++++<         ",
"     ;++++++<<+<<+<<+<+++++++++++++<++++++++++<++++++#<         ",
"     ;++++<+++++++++++++++++++++++++++++++++++++++++++<         ",
"     ;+++<++++O+++++++++++++++++++++<++++++++<++++++++<         ",
"     <+++++++O++O++++++++++++++++++++<+++++++<+++$++++<         ",
"     <++<+++++++++++O++++++++++++++O++++++++++O+++++++<         ",
"     <+<++++++++O++++++++++++++++++++++<+++<++++++++++<         ",
"     <++++++O++<<<<<<<++++++++++++++++++<+<++++++++;;+<         ",
"     <++++++<<<<     <<<<<+++++++++++++++++++++++;;+++<         ",
"     <++++<<<            <<<++++++++++++++++++++;+++<<<         ",
"     <++<<<                <<<<;;;;+++++++++++++++<<<           ",
"     <<<<                     <<<<;;;;;;+++++++<<<<             ",
"      <                           <<<<<<<<<<<<<                 ",
"                                                                ",
"                                                                ",
"                                                                ",
"                                                                ",
"                                                                ",
"                                                                "
};
