/* XPM */
static char *_619965239419[] = {
/* columns rows colors chars-per-pixel */
"64 64 18 1 ",
"  c black",
". c #010000",
"X c #000100",
"o c #010100",
"O c #010101",
"+ c #000002",
"@ c #7D0000",
"# c #7D0101",
"$ c #7E0001",
"% c #7F0102",
"& c #800001",
"* c #FC0000",
"= c #FD0000",
"- c #FD0100",
"; c #FE0000",
": c #FF0100",
"> c #FF0101",
", c #FE0002",
/* pixels */
"                                                                ",
"                                                                ",
"                                                                ",
"                                                                ",
"                                                                ",
"                                                                ",
"                                                                ",
"                                                                ",
"                                                                ",
"                                                                ",
"                                                                ",
"                                                                ",
"                                                                ",
"                                                                ",
"                                                                ",
"                                                                ",
"                                                                ",
"                                                                ",
"                                                                ",
"                                                                ",
"                                                                ",
"                                                                ",
"                                                                ",
"                                                                ",
"                                                                ",
"                                                                ",
"                                                                ",
"                                                                ",
"                                                                ",
"                                                                ",
"                                                                ",
"                                                                ",
"                                                                ",
"                              O                                 ",
"                             ;;>;;;                             ",
"                           ;;;$$$$;;;                           ",
"                          >;$;;;;;;;;;                          ",
"                         ;;$;;;>;;;;$;;                         ",
"                         ;$;;;;;;;;;;$;                         ",
"                        ;;;;;;;;;;;;;;&;                        ",
"                        ;$;;;;;  ;;;;;>;                        ",
"                        ;$;;;;    ;;,;;;                        ",
"                        ;$;;,;    ;;;;;;                        ",
"                        ;;;;;;;  ;;;;;>;                        ",
"                         ;;;;;;;;;;;;;,                         ",
"                         ;;;;;;;;,;;;;;                         ",
"                        O >;;>;;;;$$;;                          ",
"                           ;;;;;$$;;;                           ",
"                             ;;;;;;                             ",
"                             ;;;                                ",
"                             ;$;;                               ",
"                          O  ;$;$; O                            ",
"                             ;$;;$;    O                        ",
"                         O   ;$;;;                              ",
"                             ;$>;                               ",
"                             ;$;$; O                            ",
"                             ;$;;$;   O                         ",
"                             >#;;;                              ",
"                        + +  ;$;>     O                         ",
"                             ;#;$;                              ",
"                        O    ;$;;$;  O                          ",
"                          O  ;$;;;                              ",
"                             ;>;   +  O                         ",
"                          O  O O       O                        "
};
